G04 #@! TF.GenerationSoftware,KiCad,Pcbnew,(5.1.5)-3*
G04 #@! TF.CreationDate,2020-09-03T10:53:21+10:00*
G04 #@! TF.ProjectId,Boni_3.0_1,426f6e69-5f33-42e3-905f-312e6b696361,rev?*
G04 #@! TF.SameCoordinates,Original*
G04 #@! TF.FileFunction,Soldermask,Bot*
G04 #@! TF.FilePolarity,Negative*
%FSLAX46Y46*%
G04 Gerber Fmt 4.6, Leading zero omitted, Abs format (unit mm)*
G04 Created by KiCad (PCBNEW (5.1.5)-3) date 2020-09-03 10:53:21*
%MOMM*%
%LPD*%
G04 APERTURE LIST*
%ADD10C,5.000102*%
%ADD11C,1.600102*%
%ADD12R,1.500102X1.600102*%
%ADD13C,3.000102*%
%ADD14R,1.000102X1.000102*%
%ADD15C,0.500101*%
%ADD16R,1.600102X1.600102*%
%ADD17R,1.530102X1.530102*%
%ADD18C,1.530102*%
%ADD19C,1.320902*%
G04 APERTURE END LIST*
D10*
G04 #@! TO.C,Drill1*
X189420500Y-110045500D03*
G04 #@! TD*
G04 #@! TO.C,Drill1*
X189420500Y-66865500D03*
G04 #@! TD*
D11*
G04 #@! TO.C,J1*
X91313000Y-76596000D03*
X91313000Y-74096000D03*
X91313000Y-72096000D03*
D12*
X91313000Y-69596000D03*
D13*
X88603000Y-79666000D03*
X88603000Y-66526000D03*
G04 #@! TD*
D14*
G04 #@! TO.C,TP18*
X103886000Y-88138000D03*
G04 #@! TD*
G04 #@! TO.C,TP17*
X129921000Y-85471000D03*
G04 #@! TD*
G04 #@! TO.C,TP16*
X129921000Y-80264000D03*
G04 #@! TD*
G04 #@! TO.C,TP15*
X97282000Y-81915000D03*
G04 #@! TD*
G04 #@! TO.C,TP14*
X99441000Y-82677000D03*
G04 #@! TD*
G04 #@! TO.C,TP13*
X101346000Y-85471000D03*
G04 #@! TD*
G04 #@! TO.C,TP12*
X121793000Y-91948000D03*
G04 #@! TD*
G04 #@! TO.C,TP11*
X125730000Y-72644000D03*
G04 #@! TD*
G04 #@! TO.C,TP10*
X105283000Y-91313000D03*
G04 #@! TD*
G04 #@! TO.C,TP9*
X127889000Y-84201000D03*
G04 #@! TD*
G04 #@! TO.C,TP8*
X127889000Y-73914000D03*
G04 #@! TD*
G04 #@! TO.C,TP7*
X126111000Y-81534000D03*
G04 #@! TD*
G04 #@! TO.C,TP6*
X119253000Y-94615000D03*
G04 #@! TD*
G04 #@! TO.C,TP5*
X130048000Y-82804000D03*
G04 #@! TD*
G04 #@! TO.C,TP4*
X125984000Y-77851000D03*
G04 #@! TD*
G04 #@! TO.C,TP3*
X131826000Y-86614000D03*
G04 #@! TD*
G04 #@! TO.C,TP2*
X103632000Y-84201000D03*
G04 #@! TD*
G04 #@! TO.C,TP1*
X101600000Y-87757000D03*
G04 #@! TD*
D15*
G04 #@! TO.C,U2*
X87494999Y-101092000D03*
X86495001Y-101092000D03*
X86995000Y-100467000D03*
X86995000Y-101717000D03*
G04 #@! TD*
D11*
G04 #@! TO.C,J6*
X181102000Y-101981000D03*
D16*
X181102000Y-99441000D03*
G04 #@! TD*
D11*
G04 #@! TO.C,J5*
X181229000Y-86868000D03*
D16*
X181229000Y-84328000D03*
G04 #@! TD*
D11*
G04 #@! TO.C,J4*
X183007000Y-69596000D03*
D16*
X183007000Y-67056000D03*
G04 #@! TD*
D17*
G04 #@! TO.C,J3*
X138811000Y-67691000D03*
D18*
X136271000Y-67691000D03*
X133731000Y-67691000D03*
X131191000Y-67691000D03*
G04 #@! TD*
D19*
G04 #@! TO.C,J2*
X80772000Y-84581999D03*
X80772000Y-86582001D03*
G04 #@! TD*
M02*
