G04 #@! TF.GenerationSoftware,KiCad,Pcbnew,(5.1.5)-3*
G04 #@! TF.CreationDate,2020-09-03T10:53:21+10:00*
G04 #@! TF.ProjectId,Boni_3.0_1,426f6e69-5f33-42e3-905f-312e6b696361,rev?*
G04 #@! TF.SameCoordinates,Original*
G04 #@! TF.FileFunction,Copper,L1,Top*
G04 #@! TF.FilePolarity,Positive*
%FSLAX46Y46*%
G04 Gerber Fmt 4.6, Leading zero omitted, Abs format (unit mm)*
G04 Created by KiCad (PCBNEW (5.1.5)-3) date 2020-09-03 10:53:21*
%MOMM*%
%LPD*%
G04 APERTURE LIST*
G04 #@! TA.AperFunction,EtchedComponent*
%ADD10C,0.152400*%
G04 #@! TD*
G04 #@! TA.AperFunction,ComponentPad*
%ADD11C,5.000000*%
G04 #@! TD*
G04 #@! TA.AperFunction,SMDPad,CuDef*
%ADD12R,0.660400X0.508000*%
G04 #@! TD*
G04 #@! TA.AperFunction,SMDPad,CuDef*
%ADD13C,0.100000*%
G04 #@! TD*
G04 #@! TA.AperFunction,SMDPad,CuDef*
%ADD14R,1.000000X1.000000*%
G04 #@! TD*
G04 #@! TA.AperFunction,SMDPad,CuDef*
%ADD15R,1.955800X2.260600*%
G04 #@! TD*
G04 #@! TA.AperFunction,SMDPad,CuDef*
%ADD16R,2.260600X1.955800*%
G04 #@! TD*
G04 #@! TA.AperFunction,SMDPad,CuDef*
%ADD17R,0.990600X0.863600*%
G04 #@! TD*
G04 #@! TA.AperFunction,SMDPad,CuDef*
%ADD18R,2.000000X0.900000*%
G04 #@! TD*
G04 #@! TA.AperFunction,SMDPad,CuDef*
%ADD19R,0.900000X2.000000*%
G04 #@! TD*
G04 #@! TA.AperFunction,SMDPad,CuDef*
%ADD20R,5.000000X5.000000*%
G04 #@! TD*
G04 #@! TA.AperFunction,ComponentPad*
%ADD21C,1.600000*%
G04 #@! TD*
G04 #@! TA.AperFunction,ComponentPad*
%ADD22R,1.500000X1.600000*%
G04 #@! TD*
G04 #@! TA.AperFunction,ComponentPad*
%ADD23C,3.000000*%
G04 #@! TD*
G04 #@! TA.AperFunction,ComponentPad*
%ADD24R,1.000000X1.000000*%
G04 #@! TD*
G04 #@! TA.AperFunction,SMDPad,CuDef*
%ADD25R,1.498600X0.558800*%
G04 #@! TD*
G04 #@! TA.AperFunction,SMDPad,CuDef*
%ADD26R,0.812800X0.254000*%
G04 #@! TD*
G04 #@! TA.AperFunction,SMDPad,CuDef*
%ADD27R,1.752600X2.489200*%
G04 #@! TD*
G04 #@! TA.AperFunction,SMDPad,CuDef*
%ADD28R,0.800000X1.050000*%
G04 #@! TD*
G04 #@! TA.AperFunction,SMDPad,CuDef*
%ADD29R,1.473200X0.355600*%
G04 #@! TD*
G04 #@! TA.AperFunction,SMDPad,CuDef*
%ADD30R,1.270000X0.508000*%
G04 #@! TD*
G04 #@! TA.AperFunction,SMDPad,CuDef*
%ADD31O,0.599999X0.299999*%
G04 #@! TD*
G04 #@! TA.AperFunction,SMDPad,CuDef*
%ADD32R,1.500000X1.749999*%
G04 #@! TD*
G04 #@! TA.AperFunction,ComponentPad*
%ADD33C,0.499999*%
G04 #@! TD*
G04 #@! TA.AperFunction,SMDPad,CuDef*
%ADD34R,1.060000X0.650000*%
G04 #@! TD*
G04 #@! TA.AperFunction,SMDPad,CuDef*
%ADD35R,0.900000X1.000000*%
G04 #@! TD*
G04 #@! TA.AperFunction,SMDPad,CuDef*
%ADD36R,1.700000X0.550000*%
G04 #@! TD*
G04 #@! TA.AperFunction,SMDPad,CuDef*
%ADD37R,0.584200X0.685800*%
G04 #@! TD*
G04 #@! TA.AperFunction,SMDPad,CuDef*
%ADD38R,0.799998X0.755599*%
G04 #@! TD*
G04 #@! TA.AperFunction,SMDPad,CuDef*
%ADD39R,2.220000X1.240000*%
G04 #@! TD*
G04 #@! TA.AperFunction,ComponentPad*
%ADD40R,1.600000X1.600000*%
G04 #@! TD*
G04 #@! TA.AperFunction,ComponentPad*
%ADD41R,1.530000X1.530000*%
G04 #@! TD*
G04 #@! TA.AperFunction,ComponentPad*
%ADD42C,1.530000*%
G04 #@! TD*
G04 #@! TA.AperFunction,ComponentPad*
%ADD43C,1.320800*%
G04 #@! TD*
G04 #@! TA.AperFunction,SMDPad,CuDef*
%ADD44R,1.000000X1.100000*%
G04 #@! TD*
G04 #@! TA.AperFunction,SMDPad,CuDef*
%ADD45R,0.812800X0.863600*%
G04 #@! TD*
G04 #@! TA.AperFunction,SMDPad,CuDef*
%ADD46R,1.100000X1.000000*%
G04 #@! TD*
G04 #@! TA.AperFunction,SMDPad,CuDef*
%ADD47R,1.305598X1.449997*%
G04 #@! TD*
G04 #@! TA.AperFunction,SMDPad,CuDef*
%ADD48R,0.863600X0.812800*%
G04 #@! TD*
G04 #@! TA.AperFunction,SMDPad,CuDef*
%ADD49R,0.890000X0.930000*%
G04 #@! TD*
G04 #@! TA.AperFunction,SMDPad,CuDef*
%ADD50R,1.080000X1.420000*%
G04 #@! TD*
G04 #@! TA.AperFunction,ViaPad*
%ADD51C,0.800000*%
G04 #@! TD*
G04 #@! TA.AperFunction,Conductor*
%ADD52C,0.508000*%
G04 #@! TD*
G04 #@! TA.AperFunction,Conductor*
%ADD53C,0.254000*%
G04 #@! TD*
G04 #@! TA.AperFunction,Conductor*
%ADD54C,0.381000*%
G04 #@! TD*
G04 #@! TA.AperFunction,Conductor*
%ADD55C,0.250000*%
G04 #@! TD*
G04 APERTURE END LIST*
D10*
G04 #@! TO.C,R6*
X137617200Y-79705200D02*
X137617200Y-79298800D01*
X137972800Y-79705200D02*
X137617200Y-79705200D01*
X137972800Y-79298800D02*
X137972800Y-79705200D01*
X137617200Y-79298800D02*
X137972800Y-79298800D01*
G04 #@! TO.C,D3*
X81026000Y-105003600D02*
X81026000Y-108864400D01*
X78740000Y-105003600D02*
X81026000Y-105003600D01*
X78740000Y-108864400D02*
X78740000Y-105003600D01*
X81026000Y-108864400D02*
X78740000Y-108864400D01*
G04 #@! TO.C,D2*
X84480400Y-96139000D02*
X80619600Y-96139000D01*
X84480400Y-93853000D02*
X84480400Y-96139000D01*
X80619600Y-93853000D02*
X84480400Y-93853000D01*
X80619600Y-96139000D02*
X80619600Y-93853000D01*
G04 #@! TO.C,D1*
X92735400Y-96139000D02*
X88874600Y-96139000D01*
X92735400Y-93853000D02*
X92735400Y-96139000D01*
X88874600Y-93853000D02*
X92735400Y-93853000D01*
X88874600Y-96139000D02*
X88874600Y-93853000D01*
G04 #@! TO.C,FB1*
X98361500Y-111061500D02*
X98361500Y-110426500D01*
X98361500Y-110426500D02*
X99250500Y-110426500D01*
X99250500Y-110426500D02*
X99250500Y-111061500D01*
X99250500Y-111061500D02*
X98361500Y-111061500D01*
G04 #@! TO.C,R26*
X170103800Y-104940100D02*
X170103800Y-104355900D01*
X170510200Y-104940100D02*
X170103800Y-104940100D01*
X170510200Y-104355900D02*
X170510200Y-104940100D01*
X170103800Y-104355900D02*
X170510200Y-104355900D01*
G04 #@! TO.C,R23*
X169976800Y-88938100D02*
X169976800Y-88353900D01*
X170383200Y-88938100D02*
X169976800Y-88938100D01*
X170383200Y-88353900D02*
X170383200Y-88938100D01*
X169976800Y-88353900D02*
X170383200Y-88353900D01*
G04 #@! TO.C,R20*
X172135800Y-71843900D02*
X172542200Y-71843900D01*
X172542200Y-71843900D02*
X172542200Y-72428100D01*
X172542200Y-72428100D02*
X172135800Y-72428100D01*
X172135800Y-72428100D02*
X172135800Y-71843900D01*
G04 #@! TO.C,R5*
X100234801Y-110394801D02*
X100933199Y-110394801D01*
X100234801Y-111093199D02*
X100234801Y-110394801D01*
X100933199Y-111093199D02*
X100234801Y-111093199D01*
X100933199Y-110394801D02*
X100933199Y-111093199D01*
G04 #@! TO.C,R4*
X100533200Y-73990200D02*
X100533200Y-73583800D01*
X100888800Y-73990200D02*
X100533200Y-73990200D01*
X100888800Y-73583800D02*
X100888800Y-73990200D01*
X100533200Y-73583800D02*
X100888800Y-73583800D01*
G04 #@! TO.C,C55*
X176504600Y-108064300D02*
X175793400Y-108064300D01*
X176504600Y-107581700D02*
X176504600Y-108064300D01*
X175793400Y-107581700D02*
X176504600Y-107581700D01*
X175793400Y-108064300D02*
X175793400Y-107581700D01*
G04 #@! TO.C,C50*
X170281600Y-107810300D02*
X169570400Y-107810300D01*
X170281600Y-107327700D02*
X170281600Y-107810300D01*
X169570400Y-107327700D02*
X170281600Y-107327700D01*
X169570400Y-107810300D02*
X169570400Y-107327700D01*
G04 #@! TO.C,C48*
X176377600Y-92951300D02*
X175666400Y-92951300D01*
X176377600Y-92468700D02*
X176377600Y-92951300D01*
X175666400Y-92468700D02*
X176377600Y-92468700D01*
X175666400Y-92951300D02*
X175666400Y-92468700D01*
G04 #@! TO.C,C43*
X170154600Y-93078300D02*
X169443400Y-93078300D01*
X170154600Y-92595700D02*
X170154600Y-93078300D01*
X169443400Y-92595700D02*
X170154600Y-92595700D01*
X169443400Y-93078300D02*
X169443400Y-92595700D01*
G04 #@! TO.C,C41*
X175793400Y-75425300D02*
X175793400Y-74942700D01*
X175793400Y-74942700D02*
X176504600Y-74942700D01*
X176504600Y-74942700D02*
X176504600Y-75425300D01*
X176504600Y-75425300D02*
X175793400Y-75425300D01*
G04 #@! TO.C,C36*
X170967400Y-75171300D02*
X170967400Y-74688700D01*
X170967400Y-74688700D02*
X171678600Y-74688700D01*
X171678600Y-74688700D02*
X171678600Y-75171300D01*
X171678600Y-75171300D02*
X170967400Y-75171300D01*
G04 #@! TO.C,C34*
X152300800Y-107989199D02*
X152300800Y-106640801D01*
X152499200Y-107989199D02*
X152300800Y-107989199D01*
X152499200Y-106640801D02*
X152499200Y-107989199D01*
X152300800Y-106640801D02*
X152499200Y-106640801D01*
G04 #@! TO.C,C32*
X160248600Y-103111300D02*
X159537400Y-103111300D01*
X160248600Y-102628700D02*
X160248600Y-103111300D01*
X159537400Y-102628700D02*
X160248600Y-102628700D01*
X159537400Y-103111300D02*
X159537400Y-102628700D01*
G04 #@! TO.C,C30*
X156095700Y-107670600D02*
X156095700Y-106959400D01*
X156578300Y-107670600D02*
X156095700Y-107670600D01*
X156578300Y-106959400D02*
X156578300Y-107670600D01*
X156095700Y-106959400D02*
X156578300Y-106959400D01*
G04 #@! TO.C,C28*
X152300800Y-92241199D02*
X152300800Y-90892801D01*
X152499200Y-92241199D02*
X152300800Y-92241199D01*
X152499200Y-90892801D02*
X152499200Y-92241199D01*
X152300800Y-90892801D02*
X152499200Y-90892801D01*
G04 #@! TO.C,C26*
X160375600Y-86728300D02*
X159664400Y-86728300D01*
X160375600Y-86245700D02*
X160375600Y-86728300D01*
X159664400Y-86245700D02*
X160375600Y-86245700D01*
X159664400Y-86728300D02*
X159664400Y-86245700D01*
G04 #@! TO.C,C24*
X155968700Y-91922600D02*
X155968700Y-91211400D01*
X156451300Y-91922600D02*
X155968700Y-91922600D01*
X156451300Y-91211400D02*
X156451300Y-91922600D01*
X155968700Y-91211400D02*
X156451300Y-91211400D01*
G04 #@! TO.C,C22*
X154205800Y-73874801D02*
X154404200Y-73874801D01*
X154404200Y-73874801D02*
X154404200Y-75223199D01*
X154404200Y-75223199D02*
X154205800Y-75223199D01*
X154205800Y-75223199D02*
X154205800Y-73874801D01*
G04 #@! TO.C,C20*
X161315400Y-70345300D02*
X161315400Y-69862700D01*
X161315400Y-69862700D02*
X162026600Y-69862700D01*
X162026600Y-69862700D02*
X162026600Y-70345300D01*
X162026600Y-70345300D02*
X161315400Y-70345300D01*
G04 #@! TO.C,C18*
X157619700Y-74066400D02*
X158102300Y-74066400D01*
X158102300Y-74066400D02*
X158102300Y-74777600D01*
X158102300Y-74777600D02*
X157619700Y-74777600D01*
X157619700Y-74777600D02*
X157619700Y-74066400D01*
G04 #@! TO.C,C14*
X102006400Y-110502700D02*
X102717600Y-110502700D01*
X102006400Y-110985300D02*
X102006400Y-110502700D01*
X102717600Y-110985300D02*
X102006400Y-110985300D01*
X102717600Y-110502700D02*
X102717600Y-110985300D01*
G04 #@! TO.C,C12*
X96545400Y-110502700D02*
X97256600Y-110502700D01*
X96545400Y-110985300D02*
X96545400Y-110502700D01*
X97256600Y-110985300D02*
X96545400Y-110985300D01*
X97256600Y-110502700D02*
X97256600Y-110985300D01*
G04 #@! TO.C,C10*
X97637600Y-70472300D02*
X96926400Y-70472300D01*
X97637600Y-69989700D02*
X97637600Y-70472300D01*
X96926400Y-69989700D02*
X97637600Y-69989700D01*
X96926400Y-70472300D02*
X96926400Y-69989700D01*
G04 #@! TD*
D11*
G04 #@! TO.P,Drill1,Drill1*
G04 #@! TO.N,N/C*
X189420500Y-110045500D03*
G04 #@! TD*
G04 #@! TO.P,Drill1,Drill1*
G04 #@! TO.N,N/C*
X189420500Y-66865500D03*
G04 #@! TD*
D12*
G04 #@! TO.P,R6,1*
G04 #@! TO.N,Net-(R6-Pad1)*
X137236200Y-79502000D03*
G04 #@! TO.P,R6,2*
G04 #@! TO.N,GND*
X138353800Y-79502000D03*
G04 #@! TD*
G04 #@! TA.AperFunction,SMDPad,CuDef*
D13*
G04 #@! TO.P,R27,2*
G04 #@! TO.N,GND*
G36*
X168281779Y-96010144D02*
G01*
X168304834Y-96013563D01*
X168327443Y-96019227D01*
X168349387Y-96027079D01*
X168370457Y-96037044D01*
X168390448Y-96049026D01*
X168409168Y-96062910D01*
X168426438Y-96078562D01*
X168442090Y-96095832D01*
X168455974Y-96114552D01*
X168467956Y-96134543D01*
X168477921Y-96155613D01*
X168485773Y-96177557D01*
X168491437Y-96200166D01*
X168494856Y-96223221D01*
X168496000Y-96246500D01*
X168496000Y-96821500D01*
X168494856Y-96844779D01*
X168491437Y-96867834D01*
X168485773Y-96890443D01*
X168477921Y-96912387D01*
X168467956Y-96933457D01*
X168455974Y-96953448D01*
X168442090Y-96972168D01*
X168426438Y-96989438D01*
X168409168Y-97005090D01*
X168390448Y-97018974D01*
X168370457Y-97030956D01*
X168349387Y-97040921D01*
X168327443Y-97048773D01*
X168304834Y-97054437D01*
X168281779Y-97057856D01*
X168258500Y-97059000D01*
X167783500Y-97059000D01*
X167760221Y-97057856D01*
X167737166Y-97054437D01*
X167714557Y-97048773D01*
X167692613Y-97040921D01*
X167671543Y-97030956D01*
X167651552Y-97018974D01*
X167632832Y-97005090D01*
X167615562Y-96989438D01*
X167599910Y-96972168D01*
X167586026Y-96953448D01*
X167574044Y-96933457D01*
X167564079Y-96912387D01*
X167556227Y-96890443D01*
X167550563Y-96867834D01*
X167547144Y-96844779D01*
X167546000Y-96821500D01*
X167546000Y-96246500D01*
X167547144Y-96223221D01*
X167550563Y-96200166D01*
X167556227Y-96177557D01*
X167564079Y-96155613D01*
X167574044Y-96134543D01*
X167586026Y-96114552D01*
X167599910Y-96095832D01*
X167615562Y-96078562D01*
X167632832Y-96062910D01*
X167651552Y-96049026D01*
X167671543Y-96037044D01*
X167692613Y-96027079D01*
X167714557Y-96019227D01*
X167737166Y-96013563D01*
X167760221Y-96010144D01*
X167783500Y-96009000D01*
X168258500Y-96009000D01*
X168281779Y-96010144D01*
G37*
G04 #@! TD.AperFunction*
G04 #@! TA.AperFunction,SMDPad,CuDef*
G04 #@! TO.P,R27,1*
G04 #@! TO.N,ENABLE3*
G36*
X168281779Y-97760144D02*
G01*
X168304834Y-97763563D01*
X168327443Y-97769227D01*
X168349387Y-97777079D01*
X168370457Y-97787044D01*
X168390448Y-97799026D01*
X168409168Y-97812910D01*
X168426438Y-97828562D01*
X168442090Y-97845832D01*
X168455974Y-97864552D01*
X168467956Y-97884543D01*
X168477921Y-97905613D01*
X168485773Y-97927557D01*
X168491437Y-97950166D01*
X168494856Y-97973221D01*
X168496000Y-97996500D01*
X168496000Y-98571500D01*
X168494856Y-98594779D01*
X168491437Y-98617834D01*
X168485773Y-98640443D01*
X168477921Y-98662387D01*
X168467956Y-98683457D01*
X168455974Y-98703448D01*
X168442090Y-98722168D01*
X168426438Y-98739438D01*
X168409168Y-98755090D01*
X168390448Y-98768974D01*
X168370457Y-98780956D01*
X168349387Y-98790921D01*
X168327443Y-98798773D01*
X168304834Y-98804437D01*
X168281779Y-98807856D01*
X168258500Y-98809000D01*
X167783500Y-98809000D01*
X167760221Y-98807856D01*
X167737166Y-98804437D01*
X167714557Y-98798773D01*
X167692613Y-98790921D01*
X167671543Y-98780956D01*
X167651552Y-98768974D01*
X167632832Y-98755090D01*
X167615562Y-98739438D01*
X167599910Y-98722168D01*
X167586026Y-98703448D01*
X167574044Y-98683457D01*
X167564079Y-98662387D01*
X167556227Y-98640443D01*
X167550563Y-98617834D01*
X167547144Y-98594779D01*
X167546000Y-98571500D01*
X167546000Y-97996500D01*
X167547144Y-97973221D01*
X167550563Y-97950166D01*
X167556227Y-97927557D01*
X167564079Y-97905613D01*
X167574044Y-97884543D01*
X167586026Y-97864552D01*
X167599910Y-97845832D01*
X167615562Y-97828562D01*
X167632832Y-97812910D01*
X167651552Y-97799026D01*
X167671543Y-97787044D01*
X167692613Y-97777079D01*
X167714557Y-97769227D01*
X167737166Y-97763563D01*
X167760221Y-97760144D01*
X167783500Y-97759000D01*
X168258500Y-97759000D01*
X168281779Y-97760144D01*
G37*
G04 #@! TD.AperFunction*
G04 #@! TD*
G04 #@! TA.AperFunction,SMDPad,CuDef*
G04 #@! TO.P,R25,2*
G04 #@! TO.N,GND*
G36*
X163709779Y-107539144D02*
G01*
X163732834Y-107542563D01*
X163755443Y-107548227D01*
X163777387Y-107556079D01*
X163798457Y-107566044D01*
X163818448Y-107578026D01*
X163837168Y-107591910D01*
X163854438Y-107607562D01*
X163870090Y-107624832D01*
X163883974Y-107643552D01*
X163895956Y-107663543D01*
X163905921Y-107684613D01*
X163913773Y-107706557D01*
X163919437Y-107729166D01*
X163922856Y-107752221D01*
X163924000Y-107775500D01*
X163924000Y-108350500D01*
X163922856Y-108373779D01*
X163919437Y-108396834D01*
X163913773Y-108419443D01*
X163905921Y-108441387D01*
X163895956Y-108462457D01*
X163883974Y-108482448D01*
X163870090Y-108501168D01*
X163854438Y-108518438D01*
X163837168Y-108534090D01*
X163818448Y-108547974D01*
X163798457Y-108559956D01*
X163777387Y-108569921D01*
X163755443Y-108577773D01*
X163732834Y-108583437D01*
X163709779Y-108586856D01*
X163686500Y-108588000D01*
X163211500Y-108588000D01*
X163188221Y-108586856D01*
X163165166Y-108583437D01*
X163142557Y-108577773D01*
X163120613Y-108569921D01*
X163099543Y-108559956D01*
X163079552Y-108547974D01*
X163060832Y-108534090D01*
X163043562Y-108518438D01*
X163027910Y-108501168D01*
X163014026Y-108482448D01*
X163002044Y-108462457D01*
X162992079Y-108441387D01*
X162984227Y-108419443D01*
X162978563Y-108396834D01*
X162975144Y-108373779D01*
X162974000Y-108350500D01*
X162974000Y-107775500D01*
X162975144Y-107752221D01*
X162978563Y-107729166D01*
X162984227Y-107706557D01*
X162992079Y-107684613D01*
X163002044Y-107663543D01*
X163014026Y-107643552D01*
X163027910Y-107624832D01*
X163043562Y-107607562D01*
X163060832Y-107591910D01*
X163079552Y-107578026D01*
X163099543Y-107566044D01*
X163120613Y-107556079D01*
X163142557Y-107548227D01*
X163165166Y-107542563D01*
X163188221Y-107539144D01*
X163211500Y-107538000D01*
X163686500Y-107538000D01*
X163709779Y-107539144D01*
G37*
G04 #@! TD.AperFunction*
G04 #@! TA.AperFunction,SMDPad,CuDef*
G04 #@! TO.P,R25,1*
G04 #@! TO.N,SYNC3*
G36*
X163709779Y-105789144D02*
G01*
X163732834Y-105792563D01*
X163755443Y-105798227D01*
X163777387Y-105806079D01*
X163798457Y-105816044D01*
X163818448Y-105828026D01*
X163837168Y-105841910D01*
X163854438Y-105857562D01*
X163870090Y-105874832D01*
X163883974Y-105893552D01*
X163895956Y-105913543D01*
X163905921Y-105934613D01*
X163913773Y-105956557D01*
X163919437Y-105979166D01*
X163922856Y-106002221D01*
X163924000Y-106025500D01*
X163924000Y-106600500D01*
X163922856Y-106623779D01*
X163919437Y-106646834D01*
X163913773Y-106669443D01*
X163905921Y-106691387D01*
X163895956Y-106712457D01*
X163883974Y-106732448D01*
X163870090Y-106751168D01*
X163854438Y-106768438D01*
X163837168Y-106784090D01*
X163818448Y-106797974D01*
X163798457Y-106809956D01*
X163777387Y-106819921D01*
X163755443Y-106827773D01*
X163732834Y-106833437D01*
X163709779Y-106836856D01*
X163686500Y-106838000D01*
X163211500Y-106838000D01*
X163188221Y-106836856D01*
X163165166Y-106833437D01*
X163142557Y-106827773D01*
X163120613Y-106819921D01*
X163099543Y-106809956D01*
X163079552Y-106797974D01*
X163060832Y-106784090D01*
X163043562Y-106768438D01*
X163027910Y-106751168D01*
X163014026Y-106732448D01*
X163002044Y-106712457D01*
X162992079Y-106691387D01*
X162984227Y-106669443D01*
X162978563Y-106646834D01*
X162975144Y-106623779D01*
X162974000Y-106600500D01*
X162974000Y-106025500D01*
X162975144Y-106002221D01*
X162978563Y-105979166D01*
X162984227Y-105956557D01*
X162992079Y-105934613D01*
X163002044Y-105913543D01*
X163014026Y-105893552D01*
X163027910Y-105874832D01*
X163043562Y-105857562D01*
X163060832Y-105841910D01*
X163079552Y-105828026D01*
X163099543Y-105816044D01*
X163120613Y-105806079D01*
X163142557Y-105798227D01*
X163165166Y-105792563D01*
X163188221Y-105789144D01*
X163211500Y-105788000D01*
X163686500Y-105788000D01*
X163709779Y-105789144D01*
G37*
G04 #@! TD.AperFunction*
G04 #@! TD*
G04 #@! TA.AperFunction,SMDPad,CuDef*
G04 #@! TO.P,R24,2*
G04 #@! TO.N,GND*
G36*
X168027779Y-80770144D02*
G01*
X168050834Y-80773563D01*
X168073443Y-80779227D01*
X168095387Y-80787079D01*
X168116457Y-80797044D01*
X168136448Y-80809026D01*
X168155168Y-80822910D01*
X168172438Y-80838562D01*
X168188090Y-80855832D01*
X168201974Y-80874552D01*
X168213956Y-80894543D01*
X168223921Y-80915613D01*
X168231773Y-80937557D01*
X168237437Y-80960166D01*
X168240856Y-80983221D01*
X168242000Y-81006500D01*
X168242000Y-81581500D01*
X168240856Y-81604779D01*
X168237437Y-81627834D01*
X168231773Y-81650443D01*
X168223921Y-81672387D01*
X168213956Y-81693457D01*
X168201974Y-81713448D01*
X168188090Y-81732168D01*
X168172438Y-81749438D01*
X168155168Y-81765090D01*
X168136448Y-81778974D01*
X168116457Y-81790956D01*
X168095387Y-81800921D01*
X168073443Y-81808773D01*
X168050834Y-81814437D01*
X168027779Y-81817856D01*
X168004500Y-81819000D01*
X167529500Y-81819000D01*
X167506221Y-81817856D01*
X167483166Y-81814437D01*
X167460557Y-81808773D01*
X167438613Y-81800921D01*
X167417543Y-81790956D01*
X167397552Y-81778974D01*
X167378832Y-81765090D01*
X167361562Y-81749438D01*
X167345910Y-81732168D01*
X167332026Y-81713448D01*
X167320044Y-81693457D01*
X167310079Y-81672387D01*
X167302227Y-81650443D01*
X167296563Y-81627834D01*
X167293144Y-81604779D01*
X167292000Y-81581500D01*
X167292000Y-81006500D01*
X167293144Y-80983221D01*
X167296563Y-80960166D01*
X167302227Y-80937557D01*
X167310079Y-80915613D01*
X167320044Y-80894543D01*
X167332026Y-80874552D01*
X167345910Y-80855832D01*
X167361562Y-80838562D01*
X167378832Y-80822910D01*
X167397552Y-80809026D01*
X167417543Y-80797044D01*
X167438613Y-80787079D01*
X167460557Y-80779227D01*
X167483166Y-80773563D01*
X167506221Y-80770144D01*
X167529500Y-80769000D01*
X168004500Y-80769000D01*
X168027779Y-80770144D01*
G37*
G04 #@! TD.AperFunction*
G04 #@! TA.AperFunction,SMDPad,CuDef*
G04 #@! TO.P,R24,1*
G04 #@! TO.N,ENABLE2*
G36*
X168027779Y-82520144D02*
G01*
X168050834Y-82523563D01*
X168073443Y-82529227D01*
X168095387Y-82537079D01*
X168116457Y-82547044D01*
X168136448Y-82559026D01*
X168155168Y-82572910D01*
X168172438Y-82588562D01*
X168188090Y-82605832D01*
X168201974Y-82624552D01*
X168213956Y-82644543D01*
X168223921Y-82665613D01*
X168231773Y-82687557D01*
X168237437Y-82710166D01*
X168240856Y-82733221D01*
X168242000Y-82756500D01*
X168242000Y-83331500D01*
X168240856Y-83354779D01*
X168237437Y-83377834D01*
X168231773Y-83400443D01*
X168223921Y-83422387D01*
X168213956Y-83443457D01*
X168201974Y-83463448D01*
X168188090Y-83482168D01*
X168172438Y-83499438D01*
X168155168Y-83515090D01*
X168136448Y-83528974D01*
X168116457Y-83540956D01*
X168095387Y-83550921D01*
X168073443Y-83558773D01*
X168050834Y-83564437D01*
X168027779Y-83567856D01*
X168004500Y-83569000D01*
X167529500Y-83569000D01*
X167506221Y-83567856D01*
X167483166Y-83564437D01*
X167460557Y-83558773D01*
X167438613Y-83550921D01*
X167417543Y-83540956D01*
X167397552Y-83528974D01*
X167378832Y-83515090D01*
X167361562Y-83499438D01*
X167345910Y-83482168D01*
X167332026Y-83463448D01*
X167320044Y-83443457D01*
X167310079Y-83422387D01*
X167302227Y-83400443D01*
X167296563Y-83377834D01*
X167293144Y-83354779D01*
X167292000Y-83331500D01*
X167292000Y-82756500D01*
X167293144Y-82733221D01*
X167296563Y-82710166D01*
X167302227Y-82687557D01*
X167310079Y-82665613D01*
X167320044Y-82644543D01*
X167332026Y-82624552D01*
X167345910Y-82605832D01*
X167361562Y-82588562D01*
X167378832Y-82572910D01*
X167397552Y-82559026D01*
X167417543Y-82547044D01*
X167438613Y-82537079D01*
X167460557Y-82529227D01*
X167483166Y-82523563D01*
X167506221Y-82520144D01*
X167529500Y-82519000D01*
X168004500Y-82519000D01*
X168027779Y-82520144D01*
G37*
G04 #@! TD.AperFunction*
G04 #@! TD*
G04 #@! TA.AperFunction,SMDPad,CuDef*
G04 #@! TO.P,R22,2*
G04 #@! TO.N,GND*
G36*
X163328779Y-93188144D02*
G01*
X163351834Y-93191563D01*
X163374443Y-93197227D01*
X163396387Y-93205079D01*
X163417457Y-93215044D01*
X163437448Y-93227026D01*
X163456168Y-93240910D01*
X163473438Y-93256562D01*
X163489090Y-93273832D01*
X163502974Y-93292552D01*
X163514956Y-93312543D01*
X163524921Y-93333613D01*
X163532773Y-93355557D01*
X163538437Y-93378166D01*
X163541856Y-93401221D01*
X163543000Y-93424500D01*
X163543000Y-93999500D01*
X163541856Y-94022779D01*
X163538437Y-94045834D01*
X163532773Y-94068443D01*
X163524921Y-94090387D01*
X163514956Y-94111457D01*
X163502974Y-94131448D01*
X163489090Y-94150168D01*
X163473438Y-94167438D01*
X163456168Y-94183090D01*
X163437448Y-94196974D01*
X163417457Y-94208956D01*
X163396387Y-94218921D01*
X163374443Y-94226773D01*
X163351834Y-94232437D01*
X163328779Y-94235856D01*
X163305500Y-94237000D01*
X162830500Y-94237000D01*
X162807221Y-94235856D01*
X162784166Y-94232437D01*
X162761557Y-94226773D01*
X162739613Y-94218921D01*
X162718543Y-94208956D01*
X162698552Y-94196974D01*
X162679832Y-94183090D01*
X162662562Y-94167438D01*
X162646910Y-94150168D01*
X162633026Y-94131448D01*
X162621044Y-94111457D01*
X162611079Y-94090387D01*
X162603227Y-94068443D01*
X162597563Y-94045834D01*
X162594144Y-94022779D01*
X162593000Y-93999500D01*
X162593000Y-93424500D01*
X162594144Y-93401221D01*
X162597563Y-93378166D01*
X162603227Y-93355557D01*
X162611079Y-93333613D01*
X162621044Y-93312543D01*
X162633026Y-93292552D01*
X162646910Y-93273832D01*
X162662562Y-93256562D01*
X162679832Y-93240910D01*
X162698552Y-93227026D01*
X162718543Y-93215044D01*
X162739613Y-93205079D01*
X162761557Y-93197227D01*
X162784166Y-93191563D01*
X162807221Y-93188144D01*
X162830500Y-93187000D01*
X163305500Y-93187000D01*
X163328779Y-93188144D01*
G37*
G04 #@! TD.AperFunction*
G04 #@! TA.AperFunction,SMDPad,CuDef*
G04 #@! TO.P,R22,1*
G04 #@! TO.N,SYNC2*
G36*
X163328779Y-91438144D02*
G01*
X163351834Y-91441563D01*
X163374443Y-91447227D01*
X163396387Y-91455079D01*
X163417457Y-91465044D01*
X163437448Y-91477026D01*
X163456168Y-91490910D01*
X163473438Y-91506562D01*
X163489090Y-91523832D01*
X163502974Y-91542552D01*
X163514956Y-91562543D01*
X163524921Y-91583613D01*
X163532773Y-91605557D01*
X163538437Y-91628166D01*
X163541856Y-91651221D01*
X163543000Y-91674500D01*
X163543000Y-92249500D01*
X163541856Y-92272779D01*
X163538437Y-92295834D01*
X163532773Y-92318443D01*
X163524921Y-92340387D01*
X163514956Y-92361457D01*
X163502974Y-92381448D01*
X163489090Y-92400168D01*
X163473438Y-92417438D01*
X163456168Y-92433090D01*
X163437448Y-92446974D01*
X163417457Y-92458956D01*
X163396387Y-92468921D01*
X163374443Y-92476773D01*
X163351834Y-92482437D01*
X163328779Y-92485856D01*
X163305500Y-92487000D01*
X162830500Y-92487000D01*
X162807221Y-92485856D01*
X162784166Y-92482437D01*
X162761557Y-92476773D01*
X162739613Y-92468921D01*
X162718543Y-92458956D01*
X162698552Y-92446974D01*
X162679832Y-92433090D01*
X162662562Y-92417438D01*
X162646910Y-92400168D01*
X162633026Y-92381448D01*
X162621044Y-92361457D01*
X162611079Y-92340387D01*
X162603227Y-92318443D01*
X162597563Y-92295834D01*
X162594144Y-92272779D01*
X162593000Y-92249500D01*
X162593000Y-91674500D01*
X162594144Y-91651221D01*
X162597563Y-91628166D01*
X162603227Y-91605557D01*
X162611079Y-91583613D01*
X162621044Y-91562543D01*
X162633026Y-91542552D01*
X162646910Y-91523832D01*
X162662562Y-91506562D01*
X162679832Y-91490910D01*
X162698552Y-91477026D01*
X162718543Y-91465044D01*
X162739613Y-91455079D01*
X162761557Y-91447227D01*
X162784166Y-91441563D01*
X162807221Y-91438144D01*
X162830500Y-91437000D01*
X163305500Y-91437000D01*
X163328779Y-91438144D01*
G37*
G04 #@! TD.AperFunction*
G04 #@! TD*
G04 #@! TA.AperFunction,SMDPad,CuDef*
G04 #@! TO.P,R21,2*
G04 #@! TO.N,GND*
G36*
X169805779Y-63879144D02*
G01*
X169828834Y-63882563D01*
X169851443Y-63888227D01*
X169873387Y-63896079D01*
X169894457Y-63906044D01*
X169914448Y-63918026D01*
X169933168Y-63931910D01*
X169950438Y-63947562D01*
X169966090Y-63964832D01*
X169979974Y-63983552D01*
X169991956Y-64003543D01*
X170001921Y-64024613D01*
X170009773Y-64046557D01*
X170015437Y-64069166D01*
X170018856Y-64092221D01*
X170020000Y-64115500D01*
X170020000Y-64690500D01*
X170018856Y-64713779D01*
X170015437Y-64736834D01*
X170009773Y-64759443D01*
X170001921Y-64781387D01*
X169991956Y-64802457D01*
X169979974Y-64822448D01*
X169966090Y-64841168D01*
X169950438Y-64858438D01*
X169933168Y-64874090D01*
X169914448Y-64887974D01*
X169894457Y-64899956D01*
X169873387Y-64909921D01*
X169851443Y-64917773D01*
X169828834Y-64923437D01*
X169805779Y-64926856D01*
X169782500Y-64928000D01*
X169307500Y-64928000D01*
X169284221Y-64926856D01*
X169261166Y-64923437D01*
X169238557Y-64917773D01*
X169216613Y-64909921D01*
X169195543Y-64899956D01*
X169175552Y-64887974D01*
X169156832Y-64874090D01*
X169139562Y-64858438D01*
X169123910Y-64841168D01*
X169110026Y-64822448D01*
X169098044Y-64802457D01*
X169088079Y-64781387D01*
X169080227Y-64759443D01*
X169074563Y-64736834D01*
X169071144Y-64713779D01*
X169070000Y-64690500D01*
X169070000Y-64115500D01*
X169071144Y-64092221D01*
X169074563Y-64069166D01*
X169080227Y-64046557D01*
X169088079Y-64024613D01*
X169098044Y-64003543D01*
X169110026Y-63983552D01*
X169123910Y-63964832D01*
X169139562Y-63947562D01*
X169156832Y-63931910D01*
X169175552Y-63918026D01*
X169195543Y-63906044D01*
X169216613Y-63896079D01*
X169238557Y-63888227D01*
X169261166Y-63882563D01*
X169284221Y-63879144D01*
X169307500Y-63878000D01*
X169782500Y-63878000D01*
X169805779Y-63879144D01*
G37*
G04 #@! TD.AperFunction*
G04 #@! TA.AperFunction,SMDPad,CuDef*
G04 #@! TO.P,R21,1*
G04 #@! TO.N,ENABLE1*
G36*
X169805779Y-65629144D02*
G01*
X169828834Y-65632563D01*
X169851443Y-65638227D01*
X169873387Y-65646079D01*
X169894457Y-65656044D01*
X169914448Y-65668026D01*
X169933168Y-65681910D01*
X169950438Y-65697562D01*
X169966090Y-65714832D01*
X169979974Y-65733552D01*
X169991956Y-65753543D01*
X170001921Y-65774613D01*
X170009773Y-65796557D01*
X170015437Y-65819166D01*
X170018856Y-65842221D01*
X170020000Y-65865500D01*
X170020000Y-66440500D01*
X170018856Y-66463779D01*
X170015437Y-66486834D01*
X170009773Y-66509443D01*
X170001921Y-66531387D01*
X169991956Y-66552457D01*
X169979974Y-66572448D01*
X169966090Y-66591168D01*
X169950438Y-66608438D01*
X169933168Y-66624090D01*
X169914448Y-66637974D01*
X169894457Y-66649956D01*
X169873387Y-66659921D01*
X169851443Y-66667773D01*
X169828834Y-66673437D01*
X169805779Y-66676856D01*
X169782500Y-66678000D01*
X169307500Y-66678000D01*
X169284221Y-66676856D01*
X169261166Y-66673437D01*
X169238557Y-66667773D01*
X169216613Y-66659921D01*
X169195543Y-66649956D01*
X169175552Y-66637974D01*
X169156832Y-66624090D01*
X169139562Y-66608438D01*
X169123910Y-66591168D01*
X169110026Y-66572448D01*
X169098044Y-66552457D01*
X169088079Y-66531387D01*
X169080227Y-66509443D01*
X169074563Y-66486834D01*
X169071144Y-66463779D01*
X169070000Y-66440500D01*
X169070000Y-65865500D01*
X169071144Y-65842221D01*
X169074563Y-65819166D01*
X169080227Y-65796557D01*
X169088079Y-65774613D01*
X169098044Y-65753543D01*
X169110026Y-65733552D01*
X169123910Y-65714832D01*
X169139562Y-65697562D01*
X169156832Y-65681910D01*
X169175552Y-65668026D01*
X169195543Y-65656044D01*
X169216613Y-65646079D01*
X169238557Y-65638227D01*
X169261166Y-65632563D01*
X169284221Y-65629144D01*
X169307500Y-65628000D01*
X169782500Y-65628000D01*
X169805779Y-65629144D01*
G37*
G04 #@! TD.AperFunction*
G04 #@! TD*
G04 #@! TA.AperFunction,SMDPad,CuDef*
G04 #@! TO.P,R19,2*
G04 #@! TO.N,GND*
G36*
X165360779Y-75027144D02*
G01*
X165383834Y-75030563D01*
X165406443Y-75036227D01*
X165428387Y-75044079D01*
X165449457Y-75054044D01*
X165469448Y-75066026D01*
X165488168Y-75079910D01*
X165505438Y-75095562D01*
X165521090Y-75112832D01*
X165534974Y-75131552D01*
X165546956Y-75151543D01*
X165556921Y-75172613D01*
X165564773Y-75194557D01*
X165570437Y-75217166D01*
X165573856Y-75240221D01*
X165575000Y-75263500D01*
X165575000Y-75838500D01*
X165573856Y-75861779D01*
X165570437Y-75884834D01*
X165564773Y-75907443D01*
X165556921Y-75929387D01*
X165546956Y-75950457D01*
X165534974Y-75970448D01*
X165521090Y-75989168D01*
X165505438Y-76006438D01*
X165488168Y-76022090D01*
X165469448Y-76035974D01*
X165449457Y-76047956D01*
X165428387Y-76057921D01*
X165406443Y-76065773D01*
X165383834Y-76071437D01*
X165360779Y-76074856D01*
X165337500Y-76076000D01*
X164862500Y-76076000D01*
X164839221Y-76074856D01*
X164816166Y-76071437D01*
X164793557Y-76065773D01*
X164771613Y-76057921D01*
X164750543Y-76047956D01*
X164730552Y-76035974D01*
X164711832Y-76022090D01*
X164694562Y-76006438D01*
X164678910Y-75989168D01*
X164665026Y-75970448D01*
X164653044Y-75950457D01*
X164643079Y-75929387D01*
X164635227Y-75907443D01*
X164629563Y-75884834D01*
X164626144Y-75861779D01*
X164625000Y-75838500D01*
X164625000Y-75263500D01*
X164626144Y-75240221D01*
X164629563Y-75217166D01*
X164635227Y-75194557D01*
X164643079Y-75172613D01*
X164653044Y-75151543D01*
X164665026Y-75131552D01*
X164678910Y-75112832D01*
X164694562Y-75095562D01*
X164711832Y-75079910D01*
X164730552Y-75066026D01*
X164750543Y-75054044D01*
X164771613Y-75044079D01*
X164793557Y-75036227D01*
X164816166Y-75030563D01*
X164839221Y-75027144D01*
X164862500Y-75026000D01*
X165337500Y-75026000D01*
X165360779Y-75027144D01*
G37*
G04 #@! TD.AperFunction*
G04 #@! TA.AperFunction,SMDPad,CuDef*
G04 #@! TO.P,R19,1*
G04 #@! TO.N,SYNC1*
G36*
X165360779Y-73277144D02*
G01*
X165383834Y-73280563D01*
X165406443Y-73286227D01*
X165428387Y-73294079D01*
X165449457Y-73304044D01*
X165469448Y-73316026D01*
X165488168Y-73329910D01*
X165505438Y-73345562D01*
X165521090Y-73362832D01*
X165534974Y-73381552D01*
X165546956Y-73401543D01*
X165556921Y-73422613D01*
X165564773Y-73444557D01*
X165570437Y-73467166D01*
X165573856Y-73490221D01*
X165575000Y-73513500D01*
X165575000Y-74088500D01*
X165573856Y-74111779D01*
X165570437Y-74134834D01*
X165564773Y-74157443D01*
X165556921Y-74179387D01*
X165546956Y-74200457D01*
X165534974Y-74220448D01*
X165521090Y-74239168D01*
X165505438Y-74256438D01*
X165488168Y-74272090D01*
X165469448Y-74285974D01*
X165449457Y-74297956D01*
X165428387Y-74307921D01*
X165406443Y-74315773D01*
X165383834Y-74321437D01*
X165360779Y-74324856D01*
X165337500Y-74326000D01*
X164862500Y-74326000D01*
X164839221Y-74324856D01*
X164816166Y-74321437D01*
X164793557Y-74315773D01*
X164771613Y-74307921D01*
X164750543Y-74297956D01*
X164730552Y-74285974D01*
X164711832Y-74272090D01*
X164694562Y-74256438D01*
X164678910Y-74239168D01*
X164665026Y-74220448D01*
X164653044Y-74200457D01*
X164643079Y-74179387D01*
X164635227Y-74157443D01*
X164629563Y-74134834D01*
X164626144Y-74111779D01*
X164625000Y-74088500D01*
X164625000Y-73513500D01*
X164626144Y-73490221D01*
X164629563Y-73467166D01*
X164635227Y-73444557D01*
X164643079Y-73422613D01*
X164653044Y-73401543D01*
X164665026Y-73381552D01*
X164678910Y-73362832D01*
X164694562Y-73345562D01*
X164711832Y-73329910D01*
X164730552Y-73316026D01*
X164750543Y-73304044D01*
X164771613Y-73294079D01*
X164793557Y-73286227D01*
X164816166Y-73280563D01*
X164839221Y-73277144D01*
X164862500Y-73276000D01*
X165337500Y-73276000D01*
X165360779Y-73277144D01*
G37*
G04 #@! TD.AperFunction*
G04 #@! TD*
G04 #@! TA.AperFunction,SMDPad,CuDef*
G04 #@! TO.P,R18,2*
G04 #@! TO.N,GND*
G36*
X143643779Y-98677144D02*
G01*
X143666834Y-98680563D01*
X143689443Y-98686227D01*
X143711387Y-98694079D01*
X143732457Y-98704044D01*
X143752448Y-98716026D01*
X143771168Y-98729910D01*
X143788438Y-98745562D01*
X143804090Y-98762832D01*
X143817974Y-98781552D01*
X143829956Y-98801543D01*
X143839921Y-98822613D01*
X143847773Y-98844557D01*
X143853437Y-98867166D01*
X143856856Y-98890221D01*
X143858000Y-98913500D01*
X143858000Y-99488500D01*
X143856856Y-99511779D01*
X143853437Y-99534834D01*
X143847773Y-99557443D01*
X143839921Y-99579387D01*
X143829956Y-99600457D01*
X143817974Y-99620448D01*
X143804090Y-99639168D01*
X143788438Y-99656438D01*
X143771168Y-99672090D01*
X143752448Y-99685974D01*
X143732457Y-99697956D01*
X143711387Y-99707921D01*
X143689443Y-99715773D01*
X143666834Y-99721437D01*
X143643779Y-99724856D01*
X143620500Y-99726000D01*
X143145500Y-99726000D01*
X143122221Y-99724856D01*
X143099166Y-99721437D01*
X143076557Y-99715773D01*
X143054613Y-99707921D01*
X143033543Y-99697956D01*
X143013552Y-99685974D01*
X142994832Y-99672090D01*
X142977562Y-99656438D01*
X142961910Y-99639168D01*
X142948026Y-99620448D01*
X142936044Y-99600457D01*
X142926079Y-99579387D01*
X142918227Y-99557443D01*
X142912563Y-99534834D01*
X142909144Y-99511779D01*
X142908000Y-99488500D01*
X142908000Y-98913500D01*
X142909144Y-98890221D01*
X142912563Y-98867166D01*
X142918227Y-98844557D01*
X142926079Y-98822613D01*
X142936044Y-98801543D01*
X142948026Y-98781552D01*
X142961910Y-98762832D01*
X142977562Y-98745562D01*
X142994832Y-98729910D01*
X143013552Y-98716026D01*
X143033543Y-98704044D01*
X143054613Y-98694079D01*
X143076557Y-98686227D01*
X143099166Y-98680563D01*
X143122221Y-98677144D01*
X143145500Y-98676000D01*
X143620500Y-98676000D01*
X143643779Y-98677144D01*
G37*
G04 #@! TD.AperFunction*
G04 #@! TA.AperFunction,SMDPad,CuDef*
G04 #@! TO.P,R18,1*
G04 #@! TO.N,CTRL3*
G36*
X143643779Y-100427144D02*
G01*
X143666834Y-100430563D01*
X143689443Y-100436227D01*
X143711387Y-100444079D01*
X143732457Y-100454044D01*
X143752448Y-100466026D01*
X143771168Y-100479910D01*
X143788438Y-100495562D01*
X143804090Y-100512832D01*
X143817974Y-100531552D01*
X143829956Y-100551543D01*
X143839921Y-100572613D01*
X143847773Y-100594557D01*
X143853437Y-100617166D01*
X143856856Y-100640221D01*
X143858000Y-100663500D01*
X143858000Y-101238500D01*
X143856856Y-101261779D01*
X143853437Y-101284834D01*
X143847773Y-101307443D01*
X143839921Y-101329387D01*
X143829956Y-101350457D01*
X143817974Y-101370448D01*
X143804090Y-101389168D01*
X143788438Y-101406438D01*
X143771168Y-101422090D01*
X143752448Y-101435974D01*
X143732457Y-101447956D01*
X143711387Y-101457921D01*
X143689443Y-101465773D01*
X143666834Y-101471437D01*
X143643779Y-101474856D01*
X143620500Y-101476000D01*
X143145500Y-101476000D01*
X143122221Y-101474856D01*
X143099166Y-101471437D01*
X143076557Y-101465773D01*
X143054613Y-101457921D01*
X143033543Y-101447956D01*
X143013552Y-101435974D01*
X142994832Y-101422090D01*
X142977562Y-101406438D01*
X142961910Y-101389168D01*
X142948026Y-101370448D01*
X142936044Y-101350457D01*
X142926079Y-101329387D01*
X142918227Y-101307443D01*
X142912563Y-101284834D01*
X142909144Y-101261779D01*
X142908000Y-101238500D01*
X142908000Y-100663500D01*
X142909144Y-100640221D01*
X142912563Y-100617166D01*
X142918227Y-100594557D01*
X142926079Y-100572613D01*
X142936044Y-100551543D01*
X142948026Y-100531552D01*
X142961910Y-100512832D01*
X142977562Y-100495562D01*
X142994832Y-100479910D01*
X143013552Y-100466026D01*
X143033543Y-100454044D01*
X143054613Y-100444079D01*
X143076557Y-100436227D01*
X143099166Y-100430563D01*
X143122221Y-100427144D01*
X143145500Y-100426000D01*
X143620500Y-100426000D01*
X143643779Y-100427144D01*
G37*
G04 #@! TD.AperFunction*
G04 #@! TD*
G04 #@! TA.AperFunction,SMDPad,CuDef*
G04 #@! TO.P,R17,2*
G04 #@! TO.N,GND*
G36*
X147489779Y-98713144D02*
G01*
X147512834Y-98716563D01*
X147535443Y-98722227D01*
X147557387Y-98730079D01*
X147578457Y-98740044D01*
X147598448Y-98752026D01*
X147617168Y-98765910D01*
X147634438Y-98781562D01*
X147650090Y-98798832D01*
X147663974Y-98817552D01*
X147675956Y-98837543D01*
X147685921Y-98858613D01*
X147693773Y-98880557D01*
X147699437Y-98903166D01*
X147702856Y-98926221D01*
X147704000Y-98949500D01*
X147704000Y-99424500D01*
X147702856Y-99447779D01*
X147699437Y-99470834D01*
X147693773Y-99493443D01*
X147685921Y-99515387D01*
X147675956Y-99536457D01*
X147663974Y-99556448D01*
X147650090Y-99575168D01*
X147634438Y-99592438D01*
X147617168Y-99608090D01*
X147598448Y-99621974D01*
X147578457Y-99633956D01*
X147557387Y-99643921D01*
X147535443Y-99651773D01*
X147512834Y-99657437D01*
X147489779Y-99660856D01*
X147466500Y-99662000D01*
X146891500Y-99662000D01*
X146868221Y-99660856D01*
X146845166Y-99657437D01*
X146822557Y-99651773D01*
X146800613Y-99643921D01*
X146779543Y-99633956D01*
X146759552Y-99621974D01*
X146740832Y-99608090D01*
X146723562Y-99592438D01*
X146707910Y-99575168D01*
X146694026Y-99556448D01*
X146682044Y-99536457D01*
X146672079Y-99515387D01*
X146664227Y-99493443D01*
X146658563Y-99470834D01*
X146655144Y-99447779D01*
X146654000Y-99424500D01*
X146654000Y-98949500D01*
X146655144Y-98926221D01*
X146658563Y-98903166D01*
X146664227Y-98880557D01*
X146672079Y-98858613D01*
X146682044Y-98837543D01*
X146694026Y-98817552D01*
X146707910Y-98798832D01*
X146723562Y-98781562D01*
X146740832Y-98765910D01*
X146759552Y-98752026D01*
X146779543Y-98740044D01*
X146800613Y-98730079D01*
X146822557Y-98722227D01*
X146845166Y-98716563D01*
X146868221Y-98713144D01*
X146891500Y-98712000D01*
X147466500Y-98712000D01*
X147489779Y-98713144D01*
G37*
G04 #@! TD.AperFunction*
G04 #@! TA.AperFunction,SMDPad,CuDef*
G04 #@! TO.P,R17,1*
G04 #@! TO.N,Net-(R17-Pad1)*
G36*
X145739779Y-98713144D02*
G01*
X145762834Y-98716563D01*
X145785443Y-98722227D01*
X145807387Y-98730079D01*
X145828457Y-98740044D01*
X145848448Y-98752026D01*
X145867168Y-98765910D01*
X145884438Y-98781562D01*
X145900090Y-98798832D01*
X145913974Y-98817552D01*
X145925956Y-98837543D01*
X145935921Y-98858613D01*
X145943773Y-98880557D01*
X145949437Y-98903166D01*
X145952856Y-98926221D01*
X145954000Y-98949500D01*
X145954000Y-99424500D01*
X145952856Y-99447779D01*
X145949437Y-99470834D01*
X145943773Y-99493443D01*
X145935921Y-99515387D01*
X145925956Y-99536457D01*
X145913974Y-99556448D01*
X145900090Y-99575168D01*
X145884438Y-99592438D01*
X145867168Y-99608090D01*
X145848448Y-99621974D01*
X145828457Y-99633956D01*
X145807387Y-99643921D01*
X145785443Y-99651773D01*
X145762834Y-99657437D01*
X145739779Y-99660856D01*
X145716500Y-99662000D01*
X145141500Y-99662000D01*
X145118221Y-99660856D01*
X145095166Y-99657437D01*
X145072557Y-99651773D01*
X145050613Y-99643921D01*
X145029543Y-99633956D01*
X145009552Y-99621974D01*
X144990832Y-99608090D01*
X144973562Y-99592438D01*
X144957910Y-99575168D01*
X144944026Y-99556448D01*
X144932044Y-99536457D01*
X144922079Y-99515387D01*
X144914227Y-99493443D01*
X144908563Y-99470834D01*
X144905144Y-99447779D01*
X144904000Y-99424500D01*
X144904000Y-98949500D01*
X144905144Y-98926221D01*
X144908563Y-98903166D01*
X144914227Y-98880557D01*
X144922079Y-98858613D01*
X144932044Y-98837543D01*
X144944026Y-98817552D01*
X144957910Y-98798832D01*
X144973562Y-98781562D01*
X144990832Y-98765910D01*
X145009552Y-98752026D01*
X145029543Y-98740044D01*
X145050613Y-98730079D01*
X145072557Y-98722227D01*
X145095166Y-98716563D01*
X145118221Y-98713144D01*
X145141500Y-98712000D01*
X145716500Y-98712000D01*
X145739779Y-98713144D01*
G37*
G04 #@! TD.AperFunction*
G04 #@! TD*
G04 #@! TA.AperFunction,SMDPad,CuDef*
G04 #@! TO.P,R16,2*
G04 #@! TO.N,GND*
G36*
X143897779Y-105507144D02*
G01*
X143920834Y-105510563D01*
X143943443Y-105516227D01*
X143965387Y-105524079D01*
X143986457Y-105534044D01*
X144006448Y-105546026D01*
X144025168Y-105559910D01*
X144042438Y-105575562D01*
X144058090Y-105592832D01*
X144071974Y-105611552D01*
X144083956Y-105631543D01*
X144093921Y-105652613D01*
X144101773Y-105674557D01*
X144107437Y-105697166D01*
X144110856Y-105720221D01*
X144112000Y-105743500D01*
X144112000Y-106318500D01*
X144110856Y-106341779D01*
X144107437Y-106364834D01*
X144101773Y-106387443D01*
X144093921Y-106409387D01*
X144083956Y-106430457D01*
X144071974Y-106450448D01*
X144058090Y-106469168D01*
X144042438Y-106486438D01*
X144025168Y-106502090D01*
X144006448Y-106515974D01*
X143986457Y-106527956D01*
X143965387Y-106537921D01*
X143943443Y-106545773D01*
X143920834Y-106551437D01*
X143897779Y-106554856D01*
X143874500Y-106556000D01*
X143399500Y-106556000D01*
X143376221Y-106554856D01*
X143353166Y-106551437D01*
X143330557Y-106545773D01*
X143308613Y-106537921D01*
X143287543Y-106527956D01*
X143267552Y-106515974D01*
X143248832Y-106502090D01*
X143231562Y-106486438D01*
X143215910Y-106469168D01*
X143202026Y-106450448D01*
X143190044Y-106430457D01*
X143180079Y-106409387D01*
X143172227Y-106387443D01*
X143166563Y-106364834D01*
X143163144Y-106341779D01*
X143162000Y-106318500D01*
X143162000Y-105743500D01*
X143163144Y-105720221D01*
X143166563Y-105697166D01*
X143172227Y-105674557D01*
X143180079Y-105652613D01*
X143190044Y-105631543D01*
X143202026Y-105611552D01*
X143215910Y-105592832D01*
X143231562Y-105575562D01*
X143248832Y-105559910D01*
X143267552Y-105546026D01*
X143287543Y-105534044D01*
X143308613Y-105524079D01*
X143330557Y-105516227D01*
X143353166Y-105510563D01*
X143376221Y-105507144D01*
X143399500Y-105506000D01*
X143874500Y-105506000D01*
X143897779Y-105507144D01*
G37*
G04 #@! TD.AperFunction*
G04 #@! TA.AperFunction,SMDPad,CuDef*
G04 #@! TO.P,R16,1*
G04 #@! TO.N,STANDBY3*
G36*
X143897779Y-103757144D02*
G01*
X143920834Y-103760563D01*
X143943443Y-103766227D01*
X143965387Y-103774079D01*
X143986457Y-103784044D01*
X144006448Y-103796026D01*
X144025168Y-103809910D01*
X144042438Y-103825562D01*
X144058090Y-103842832D01*
X144071974Y-103861552D01*
X144083956Y-103881543D01*
X144093921Y-103902613D01*
X144101773Y-103924557D01*
X144107437Y-103947166D01*
X144110856Y-103970221D01*
X144112000Y-103993500D01*
X144112000Y-104568500D01*
X144110856Y-104591779D01*
X144107437Y-104614834D01*
X144101773Y-104637443D01*
X144093921Y-104659387D01*
X144083956Y-104680457D01*
X144071974Y-104700448D01*
X144058090Y-104719168D01*
X144042438Y-104736438D01*
X144025168Y-104752090D01*
X144006448Y-104765974D01*
X143986457Y-104777956D01*
X143965387Y-104787921D01*
X143943443Y-104795773D01*
X143920834Y-104801437D01*
X143897779Y-104804856D01*
X143874500Y-104806000D01*
X143399500Y-104806000D01*
X143376221Y-104804856D01*
X143353166Y-104801437D01*
X143330557Y-104795773D01*
X143308613Y-104787921D01*
X143287543Y-104777956D01*
X143267552Y-104765974D01*
X143248832Y-104752090D01*
X143231562Y-104736438D01*
X143215910Y-104719168D01*
X143202026Y-104700448D01*
X143190044Y-104680457D01*
X143180079Y-104659387D01*
X143172227Y-104637443D01*
X143166563Y-104614834D01*
X143163144Y-104591779D01*
X143162000Y-104568500D01*
X143162000Y-103993500D01*
X143163144Y-103970221D01*
X143166563Y-103947166D01*
X143172227Y-103924557D01*
X143180079Y-103902613D01*
X143190044Y-103881543D01*
X143202026Y-103861552D01*
X143215910Y-103842832D01*
X143231562Y-103825562D01*
X143248832Y-103809910D01*
X143267552Y-103796026D01*
X143287543Y-103784044D01*
X143308613Y-103774079D01*
X143330557Y-103766227D01*
X143353166Y-103760563D01*
X143376221Y-103757144D01*
X143399500Y-103756000D01*
X143874500Y-103756000D01*
X143897779Y-103757144D01*
G37*
G04 #@! TD.AperFunction*
G04 #@! TD*
G04 #@! TA.AperFunction,SMDPad,CuDef*
G04 #@! TO.P,R15,2*
G04 #@! TO.N,GND*
G36*
X140405779Y-103666144D02*
G01*
X140428834Y-103669563D01*
X140451443Y-103675227D01*
X140473387Y-103683079D01*
X140494457Y-103693044D01*
X140514448Y-103705026D01*
X140533168Y-103718910D01*
X140550438Y-103734562D01*
X140566090Y-103751832D01*
X140579974Y-103770552D01*
X140591956Y-103790543D01*
X140601921Y-103811613D01*
X140609773Y-103833557D01*
X140615437Y-103856166D01*
X140618856Y-103879221D01*
X140620000Y-103902500D01*
X140620000Y-104377500D01*
X140618856Y-104400779D01*
X140615437Y-104423834D01*
X140609773Y-104446443D01*
X140601921Y-104468387D01*
X140591956Y-104489457D01*
X140579974Y-104509448D01*
X140566090Y-104528168D01*
X140550438Y-104545438D01*
X140533168Y-104561090D01*
X140514448Y-104574974D01*
X140494457Y-104586956D01*
X140473387Y-104596921D01*
X140451443Y-104604773D01*
X140428834Y-104610437D01*
X140405779Y-104613856D01*
X140382500Y-104615000D01*
X139807500Y-104615000D01*
X139784221Y-104613856D01*
X139761166Y-104610437D01*
X139738557Y-104604773D01*
X139716613Y-104596921D01*
X139695543Y-104586956D01*
X139675552Y-104574974D01*
X139656832Y-104561090D01*
X139639562Y-104545438D01*
X139623910Y-104528168D01*
X139610026Y-104509448D01*
X139598044Y-104489457D01*
X139588079Y-104468387D01*
X139580227Y-104446443D01*
X139574563Y-104423834D01*
X139571144Y-104400779D01*
X139570000Y-104377500D01*
X139570000Y-103902500D01*
X139571144Y-103879221D01*
X139574563Y-103856166D01*
X139580227Y-103833557D01*
X139588079Y-103811613D01*
X139598044Y-103790543D01*
X139610026Y-103770552D01*
X139623910Y-103751832D01*
X139639562Y-103734562D01*
X139656832Y-103718910D01*
X139675552Y-103705026D01*
X139695543Y-103693044D01*
X139716613Y-103683079D01*
X139738557Y-103675227D01*
X139761166Y-103669563D01*
X139784221Y-103666144D01*
X139807500Y-103665000D01*
X140382500Y-103665000D01*
X140405779Y-103666144D01*
G37*
G04 #@! TD.AperFunction*
G04 #@! TA.AperFunction,SMDPad,CuDef*
G04 #@! TO.P,R15,1*
G04 #@! TO.N,FSYNC3*
G36*
X142155779Y-103666144D02*
G01*
X142178834Y-103669563D01*
X142201443Y-103675227D01*
X142223387Y-103683079D01*
X142244457Y-103693044D01*
X142264448Y-103705026D01*
X142283168Y-103718910D01*
X142300438Y-103734562D01*
X142316090Y-103751832D01*
X142329974Y-103770552D01*
X142341956Y-103790543D01*
X142351921Y-103811613D01*
X142359773Y-103833557D01*
X142365437Y-103856166D01*
X142368856Y-103879221D01*
X142370000Y-103902500D01*
X142370000Y-104377500D01*
X142368856Y-104400779D01*
X142365437Y-104423834D01*
X142359773Y-104446443D01*
X142351921Y-104468387D01*
X142341956Y-104489457D01*
X142329974Y-104509448D01*
X142316090Y-104528168D01*
X142300438Y-104545438D01*
X142283168Y-104561090D01*
X142264448Y-104574974D01*
X142244457Y-104586956D01*
X142223387Y-104596921D01*
X142201443Y-104604773D01*
X142178834Y-104610437D01*
X142155779Y-104613856D01*
X142132500Y-104615000D01*
X141557500Y-104615000D01*
X141534221Y-104613856D01*
X141511166Y-104610437D01*
X141488557Y-104604773D01*
X141466613Y-104596921D01*
X141445543Y-104586956D01*
X141425552Y-104574974D01*
X141406832Y-104561090D01*
X141389562Y-104545438D01*
X141373910Y-104528168D01*
X141360026Y-104509448D01*
X141348044Y-104489457D01*
X141338079Y-104468387D01*
X141330227Y-104446443D01*
X141324563Y-104423834D01*
X141321144Y-104400779D01*
X141320000Y-104377500D01*
X141320000Y-103902500D01*
X141321144Y-103879221D01*
X141324563Y-103856166D01*
X141330227Y-103833557D01*
X141338079Y-103811613D01*
X141348044Y-103790543D01*
X141360026Y-103770552D01*
X141373910Y-103751832D01*
X141389562Y-103734562D01*
X141406832Y-103718910D01*
X141425552Y-103705026D01*
X141445543Y-103693044D01*
X141466613Y-103683079D01*
X141488557Y-103675227D01*
X141511166Y-103669563D01*
X141534221Y-103666144D01*
X141557500Y-103665000D01*
X142132500Y-103665000D01*
X142155779Y-103666144D01*
G37*
G04 #@! TD.AperFunction*
G04 #@! TD*
G04 #@! TA.AperFunction,SMDPad,CuDef*
G04 #@! TO.P,R14,2*
G04 #@! TO.N,GND*
G36*
X143770779Y-83183144D02*
G01*
X143793834Y-83186563D01*
X143816443Y-83192227D01*
X143838387Y-83200079D01*
X143859457Y-83210044D01*
X143879448Y-83222026D01*
X143898168Y-83235910D01*
X143915438Y-83251562D01*
X143931090Y-83268832D01*
X143944974Y-83287552D01*
X143956956Y-83307543D01*
X143966921Y-83328613D01*
X143974773Y-83350557D01*
X143980437Y-83373166D01*
X143983856Y-83396221D01*
X143985000Y-83419500D01*
X143985000Y-83994500D01*
X143983856Y-84017779D01*
X143980437Y-84040834D01*
X143974773Y-84063443D01*
X143966921Y-84085387D01*
X143956956Y-84106457D01*
X143944974Y-84126448D01*
X143931090Y-84145168D01*
X143915438Y-84162438D01*
X143898168Y-84178090D01*
X143879448Y-84191974D01*
X143859457Y-84203956D01*
X143838387Y-84213921D01*
X143816443Y-84221773D01*
X143793834Y-84227437D01*
X143770779Y-84230856D01*
X143747500Y-84232000D01*
X143272500Y-84232000D01*
X143249221Y-84230856D01*
X143226166Y-84227437D01*
X143203557Y-84221773D01*
X143181613Y-84213921D01*
X143160543Y-84203956D01*
X143140552Y-84191974D01*
X143121832Y-84178090D01*
X143104562Y-84162438D01*
X143088910Y-84145168D01*
X143075026Y-84126448D01*
X143063044Y-84106457D01*
X143053079Y-84085387D01*
X143045227Y-84063443D01*
X143039563Y-84040834D01*
X143036144Y-84017779D01*
X143035000Y-83994500D01*
X143035000Y-83419500D01*
X143036144Y-83396221D01*
X143039563Y-83373166D01*
X143045227Y-83350557D01*
X143053079Y-83328613D01*
X143063044Y-83307543D01*
X143075026Y-83287552D01*
X143088910Y-83268832D01*
X143104562Y-83251562D01*
X143121832Y-83235910D01*
X143140552Y-83222026D01*
X143160543Y-83210044D01*
X143181613Y-83200079D01*
X143203557Y-83192227D01*
X143226166Y-83186563D01*
X143249221Y-83183144D01*
X143272500Y-83182000D01*
X143747500Y-83182000D01*
X143770779Y-83183144D01*
G37*
G04 #@! TD.AperFunction*
G04 #@! TA.AperFunction,SMDPad,CuDef*
G04 #@! TO.P,R14,1*
G04 #@! TO.N,CTRL2*
G36*
X143770779Y-84933144D02*
G01*
X143793834Y-84936563D01*
X143816443Y-84942227D01*
X143838387Y-84950079D01*
X143859457Y-84960044D01*
X143879448Y-84972026D01*
X143898168Y-84985910D01*
X143915438Y-85001562D01*
X143931090Y-85018832D01*
X143944974Y-85037552D01*
X143956956Y-85057543D01*
X143966921Y-85078613D01*
X143974773Y-85100557D01*
X143980437Y-85123166D01*
X143983856Y-85146221D01*
X143985000Y-85169500D01*
X143985000Y-85744500D01*
X143983856Y-85767779D01*
X143980437Y-85790834D01*
X143974773Y-85813443D01*
X143966921Y-85835387D01*
X143956956Y-85856457D01*
X143944974Y-85876448D01*
X143931090Y-85895168D01*
X143915438Y-85912438D01*
X143898168Y-85928090D01*
X143879448Y-85941974D01*
X143859457Y-85953956D01*
X143838387Y-85963921D01*
X143816443Y-85971773D01*
X143793834Y-85977437D01*
X143770779Y-85980856D01*
X143747500Y-85982000D01*
X143272500Y-85982000D01*
X143249221Y-85980856D01*
X143226166Y-85977437D01*
X143203557Y-85971773D01*
X143181613Y-85963921D01*
X143160543Y-85953956D01*
X143140552Y-85941974D01*
X143121832Y-85928090D01*
X143104562Y-85912438D01*
X143088910Y-85895168D01*
X143075026Y-85876448D01*
X143063044Y-85856457D01*
X143053079Y-85835387D01*
X143045227Y-85813443D01*
X143039563Y-85790834D01*
X143036144Y-85767779D01*
X143035000Y-85744500D01*
X143035000Y-85169500D01*
X143036144Y-85146221D01*
X143039563Y-85123166D01*
X143045227Y-85100557D01*
X143053079Y-85078613D01*
X143063044Y-85057543D01*
X143075026Y-85037552D01*
X143088910Y-85018832D01*
X143104562Y-85001562D01*
X143121832Y-84985910D01*
X143140552Y-84972026D01*
X143160543Y-84960044D01*
X143181613Y-84950079D01*
X143203557Y-84942227D01*
X143226166Y-84936563D01*
X143249221Y-84933144D01*
X143272500Y-84932000D01*
X143747500Y-84932000D01*
X143770779Y-84933144D01*
G37*
G04 #@! TD.AperFunction*
G04 #@! TD*
G04 #@! TA.AperFunction,SMDPad,CuDef*
G04 #@! TO.P,R13,2*
G04 #@! TO.N,GND*
G36*
X147616779Y-83219144D02*
G01*
X147639834Y-83222563D01*
X147662443Y-83228227D01*
X147684387Y-83236079D01*
X147705457Y-83246044D01*
X147725448Y-83258026D01*
X147744168Y-83271910D01*
X147761438Y-83287562D01*
X147777090Y-83304832D01*
X147790974Y-83323552D01*
X147802956Y-83343543D01*
X147812921Y-83364613D01*
X147820773Y-83386557D01*
X147826437Y-83409166D01*
X147829856Y-83432221D01*
X147831000Y-83455500D01*
X147831000Y-83930500D01*
X147829856Y-83953779D01*
X147826437Y-83976834D01*
X147820773Y-83999443D01*
X147812921Y-84021387D01*
X147802956Y-84042457D01*
X147790974Y-84062448D01*
X147777090Y-84081168D01*
X147761438Y-84098438D01*
X147744168Y-84114090D01*
X147725448Y-84127974D01*
X147705457Y-84139956D01*
X147684387Y-84149921D01*
X147662443Y-84157773D01*
X147639834Y-84163437D01*
X147616779Y-84166856D01*
X147593500Y-84168000D01*
X147018500Y-84168000D01*
X146995221Y-84166856D01*
X146972166Y-84163437D01*
X146949557Y-84157773D01*
X146927613Y-84149921D01*
X146906543Y-84139956D01*
X146886552Y-84127974D01*
X146867832Y-84114090D01*
X146850562Y-84098438D01*
X146834910Y-84081168D01*
X146821026Y-84062448D01*
X146809044Y-84042457D01*
X146799079Y-84021387D01*
X146791227Y-83999443D01*
X146785563Y-83976834D01*
X146782144Y-83953779D01*
X146781000Y-83930500D01*
X146781000Y-83455500D01*
X146782144Y-83432221D01*
X146785563Y-83409166D01*
X146791227Y-83386557D01*
X146799079Y-83364613D01*
X146809044Y-83343543D01*
X146821026Y-83323552D01*
X146834910Y-83304832D01*
X146850562Y-83287562D01*
X146867832Y-83271910D01*
X146886552Y-83258026D01*
X146906543Y-83246044D01*
X146927613Y-83236079D01*
X146949557Y-83228227D01*
X146972166Y-83222563D01*
X146995221Y-83219144D01*
X147018500Y-83218000D01*
X147593500Y-83218000D01*
X147616779Y-83219144D01*
G37*
G04 #@! TD.AperFunction*
G04 #@! TA.AperFunction,SMDPad,CuDef*
G04 #@! TO.P,R13,1*
G04 #@! TO.N,Net-(R13-Pad1)*
G36*
X145866779Y-83219144D02*
G01*
X145889834Y-83222563D01*
X145912443Y-83228227D01*
X145934387Y-83236079D01*
X145955457Y-83246044D01*
X145975448Y-83258026D01*
X145994168Y-83271910D01*
X146011438Y-83287562D01*
X146027090Y-83304832D01*
X146040974Y-83323552D01*
X146052956Y-83343543D01*
X146062921Y-83364613D01*
X146070773Y-83386557D01*
X146076437Y-83409166D01*
X146079856Y-83432221D01*
X146081000Y-83455500D01*
X146081000Y-83930500D01*
X146079856Y-83953779D01*
X146076437Y-83976834D01*
X146070773Y-83999443D01*
X146062921Y-84021387D01*
X146052956Y-84042457D01*
X146040974Y-84062448D01*
X146027090Y-84081168D01*
X146011438Y-84098438D01*
X145994168Y-84114090D01*
X145975448Y-84127974D01*
X145955457Y-84139956D01*
X145934387Y-84149921D01*
X145912443Y-84157773D01*
X145889834Y-84163437D01*
X145866779Y-84166856D01*
X145843500Y-84168000D01*
X145268500Y-84168000D01*
X145245221Y-84166856D01*
X145222166Y-84163437D01*
X145199557Y-84157773D01*
X145177613Y-84149921D01*
X145156543Y-84139956D01*
X145136552Y-84127974D01*
X145117832Y-84114090D01*
X145100562Y-84098438D01*
X145084910Y-84081168D01*
X145071026Y-84062448D01*
X145059044Y-84042457D01*
X145049079Y-84021387D01*
X145041227Y-83999443D01*
X145035563Y-83976834D01*
X145032144Y-83953779D01*
X145031000Y-83930500D01*
X145031000Y-83455500D01*
X145032144Y-83432221D01*
X145035563Y-83409166D01*
X145041227Y-83386557D01*
X145049079Y-83364613D01*
X145059044Y-83343543D01*
X145071026Y-83323552D01*
X145084910Y-83304832D01*
X145100562Y-83287562D01*
X145117832Y-83271910D01*
X145136552Y-83258026D01*
X145156543Y-83246044D01*
X145177613Y-83236079D01*
X145199557Y-83228227D01*
X145222166Y-83222563D01*
X145245221Y-83219144D01*
X145268500Y-83218000D01*
X145843500Y-83218000D01*
X145866779Y-83219144D01*
G37*
G04 #@! TD.AperFunction*
G04 #@! TD*
G04 #@! TA.AperFunction,SMDPad,CuDef*
G04 #@! TO.P,R12,2*
G04 #@! TO.N,GND*
G36*
X144151779Y-90267144D02*
G01*
X144174834Y-90270563D01*
X144197443Y-90276227D01*
X144219387Y-90284079D01*
X144240457Y-90294044D01*
X144260448Y-90306026D01*
X144279168Y-90319910D01*
X144296438Y-90335562D01*
X144312090Y-90352832D01*
X144325974Y-90371552D01*
X144337956Y-90391543D01*
X144347921Y-90412613D01*
X144355773Y-90434557D01*
X144361437Y-90457166D01*
X144364856Y-90480221D01*
X144366000Y-90503500D01*
X144366000Y-91078500D01*
X144364856Y-91101779D01*
X144361437Y-91124834D01*
X144355773Y-91147443D01*
X144347921Y-91169387D01*
X144337956Y-91190457D01*
X144325974Y-91210448D01*
X144312090Y-91229168D01*
X144296438Y-91246438D01*
X144279168Y-91262090D01*
X144260448Y-91275974D01*
X144240457Y-91287956D01*
X144219387Y-91297921D01*
X144197443Y-91305773D01*
X144174834Y-91311437D01*
X144151779Y-91314856D01*
X144128500Y-91316000D01*
X143653500Y-91316000D01*
X143630221Y-91314856D01*
X143607166Y-91311437D01*
X143584557Y-91305773D01*
X143562613Y-91297921D01*
X143541543Y-91287956D01*
X143521552Y-91275974D01*
X143502832Y-91262090D01*
X143485562Y-91246438D01*
X143469910Y-91229168D01*
X143456026Y-91210448D01*
X143444044Y-91190457D01*
X143434079Y-91169387D01*
X143426227Y-91147443D01*
X143420563Y-91124834D01*
X143417144Y-91101779D01*
X143416000Y-91078500D01*
X143416000Y-90503500D01*
X143417144Y-90480221D01*
X143420563Y-90457166D01*
X143426227Y-90434557D01*
X143434079Y-90412613D01*
X143444044Y-90391543D01*
X143456026Y-90371552D01*
X143469910Y-90352832D01*
X143485562Y-90335562D01*
X143502832Y-90319910D01*
X143521552Y-90306026D01*
X143541543Y-90294044D01*
X143562613Y-90284079D01*
X143584557Y-90276227D01*
X143607166Y-90270563D01*
X143630221Y-90267144D01*
X143653500Y-90266000D01*
X144128500Y-90266000D01*
X144151779Y-90267144D01*
G37*
G04 #@! TD.AperFunction*
G04 #@! TA.AperFunction,SMDPad,CuDef*
G04 #@! TO.P,R12,1*
G04 #@! TO.N,STANDBY2*
G36*
X144151779Y-88517144D02*
G01*
X144174834Y-88520563D01*
X144197443Y-88526227D01*
X144219387Y-88534079D01*
X144240457Y-88544044D01*
X144260448Y-88556026D01*
X144279168Y-88569910D01*
X144296438Y-88585562D01*
X144312090Y-88602832D01*
X144325974Y-88621552D01*
X144337956Y-88641543D01*
X144347921Y-88662613D01*
X144355773Y-88684557D01*
X144361437Y-88707166D01*
X144364856Y-88730221D01*
X144366000Y-88753500D01*
X144366000Y-89328500D01*
X144364856Y-89351779D01*
X144361437Y-89374834D01*
X144355773Y-89397443D01*
X144347921Y-89419387D01*
X144337956Y-89440457D01*
X144325974Y-89460448D01*
X144312090Y-89479168D01*
X144296438Y-89496438D01*
X144279168Y-89512090D01*
X144260448Y-89525974D01*
X144240457Y-89537956D01*
X144219387Y-89547921D01*
X144197443Y-89555773D01*
X144174834Y-89561437D01*
X144151779Y-89564856D01*
X144128500Y-89566000D01*
X143653500Y-89566000D01*
X143630221Y-89564856D01*
X143607166Y-89561437D01*
X143584557Y-89555773D01*
X143562613Y-89547921D01*
X143541543Y-89537956D01*
X143521552Y-89525974D01*
X143502832Y-89512090D01*
X143485562Y-89496438D01*
X143469910Y-89479168D01*
X143456026Y-89460448D01*
X143444044Y-89440457D01*
X143434079Y-89419387D01*
X143426227Y-89397443D01*
X143420563Y-89374834D01*
X143417144Y-89351779D01*
X143416000Y-89328500D01*
X143416000Y-88753500D01*
X143417144Y-88730221D01*
X143420563Y-88707166D01*
X143426227Y-88684557D01*
X143434079Y-88662613D01*
X143444044Y-88641543D01*
X143456026Y-88621552D01*
X143469910Y-88602832D01*
X143485562Y-88585562D01*
X143502832Y-88569910D01*
X143521552Y-88556026D01*
X143541543Y-88544044D01*
X143562613Y-88534079D01*
X143584557Y-88526227D01*
X143607166Y-88520563D01*
X143630221Y-88517144D01*
X143653500Y-88516000D01*
X144128500Y-88516000D01*
X144151779Y-88517144D01*
G37*
G04 #@! TD.AperFunction*
G04 #@! TD*
G04 #@! TA.AperFunction,SMDPad,CuDef*
G04 #@! TO.P,R11,2*
G04 #@! TO.N,GND*
G36*
X140532779Y-88299144D02*
G01*
X140555834Y-88302563D01*
X140578443Y-88308227D01*
X140600387Y-88316079D01*
X140621457Y-88326044D01*
X140641448Y-88338026D01*
X140660168Y-88351910D01*
X140677438Y-88367562D01*
X140693090Y-88384832D01*
X140706974Y-88403552D01*
X140718956Y-88423543D01*
X140728921Y-88444613D01*
X140736773Y-88466557D01*
X140742437Y-88489166D01*
X140745856Y-88512221D01*
X140747000Y-88535500D01*
X140747000Y-89010500D01*
X140745856Y-89033779D01*
X140742437Y-89056834D01*
X140736773Y-89079443D01*
X140728921Y-89101387D01*
X140718956Y-89122457D01*
X140706974Y-89142448D01*
X140693090Y-89161168D01*
X140677438Y-89178438D01*
X140660168Y-89194090D01*
X140641448Y-89207974D01*
X140621457Y-89219956D01*
X140600387Y-89229921D01*
X140578443Y-89237773D01*
X140555834Y-89243437D01*
X140532779Y-89246856D01*
X140509500Y-89248000D01*
X139934500Y-89248000D01*
X139911221Y-89246856D01*
X139888166Y-89243437D01*
X139865557Y-89237773D01*
X139843613Y-89229921D01*
X139822543Y-89219956D01*
X139802552Y-89207974D01*
X139783832Y-89194090D01*
X139766562Y-89178438D01*
X139750910Y-89161168D01*
X139737026Y-89142448D01*
X139725044Y-89122457D01*
X139715079Y-89101387D01*
X139707227Y-89079443D01*
X139701563Y-89056834D01*
X139698144Y-89033779D01*
X139697000Y-89010500D01*
X139697000Y-88535500D01*
X139698144Y-88512221D01*
X139701563Y-88489166D01*
X139707227Y-88466557D01*
X139715079Y-88444613D01*
X139725044Y-88423543D01*
X139737026Y-88403552D01*
X139750910Y-88384832D01*
X139766562Y-88367562D01*
X139783832Y-88351910D01*
X139802552Y-88338026D01*
X139822543Y-88326044D01*
X139843613Y-88316079D01*
X139865557Y-88308227D01*
X139888166Y-88302563D01*
X139911221Y-88299144D01*
X139934500Y-88298000D01*
X140509500Y-88298000D01*
X140532779Y-88299144D01*
G37*
G04 #@! TD.AperFunction*
G04 #@! TA.AperFunction,SMDPad,CuDef*
G04 #@! TO.P,R11,1*
G04 #@! TO.N,FSYNC2*
G36*
X142282779Y-88299144D02*
G01*
X142305834Y-88302563D01*
X142328443Y-88308227D01*
X142350387Y-88316079D01*
X142371457Y-88326044D01*
X142391448Y-88338026D01*
X142410168Y-88351910D01*
X142427438Y-88367562D01*
X142443090Y-88384832D01*
X142456974Y-88403552D01*
X142468956Y-88423543D01*
X142478921Y-88444613D01*
X142486773Y-88466557D01*
X142492437Y-88489166D01*
X142495856Y-88512221D01*
X142497000Y-88535500D01*
X142497000Y-89010500D01*
X142495856Y-89033779D01*
X142492437Y-89056834D01*
X142486773Y-89079443D01*
X142478921Y-89101387D01*
X142468956Y-89122457D01*
X142456974Y-89142448D01*
X142443090Y-89161168D01*
X142427438Y-89178438D01*
X142410168Y-89194090D01*
X142391448Y-89207974D01*
X142371457Y-89219956D01*
X142350387Y-89229921D01*
X142328443Y-89237773D01*
X142305834Y-89243437D01*
X142282779Y-89246856D01*
X142259500Y-89248000D01*
X141684500Y-89248000D01*
X141661221Y-89246856D01*
X141638166Y-89243437D01*
X141615557Y-89237773D01*
X141593613Y-89229921D01*
X141572543Y-89219956D01*
X141552552Y-89207974D01*
X141533832Y-89194090D01*
X141516562Y-89178438D01*
X141500910Y-89161168D01*
X141487026Y-89142448D01*
X141475044Y-89122457D01*
X141465079Y-89101387D01*
X141457227Y-89079443D01*
X141451563Y-89056834D01*
X141448144Y-89033779D01*
X141447000Y-89010500D01*
X141447000Y-88535500D01*
X141448144Y-88512221D01*
X141451563Y-88489166D01*
X141457227Y-88466557D01*
X141465079Y-88444613D01*
X141475044Y-88423543D01*
X141487026Y-88403552D01*
X141500910Y-88384832D01*
X141516562Y-88367562D01*
X141533832Y-88351910D01*
X141552552Y-88338026D01*
X141572543Y-88326044D01*
X141593613Y-88316079D01*
X141615557Y-88308227D01*
X141638166Y-88302563D01*
X141661221Y-88299144D01*
X141684500Y-88298000D01*
X142259500Y-88298000D01*
X142282779Y-88299144D01*
G37*
G04 #@! TD.AperFunction*
G04 #@! TD*
G04 #@! TA.AperFunction,SMDPad,CuDef*
G04 #@! TO.P,R10,2*
G04 #@! TO.N,GND*
G36*
X145929779Y-66292144D02*
G01*
X145952834Y-66295563D01*
X145975443Y-66301227D01*
X145997387Y-66309079D01*
X146018457Y-66319044D01*
X146038448Y-66331026D01*
X146057168Y-66344910D01*
X146074438Y-66360562D01*
X146090090Y-66377832D01*
X146103974Y-66396552D01*
X146115956Y-66416543D01*
X146125921Y-66437613D01*
X146133773Y-66459557D01*
X146139437Y-66482166D01*
X146142856Y-66505221D01*
X146144000Y-66528500D01*
X146144000Y-67103500D01*
X146142856Y-67126779D01*
X146139437Y-67149834D01*
X146133773Y-67172443D01*
X146125921Y-67194387D01*
X146115956Y-67215457D01*
X146103974Y-67235448D01*
X146090090Y-67254168D01*
X146074438Y-67271438D01*
X146057168Y-67287090D01*
X146038448Y-67300974D01*
X146018457Y-67312956D01*
X145997387Y-67322921D01*
X145975443Y-67330773D01*
X145952834Y-67336437D01*
X145929779Y-67339856D01*
X145906500Y-67341000D01*
X145431500Y-67341000D01*
X145408221Y-67339856D01*
X145385166Y-67336437D01*
X145362557Y-67330773D01*
X145340613Y-67322921D01*
X145319543Y-67312956D01*
X145299552Y-67300974D01*
X145280832Y-67287090D01*
X145263562Y-67271438D01*
X145247910Y-67254168D01*
X145234026Y-67235448D01*
X145222044Y-67215457D01*
X145212079Y-67194387D01*
X145204227Y-67172443D01*
X145198563Y-67149834D01*
X145195144Y-67126779D01*
X145194000Y-67103500D01*
X145194000Y-66528500D01*
X145195144Y-66505221D01*
X145198563Y-66482166D01*
X145204227Y-66459557D01*
X145212079Y-66437613D01*
X145222044Y-66416543D01*
X145234026Y-66396552D01*
X145247910Y-66377832D01*
X145263562Y-66360562D01*
X145280832Y-66344910D01*
X145299552Y-66331026D01*
X145319543Y-66319044D01*
X145340613Y-66309079D01*
X145362557Y-66301227D01*
X145385166Y-66295563D01*
X145408221Y-66292144D01*
X145431500Y-66291000D01*
X145906500Y-66291000D01*
X145929779Y-66292144D01*
G37*
G04 #@! TD.AperFunction*
G04 #@! TA.AperFunction,SMDPad,CuDef*
G04 #@! TO.P,R10,1*
G04 #@! TO.N,CTRL1*
G36*
X145929779Y-68042144D02*
G01*
X145952834Y-68045563D01*
X145975443Y-68051227D01*
X145997387Y-68059079D01*
X146018457Y-68069044D01*
X146038448Y-68081026D01*
X146057168Y-68094910D01*
X146074438Y-68110562D01*
X146090090Y-68127832D01*
X146103974Y-68146552D01*
X146115956Y-68166543D01*
X146125921Y-68187613D01*
X146133773Y-68209557D01*
X146139437Y-68232166D01*
X146142856Y-68255221D01*
X146144000Y-68278500D01*
X146144000Y-68853500D01*
X146142856Y-68876779D01*
X146139437Y-68899834D01*
X146133773Y-68922443D01*
X146125921Y-68944387D01*
X146115956Y-68965457D01*
X146103974Y-68985448D01*
X146090090Y-69004168D01*
X146074438Y-69021438D01*
X146057168Y-69037090D01*
X146038448Y-69050974D01*
X146018457Y-69062956D01*
X145997387Y-69072921D01*
X145975443Y-69080773D01*
X145952834Y-69086437D01*
X145929779Y-69089856D01*
X145906500Y-69091000D01*
X145431500Y-69091000D01*
X145408221Y-69089856D01*
X145385166Y-69086437D01*
X145362557Y-69080773D01*
X145340613Y-69072921D01*
X145319543Y-69062956D01*
X145299552Y-69050974D01*
X145280832Y-69037090D01*
X145263562Y-69021438D01*
X145247910Y-69004168D01*
X145234026Y-68985448D01*
X145222044Y-68965457D01*
X145212079Y-68944387D01*
X145204227Y-68922443D01*
X145198563Y-68899834D01*
X145195144Y-68876779D01*
X145194000Y-68853500D01*
X145194000Y-68278500D01*
X145195144Y-68255221D01*
X145198563Y-68232166D01*
X145204227Y-68209557D01*
X145212079Y-68187613D01*
X145222044Y-68166543D01*
X145234026Y-68146552D01*
X145247910Y-68127832D01*
X145263562Y-68110562D01*
X145280832Y-68094910D01*
X145299552Y-68081026D01*
X145319543Y-68069044D01*
X145340613Y-68059079D01*
X145362557Y-68051227D01*
X145385166Y-68045563D01*
X145408221Y-68042144D01*
X145431500Y-68041000D01*
X145906500Y-68041000D01*
X145929779Y-68042144D01*
G37*
G04 #@! TD.AperFunction*
G04 #@! TD*
G04 #@! TA.AperFunction,SMDPad,CuDef*
G04 #@! TO.P,R9,2*
G04 #@! TO.N,GND*
G36*
X149521779Y-66201144D02*
G01*
X149544834Y-66204563D01*
X149567443Y-66210227D01*
X149589387Y-66218079D01*
X149610457Y-66228044D01*
X149630448Y-66240026D01*
X149649168Y-66253910D01*
X149666438Y-66269562D01*
X149682090Y-66286832D01*
X149695974Y-66305552D01*
X149707956Y-66325543D01*
X149717921Y-66346613D01*
X149725773Y-66368557D01*
X149731437Y-66391166D01*
X149734856Y-66414221D01*
X149736000Y-66437500D01*
X149736000Y-66912500D01*
X149734856Y-66935779D01*
X149731437Y-66958834D01*
X149725773Y-66981443D01*
X149717921Y-67003387D01*
X149707956Y-67024457D01*
X149695974Y-67044448D01*
X149682090Y-67063168D01*
X149666438Y-67080438D01*
X149649168Y-67096090D01*
X149630448Y-67109974D01*
X149610457Y-67121956D01*
X149589387Y-67131921D01*
X149567443Y-67139773D01*
X149544834Y-67145437D01*
X149521779Y-67148856D01*
X149498500Y-67150000D01*
X148923500Y-67150000D01*
X148900221Y-67148856D01*
X148877166Y-67145437D01*
X148854557Y-67139773D01*
X148832613Y-67131921D01*
X148811543Y-67121956D01*
X148791552Y-67109974D01*
X148772832Y-67096090D01*
X148755562Y-67080438D01*
X148739910Y-67063168D01*
X148726026Y-67044448D01*
X148714044Y-67024457D01*
X148704079Y-67003387D01*
X148696227Y-66981443D01*
X148690563Y-66958834D01*
X148687144Y-66935779D01*
X148686000Y-66912500D01*
X148686000Y-66437500D01*
X148687144Y-66414221D01*
X148690563Y-66391166D01*
X148696227Y-66368557D01*
X148704079Y-66346613D01*
X148714044Y-66325543D01*
X148726026Y-66305552D01*
X148739910Y-66286832D01*
X148755562Y-66269562D01*
X148772832Y-66253910D01*
X148791552Y-66240026D01*
X148811543Y-66228044D01*
X148832613Y-66218079D01*
X148854557Y-66210227D01*
X148877166Y-66204563D01*
X148900221Y-66201144D01*
X148923500Y-66200000D01*
X149498500Y-66200000D01*
X149521779Y-66201144D01*
G37*
G04 #@! TD.AperFunction*
G04 #@! TA.AperFunction,SMDPad,CuDef*
G04 #@! TO.P,R9,1*
G04 #@! TO.N,Net-(R9-Pad1)*
G36*
X147771779Y-66201144D02*
G01*
X147794834Y-66204563D01*
X147817443Y-66210227D01*
X147839387Y-66218079D01*
X147860457Y-66228044D01*
X147880448Y-66240026D01*
X147899168Y-66253910D01*
X147916438Y-66269562D01*
X147932090Y-66286832D01*
X147945974Y-66305552D01*
X147957956Y-66325543D01*
X147967921Y-66346613D01*
X147975773Y-66368557D01*
X147981437Y-66391166D01*
X147984856Y-66414221D01*
X147986000Y-66437500D01*
X147986000Y-66912500D01*
X147984856Y-66935779D01*
X147981437Y-66958834D01*
X147975773Y-66981443D01*
X147967921Y-67003387D01*
X147957956Y-67024457D01*
X147945974Y-67044448D01*
X147932090Y-67063168D01*
X147916438Y-67080438D01*
X147899168Y-67096090D01*
X147880448Y-67109974D01*
X147860457Y-67121956D01*
X147839387Y-67131921D01*
X147817443Y-67139773D01*
X147794834Y-67145437D01*
X147771779Y-67148856D01*
X147748500Y-67150000D01*
X147173500Y-67150000D01*
X147150221Y-67148856D01*
X147127166Y-67145437D01*
X147104557Y-67139773D01*
X147082613Y-67131921D01*
X147061543Y-67121956D01*
X147041552Y-67109974D01*
X147022832Y-67096090D01*
X147005562Y-67080438D01*
X146989910Y-67063168D01*
X146976026Y-67044448D01*
X146964044Y-67024457D01*
X146954079Y-67003387D01*
X146946227Y-66981443D01*
X146940563Y-66958834D01*
X146937144Y-66935779D01*
X146936000Y-66912500D01*
X146936000Y-66437500D01*
X146937144Y-66414221D01*
X146940563Y-66391166D01*
X146946227Y-66368557D01*
X146954079Y-66346613D01*
X146964044Y-66325543D01*
X146976026Y-66305552D01*
X146989910Y-66286832D01*
X147005562Y-66269562D01*
X147022832Y-66253910D01*
X147041552Y-66240026D01*
X147061543Y-66228044D01*
X147082613Y-66218079D01*
X147104557Y-66210227D01*
X147127166Y-66204563D01*
X147150221Y-66201144D01*
X147173500Y-66200000D01*
X147748500Y-66200000D01*
X147771779Y-66201144D01*
G37*
G04 #@! TD.AperFunction*
G04 #@! TD*
G04 #@! TA.AperFunction,SMDPad,CuDef*
G04 #@! TO.P,R8,2*
G04 #@! TO.N,GND*
G36*
X146183779Y-72868144D02*
G01*
X146206834Y-72871563D01*
X146229443Y-72877227D01*
X146251387Y-72885079D01*
X146272457Y-72895044D01*
X146292448Y-72907026D01*
X146311168Y-72920910D01*
X146328438Y-72936562D01*
X146344090Y-72953832D01*
X146357974Y-72972552D01*
X146369956Y-72992543D01*
X146379921Y-73013613D01*
X146387773Y-73035557D01*
X146393437Y-73058166D01*
X146396856Y-73081221D01*
X146398000Y-73104500D01*
X146398000Y-73679500D01*
X146396856Y-73702779D01*
X146393437Y-73725834D01*
X146387773Y-73748443D01*
X146379921Y-73770387D01*
X146369956Y-73791457D01*
X146357974Y-73811448D01*
X146344090Y-73830168D01*
X146328438Y-73847438D01*
X146311168Y-73863090D01*
X146292448Y-73876974D01*
X146272457Y-73888956D01*
X146251387Y-73898921D01*
X146229443Y-73906773D01*
X146206834Y-73912437D01*
X146183779Y-73915856D01*
X146160500Y-73917000D01*
X145685500Y-73917000D01*
X145662221Y-73915856D01*
X145639166Y-73912437D01*
X145616557Y-73906773D01*
X145594613Y-73898921D01*
X145573543Y-73888956D01*
X145553552Y-73876974D01*
X145534832Y-73863090D01*
X145517562Y-73847438D01*
X145501910Y-73830168D01*
X145488026Y-73811448D01*
X145476044Y-73791457D01*
X145466079Y-73770387D01*
X145458227Y-73748443D01*
X145452563Y-73725834D01*
X145449144Y-73702779D01*
X145448000Y-73679500D01*
X145448000Y-73104500D01*
X145449144Y-73081221D01*
X145452563Y-73058166D01*
X145458227Y-73035557D01*
X145466079Y-73013613D01*
X145476044Y-72992543D01*
X145488026Y-72972552D01*
X145501910Y-72953832D01*
X145517562Y-72936562D01*
X145534832Y-72920910D01*
X145553552Y-72907026D01*
X145573543Y-72895044D01*
X145594613Y-72885079D01*
X145616557Y-72877227D01*
X145639166Y-72871563D01*
X145662221Y-72868144D01*
X145685500Y-72867000D01*
X146160500Y-72867000D01*
X146183779Y-72868144D01*
G37*
G04 #@! TD.AperFunction*
G04 #@! TA.AperFunction,SMDPad,CuDef*
G04 #@! TO.P,R8,1*
G04 #@! TO.N,STANDBY1*
G36*
X146183779Y-71118144D02*
G01*
X146206834Y-71121563D01*
X146229443Y-71127227D01*
X146251387Y-71135079D01*
X146272457Y-71145044D01*
X146292448Y-71157026D01*
X146311168Y-71170910D01*
X146328438Y-71186562D01*
X146344090Y-71203832D01*
X146357974Y-71222552D01*
X146369956Y-71242543D01*
X146379921Y-71263613D01*
X146387773Y-71285557D01*
X146393437Y-71308166D01*
X146396856Y-71331221D01*
X146398000Y-71354500D01*
X146398000Y-71929500D01*
X146396856Y-71952779D01*
X146393437Y-71975834D01*
X146387773Y-71998443D01*
X146379921Y-72020387D01*
X146369956Y-72041457D01*
X146357974Y-72061448D01*
X146344090Y-72080168D01*
X146328438Y-72097438D01*
X146311168Y-72113090D01*
X146292448Y-72126974D01*
X146272457Y-72138956D01*
X146251387Y-72148921D01*
X146229443Y-72156773D01*
X146206834Y-72162437D01*
X146183779Y-72165856D01*
X146160500Y-72167000D01*
X145685500Y-72167000D01*
X145662221Y-72165856D01*
X145639166Y-72162437D01*
X145616557Y-72156773D01*
X145594613Y-72148921D01*
X145573543Y-72138956D01*
X145553552Y-72126974D01*
X145534832Y-72113090D01*
X145517562Y-72097438D01*
X145501910Y-72080168D01*
X145488026Y-72061448D01*
X145476044Y-72041457D01*
X145466079Y-72020387D01*
X145458227Y-71998443D01*
X145452563Y-71975834D01*
X145449144Y-71952779D01*
X145448000Y-71929500D01*
X145448000Y-71354500D01*
X145449144Y-71331221D01*
X145452563Y-71308166D01*
X145458227Y-71285557D01*
X145466079Y-71263613D01*
X145476044Y-71242543D01*
X145488026Y-71222552D01*
X145501910Y-71203832D01*
X145517562Y-71186562D01*
X145534832Y-71170910D01*
X145553552Y-71157026D01*
X145573543Y-71145044D01*
X145594613Y-71135079D01*
X145616557Y-71127227D01*
X145639166Y-71121563D01*
X145662221Y-71118144D01*
X145685500Y-71117000D01*
X146160500Y-71117000D01*
X146183779Y-71118144D01*
G37*
G04 #@! TD.AperFunction*
G04 #@! TD*
G04 #@! TA.AperFunction,SMDPad,CuDef*
G04 #@! TO.P,R7,2*
G04 #@! TO.N,GND*
G36*
X142691779Y-70646144D02*
G01*
X142714834Y-70649563D01*
X142737443Y-70655227D01*
X142759387Y-70663079D01*
X142780457Y-70673044D01*
X142800448Y-70685026D01*
X142819168Y-70698910D01*
X142836438Y-70714562D01*
X142852090Y-70731832D01*
X142865974Y-70750552D01*
X142877956Y-70770543D01*
X142887921Y-70791613D01*
X142895773Y-70813557D01*
X142901437Y-70836166D01*
X142904856Y-70859221D01*
X142906000Y-70882500D01*
X142906000Y-71357500D01*
X142904856Y-71380779D01*
X142901437Y-71403834D01*
X142895773Y-71426443D01*
X142887921Y-71448387D01*
X142877956Y-71469457D01*
X142865974Y-71489448D01*
X142852090Y-71508168D01*
X142836438Y-71525438D01*
X142819168Y-71541090D01*
X142800448Y-71554974D01*
X142780457Y-71566956D01*
X142759387Y-71576921D01*
X142737443Y-71584773D01*
X142714834Y-71590437D01*
X142691779Y-71593856D01*
X142668500Y-71595000D01*
X142093500Y-71595000D01*
X142070221Y-71593856D01*
X142047166Y-71590437D01*
X142024557Y-71584773D01*
X142002613Y-71576921D01*
X141981543Y-71566956D01*
X141961552Y-71554974D01*
X141942832Y-71541090D01*
X141925562Y-71525438D01*
X141909910Y-71508168D01*
X141896026Y-71489448D01*
X141884044Y-71469457D01*
X141874079Y-71448387D01*
X141866227Y-71426443D01*
X141860563Y-71403834D01*
X141857144Y-71380779D01*
X141856000Y-71357500D01*
X141856000Y-70882500D01*
X141857144Y-70859221D01*
X141860563Y-70836166D01*
X141866227Y-70813557D01*
X141874079Y-70791613D01*
X141884044Y-70770543D01*
X141896026Y-70750552D01*
X141909910Y-70731832D01*
X141925562Y-70714562D01*
X141942832Y-70698910D01*
X141961552Y-70685026D01*
X141981543Y-70673044D01*
X142002613Y-70663079D01*
X142024557Y-70655227D01*
X142047166Y-70649563D01*
X142070221Y-70646144D01*
X142093500Y-70645000D01*
X142668500Y-70645000D01*
X142691779Y-70646144D01*
G37*
G04 #@! TD.AperFunction*
G04 #@! TA.AperFunction,SMDPad,CuDef*
G04 #@! TO.P,R7,1*
G04 #@! TO.N,FSYNC1*
G36*
X144441779Y-70646144D02*
G01*
X144464834Y-70649563D01*
X144487443Y-70655227D01*
X144509387Y-70663079D01*
X144530457Y-70673044D01*
X144550448Y-70685026D01*
X144569168Y-70698910D01*
X144586438Y-70714562D01*
X144602090Y-70731832D01*
X144615974Y-70750552D01*
X144627956Y-70770543D01*
X144637921Y-70791613D01*
X144645773Y-70813557D01*
X144651437Y-70836166D01*
X144654856Y-70859221D01*
X144656000Y-70882500D01*
X144656000Y-71357500D01*
X144654856Y-71380779D01*
X144651437Y-71403834D01*
X144645773Y-71426443D01*
X144637921Y-71448387D01*
X144627956Y-71469457D01*
X144615974Y-71489448D01*
X144602090Y-71508168D01*
X144586438Y-71525438D01*
X144569168Y-71541090D01*
X144550448Y-71554974D01*
X144530457Y-71566956D01*
X144509387Y-71576921D01*
X144487443Y-71584773D01*
X144464834Y-71590437D01*
X144441779Y-71593856D01*
X144418500Y-71595000D01*
X143843500Y-71595000D01*
X143820221Y-71593856D01*
X143797166Y-71590437D01*
X143774557Y-71584773D01*
X143752613Y-71576921D01*
X143731543Y-71566956D01*
X143711552Y-71554974D01*
X143692832Y-71541090D01*
X143675562Y-71525438D01*
X143659910Y-71508168D01*
X143646026Y-71489448D01*
X143634044Y-71469457D01*
X143624079Y-71448387D01*
X143616227Y-71426443D01*
X143610563Y-71403834D01*
X143607144Y-71380779D01*
X143606000Y-71357500D01*
X143606000Y-70882500D01*
X143607144Y-70859221D01*
X143610563Y-70836166D01*
X143616227Y-70813557D01*
X143624079Y-70791613D01*
X143634044Y-70770543D01*
X143646026Y-70750552D01*
X143659910Y-70731832D01*
X143675562Y-70714562D01*
X143692832Y-70698910D01*
X143711552Y-70685026D01*
X143731543Y-70673044D01*
X143752613Y-70663079D01*
X143774557Y-70655227D01*
X143797166Y-70649563D01*
X143820221Y-70646144D01*
X143843500Y-70645000D01*
X144418500Y-70645000D01*
X144441779Y-70646144D01*
G37*
G04 #@! TD.AperFunction*
G04 #@! TD*
D14*
G04 #@! TO.P,SDO4,1*
G04 #@! TO.N,Net-(SDO4-Pad1)*
X116840000Y-94615000D03*
G04 #@! TD*
D15*
G04 #@! TO.P,D3,2*
G04 #@! TO.N,Net-(D3-Pad2)*
X77711300Y-106934000D03*
G04 #@! TO.P,D3,1*
G04 #@! TO.N,+5V*
X82054700Y-106934000D03*
G04 #@! TD*
D16*
G04 #@! TO.P,D2,2*
G04 #@! TO.N,Net-(C2-Pad1)*
X82550000Y-92824300D03*
G04 #@! TO.P,D2,1*
G04 #@! TO.N,Net-(C3-Pad1)*
X82550000Y-97167700D03*
G04 #@! TD*
G04 #@! TO.P,D1,2*
G04 #@! TO.N,Vusb*
X90805000Y-92824300D03*
G04 #@! TO.P,D1,1*
G04 #@! TO.N,Net-(C3-Pad1)*
X90805000Y-97167700D03*
G04 #@! TD*
G04 #@! TA.AperFunction,SMDPad,CuDef*
D13*
G04 #@! TO.P,RLED1,2*
G04 #@! TO.N,Vusb*
G36*
X93449505Y-83756204D02*
G01*
X93473773Y-83759804D01*
X93497572Y-83765765D01*
X93520671Y-83774030D01*
X93542850Y-83784520D01*
X93563893Y-83797132D01*
X93583599Y-83811747D01*
X93601777Y-83828223D01*
X93618253Y-83846401D01*
X93632868Y-83866107D01*
X93645480Y-83887150D01*
X93655970Y-83909329D01*
X93664235Y-83932428D01*
X93670196Y-83956227D01*
X93673796Y-83980495D01*
X93675000Y-84004999D01*
X93675000Y-84905001D01*
X93673796Y-84929505D01*
X93670196Y-84953773D01*
X93664235Y-84977572D01*
X93655970Y-85000671D01*
X93645480Y-85022850D01*
X93632868Y-85043893D01*
X93618253Y-85063599D01*
X93601777Y-85081777D01*
X93583599Y-85098253D01*
X93563893Y-85112868D01*
X93542850Y-85125480D01*
X93520671Y-85135970D01*
X93497572Y-85144235D01*
X93473773Y-85150196D01*
X93449505Y-85153796D01*
X93425001Y-85155000D01*
X92774999Y-85155000D01*
X92750495Y-85153796D01*
X92726227Y-85150196D01*
X92702428Y-85144235D01*
X92679329Y-85135970D01*
X92657150Y-85125480D01*
X92636107Y-85112868D01*
X92616401Y-85098253D01*
X92598223Y-85081777D01*
X92581747Y-85063599D01*
X92567132Y-85043893D01*
X92554520Y-85022850D01*
X92544030Y-85000671D01*
X92535765Y-84977572D01*
X92529804Y-84953773D01*
X92526204Y-84929505D01*
X92525000Y-84905001D01*
X92525000Y-84004999D01*
X92526204Y-83980495D01*
X92529804Y-83956227D01*
X92535765Y-83932428D01*
X92544030Y-83909329D01*
X92554520Y-83887150D01*
X92567132Y-83866107D01*
X92581747Y-83846401D01*
X92598223Y-83828223D01*
X92616401Y-83811747D01*
X92636107Y-83797132D01*
X92657150Y-83784520D01*
X92679329Y-83774030D01*
X92702428Y-83765765D01*
X92726227Y-83759804D01*
X92750495Y-83756204D01*
X92774999Y-83755000D01*
X93425001Y-83755000D01*
X93449505Y-83756204D01*
G37*
G04 #@! TD.AperFunction*
G04 #@! TA.AperFunction,SMDPad,CuDef*
G04 #@! TO.P,RLED1,1*
G04 #@! TO.N,Net-(R2-Pad1)*
G36*
X91399505Y-83756204D02*
G01*
X91423773Y-83759804D01*
X91447572Y-83765765D01*
X91470671Y-83774030D01*
X91492850Y-83784520D01*
X91513893Y-83797132D01*
X91533599Y-83811747D01*
X91551777Y-83828223D01*
X91568253Y-83846401D01*
X91582868Y-83866107D01*
X91595480Y-83887150D01*
X91605970Y-83909329D01*
X91614235Y-83932428D01*
X91620196Y-83956227D01*
X91623796Y-83980495D01*
X91625000Y-84004999D01*
X91625000Y-84905001D01*
X91623796Y-84929505D01*
X91620196Y-84953773D01*
X91614235Y-84977572D01*
X91605970Y-85000671D01*
X91595480Y-85022850D01*
X91582868Y-85043893D01*
X91568253Y-85063599D01*
X91551777Y-85081777D01*
X91533599Y-85098253D01*
X91513893Y-85112868D01*
X91492850Y-85125480D01*
X91470671Y-85135970D01*
X91447572Y-85144235D01*
X91423773Y-85150196D01*
X91399505Y-85153796D01*
X91375001Y-85155000D01*
X90724999Y-85155000D01*
X90700495Y-85153796D01*
X90676227Y-85150196D01*
X90652428Y-85144235D01*
X90629329Y-85135970D01*
X90607150Y-85125480D01*
X90586107Y-85112868D01*
X90566401Y-85098253D01*
X90548223Y-85081777D01*
X90531747Y-85063599D01*
X90517132Y-85043893D01*
X90504520Y-85022850D01*
X90494030Y-85000671D01*
X90485765Y-84977572D01*
X90479804Y-84953773D01*
X90476204Y-84929505D01*
X90475000Y-84905001D01*
X90475000Y-84004999D01*
X90476204Y-83980495D01*
X90479804Y-83956227D01*
X90485765Y-83932428D01*
X90494030Y-83909329D01*
X90504520Y-83887150D01*
X90517132Y-83866107D01*
X90531747Y-83846401D01*
X90548223Y-83828223D01*
X90566401Y-83811747D01*
X90586107Y-83797132D01*
X90607150Y-83784520D01*
X90629329Y-83774030D01*
X90652428Y-83765765D01*
X90676227Y-83759804D01*
X90700495Y-83756204D01*
X90724999Y-83755000D01*
X91375001Y-83755000D01*
X91399505Y-83756204D01*
G37*
G04 #@! TD.AperFunction*
G04 #@! TD*
D17*
G04 #@! TO.P,FB1,1*
G04 #@! TO.N,Net-(FB1-Pad1)*
X98806000Y-111544100D03*
G04 #@! TO.P,FB1,2*
G04 #@! TO.N,DVDD*
X98806000Y-109943900D03*
G04 #@! TD*
D18*
G04 #@! TO.P,U4,38*
G04 #@! TO.N,GND*
X123435000Y-71374000D03*
G04 #@! TO.P,U4,37*
G04 #@! TO.N,SPI1MOSI*
X123435000Y-72644000D03*
G04 #@! TO.P,U4,36*
G04 #@! TO.N,Net-(TP8-Pad1)*
X123435000Y-73914000D03*
G04 #@! TO.P,U4,35*
G04 #@! TO.N,Net-(J3-Pad1)*
X123435000Y-75184000D03*
G04 #@! TO.P,U4,34*
G04 #@! TO.N,Net-(J3-Pad2)*
X123435000Y-76454000D03*
G04 #@! TO.P,U4,33*
G04 #@! TO.N,CTRL1*
X123435000Y-77724000D03*
G04 #@! TO.P,U4,32*
G04 #@! TO.N,Net-(U4-Pad32)*
X123435000Y-78994000D03*
G04 #@! TO.P,U4,31*
G04 #@! TO.N,FSYNC1*
X123435000Y-80264000D03*
G04 #@! TO.P,U4,30*
G04 #@! TO.N,SPI1CLK*
X123435000Y-81534000D03*
G04 #@! TO.P,U4,29*
G04 #@! TO.N,STANDBY1*
X123435000Y-82804000D03*
G04 #@! TO.P,U4,28*
G04 #@! TO.N,ENABLE1*
X123435000Y-84074000D03*
G04 #@! TO.P,U4,27*
G04 #@! TO.N,SYNC1*
X123435000Y-85344000D03*
G04 #@! TO.P,U4,26*
G04 #@! TO.N,CTRL2*
X123435000Y-86614000D03*
G04 #@! TO.P,U4,25*
G04 #@! TO.N,Net-(SW2-Pad1)*
X123435000Y-87884000D03*
D19*
G04 #@! TO.P,U4,24*
G04 #@! TO.N,FSYNC2*
X120650000Y-88884000D03*
G04 #@! TO.P,U4,23*
G04 #@! TO.N,STANDBY2*
X119380000Y-88884000D03*
G04 #@! TO.P,U4,22*
G04 #@! TO.N,Net-(SDI1-Pad1)*
X118110000Y-88884000D03*
G04 #@! TO.P,U4,21*
G04 #@! TO.N,Net-(SDO4-Pad1)*
X116840000Y-88884000D03*
G04 #@! TO.P,U4,20*
G04 #@! TO.N,Net-(SCK1-Pad1)*
X115570000Y-88884000D03*
G04 #@! TO.P,U4,19*
G04 #@! TO.N,Net-(SCS1-Pad1)*
X114300000Y-88884000D03*
G04 #@! TO.P,U4,18*
G04 #@! TO.N,Net-(SWP1-Pad1)*
X113030000Y-88884000D03*
G04 #@! TO.P,U4,17*
G04 #@! TO.N,Net-(SHD1-Pad1)*
X111760000Y-88884000D03*
G04 #@! TO.P,U4,16*
G04 #@! TO.N,ENABLE2*
X110490000Y-88884000D03*
G04 #@! TO.P,U4,15*
G04 #@! TO.N,GND*
X109220000Y-88884000D03*
D18*
G04 #@! TO.P,U4,14*
G04 #@! TO.N,SYNC2*
X106435000Y-87884000D03*
G04 #@! TO.P,U4,13*
G04 #@! TO.N,CTRL3*
X106435000Y-86614000D03*
G04 #@! TO.P,U4,12*
G04 #@! TO.N,FSYNC3*
X106435000Y-85344000D03*
G04 #@! TO.P,U4,11*
G04 #@! TO.N,STANDBY3*
X106435000Y-84074000D03*
G04 #@! TO.P,U4,10*
G04 #@! TO.N,ENABLE3*
X106435000Y-82804000D03*
G04 #@! TO.P,U4,9*
G04 #@! TO.N,SYNC3*
X106435000Y-81534000D03*
G04 #@! TO.P,U4,8*
G04 #@! TO.N,Net-(IO32-Pad1)*
X106435000Y-80264000D03*
G04 #@! TO.P,U4,7*
G04 #@! TO.N,Net-(IO35-Pad1)*
X106435000Y-78994000D03*
G04 #@! TO.P,U4,6*
G04 #@! TO.N,Net-(IO34-Pad1)*
X106435000Y-77724000D03*
G04 #@! TO.P,U4,5*
G04 #@! TO.N,Net-(SENSOR_VN1-Pad1)*
X106435000Y-76454000D03*
G04 #@! TO.P,U4,4*
G04 #@! TO.N,Net-(SENSOR_VP1-Pad1)*
X106435000Y-75184000D03*
G04 #@! TO.P,U4,3*
G04 #@! TO.N,Net-(R4-Pad2)*
X106435000Y-73914000D03*
G04 #@! TO.P,U4,2*
G04 #@! TO.N,DVDD*
X106435000Y-72644000D03*
G04 #@! TO.P,U4,1*
G04 #@! TO.N,GND*
X106435000Y-71374000D03*
D20*
G04 #@! TO.P,U4,39*
X113935000Y-78874000D03*
G04 #@! TD*
G04 #@! TA.AperFunction,SMDPad,CuDef*
D13*
G04 #@! TO.P,R1,2*
G04 #@! TO.N,GND*
G36*
X89351779Y-85886144D02*
G01*
X89374834Y-85889563D01*
X89397443Y-85895227D01*
X89419387Y-85903079D01*
X89440457Y-85913044D01*
X89460448Y-85925026D01*
X89479168Y-85938910D01*
X89496438Y-85954562D01*
X89512090Y-85971832D01*
X89525974Y-85990552D01*
X89537956Y-86010543D01*
X89547921Y-86031613D01*
X89555773Y-86053557D01*
X89561437Y-86076166D01*
X89564856Y-86099221D01*
X89566000Y-86122500D01*
X89566000Y-86597500D01*
X89564856Y-86620779D01*
X89561437Y-86643834D01*
X89555773Y-86666443D01*
X89547921Y-86688387D01*
X89537956Y-86709457D01*
X89525974Y-86729448D01*
X89512090Y-86748168D01*
X89496438Y-86765438D01*
X89479168Y-86781090D01*
X89460448Y-86794974D01*
X89440457Y-86806956D01*
X89419387Y-86816921D01*
X89397443Y-86824773D01*
X89374834Y-86830437D01*
X89351779Y-86833856D01*
X89328500Y-86835000D01*
X88753500Y-86835000D01*
X88730221Y-86833856D01*
X88707166Y-86830437D01*
X88684557Y-86824773D01*
X88662613Y-86816921D01*
X88641543Y-86806956D01*
X88621552Y-86794974D01*
X88602832Y-86781090D01*
X88585562Y-86765438D01*
X88569910Y-86748168D01*
X88556026Y-86729448D01*
X88544044Y-86709457D01*
X88534079Y-86688387D01*
X88526227Y-86666443D01*
X88520563Y-86643834D01*
X88517144Y-86620779D01*
X88516000Y-86597500D01*
X88516000Y-86122500D01*
X88517144Y-86099221D01*
X88520563Y-86076166D01*
X88526227Y-86053557D01*
X88534079Y-86031613D01*
X88544044Y-86010543D01*
X88556026Y-85990552D01*
X88569910Y-85971832D01*
X88585562Y-85954562D01*
X88602832Y-85938910D01*
X88621552Y-85925026D01*
X88641543Y-85913044D01*
X88662613Y-85903079D01*
X88684557Y-85895227D01*
X88707166Y-85889563D01*
X88730221Y-85886144D01*
X88753500Y-85885000D01*
X89328500Y-85885000D01*
X89351779Y-85886144D01*
G37*
G04 #@! TD.AperFunction*
G04 #@! TA.AperFunction,SMDPad,CuDef*
G04 #@! TO.P,R1,1*
G04 #@! TO.N,Net-(R1-Pad1)*
G36*
X91101779Y-85886144D02*
G01*
X91124834Y-85889563D01*
X91147443Y-85895227D01*
X91169387Y-85903079D01*
X91190457Y-85913044D01*
X91210448Y-85925026D01*
X91229168Y-85938910D01*
X91246438Y-85954562D01*
X91262090Y-85971832D01*
X91275974Y-85990552D01*
X91287956Y-86010543D01*
X91297921Y-86031613D01*
X91305773Y-86053557D01*
X91311437Y-86076166D01*
X91314856Y-86099221D01*
X91316000Y-86122500D01*
X91316000Y-86597500D01*
X91314856Y-86620779D01*
X91311437Y-86643834D01*
X91305773Y-86666443D01*
X91297921Y-86688387D01*
X91287956Y-86709457D01*
X91275974Y-86729448D01*
X91262090Y-86748168D01*
X91246438Y-86765438D01*
X91229168Y-86781090D01*
X91210448Y-86794974D01*
X91190457Y-86806956D01*
X91169387Y-86816921D01*
X91147443Y-86824773D01*
X91124834Y-86830437D01*
X91101779Y-86833856D01*
X91078500Y-86835000D01*
X90503500Y-86835000D01*
X90480221Y-86833856D01*
X90457166Y-86830437D01*
X90434557Y-86824773D01*
X90412613Y-86816921D01*
X90391543Y-86806956D01*
X90371552Y-86794974D01*
X90352832Y-86781090D01*
X90335562Y-86765438D01*
X90319910Y-86748168D01*
X90306026Y-86729448D01*
X90294044Y-86709457D01*
X90284079Y-86688387D01*
X90276227Y-86666443D01*
X90270563Y-86643834D01*
X90267144Y-86620779D01*
X90266000Y-86597500D01*
X90266000Y-86122500D01*
X90267144Y-86099221D01*
X90270563Y-86076166D01*
X90276227Y-86053557D01*
X90284079Y-86031613D01*
X90294044Y-86010543D01*
X90306026Y-85990552D01*
X90319910Y-85971832D01*
X90335562Y-85954562D01*
X90352832Y-85938910D01*
X90371552Y-85925026D01*
X90391543Y-85913044D01*
X90412613Y-85903079D01*
X90434557Y-85895227D01*
X90457166Y-85889563D01*
X90480221Y-85886144D01*
X90503500Y-85885000D01*
X91078500Y-85885000D01*
X91101779Y-85886144D01*
G37*
G04 #@! TD.AperFunction*
G04 #@! TD*
G04 #@! TA.AperFunction,SMDPad,CuDef*
G04 #@! TO.P,C9,2*
G04 #@! TO.N,GND*
G36*
X85147579Y-111565044D02*
G01*
X85170634Y-111568463D01*
X85193243Y-111574127D01*
X85215187Y-111581979D01*
X85236257Y-111591944D01*
X85256248Y-111603926D01*
X85274968Y-111617810D01*
X85292238Y-111633462D01*
X85307890Y-111650732D01*
X85321774Y-111669452D01*
X85333756Y-111689443D01*
X85343721Y-111710513D01*
X85351573Y-111732457D01*
X85357237Y-111755066D01*
X85360656Y-111778121D01*
X85361800Y-111801400D01*
X85361800Y-112376400D01*
X85360656Y-112399679D01*
X85357237Y-112422734D01*
X85351573Y-112445343D01*
X85343721Y-112467287D01*
X85333756Y-112488357D01*
X85321774Y-112508348D01*
X85307890Y-112527068D01*
X85292238Y-112544338D01*
X85274968Y-112559990D01*
X85256248Y-112573874D01*
X85236257Y-112585856D01*
X85215187Y-112595821D01*
X85193243Y-112603673D01*
X85170634Y-112609337D01*
X85147579Y-112612756D01*
X85124300Y-112613900D01*
X84649300Y-112613900D01*
X84626021Y-112612756D01*
X84602966Y-112609337D01*
X84580357Y-112603673D01*
X84558413Y-112595821D01*
X84537343Y-112585856D01*
X84517352Y-112573874D01*
X84498632Y-112559990D01*
X84481362Y-112544338D01*
X84465710Y-112527068D01*
X84451826Y-112508348D01*
X84439844Y-112488357D01*
X84429879Y-112467287D01*
X84422027Y-112445343D01*
X84416363Y-112422734D01*
X84412944Y-112399679D01*
X84411800Y-112376400D01*
X84411800Y-111801400D01*
X84412944Y-111778121D01*
X84416363Y-111755066D01*
X84422027Y-111732457D01*
X84429879Y-111710513D01*
X84439844Y-111689443D01*
X84451826Y-111669452D01*
X84465710Y-111650732D01*
X84481362Y-111633462D01*
X84498632Y-111617810D01*
X84517352Y-111603926D01*
X84537343Y-111591944D01*
X84558413Y-111581979D01*
X84580357Y-111574127D01*
X84602966Y-111568463D01*
X84626021Y-111565044D01*
X84649300Y-111563900D01*
X85124300Y-111563900D01*
X85147579Y-111565044D01*
G37*
G04 #@! TD.AperFunction*
G04 #@! TA.AperFunction,SMDPad,CuDef*
G04 #@! TO.P,C9,1*
G04 #@! TO.N,+5V*
G36*
X85147579Y-109815044D02*
G01*
X85170634Y-109818463D01*
X85193243Y-109824127D01*
X85215187Y-109831979D01*
X85236257Y-109841944D01*
X85256248Y-109853926D01*
X85274968Y-109867810D01*
X85292238Y-109883462D01*
X85307890Y-109900732D01*
X85321774Y-109919452D01*
X85333756Y-109939443D01*
X85343721Y-109960513D01*
X85351573Y-109982457D01*
X85357237Y-110005066D01*
X85360656Y-110028121D01*
X85361800Y-110051400D01*
X85361800Y-110626400D01*
X85360656Y-110649679D01*
X85357237Y-110672734D01*
X85351573Y-110695343D01*
X85343721Y-110717287D01*
X85333756Y-110738357D01*
X85321774Y-110758348D01*
X85307890Y-110777068D01*
X85292238Y-110794338D01*
X85274968Y-110809990D01*
X85256248Y-110823874D01*
X85236257Y-110835856D01*
X85215187Y-110845821D01*
X85193243Y-110853673D01*
X85170634Y-110859337D01*
X85147579Y-110862756D01*
X85124300Y-110863900D01*
X84649300Y-110863900D01*
X84626021Y-110862756D01*
X84602966Y-110859337D01*
X84580357Y-110853673D01*
X84558413Y-110845821D01*
X84537343Y-110835856D01*
X84517352Y-110823874D01*
X84498632Y-110809990D01*
X84481362Y-110794338D01*
X84465710Y-110777068D01*
X84451826Y-110758348D01*
X84439844Y-110738357D01*
X84429879Y-110717287D01*
X84422027Y-110695343D01*
X84416363Y-110672734D01*
X84412944Y-110649679D01*
X84411800Y-110626400D01*
X84411800Y-110051400D01*
X84412944Y-110028121D01*
X84416363Y-110005066D01*
X84422027Y-109982457D01*
X84429879Y-109960513D01*
X84439844Y-109939443D01*
X84451826Y-109919452D01*
X84465710Y-109900732D01*
X84481362Y-109883462D01*
X84498632Y-109867810D01*
X84517352Y-109853926D01*
X84537343Y-109841944D01*
X84558413Y-109831979D01*
X84580357Y-109824127D01*
X84602966Y-109818463D01*
X84626021Y-109815044D01*
X84649300Y-109813900D01*
X85124300Y-109813900D01*
X85147579Y-109815044D01*
G37*
G04 #@! TD.AperFunction*
G04 #@! TD*
G04 #@! TA.AperFunction,SMDPad,CuDef*
G04 #@! TO.P,C8,2*
G04 #@! TO.N,GND*
G36*
X86620779Y-111565044D02*
G01*
X86643834Y-111568463D01*
X86666443Y-111574127D01*
X86688387Y-111581979D01*
X86709457Y-111591944D01*
X86729448Y-111603926D01*
X86748168Y-111617810D01*
X86765438Y-111633462D01*
X86781090Y-111650732D01*
X86794974Y-111669452D01*
X86806956Y-111689443D01*
X86816921Y-111710513D01*
X86824773Y-111732457D01*
X86830437Y-111755066D01*
X86833856Y-111778121D01*
X86835000Y-111801400D01*
X86835000Y-112376400D01*
X86833856Y-112399679D01*
X86830437Y-112422734D01*
X86824773Y-112445343D01*
X86816921Y-112467287D01*
X86806956Y-112488357D01*
X86794974Y-112508348D01*
X86781090Y-112527068D01*
X86765438Y-112544338D01*
X86748168Y-112559990D01*
X86729448Y-112573874D01*
X86709457Y-112585856D01*
X86688387Y-112595821D01*
X86666443Y-112603673D01*
X86643834Y-112609337D01*
X86620779Y-112612756D01*
X86597500Y-112613900D01*
X86122500Y-112613900D01*
X86099221Y-112612756D01*
X86076166Y-112609337D01*
X86053557Y-112603673D01*
X86031613Y-112595821D01*
X86010543Y-112585856D01*
X85990552Y-112573874D01*
X85971832Y-112559990D01*
X85954562Y-112544338D01*
X85938910Y-112527068D01*
X85925026Y-112508348D01*
X85913044Y-112488357D01*
X85903079Y-112467287D01*
X85895227Y-112445343D01*
X85889563Y-112422734D01*
X85886144Y-112399679D01*
X85885000Y-112376400D01*
X85885000Y-111801400D01*
X85886144Y-111778121D01*
X85889563Y-111755066D01*
X85895227Y-111732457D01*
X85903079Y-111710513D01*
X85913044Y-111689443D01*
X85925026Y-111669452D01*
X85938910Y-111650732D01*
X85954562Y-111633462D01*
X85971832Y-111617810D01*
X85990552Y-111603926D01*
X86010543Y-111591944D01*
X86031613Y-111581979D01*
X86053557Y-111574127D01*
X86076166Y-111568463D01*
X86099221Y-111565044D01*
X86122500Y-111563900D01*
X86597500Y-111563900D01*
X86620779Y-111565044D01*
G37*
G04 #@! TD.AperFunction*
G04 #@! TA.AperFunction,SMDPad,CuDef*
G04 #@! TO.P,C8,1*
G04 #@! TO.N,+5V*
G36*
X86620779Y-109815044D02*
G01*
X86643834Y-109818463D01*
X86666443Y-109824127D01*
X86688387Y-109831979D01*
X86709457Y-109841944D01*
X86729448Y-109853926D01*
X86748168Y-109867810D01*
X86765438Y-109883462D01*
X86781090Y-109900732D01*
X86794974Y-109919452D01*
X86806956Y-109939443D01*
X86816921Y-109960513D01*
X86824773Y-109982457D01*
X86830437Y-110005066D01*
X86833856Y-110028121D01*
X86835000Y-110051400D01*
X86835000Y-110626400D01*
X86833856Y-110649679D01*
X86830437Y-110672734D01*
X86824773Y-110695343D01*
X86816921Y-110717287D01*
X86806956Y-110738357D01*
X86794974Y-110758348D01*
X86781090Y-110777068D01*
X86765438Y-110794338D01*
X86748168Y-110809990D01*
X86729448Y-110823874D01*
X86709457Y-110835856D01*
X86688387Y-110845821D01*
X86666443Y-110853673D01*
X86643834Y-110859337D01*
X86620779Y-110862756D01*
X86597500Y-110863900D01*
X86122500Y-110863900D01*
X86099221Y-110862756D01*
X86076166Y-110859337D01*
X86053557Y-110853673D01*
X86031613Y-110845821D01*
X86010543Y-110835856D01*
X85990552Y-110823874D01*
X85971832Y-110809990D01*
X85954562Y-110794338D01*
X85938910Y-110777068D01*
X85925026Y-110758348D01*
X85913044Y-110738357D01*
X85903079Y-110717287D01*
X85895227Y-110695343D01*
X85889563Y-110672734D01*
X85886144Y-110649679D01*
X85885000Y-110626400D01*
X85885000Y-110051400D01*
X85886144Y-110028121D01*
X85889563Y-110005066D01*
X85895227Y-109982457D01*
X85903079Y-109960513D01*
X85913044Y-109939443D01*
X85925026Y-109919452D01*
X85938910Y-109900732D01*
X85954562Y-109883462D01*
X85971832Y-109867810D01*
X85990552Y-109853926D01*
X86010543Y-109841944D01*
X86031613Y-109831979D01*
X86053557Y-109824127D01*
X86076166Y-109818463D01*
X86099221Y-109815044D01*
X86122500Y-109813900D01*
X86597500Y-109813900D01*
X86620779Y-109815044D01*
G37*
G04 #@! TD.AperFunction*
G04 #@! TD*
G04 #@! TA.AperFunction,SMDPad,CuDef*
G04 #@! TO.P,C7,2*
G04 #@! TO.N,GND*
G36*
X87890779Y-111565044D02*
G01*
X87913834Y-111568463D01*
X87936443Y-111574127D01*
X87958387Y-111581979D01*
X87979457Y-111591944D01*
X87999448Y-111603926D01*
X88018168Y-111617810D01*
X88035438Y-111633462D01*
X88051090Y-111650732D01*
X88064974Y-111669452D01*
X88076956Y-111689443D01*
X88086921Y-111710513D01*
X88094773Y-111732457D01*
X88100437Y-111755066D01*
X88103856Y-111778121D01*
X88105000Y-111801400D01*
X88105000Y-112376400D01*
X88103856Y-112399679D01*
X88100437Y-112422734D01*
X88094773Y-112445343D01*
X88086921Y-112467287D01*
X88076956Y-112488357D01*
X88064974Y-112508348D01*
X88051090Y-112527068D01*
X88035438Y-112544338D01*
X88018168Y-112559990D01*
X87999448Y-112573874D01*
X87979457Y-112585856D01*
X87958387Y-112595821D01*
X87936443Y-112603673D01*
X87913834Y-112609337D01*
X87890779Y-112612756D01*
X87867500Y-112613900D01*
X87392500Y-112613900D01*
X87369221Y-112612756D01*
X87346166Y-112609337D01*
X87323557Y-112603673D01*
X87301613Y-112595821D01*
X87280543Y-112585856D01*
X87260552Y-112573874D01*
X87241832Y-112559990D01*
X87224562Y-112544338D01*
X87208910Y-112527068D01*
X87195026Y-112508348D01*
X87183044Y-112488357D01*
X87173079Y-112467287D01*
X87165227Y-112445343D01*
X87159563Y-112422734D01*
X87156144Y-112399679D01*
X87155000Y-112376400D01*
X87155000Y-111801400D01*
X87156144Y-111778121D01*
X87159563Y-111755066D01*
X87165227Y-111732457D01*
X87173079Y-111710513D01*
X87183044Y-111689443D01*
X87195026Y-111669452D01*
X87208910Y-111650732D01*
X87224562Y-111633462D01*
X87241832Y-111617810D01*
X87260552Y-111603926D01*
X87280543Y-111591944D01*
X87301613Y-111581979D01*
X87323557Y-111574127D01*
X87346166Y-111568463D01*
X87369221Y-111565044D01*
X87392500Y-111563900D01*
X87867500Y-111563900D01*
X87890779Y-111565044D01*
G37*
G04 #@! TD.AperFunction*
G04 #@! TA.AperFunction,SMDPad,CuDef*
G04 #@! TO.P,C7,1*
G04 #@! TO.N,+5V*
G36*
X87890779Y-109815044D02*
G01*
X87913834Y-109818463D01*
X87936443Y-109824127D01*
X87958387Y-109831979D01*
X87979457Y-109841944D01*
X87999448Y-109853926D01*
X88018168Y-109867810D01*
X88035438Y-109883462D01*
X88051090Y-109900732D01*
X88064974Y-109919452D01*
X88076956Y-109939443D01*
X88086921Y-109960513D01*
X88094773Y-109982457D01*
X88100437Y-110005066D01*
X88103856Y-110028121D01*
X88105000Y-110051400D01*
X88105000Y-110626400D01*
X88103856Y-110649679D01*
X88100437Y-110672734D01*
X88094773Y-110695343D01*
X88086921Y-110717287D01*
X88076956Y-110738357D01*
X88064974Y-110758348D01*
X88051090Y-110777068D01*
X88035438Y-110794338D01*
X88018168Y-110809990D01*
X87999448Y-110823874D01*
X87979457Y-110835856D01*
X87958387Y-110845821D01*
X87936443Y-110853673D01*
X87913834Y-110859337D01*
X87890779Y-110862756D01*
X87867500Y-110863900D01*
X87392500Y-110863900D01*
X87369221Y-110862756D01*
X87346166Y-110859337D01*
X87323557Y-110853673D01*
X87301613Y-110845821D01*
X87280543Y-110835856D01*
X87260552Y-110823874D01*
X87241832Y-110809990D01*
X87224562Y-110794338D01*
X87208910Y-110777068D01*
X87195026Y-110758348D01*
X87183044Y-110738357D01*
X87173079Y-110717287D01*
X87165227Y-110695343D01*
X87159563Y-110672734D01*
X87156144Y-110649679D01*
X87155000Y-110626400D01*
X87155000Y-110051400D01*
X87156144Y-110028121D01*
X87159563Y-110005066D01*
X87165227Y-109982457D01*
X87173079Y-109960513D01*
X87183044Y-109939443D01*
X87195026Y-109919452D01*
X87208910Y-109900732D01*
X87224562Y-109883462D01*
X87241832Y-109867810D01*
X87260552Y-109853926D01*
X87280543Y-109841944D01*
X87301613Y-109831979D01*
X87323557Y-109824127D01*
X87346166Y-109818463D01*
X87369221Y-109815044D01*
X87392500Y-109813900D01*
X87867500Y-109813900D01*
X87890779Y-109815044D01*
G37*
G04 #@! TD.AperFunction*
G04 #@! TD*
G04 #@! TA.AperFunction,SMDPad,CuDef*
G04 #@! TO.P,R2,2*
G04 #@! TO.N,Net-(R2-Pad2)*
G36*
X86557779Y-83981144D02*
G01*
X86580834Y-83984563D01*
X86603443Y-83990227D01*
X86625387Y-83998079D01*
X86646457Y-84008044D01*
X86666448Y-84020026D01*
X86685168Y-84033910D01*
X86702438Y-84049562D01*
X86718090Y-84066832D01*
X86731974Y-84085552D01*
X86743956Y-84105543D01*
X86753921Y-84126613D01*
X86761773Y-84148557D01*
X86767437Y-84171166D01*
X86770856Y-84194221D01*
X86772000Y-84217500D01*
X86772000Y-84692500D01*
X86770856Y-84715779D01*
X86767437Y-84738834D01*
X86761773Y-84761443D01*
X86753921Y-84783387D01*
X86743956Y-84804457D01*
X86731974Y-84824448D01*
X86718090Y-84843168D01*
X86702438Y-84860438D01*
X86685168Y-84876090D01*
X86666448Y-84889974D01*
X86646457Y-84901956D01*
X86625387Y-84911921D01*
X86603443Y-84919773D01*
X86580834Y-84925437D01*
X86557779Y-84928856D01*
X86534500Y-84930000D01*
X85959500Y-84930000D01*
X85936221Y-84928856D01*
X85913166Y-84925437D01*
X85890557Y-84919773D01*
X85868613Y-84911921D01*
X85847543Y-84901956D01*
X85827552Y-84889974D01*
X85808832Y-84876090D01*
X85791562Y-84860438D01*
X85775910Y-84843168D01*
X85762026Y-84824448D01*
X85750044Y-84804457D01*
X85740079Y-84783387D01*
X85732227Y-84761443D01*
X85726563Y-84738834D01*
X85723144Y-84715779D01*
X85722000Y-84692500D01*
X85722000Y-84217500D01*
X85723144Y-84194221D01*
X85726563Y-84171166D01*
X85732227Y-84148557D01*
X85740079Y-84126613D01*
X85750044Y-84105543D01*
X85762026Y-84085552D01*
X85775910Y-84066832D01*
X85791562Y-84049562D01*
X85808832Y-84033910D01*
X85827552Y-84020026D01*
X85847543Y-84008044D01*
X85868613Y-83998079D01*
X85890557Y-83990227D01*
X85913166Y-83984563D01*
X85936221Y-83981144D01*
X85959500Y-83980000D01*
X86534500Y-83980000D01*
X86557779Y-83981144D01*
G37*
G04 #@! TD.AperFunction*
G04 #@! TA.AperFunction,SMDPad,CuDef*
G04 #@! TO.P,R2,1*
G04 #@! TO.N,Net-(R2-Pad1)*
G36*
X88307779Y-83981144D02*
G01*
X88330834Y-83984563D01*
X88353443Y-83990227D01*
X88375387Y-83998079D01*
X88396457Y-84008044D01*
X88416448Y-84020026D01*
X88435168Y-84033910D01*
X88452438Y-84049562D01*
X88468090Y-84066832D01*
X88481974Y-84085552D01*
X88493956Y-84105543D01*
X88503921Y-84126613D01*
X88511773Y-84148557D01*
X88517437Y-84171166D01*
X88520856Y-84194221D01*
X88522000Y-84217500D01*
X88522000Y-84692500D01*
X88520856Y-84715779D01*
X88517437Y-84738834D01*
X88511773Y-84761443D01*
X88503921Y-84783387D01*
X88493956Y-84804457D01*
X88481974Y-84824448D01*
X88468090Y-84843168D01*
X88452438Y-84860438D01*
X88435168Y-84876090D01*
X88416448Y-84889974D01*
X88396457Y-84901956D01*
X88375387Y-84911921D01*
X88353443Y-84919773D01*
X88330834Y-84925437D01*
X88307779Y-84928856D01*
X88284500Y-84930000D01*
X87709500Y-84930000D01*
X87686221Y-84928856D01*
X87663166Y-84925437D01*
X87640557Y-84919773D01*
X87618613Y-84911921D01*
X87597543Y-84901956D01*
X87577552Y-84889974D01*
X87558832Y-84876090D01*
X87541562Y-84860438D01*
X87525910Y-84843168D01*
X87512026Y-84824448D01*
X87500044Y-84804457D01*
X87490079Y-84783387D01*
X87482227Y-84761443D01*
X87476563Y-84738834D01*
X87473144Y-84715779D01*
X87472000Y-84692500D01*
X87472000Y-84217500D01*
X87473144Y-84194221D01*
X87476563Y-84171166D01*
X87482227Y-84148557D01*
X87490079Y-84126613D01*
X87500044Y-84105543D01*
X87512026Y-84085552D01*
X87525910Y-84066832D01*
X87541562Y-84049562D01*
X87558832Y-84033910D01*
X87577552Y-84020026D01*
X87597543Y-84008044D01*
X87618613Y-83998079D01*
X87640557Y-83990227D01*
X87663166Y-83984563D01*
X87686221Y-83981144D01*
X87709500Y-83980000D01*
X88284500Y-83980000D01*
X88307779Y-83981144D01*
G37*
G04 #@! TD.AperFunction*
G04 #@! TD*
G04 #@! TA.AperFunction,SMDPad,CuDef*
G04 #@! TO.P,R3,2*
G04 #@! TO.N,Net-(D3-Pad2)*
G36*
X78064505Y-101155204D02*
G01*
X78088773Y-101158804D01*
X78112572Y-101164765D01*
X78135671Y-101173030D01*
X78157850Y-101183520D01*
X78178893Y-101196132D01*
X78198599Y-101210747D01*
X78216777Y-101227223D01*
X78233253Y-101245401D01*
X78247868Y-101265107D01*
X78260480Y-101286150D01*
X78270970Y-101308329D01*
X78279235Y-101331428D01*
X78285196Y-101355227D01*
X78288796Y-101379495D01*
X78290000Y-101403999D01*
X78290000Y-102304001D01*
X78288796Y-102328505D01*
X78285196Y-102352773D01*
X78279235Y-102376572D01*
X78270970Y-102399671D01*
X78260480Y-102421850D01*
X78247868Y-102442893D01*
X78233253Y-102462599D01*
X78216777Y-102480777D01*
X78198599Y-102497253D01*
X78178893Y-102511868D01*
X78157850Y-102524480D01*
X78135671Y-102534970D01*
X78112572Y-102543235D01*
X78088773Y-102549196D01*
X78064505Y-102552796D01*
X78040001Y-102554000D01*
X77389999Y-102554000D01*
X77365495Y-102552796D01*
X77341227Y-102549196D01*
X77317428Y-102543235D01*
X77294329Y-102534970D01*
X77272150Y-102524480D01*
X77251107Y-102511868D01*
X77231401Y-102497253D01*
X77213223Y-102480777D01*
X77196747Y-102462599D01*
X77182132Y-102442893D01*
X77169520Y-102421850D01*
X77159030Y-102399671D01*
X77150765Y-102376572D01*
X77144804Y-102352773D01*
X77141204Y-102328505D01*
X77140000Y-102304001D01*
X77140000Y-101403999D01*
X77141204Y-101379495D01*
X77144804Y-101355227D01*
X77150765Y-101331428D01*
X77159030Y-101308329D01*
X77169520Y-101286150D01*
X77182132Y-101265107D01*
X77196747Y-101245401D01*
X77213223Y-101227223D01*
X77231401Y-101210747D01*
X77251107Y-101196132D01*
X77272150Y-101183520D01*
X77294329Y-101173030D01*
X77317428Y-101164765D01*
X77341227Y-101158804D01*
X77365495Y-101155204D01*
X77389999Y-101154000D01*
X78040001Y-101154000D01*
X78064505Y-101155204D01*
G37*
G04 #@! TD.AperFunction*
G04 #@! TA.AperFunction,SMDPad,CuDef*
G04 #@! TO.P,R3,1*
G04 #@! TO.N,Net-(C6-Pad1)*
G36*
X80114505Y-101155204D02*
G01*
X80138773Y-101158804D01*
X80162572Y-101164765D01*
X80185671Y-101173030D01*
X80207850Y-101183520D01*
X80228893Y-101196132D01*
X80248599Y-101210747D01*
X80266777Y-101227223D01*
X80283253Y-101245401D01*
X80297868Y-101265107D01*
X80310480Y-101286150D01*
X80320970Y-101308329D01*
X80329235Y-101331428D01*
X80335196Y-101355227D01*
X80338796Y-101379495D01*
X80340000Y-101403999D01*
X80340000Y-102304001D01*
X80338796Y-102328505D01*
X80335196Y-102352773D01*
X80329235Y-102376572D01*
X80320970Y-102399671D01*
X80310480Y-102421850D01*
X80297868Y-102442893D01*
X80283253Y-102462599D01*
X80266777Y-102480777D01*
X80248599Y-102497253D01*
X80228893Y-102511868D01*
X80207850Y-102524480D01*
X80185671Y-102534970D01*
X80162572Y-102543235D01*
X80138773Y-102549196D01*
X80114505Y-102552796D01*
X80090001Y-102554000D01*
X79439999Y-102554000D01*
X79415495Y-102552796D01*
X79391227Y-102549196D01*
X79367428Y-102543235D01*
X79344329Y-102534970D01*
X79322150Y-102524480D01*
X79301107Y-102511868D01*
X79281401Y-102497253D01*
X79263223Y-102480777D01*
X79246747Y-102462599D01*
X79232132Y-102442893D01*
X79219520Y-102421850D01*
X79209030Y-102399671D01*
X79200765Y-102376572D01*
X79194804Y-102352773D01*
X79191204Y-102328505D01*
X79190000Y-102304001D01*
X79190000Y-101403999D01*
X79191204Y-101379495D01*
X79194804Y-101355227D01*
X79200765Y-101331428D01*
X79209030Y-101308329D01*
X79219520Y-101286150D01*
X79232132Y-101265107D01*
X79246747Y-101245401D01*
X79263223Y-101227223D01*
X79281401Y-101210747D01*
X79301107Y-101196132D01*
X79322150Y-101183520D01*
X79344329Y-101173030D01*
X79367428Y-101164765D01*
X79391227Y-101158804D01*
X79415495Y-101155204D01*
X79439999Y-101154000D01*
X80090001Y-101154000D01*
X80114505Y-101155204D01*
G37*
G04 #@! TD.AperFunction*
G04 #@! TD*
D21*
G04 #@! TO.P,J1,4*
G04 #@! TO.N,Net-(J1-Pad4)*
X91313000Y-76596000D03*
G04 #@! TO.P,J1,3*
G04 #@! TO.N,Net-(J1-Pad3)*
X91313000Y-74096000D03*
G04 #@! TO.P,J1,2*
G04 #@! TO.N,Net-(J1-Pad2)*
X91313000Y-72096000D03*
D22*
G04 #@! TO.P,J1,1*
G04 #@! TO.N,Vusb*
X91313000Y-69596000D03*
D23*
G04 #@! TO.P,J1,5*
G04 #@! TO.N,GND*
X88603000Y-79666000D03*
X88603000Y-66526000D03*
G04 #@! TD*
D24*
G04 #@! TO.P,TP18,1*
G04 #@! TO.N,SYNC2*
X103886000Y-88138000D03*
G04 #@! TD*
G04 #@! TO.P,TP17,1*
G04 #@! TO.N,SYNC1*
X129921000Y-85471000D03*
G04 #@! TD*
G04 #@! TO.P,TP16,1*
G04 #@! TO.N,FSYNC1*
X129921000Y-80264000D03*
G04 #@! TD*
G04 #@! TO.P,TP15,1*
G04 #@! TO.N,SYNC3*
X97282000Y-81915000D03*
G04 #@! TD*
G04 #@! TO.P,TP14,1*
G04 #@! TO.N,ENABLE3*
X99441000Y-82677000D03*
G04 #@! TD*
G04 #@! TO.P,TP13,1*
G04 #@! TO.N,FSYNC3*
X101346000Y-85471000D03*
G04 #@! TD*
G04 #@! TO.P,TP12,1*
G04 #@! TO.N,FSYNC2*
X121793000Y-91948000D03*
G04 #@! TD*
G04 #@! TO.P,TP11,1*
G04 #@! TO.N,SPI1MOSI*
X125730000Y-72644000D03*
G04 #@! TD*
G04 #@! TO.P,TP10,1*
G04 #@! TO.N,ENABLE2*
X105283000Y-91313000D03*
G04 #@! TD*
G04 #@! TO.P,TP9,1*
G04 #@! TO.N,ENABLE1*
X127889000Y-84201000D03*
G04 #@! TD*
G04 #@! TO.P,TP8,1*
G04 #@! TO.N,Net-(TP8-Pad1)*
X127889000Y-73914000D03*
G04 #@! TD*
G04 #@! TO.P,TP7,1*
G04 #@! TO.N,SPI1CLK*
X126111000Y-81534000D03*
G04 #@! TD*
G04 #@! TO.P,TP6,1*
G04 #@! TO.N,STANDBY2*
X119253000Y-94615000D03*
G04 #@! TD*
G04 #@! TO.P,TP5,1*
G04 #@! TO.N,STANDBY1*
X130048000Y-82804000D03*
G04 #@! TD*
G04 #@! TO.P,TP4,1*
G04 #@! TO.N,CTRL1*
X125984000Y-77851000D03*
G04 #@! TD*
G04 #@! TO.P,TP3,1*
G04 #@! TO.N,CTRL2*
X131826000Y-86614000D03*
G04 #@! TD*
G04 #@! TO.P,TP2,1*
G04 #@! TO.N,STANDBY3*
X103632000Y-84201000D03*
G04 #@! TD*
G04 #@! TO.P,TP1,1*
G04 #@! TO.N,CTRL3*
X101600000Y-87757000D03*
G04 #@! TD*
D25*
G04 #@! TO.P,U11,1*
G04 #@! TO.N,ENABLE2*
X169887900Y-83185000D03*
G04 #@! TO.P,U11,2*
G04 #@! TO.N,Net-(C47-Pad1)*
X169887900Y-84455000D03*
G04 #@! TO.P,U11,3*
X169887900Y-85725000D03*
G04 #@! TO.P,U11,4*
G04 #@! TO.N,Net-(R23-Pad1)*
X169887900Y-86995000D03*
G04 #@! TO.P,U11,5*
G04 #@! TO.N,Net-(J5-Pad2)*
X175298100Y-86995000D03*
G04 #@! TO.P,U11,6*
G04 #@! TO.N,+5V*
X175298100Y-85725000D03*
G04 #@! TO.P,U11,7*
G04 #@! TO.N,GND*
X175298100Y-84455000D03*
G04 #@! TO.P,U11,8*
G04 #@! TO.N,Net-(J5-Pad1)*
X175298100Y-83185000D03*
G04 #@! TD*
D26*
G04 #@! TO.P,U10,1*
G04 #@! TO.N,DVDD*
X167817800Y-91424001D03*
G04 #@! TO.P,U10,2*
G04 #@! TO.N,Net-(J5-Pad2)*
X167817800Y-90923999D03*
G04 #@! TO.P,U10,3*
G04 #@! TO.N,Net-(R23-Pad1)*
X167817800Y-90424000D03*
G04 #@! TO.P,U10,4*
G04 #@! TO.N,GND*
X167817800Y-89924001D03*
G04 #@! TO.P,U10,5*
G04 #@! TO.N,Net-(C45-Pad1)*
X167817800Y-89423999D03*
G04 #@! TO.P,U10,6*
G04 #@! TO.N,GND*
X164922200Y-89423999D03*
G04 #@! TO.P,U10,7*
G04 #@! TO.N,Net-(SDO2-Pad1)*
X164922200Y-89924001D03*
G04 #@! TO.P,U10,8*
G04 #@! TO.N,SPI1MOSI*
X164922200Y-90424000D03*
G04 #@! TO.P,U10,9*
G04 #@! TO.N,SPI1CLK*
X164922200Y-90923999D03*
G04 #@! TO.P,U10,10*
G04 #@! TO.N,SYNC2*
X164922200Y-91424001D03*
D27*
G04 #@! TO.P,U10,11*
G04 #@! TO.N,N/C*
X166370000Y-90424000D03*
G04 #@! TD*
D28*
G04 #@! TO.P,X1,4*
G04 #@! TO.N,DVDD*
X137230000Y-83930000D03*
G04 #@! TO.P,X1,3*
G04 #@! TO.N,Net-(R6-Pad1)*
X137230000Y-81280000D03*
G04 #@! TO.P,X1,2*
G04 #@! TO.N,GND*
X138430000Y-81280000D03*
G04 #@! TO.P,X1,1*
G04 #@! TO.N,DVDD*
X138430000Y-83930000D03*
G04 #@! TD*
D25*
G04 #@! TO.P,U13,1*
G04 #@! TO.N,ENABLE3*
X169887900Y-98298000D03*
G04 #@! TO.P,U13,2*
G04 #@! TO.N,Net-(C54-Pad1)*
X169887900Y-99568000D03*
G04 #@! TO.P,U13,3*
X169887900Y-100838000D03*
G04 #@! TO.P,U13,4*
G04 #@! TO.N,Net-(R26-Pad1)*
X169887900Y-102108000D03*
G04 #@! TO.P,U13,5*
G04 #@! TO.N,Net-(J6-Pad2)*
X175298100Y-102108000D03*
G04 #@! TO.P,U13,6*
G04 #@! TO.N,+5V*
X175298100Y-100838000D03*
G04 #@! TO.P,U13,7*
G04 #@! TO.N,GND*
X175298100Y-99568000D03*
G04 #@! TO.P,U13,8*
G04 #@! TO.N,Net-(J6-Pad1)*
X175298100Y-98298000D03*
G04 #@! TD*
D26*
G04 #@! TO.P,U12,1*
G04 #@! TO.N,DVDD*
X168071800Y-106156001D03*
G04 #@! TO.P,U12,2*
G04 #@! TO.N,Net-(J6-Pad2)*
X168071800Y-105655999D03*
G04 #@! TO.P,U12,3*
G04 #@! TO.N,Net-(R26-Pad1)*
X168071800Y-105156000D03*
G04 #@! TO.P,U12,4*
G04 #@! TO.N,GND*
X168071800Y-104656001D03*
G04 #@! TO.P,U12,5*
G04 #@! TO.N,Net-(C52-Pad1)*
X168071800Y-104155999D03*
G04 #@! TO.P,U12,6*
G04 #@! TO.N,GND*
X165176200Y-104155999D03*
G04 #@! TO.P,U12,7*
G04 #@! TO.N,Net-(SDO3-Pad1)*
X165176200Y-104656001D03*
G04 #@! TO.P,U12,8*
G04 #@! TO.N,SPI1MOSI*
X165176200Y-105156000D03*
G04 #@! TO.P,U12,9*
G04 #@! TO.N,SPI1CLK*
X165176200Y-105655999D03*
G04 #@! TO.P,U12,10*
G04 #@! TO.N,SYNC3*
X165176200Y-106156001D03*
D27*
G04 #@! TO.P,U12,11*
G04 #@! TO.N,N/C*
X166624000Y-105156000D03*
G04 #@! TD*
D25*
G04 #@! TO.P,U9,8*
G04 #@! TO.N,Net-(J4-Pad1)*
X177076100Y-65786000D03*
G04 #@! TO.P,U9,7*
G04 #@! TO.N,GND*
X177076100Y-67056000D03*
G04 #@! TO.P,U9,6*
G04 #@! TO.N,+5V*
X177076100Y-68326000D03*
G04 #@! TO.P,U9,5*
G04 #@! TO.N,Net-(J4-Pad2)*
X177076100Y-69596000D03*
G04 #@! TO.P,U9,4*
G04 #@! TO.N,Net-(R20-Pad1)*
X171665900Y-69596000D03*
G04 #@! TO.P,U9,3*
G04 #@! TO.N,Net-(C40-Pad1)*
X171665900Y-68326000D03*
G04 #@! TO.P,U9,2*
X171665900Y-67056000D03*
G04 #@! TO.P,U9,1*
G04 #@! TO.N,ENABLE1*
X171665900Y-65786000D03*
G04 #@! TD*
D27*
G04 #@! TO.P,U8,11*
G04 #@! TO.N,N/C*
X168148000Y-72644000D03*
D26*
G04 #@! TO.P,U8,10*
G04 #@! TO.N,SYNC1*
X166700200Y-73644001D03*
G04 #@! TO.P,U8,9*
G04 #@! TO.N,SPI1CLK*
X166700200Y-73143999D03*
G04 #@! TO.P,U8,8*
G04 #@! TO.N,SPI1MOSI*
X166700200Y-72644000D03*
G04 #@! TO.P,U8,7*
G04 #@! TO.N,Net-(SDO1-Pad1)*
X166700200Y-72144001D03*
G04 #@! TO.P,U8,6*
G04 #@! TO.N,GND*
X166700200Y-71643999D03*
G04 #@! TO.P,U8,5*
G04 #@! TO.N,Net-(C38-Pad1)*
X169595800Y-71643999D03*
G04 #@! TO.P,U8,4*
G04 #@! TO.N,GND*
X169595800Y-72144001D03*
G04 #@! TO.P,U8,3*
G04 #@! TO.N,Net-(R20-Pad1)*
X169595800Y-72644000D03*
G04 #@! TO.P,U8,2*
G04 #@! TO.N,Net-(J4-Pad2)*
X169595800Y-73143999D03*
G04 #@! TO.P,U8,1*
G04 #@! TO.N,DVDD*
X169595800Y-73644001D03*
G04 #@! TD*
D29*
G04 #@! TO.P,U7,1*
G04 #@! TO.N,Net-(C34-Pad1)*
X151536400Y-105271999D03*
G04 #@! TO.P,U7,2*
G04 #@! TO.N,AVDD*
X151536400Y-104622001D03*
G04 #@! TO.P,U7,3*
G04 #@! TO.N,DVDD*
X151536400Y-103971999D03*
G04 #@! TO.P,U7,4*
G04 #@! TO.N,Net-(C35-Pad1)*
X151536400Y-103322001D03*
G04 #@! TO.P,U7,5*
G04 #@! TO.N,GND*
X151536400Y-102672002D03*
G04 #@! TO.P,U7,6*
G04 #@! TO.N,Net-(R6-Pad1)*
X151536400Y-102022001D03*
G04 #@! TO.P,U7,7*
G04 #@! TO.N,Net-(SYNCOUT3-Pad1)*
X151536400Y-101372002D03*
G04 #@! TO.P,U7,8*
G04 #@! TO.N,Net-(MSBOUT3-Pad1)*
X151536400Y-100722001D03*
G04 #@! TO.P,U7,9*
G04 #@! TO.N,Net-(R17-Pad1)*
X145897600Y-100722001D03*
G04 #@! TO.P,U7,10*
G04 #@! TO.N,CTRL3*
X145897600Y-101371999D03*
G04 #@! TO.P,U7,11*
G04 #@! TO.N,SPI1MOSI*
X145897600Y-102022001D03*
G04 #@! TO.P,U7,12*
G04 #@! TO.N,SPI1CLK*
X145897600Y-102671999D03*
G04 #@! TO.P,U7,13*
G04 #@! TO.N,FSYNC3*
X145897600Y-103321998D03*
G04 #@! TO.P,U7,14*
G04 #@! TO.N,STANDBY3*
X145897600Y-103971999D03*
G04 #@! TO.P,U7,15*
G04 #@! TO.N,GND*
X145897600Y-104621998D03*
G04 #@! TO.P,U7,16*
G04 #@! TO.N,SIN3*
X145897600Y-105271999D03*
G04 #@! TD*
G04 #@! TO.P,U6,1*
G04 #@! TO.N,Net-(C28-Pad1)*
X151536400Y-89777999D03*
G04 #@! TO.P,U6,2*
G04 #@! TO.N,AVDD*
X151536400Y-89128001D03*
G04 #@! TO.P,U6,3*
G04 #@! TO.N,DVDD*
X151536400Y-88477999D03*
G04 #@! TO.P,U6,4*
G04 #@! TO.N,Net-(C29-Pad1)*
X151536400Y-87828001D03*
G04 #@! TO.P,U6,5*
G04 #@! TO.N,GND*
X151536400Y-87178002D03*
G04 #@! TO.P,U6,6*
G04 #@! TO.N,Net-(R6-Pad1)*
X151536400Y-86528001D03*
G04 #@! TO.P,U6,7*
G04 #@! TO.N,Net-(SYNCOUT2-Pad1)*
X151536400Y-85878002D03*
G04 #@! TO.P,U6,8*
G04 #@! TO.N,Net-(MSBOUT2-Pad1)*
X151536400Y-85228001D03*
G04 #@! TO.P,U6,9*
G04 #@! TO.N,Net-(R13-Pad1)*
X145897600Y-85228001D03*
G04 #@! TO.P,U6,10*
G04 #@! TO.N,CTRL2*
X145897600Y-85877999D03*
G04 #@! TO.P,U6,11*
G04 #@! TO.N,SPI1MOSI*
X145897600Y-86528001D03*
G04 #@! TO.P,U6,12*
G04 #@! TO.N,SPI1CLK*
X145897600Y-87177999D03*
G04 #@! TO.P,U6,13*
G04 #@! TO.N,FSYNC2*
X145897600Y-87827998D03*
G04 #@! TO.P,U6,14*
G04 #@! TO.N,STANDBY2*
X145897600Y-88477999D03*
G04 #@! TO.P,U6,15*
G04 #@! TO.N,GND*
X145897600Y-89127998D03*
G04 #@! TO.P,U6,16*
G04 #@! TO.N,SIN2*
X145897600Y-89777999D03*
G04 #@! TD*
G04 #@! TO.P,U5,16*
G04 #@! TO.N,SIN1*
X147802600Y-72632999D03*
G04 #@! TO.P,U5,15*
G04 #@! TO.N,GND*
X147802600Y-71982998D03*
G04 #@! TO.P,U5,14*
G04 #@! TO.N,STANDBY1*
X147802600Y-71332999D03*
G04 #@! TO.P,U5,13*
G04 #@! TO.N,FSYNC1*
X147802600Y-70682998D03*
G04 #@! TO.P,U5,12*
G04 #@! TO.N,SPI1CLK*
X147802600Y-70032999D03*
G04 #@! TO.P,U5,11*
G04 #@! TO.N,SPI1MOSI*
X147802600Y-69383001D03*
G04 #@! TO.P,U5,10*
G04 #@! TO.N,CTRL1*
X147802600Y-68732999D03*
G04 #@! TO.P,U5,9*
G04 #@! TO.N,Net-(R9-Pad1)*
X147802600Y-68083001D03*
G04 #@! TO.P,U5,8*
G04 #@! TO.N,Net-(MSBOUT1-Pad1)*
X153441400Y-68083001D03*
G04 #@! TO.P,U5,7*
G04 #@! TO.N,Net-(SYNCOUT1-Pad1)*
X153441400Y-68733002D03*
G04 #@! TO.P,U5,6*
G04 #@! TO.N,Net-(R6-Pad1)*
X153441400Y-69383001D03*
G04 #@! TO.P,U5,5*
G04 #@! TO.N,GND*
X153441400Y-70033002D03*
G04 #@! TO.P,U5,4*
G04 #@! TO.N,Net-(C23-Pad1)*
X153441400Y-70683001D03*
G04 #@! TO.P,U5,3*
G04 #@! TO.N,DVDD*
X153441400Y-71332999D03*
G04 #@! TO.P,U5,2*
G04 #@! TO.N,AVDD*
X153441400Y-71983001D03*
G04 #@! TO.P,U5,1*
G04 #@! TO.N,Net-(C22-Pad1)*
X153441400Y-72632999D03*
G04 #@! TD*
D30*
G04 #@! TO.P,U3,5*
G04 #@! TO.N,Net-(U3-Pad5)*
X80213200Y-110301999D03*
G04 #@! TO.P,U3,4*
G04 #@! TO.N,+5V*
X80213200Y-112202001D03*
G04 #@! TO.P,U3,3*
G04 #@! TO.N,Net-(U3-Pad3)*
X77774800Y-112202001D03*
G04 #@! TO.P,U3,2*
G04 #@! TO.N,GND*
X77774800Y-111252000D03*
G04 #@! TO.P,U3,1*
G04 #@! TO.N,Net-(D3-Pad2)*
X77774800Y-110301999D03*
G04 #@! TD*
D31*
G04 #@! TO.P,U2,1*
G04 #@! TO.N,DVDD*
X88395000Y-102067002D03*
G04 #@! TO.P,U2,2*
G04 #@! TO.N,Net-(U2-Pad2)*
X88395000Y-101417001D03*
G04 #@! TO.P,U2,3*
G04 #@! TO.N,Net-(C5-Pad2)*
X88395000Y-100767002D03*
G04 #@! TO.P,U2,4*
G04 #@! TO.N,GND*
X88395000Y-100117001D03*
G04 #@! TO.P,U2,5*
G04 #@! TO.N,Net-(C3-Pad1)*
X85595000Y-100117001D03*
G04 #@! TO.P,U2,6*
G04 #@! TO.N,Net-(U2-Pad6)*
X85595000Y-100767002D03*
G04 #@! TO.P,U2,7*
G04 #@! TO.N,Net-(U2-Pad7)*
X85595000Y-101417001D03*
G04 #@! TO.P,U2,8*
G04 #@! TO.N,Net-(C3-Pad1)*
X85595000Y-102067002D03*
D32*
G04 #@! TO.P,U2,9*
G04 #@! TO.N,GND*
X86995000Y-101092000D03*
D33*
G04 #@! TO.P,U2,V*
G04 #@! TO.N,N/C*
X87494999Y-101092000D03*
X86495001Y-101092000D03*
X86995000Y-100467000D03*
X86995000Y-101717000D03*
G04 #@! TD*
D34*
G04 #@! TO.P,U1,5*
G04 #@! TO.N,Net-(R1-Pad1)*
X90762000Y-88331000D03*
G04 #@! TO.P,U1,4*
G04 #@! TO.N,Vusb*
X90762000Y-90231000D03*
G04 #@! TO.P,U1,3*
G04 #@! TO.N,Net-(C2-Pad1)*
X88562000Y-90231000D03*
G04 #@! TO.P,U1,2*
G04 #@! TO.N,GND*
X88562000Y-89281000D03*
G04 #@! TO.P,U1,1*
G04 #@! TO.N,Net-(R2-Pad2)*
X88562000Y-88331000D03*
G04 #@! TD*
D14*
G04 #@! TO.P,SYNCOUT3,1*
G04 #@! TO.N,Net-(SYNCOUT3-Pad1)*
X153797000Y-100965000D03*
G04 #@! TD*
G04 #@! TO.P,SYNCOUT2,1*
G04 #@! TO.N,Net-(SYNCOUT2-Pad1)*
X154051000Y-85090000D03*
G04 #@! TD*
G04 #@! TO.P,SYNCOUT1,1*
G04 #@! TO.N,Net-(SYNCOUT1-Pad1)*
X155702000Y-67818000D03*
G04 #@! TD*
G04 #@! TO.P,SWP1,1*
G04 #@! TO.N,Net-(SWP1-Pad1)*
X113030000Y-92456000D03*
G04 #@! TD*
D35*
G04 #@! TO.P,SW2,4*
G04 #@! TO.N,N/C*
X130066000Y-87973000D03*
G04 #@! TO.P,SW2,3*
X130066000Y-89573000D03*
G04 #@! TO.P,SW2,2*
G04 #@! TO.N,GND*
X125966000Y-89573000D03*
G04 #@! TO.P,SW2,1*
G04 #@! TO.N,Net-(SW2-Pad1)*
X125966000Y-87973000D03*
D36*
G04 #@! TO.P,SW2,5*
G04 #@! TO.N,N/C*
X128016000Y-87348000D03*
G04 #@! TD*
D35*
G04 #@! TO.P,SW1,4*
G04 #@! TO.N,N/C*
X97010000Y-76873000D03*
G04 #@! TO.P,SW1,3*
X97010000Y-75273000D03*
G04 #@! TO.P,SW1,2*
G04 #@! TO.N,Net-(R4-Pad2)*
X101110000Y-75273000D03*
G04 #@! TO.P,SW1,1*
G04 #@! TO.N,GND*
X101110000Y-76873000D03*
D36*
G04 #@! TO.P,SW1,5*
G04 #@! TO.N,N/C*
X99060000Y-77498000D03*
G04 #@! TD*
D14*
G04 #@! TO.P,SHD1,1*
G04 #@! TO.N,Net-(SHD1-Pad1)*
X110363000Y-92583000D03*
G04 #@! TD*
G04 #@! TO.P,SENSOR_VP1,1*
G04 #@! TO.N,Net-(SENSOR_VP1-Pad1)*
X103124000Y-75184000D03*
G04 #@! TD*
G04 #@! TO.P,SENSOR_VN1,1*
G04 #@! TO.N,Net-(SENSOR_VN1-Pad1)*
X102997000Y-77343000D03*
G04 #@! TD*
G04 #@! TO.P,SDO3,1*
G04 #@! TO.N,Net-(SDO3-Pad1)*
X163195000Y-103759000D03*
G04 #@! TD*
G04 #@! TO.P,SDO2,1*
G04 #@! TO.N,Net-(SDO2-Pad1)*
X162941000Y-89154000D03*
G04 #@! TD*
G04 #@! TO.P,SDO1,1*
G04 #@! TO.N,Net-(SDO1-Pad1)*
X164592000Y-71374000D03*
G04 #@! TD*
G04 #@! TO.P,SDI1,1*
G04 #@! TO.N,Net-(SDI1-Pad1)*
X118110000Y-92329000D03*
G04 #@! TD*
G04 #@! TO.P,SCS1,1*
G04 #@! TO.N,Net-(SCS1-Pad1)*
X113538000Y-94615000D03*
G04 #@! TD*
G04 #@! TO.P,SCK1,1*
G04 #@! TO.N,Net-(SCK1-Pad1)*
X115697000Y-92329000D03*
G04 #@! TD*
D37*
G04 #@! TO.P,R26,1*
G04 #@! TO.N,Net-(R26-Pad1)*
X169760900Y-104648000D03*
G04 #@! TO.P,R26,2*
G04 #@! TO.N,Net-(C53-Pad1)*
X170853100Y-104648000D03*
G04 #@! TD*
G04 #@! TO.P,R23,1*
G04 #@! TO.N,Net-(R23-Pad1)*
X169633900Y-88646000D03*
G04 #@! TO.P,R23,2*
G04 #@! TO.N,Net-(C46-Pad1)*
X170726100Y-88646000D03*
G04 #@! TD*
G04 #@! TO.P,R20,2*
G04 #@! TO.N,Net-(C39-Pad1)*
X172885100Y-72136000D03*
G04 #@! TO.P,R20,1*
G04 #@! TO.N,Net-(R20-Pad1)*
X171792900Y-72136000D03*
G04 #@! TD*
D38*
G04 #@! TO.P,R5,1*
G04 #@! TO.N,AVDD*
X100584000Y-109966201D03*
G04 #@! TO.P,R5,2*
G04 #@! TO.N,Net-(FB1-Pad1)*
X100584000Y-111521799D03*
G04 #@! TD*
D12*
G04 #@! TO.P,R4,1*
G04 #@! TO.N,DVDD*
X100152200Y-73787000D03*
G04 #@! TO.P,R4,2*
G04 #@! TO.N,Net-(R4-Pad2)*
X101269800Y-73787000D03*
G04 #@! TD*
D14*
G04 #@! TO.P,MSBOUT3,1*
G04 #@! TO.N,Net-(MSBOUT3-Pad1)*
X151384000Y-98806000D03*
G04 #@! TD*
G04 #@! TO.P,MSBOUT2,1*
G04 #@! TO.N,Net-(MSBOUT2-Pad1)*
X151511000Y-83312000D03*
G04 #@! TD*
G04 #@! TO.P,MSBOUT1,1*
G04 #@! TO.N,Net-(MSBOUT1-Pad1)*
X153416000Y-66294000D03*
G04 #@! TD*
G04 #@! TO.P,IO35,1*
G04 #@! TO.N,Net-(IO35-Pad1)*
X100076000Y-79883000D03*
G04 #@! TD*
D39*
G04 #@! TO.P,L1,2*
G04 #@! TO.N,Net-(D3-Pad2)*
X77724000Y-99388000D03*
G04 #@! TO.P,L1,1*
G04 #@! TO.N,Net-(C3-Pad1)*
X77724000Y-97208000D03*
G04 #@! TD*
D21*
G04 #@! TO.P,J6,2*
G04 #@! TO.N,Net-(J6-Pad2)*
X181102000Y-101981000D03*
D40*
G04 #@! TO.P,J6,1*
G04 #@! TO.N,Net-(J6-Pad1)*
X181102000Y-99441000D03*
G04 #@! TD*
D21*
G04 #@! TO.P,J5,2*
G04 #@! TO.N,Net-(J5-Pad2)*
X181229000Y-86868000D03*
D40*
G04 #@! TO.P,J5,1*
G04 #@! TO.N,Net-(J5-Pad1)*
X181229000Y-84328000D03*
G04 #@! TD*
D21*
G04 #@! TO.P,J4,2*
G04 #@! TO.N,Net-(J4-Pad2)*
X183007000Y-69596000D03*
D40*
G04 #@! TO.P,J4,1*
G04 #@! TO.N,Net-(J4-Pad1)*
X183007000Y-67056000D03*
G04 #@! TD*
D41*
G04 #@! TO.P,J3,1*
G04 #@! TO.N,Net-(J3-Pad1)*
X138811000Y-67691000D03*
D42*
G04 #@! TO.P,J3,2*
G04 #@! TO.N,Net-(J3-Pad2)*
X136271000Y-67691000D03*
G04 #@! TO.P,J3,3*
G04 #@! TO.N,GND*
X133731000Y-67691000D03*
G04 #@! TO.P,J3,4*
G04 #@! TO.N,N/C*
X131191000Y-67691000D03*
G04 #@! TD*
D43*
G04 #@! TO.P,J2,1*
G04 #@! TO.N,Net-(C2-Pad1)*
X80772000Y-84581999D03*
G04 #@! TO.P,J2,2*
G04 #@! TO.N,GND*
X80772000Y-86582001D03*
G04 #@! TD*
D14*
G04 #@! TO.P,IO34,1*
G04 #@! TO.N,Net-(IO34-Pad1)*
X97282000Y-79883000D03*
G04 #@! TD*
G04 #@! TO.P,IO32,1*
G04 #@! TO.N,Net-(IO32-Pad1)*
X103632000Y-80264000D03*
G04 #@! TD*
D44*
G04 #@! TO.P,C56,1*
G04 #@! TO.N,+5V*
X174498000Y-108546000D03*
G04 #@! TO.P,C56,2*
G04 #@! TO.N,GND*
X174498000Y-106846000D03*
G04 #@! TD*
D45*
G04 #@! TO.P,C55,1*
G04 #@! TO.N,+5V*
X176149000Y-108546900D03*
G04 #@! TO.P,C55,2*
G04 #@! TO.N,GND*
X176149000Y-107099100D03*
G04 #@! TD*
D46*
G04 #@! TO.P,C54,1*
G04 #@! TO.N,Net-(C54-Pad1)*
X167728000Y-100203000D03*
G04 #@! TO.P,C54,2*
G04 #@! TO.N,GND*
X166028000Y-100203000D03*
G04 #@! TD*
G04 #@! TO.P,C53,1*
G04 #@! TO.N,Net-(C53-Pad1)*
X172505000Y-104013000D03*
G04 #@! TO.P,C53,2*
G04 #@! TO.N,SIN3*
X174205000Y-104013000D03*
G04 #@! TD*
G04 #@! TO.P,C52,1*
G04 #@! TO.N,Net-(C52-Pad1)*
X167728000Y-102235000D03*
G04 #@! TO.P,C52,2*
G04 #@! TO.N,GND*
X166028000Y-102235000D03*
G04 #@! TD*
D44*
G04 #@! TO.P,C51,1*
G04 #@! TO.N,DVDD*
X171831000Y-108673000D03*
G04 #@! TO.P,C51,2*
G04 #@! TO.N,GND*
X171831000Y-106973000D03*
G04 #@! TD*
D45*
G04 #@! TO.P,C50,1*
G04 #@! TO.N,DVDD*
X169926000Y-108292900D03*
G04 #@! TO.P,C50,2*
G04 #@! TO.N,GND*
X169926000Y-106845100D03*
G04 #@! TD*
D44*
G04 #@! TO.P,C49,1*
G04 #@! TO.N,+5V*
X174117000Y-93560000D03*
G04 #@! TO.P,C49,2*
G04 #@! TO.N,GND*
X174117000Y-91860000D03*
G04 #@! TD*
D45*
G04 #@! TO.P,C48,1*
G04 #@! TO.N,+5V*
X176022000Y-93433900D03*
G04 #@! TO.P,C48,2*
G04 #@! TO.N,GND*
X176022000Y-91986100D03*
G04 #@! TD*
D46*
G04 #@! TO.P,C47,1*
G04 #@! TO.N,Net-(C47-Pad1)*
X167601000Y-84836000D03*
G04 #@! TO.P,C47,2*
G04 #@! TO.N,GND*
X165901000Y-84836000D03*
G04 #@! TD*
G04 #@! TO.P,C46,1*
G04 #@! TO.N,Net-(C46-Pad1)*
X172378000Y-88773000D03*
G04 #@! TO.P,C46,2*
G04 #@! TO.N,SIN2*
X174078000Y-88773000D03*
G04 #@! TD*
G04 #@! TO.P,C45,1*
G04 #@! TO.N,Net-(C45-Pad1)*
X167601000Y-87503000D03*
G04 #@! TO.P,C45,2*
G04 #@! TO.N,GND*
X165901000Y-87503000D03*
G04 #@! TD*
D44*
G04 #@! TO.P,C44,1*
G04 #@! TO.N,DVDD*
X171577000Y-93941000D03*
G04 #@! TO.P,C44,2*
G04 #@! TO.N,GND*
X171577000Y-92241000D03*
G04 #@! TD*
D45*
G04 #@! TO.P,C43,1*
G04 #@! TO.N,DVDD*
X169799000Y-93560900D03*
G04 #@! TO.P,C43,2*
G04 #@! TO.N,GND*
X169799000Y-92113100D03*
G04 #@! TD*
D44*
G04 #@! TO.P,C42,2*
G04 #@! TO.N,GND*
X177800000Y-74207000D03*
G04 #@! TO.P,C42,1*
G04 #@! TO.N,+5V*
X177800000Y-75907000D03*
G04 #@! TD*
D45*
G04 #@! TO.P,C41,2*
G04 #@! TO.N,GND*
X176149000Y-74460100D03*
G04 #@! TO.P,C41,1*
G04 #@! TO.N,+5V*
X176149000Y-75907900D03*
G04 #@! TD*
D46*
G04 #@! TO.P,C40,2*
G04 #@! TO.N,GND*
X167679000Y-67945000D03*
G04 #@! TO.P,C40,1*
G04 #@! TO.N,Net-(C40-Pad1)*
X169379000Y-67945000D03*
G04 #@! TD*
G04 #@! TO.P,C39,2*
G04 #@! TO.N,SIN1*
X176110000Y-72009000D03*
G04 #@! TO.P,C39,1*
G04 #@! TO.N,Net-(C39-Pad1)*
X174410000Y-72009000D03*
G04 #@! TD*
G04 #@! TO.P,C38,2*
G04 #@! TO.N,GND*
X167679000Y-69850000D03*
G04 #@! TO.P,C38,1*
G04 #@! TO.N,Net-(C38-Pad1)*
X169379000Y-69850000D03*
G04 #@! TD*
D44*
G04 #@! TO.P,C37,2*
G04 #@! TO.N,GND*
X172974000Y-74207000D03*
G04 #@! TO.P,C37,1*
G04 #@! TO.N,DVDD*
X172974000Y-75907000D03*
G04 #@! TD*
D45*
G04 #@! TO.P,C36,2*
G04 #@! TO.N,GND*
X171323000Y-74206100D03*
G04 #@! TO.P,C36,1*
G04 #@! TO.N,DVDD*
X171323000Y-75653900D03*
G04 #@! TD*
D44*
G04 #@! TO.P,C35,1*
G04 #@! TO.N,Net-(C35-Pad1)*
X156083000Y-102704000D03*
G04 #@! TO.P,C35,2*
G04 #@! TO.N,GND*
X156083000Y-101004000D03*
G04 #@! TD*
D47*
G04 #@! TO.P,C34,1*
G04 #@! TO.N,Net-(C34-Pad1)*
X151597201Y-107315000D03*
G04 #@! TO.P,C34,2*
G04 #@! TO.N,AVDD*
X153202799Y-107315000D03*
G04 #@! TD*
D44*
G04 #@! TO.P,C33,1*
G04 #@! TO.N,DVDD*
X158242000Y-103593000D03*
G04 #@! TO.P,C33,2*
G04 #@! TO.N,GND*
X158242000Y-101893000D03*
G04 #@! TD*
D45*
G04 #@! TO.P,C32,1*
G04 #@! TO.N,DVDD*
X159893000Y-103593900D03*
G04 #@! TO.P,C32,2*
G04 #@! TO.N,GND*
X159893000Y-102146100D03*
G04 #@! TD*
D46*
G04 #@! TO.P,C31,1*
G04 #@! TO.N,AVDD*
X155487000Y-105410000D03*
G04 #@! TO.P,C31,2*
G04 #@! TO.N,GND*
X157187000Y-105410000D03*
G04 #@! TD*
D48*
G04 #@! TO.P,C30,1*
G04 #@! TO.N,AVDD*
X155613100Y-107315000D03*
G04 #@! TO.P,C30,2*
G04 #@! TO.N,GND*
X157060900Y-107315000D03*
G04 #@! TD*
D44*
G04 #@! TO.P,C29,1*
G04 #@! TO.N,Net-(C29-Pad1)*
X156083000Y-86575000D03*
G04 #@! TO.P,C29,2*
G04 #@! TO.N,GND*
X156083000Y-84875000D03*
G04 #@! TD*
D47*
G04 #@! TO.P,C28,1*
G04 #@! TO.N,Net-(C28-Pad1)*
X151597201Y-91567000D03*
G04 #@! TO.P,C28,2*
G04 #@! TO.N,AVDD*
X153202799Y-91567000D03*
G04 #@! TD*
D44*
G04 #@! TO.P,C27,1*
G04 #@! TO.N,DVDD*
X158242000Y-87210000D03*
G04 #@! TO.P,C27,2*
G04 #@! TO.N,GND*
X158242000Y-85510000D03*
G04 #@! TD*
D45*
G04 #@! TO.P,C26,1*
G04 #@! TO.N,DVDD*
X160020000Y-87210900D03*
G04 #@! TO.P,C26,2*
G04 #@! TO.N,GND*
X160020000Y-85763100D03*
G04 #@! TD*
D46*
G04 #@! TO.P,C25,1*
G04 #@! TO.N,AVDD*
X155360000Y-89789000D03*
G04 #@! TO.P,C25,2*
G04 #@! TO.N,GND*
X157060000Y-89789000D03*
G04 #@! TD*
D48*
G04 #@! TO.P,C24,1*
G04 #@! TO.N,AVDD*
X155486100Y-91567000D03*
G04 #@! TO.P,C24,2*
G04 #@! TO.N,GND*
X156933900Y-91567000D03*
G04 #@! TD*
D44*
G04 #@! TO.P,C23,2*
G04 #@! TO.N,GND*
X157861000Y-67857000D03*
G04 #@! TO.P,C23,1*
G04 #@! TO.N,Net-(C23-Pad1)*
X157861000Y-69557000D03*
G04 #@! TD*
D47*
G04 #@! TO.P,C22,2*
G04 #@! TO.N,AVDD*
X155107799Y-74549000D03*
G04 #@! TO.P,C22,1*
G04 #@! TO.N,Net-(C22-Pad1)*
X153502201Y-74549000D03*
G04 #@! TD*
D44*
G04 #@! TO.P,C21,2*
G04 #@! TO.N,GND*
X160020000Y-69127000D03*
G04 #@! TO.P,C21,1*
G04 #@! TO.N,DVDD*
X160020000Y-70827000D03*
G04 #@! TD*
D45*
G04 #@! TO.P,C20,2*
G04 #@! TO.N,GND*
X161671000Y-69380100D03*
G04 #@! TO.P,C20,1*
G04 #@! TO.N,DVDD*
X161671000Y-70827900D03*
G04 #@! TD*
D46*
G04 #@! TO.P,C19,2*
G04 #@! TO.N,GND*
X158838000Y-72644000D03*
G04 #@! TO.P,C19,1*
G04 #@! TO.N,AVDD*
X157138000Y-72644000D03*
G04 #@! TD*
D48*
G04 #@! TO.P,C18,2*
G04 #@! TO.N,GND*
X158584900Y-74422000D03*
G04 #@! TO.P,C18,1*
G04 #@! TO.N,AVDD*
X157137100Y-74422000D03*
G04 #@! TD*
D44*
G04 #@! TO.P,C17,1*
G04 #@! TO.N,DVDD*
X140335000Y-84035000D03*
G04 #@! TO.P,C17,2*
G04 #@! TO.N,GND*
X140335000Y-82335000D03*
G04 #@! TD*
G04 #@! TO.P,C16,1*
G04 #@! TO.N,DVDD*
X135382000Y-84035000D03*
G04 #@! TO.P,C16,2*
G04 #@! TO.N,GND*
X135382000Y-82335000D03*
G04 #@! TD*
G04 #@! TO.P,C15,1*
G04 #@! TO.N,AVDD*
X104140000Y-109894000D03*
G04 #@! TO.P,C15,2*
G04 #@! TO.N,GND*
X104140000Y-111594000D03*
G04 #@! TD*
D45*
G04 #@! TO.P,C14,1*
G04 #@! TO.N,AVDD*
X102362000Y-110020100D03*
G04 #@! TO.P,C14,2*
G04 #@! TO.N,GND*
X102362000Y-111467900D03*
G04 #@! TD*
D44*
G04 #@! TO.P,C13,1*
G04 #@! TO.N,DVDD*
X95123000Y-110021000D03*
G04 #@! TO.P,C13,2*
G04 #@! TO.N,GND*
X95123000Y-111721000D03*
G04 #@! TD*
D45*
G04 #@! TO.P,C12,1*
G04 #@! TO.N,DVDD*
X96901000Y-110020100D03*
G04 #@! TO.P,C12,2*
G04 #@! TO.N,GND*
X96901000Y-111467900D03*
G04 #@! TD*
D44*
G04 #@! TO.P,C11,1*
G04 #@! TO.N,DVDD*
X99187000Y-70954000D03*
G04 #@! TO.P,C11,2*
G04 #@! TO.N,GND*
X99187000Y-69254000D03*
G04 #@! TD*
D45*
G04 #@! TO.P,C10,1*
G04 #@! TO.N,DVDD*
X97282000Y-70954900D03*
G04 #@! TO.P,C10,2*
G04 #@! TO.N,GND*
X97282000Y-69507100D03*
G04 #@! TD*
D49*
G04 #@! TO.P,C6,1*
G04 #@! TO.N,Net-(C6-Pad1)*
X79748000Y-103759000D03*
G04 #@! TO.P,C6,2*
G04 #@! TO.N,+5V*
X81288000Y-103759000D03*
G04 #@! TD*
D44*
G04 #@! TO.P,C5,1*
G04 #@! TO.N,GND*
X90170000Y-100115000D03*
G04 #@! TO.P,C5,2*
G04 #@! TO.N,Net-(C5-Pad2)*
X90170000Y-101815000D03*
G04 #@! TD*
G04 #@! TO.P,C4,1*
G04 #@! TO.N,GND*
X90170000Y-105879000D03*
G04 #@! TO.P,C4,2*
G04 #@! TO.N,DVDD*
X90170000Y-104179000D03*
G04 #@! TD*
D46*
G04 #@! TO.P,C3,1*
G04 #@! TO.N,Net-(C3-Pad1)*
X83908000Y-100076000D03*
G04 #@! TO.P,C3,2*
G04 #@! TO.N,GND*
X82208000Y-100076000D03*
G04 #@! TD*
D50*
G04 #@! TO.P,C2,1*
G04 #@! TO.N,Net-(C2-Pad1)*
X82556000Y-90043000D03*
G04 #@! TO.P,C2,2*
G04 #@! TO.N,GND*
X80766000Y-90043000D03*
G04 #@! TD*
G04 #@! TO.P,C1,1*
G04 #@! TO.N,Vusb*
X93097000Y-82042000D03*
G04 #@! TO.P,C1,2*
G04 #@! TO.N,GND*
X91307000Y-82042000D03*
G04 #@! TD*
D51*
G04 #@! TO.N,GND*
X87630000Y-86360000D03*
X87122000Y-89281000D03*
X178943000Y-67056000D03*
X177038000Y-84455000D03*
X82931000Y-112014000D03*
X105445000Y-111601138D03*
X93638000Y-111721000D03*
X125984000Y-91059000D03*
X158584900Y-75653900D03*
X164337996Y-84836000D03*
X156955296Y-92955741D03*
X156981510Y-108575490D03*
X177419000Y-91948000D03*
X179197000Y-73279000D03*
X177292000Y-105918000D03*
X177165000Y-99568000D03*
X76200000Y-111252000D03*
X92074990Y-100076000D03*
X140335000Y-80772000D03*
X82208000Y-101561000D03*
X91694000Y-105918000D03*
X144018000Y-73949000D03*
X140970000Y-73279000D03*
X143651000Y-66816000D03*
X150495000Y-66675000D03*
X166243000Y-68199000D03*
X167767000Y-64389000D03*
X161671000Y-68072000D03*
X157861000Y-66421000D03*
X160020000Y-67437000D03*
X165100000Y-76962000D03*
X149251002Y-71982998D03*
X148844000Y-83693000D03*
X147574000Y-88392000D03*
X138811000Y-88646000D03*
X143891000Y-82296000D03*
X156083000Y-83439000D03*
X158242000Y-83820000D03*
X160020000Y-83947000D03*
X165876000Y-81294000D03*
X164592000Y-93726000D03*
X121031000Y-71374000D03*
X108966000Y-71501000D03*
X109220000Y-86487000D03*
X142635000Y-90791000D03*
X138557000Y-104267000D03*
X148590000Y-103632000D03*
X158242000Y-100203000D03*
X159893000Y-100076000D03*
X156718000Y-98806000D03*
X165848000Y-96534000D03*
X164211000Y-101600000D03*
X163449000Y-109728000D03*
X141619000Y-99201000D03*
X169160900Y-103378000D03*
X169260164Y-89819837D03*
X170815000Y-70866000D03*
G04 #@! TO.N,DVDD*
X159928000Y-75565000D03*
X169037000Y-77216000D03*
X158242000Y-92837000D03*
X166839000Y-93941000D03*
X158242000Y-108458000D03*
X168529000Y-110109000D03*
X169037000Y-79883000D03*
X179197000Y-109474000D03*
G04 #@! TO.N,+5V*
X178816000Y-68326000D03*
X179451000Y-75692000D03*
X176911002Y-85725002D03*
X178181000Y-93472000D03*
X177419000Y-100965000D03*
X178142900Y-108546900D03*
G04 #@! TO.N,AVDD*
X155613100Y-108546900D03*
X157099000Y-75819000D03*
X157099000Y-77851000D03*
X155486100Y-92925900D03*
X155575000Y-95377000D03*
X183515000Y-95377000D03*
X182499000Y-78105000D03*
X184530996Y-110871000D03*
G04 #@! TO.N,SIN1*
X147802598Y-73761598D03*
X177292006Y-70866000D03*
G04 #@! TO.N,SIN2*
X145897600Y-90957400D03*
X175387006Y-88773000D03*
G04 #@! TO.N,SIN3*
X145897600Y-106400600D03*
X175564800Y-104013000D03*
X176276000Y-105664000D03*
G04 #@! TO.N,Net-(J3-Pad2)*
X133477000Y-73914000D03*
X130937000Y-76453998D03*
G04 #@! TO.N,Net-(R6-Pad1)*
X155660999Y-69383001D03*
X153543000Y-86614000D03*
X153924000Y-102489000D03*
X150622000Y-78486000D03*
X150622000Y-75565000D03*
X148844000Y-87884000D03*
X148844000Y-92837000D03*
X148844000Y-95758000D03*
G04 #@! TO.N,SPI1CLK*
X161798000Y-74676000D03*
X160274000Y-91948000D03*
X160655000Y-107315000D03*
X135508999Y-87630001D03*
X139192000Y-103251000D03*
X140335000Y-71501000D03*
G04 #@! TO.N,SPI1MOSI*
X161382000Y-72609000D03*
X160020000Y-89662000D03*
X161798000Y-105156000D03*
X134239000Y-87630000D03*
X138007999Y-102022001D03*
X138049000Y-97155000D03*
X141605000Y-97155000D03*
X141478000Y-92837000D03*
X141478000Y-90805000D03*
X140843000Y-69850000D03*
G04 #@! TD*
D52*
G04 #@! TO.N,Vusb*
X90762000Y-90231000D02*
X90762000Y-90213000D01*
X93224000Y-81788000D02*
X93230000Y-81788000D01*
X91313000Y-69596000D02*
X94488000Y-69596000D01*
X94234000Y-82042000D02*
X94488000Y-82296000D01*
X93097000Y-82042000D02*
X94234000Y-82042000D01*
X94488000Y-69596000D02*
X94488000Y-82296000D01*
X94361000Y-84455000D02*
X94488000Y-84582000D01*
X93100000Y-84455000D02*
X94361000Y-84455000D01*
X94488000Y-82296000D02*
X94488000Y-84582000D01*
X90762000Y-90231000D02*
X94422000Y-90231000D01*
X94488000Y-90165000D02*
X94422000Y-90231000D01*
X94488000Y-84582000D02*
X94488000Y-90165000D01*
X90762000Y-93289300D02*
X90805000Y-93332300D01*
X90762000Y-92781300D02*
X90805000Y-92824300D01*
X90762000Y-90231000D02*
X90762000Y-92781300D01*
G04 #@! TO.N,GND*
X80772000Y-90037000D02*
X80766000Y-90043000D01*
X80772000Y-86582001D02*
X80772000Y-90037000D01*
D53*
X87630000Y-86360000D02*
X87630000Y-86360000D01*
D52*
X88562000Y-89281000D02*
X87122000Y-89281000D01*
X87122000Y-89281000D02*
X87122000Y-89281000D01*
D53*
X166700200Y-70828800D02*
X167679000Y-69850000D01*
X166700200Y-71643999D02*
X166700200Y-70828800D01*
X167933000Y-69596000D02*
X167679000Y-69850000D01*
X177076100Y-67056000D02*
X178943000Y-67056000D01*
X176149000Y-74460100D02*
X177546900Y-74460100D01*
X172973100Y-74206100D02*
X172974000Y-74207000D01*
X171323000Y-74206100D02*
X172973100Y-74206100D01*
X175895900Y-74207000D02*
X176149000Y-74460100D01*
X172974000Y-74207000D02*
X175895900Y-74207000D01*
X165901000Y-84836000D02*
X165901000Y-87503000D01*
X164922200Y-88481800D02*
X164922200Y-89423999D01*
X165901000Y-87503000D02*
X164922200Y-88481800D01*
X175298100Y-84455000D02*
X177038000Y-84455000D01*
X171449100Y-92113100D02*
X171577000Y-92241000D01*
X169799000Y-92113100D02*
X171449100Y-92113100D01*
X173736000Y-92241000D02*
X174117000Y-91860000D01*
X171577000Y-92241000D02*
X173736000Y-92241000D01*
X176022900Y-91860000D02*
X176149000Y-91986100D01*
X174117000Y-91860000D02*
X176022900Y-91860000D01*
X176187100Y-91986100D02*
X176225200Y-91948000D01*
X176149000Y-91986100D02*
X176187100Y-91986100D01*
X176225200Y-91948000D02*
X176554125Y-91948000D01*
X171703100Y-106845100D02*
X171831000Y-106973000D01*
X169926000Y-106845100D02*
X171703100Y-106845100D01*
X174371000Y-106973000D02*
X174498000Y-106846000D01*
X171831000Y-106973000D02*
X174371000Y-106973000D01*
X175895900Y-106846000D02*
X176149000Y-107099100D01*
X174498000Y-106846000D02*
X175895900Y-106846000D01*
D52*
X89041000Y-86360000D02*
X87630000Y-86360000D01*
D53*
X82983100Y-111961900D02*
X82931000Y-112014000D01*
D52*
X87555100Y-112014000D02*
X87630000Y-112088900D01*
X82931000Y-112014000D02*
X87555100Y-112014000D01*
D54*
X104013900Y-111467900D02*
X104140000Y-111594000D01*
X102362000Y-111467900D02*
X104013900Y-111467900D01*
D52*
X104140000Y-111594000D02*
X105371000Y-111594000D01*
X105371000Y-111594000D02*
X105378138Y-111601138D01*
X105378138Y-111601138D02*
X105445000Y-111601138D01*
X96695510Y-111721000D02*
X96901000Y-111515510D01*
X95123000Y-111721000D02*
X96695510Y-111721000D01*
X95123000Y-111721000D02*
X93638000Y-111721000D01*
D53*
X125966000Y-89573000D02*
X125966000Y-90914000D01*
X125966000Y-90914000D02*
X125984000Y-90932000D01*
X125984000Y-90932000D02*
X125984000Y-91059000D01*
X176149000Y-74460100D02*
X178145195Y-74460100D01*
X158838000Y-74168900D02*
X158584900Y-74422000D01*
X158838000Y-72644000D02*
X158838000Y-74168900D01*
X158584900Y-74422000D02*
X158584900Y-75653900D01*
X165901000Y-84836000D02*
X164337996Y-84836000D01*
X157060000Y-91440900D02*
X156933900Y-91567000D01*
X157060000Y-89789000D02*
X157060000Y-91440900D01*
X156933900Y-91567000D02*
X156933900Y-92934345D01*
X156933900Y-92934345D02*
X156955296Y-92955741D01*
X157187000Y-107188900D02*
X157060900Y-107315000D01*
X157187000Y-105410000D02*
X157187000Y-107188900D01*
X156981510Y-107432490D02*
X156981510Y-108575490D01*
X157060900Y-107315000D02*
X157060900Y-107353100D01*
X157060900Y-107353100D02*
X156981510Y-107432490D01*
X176427125Y-91948000D02*
X177419000Y-91948000D01*
X177800000Y-74207000D02*
X177800000Y-74168000D01*
X177800000Y-74207000D02*
X178269000Y-74207000D01*
X178269000Y-74207000D02*
X179197000Y-73279000D01*
X176149000Y-107099100D02*
X177292000Y-105956100D01*
X177292000Y-105956100D02*
X177292000Y-105918000D01*
X175298100Y-99568000D02*
X177165000Y-99568000D01*
D52*
X77774800Y-111252000D02*
X76200000Y-111252000D01*
D53*
X90167999Y-100117001D02*
X90170000Y-100115000D01*
X88395000Y-100117001D02*
X90167999Y-100117001D01*
X92035990Y-100115000D02*
X92074990Y-100076000D01*
X90170000Y-100115000D02*
X92035990Y-100115000D01*
X138430000Y-81280000D02*
X138430000Y-82247000D01*
X138430000Y-82247000D02*
X138342000Y-82335000D01*
X135382000Y-82335000D02*
X138342000Y-82335000D01*
X138342000Y-82335000D02*
X140335000Y-82335000D01*
X138430000Y-79555990D02*
X138376010Y-79502000D01*
X138430000Y-81280000D02*
X138430000Y-79555990D01*
X140335000Y-82335000D02*
X140335000Y-80772000D01*
X82208000Y-100076000D02*
X82208000Y-101561000D01*
X90170000Y-105879000D02*
X91479000Y-105879000D01*
X91479000Y-105879000D02*
X91518000Y-105918000D01*
X91518000Y-105918000D02*
X91694000Y-105918000D01*
D55*
X145923000Y-73392000D02*
X144667000Y-73392000D01*
X144667000Y-73392000D02*
X144145000Y-73914000D01*
X144145000Y-73914000D02*
X144110000Y-73949000D01*
X144110000Y-73949000D02*
X144018000Y-73949000D01*
X142381000Y-71120000D02*
X142381000Y-71868000D01*
X142381000Y-71868000D02*
X140970000Y-73279000D01*
X145669000Y-66816000D02*
X143651000Y-66816000D01*
X149211000Y-66675000D02*
X150495000Y-66675000D01*
X166497000Y-67945000D02*
X166243000Y-68199000D01*
X167679000Y-67945000D02*
X166497000Y-67945000D01*
X167679000Y-69850000D02*
X167679000Y-67945000D01*
D53*
X167781000Y-64403000D02*
X167767000Y-64389000D01*
X169545000Y-64403000D02*
X167781000Y-64403000D01*
X161671000Y-69380100D02*
X161671000Y-68072000D01*
X157861000Y-67857000D02*
X157861000Y-66421000D01*
X160020000Y-69127000D02*
X160020000Y-67437000D01*
X165100000Y-75551000D02*
X165100000Y-76962000D01*
X147802600Y-71982998D02*
X149251002Y-71982998D01*
X147306000Y-83693000D02*
X148844000Y-83693000D01*
X148844000Y-85338603D02*
X150683399Y-87178002D01*
X150683399Y-87178002D02*
X151536400Y-87178002D01*
X148844000Y-83693000D02*
X148844000Y-85338603D01*
X145897600Y-89127998D02*
X146838002Y-89127998D01*
X146838002Y-89127998D02*
X147574000Y-88392000D01*
X140222000Y-88646000D02*
X138811000Y-88646000D01*
X143510000Y-83707000D02*
X143510000Y-82677000D01*
X143510000Y-82677000D02*
X143891000Y-82296000D01*
X156083000Y-84875000D02*
X156083000Y-83693000D01*
X156083000Y-83693000D02*
X156083000Y-83439000D01*
X158242000Y-85510000D02*
X158242000Y-83820000D01*
X160020000Y-85763100D02*
X160020000Y-83947000D01*
X167767000Y-81294000D02*
X165876000Y-81294000D01*
X163068000Y-93712000D02*
X164197000Y-93712000D01*
X163068000Y-93712000D02*
X164578000Y-93712000D01*
X164578000Y-93712000D02*
X164592000Y-93726000D01*
X123435000Y-71374000D02*
X121031000Y-71374000D01*
X106435000Y-71374000D02*
X108839000Y-71374000D01*
X108839000Y-71374000D02*
X108966000Y-71501000D01*
X109220000Y-88884000D02*
X109220000Y-86487000D01*
X97535100Y-69254000D02*
X97282000Y-69507100D01*
X99187000Y-69254000D02*
X97535100Y-69254000D01*
X94300900Y-66526000D02*
X88603000Y-66526000D01*
X97282000Y-69507100D02*
X94300900Y-66526000D01*
X143891000Y-90791000D02*
X142635000Y-90791000D01*
X140095000Y-104140000D02*
X138684000Y-104140000D01*
X138684000Y-104140000D02*
X138557000Y-104267000D01*
X145044599Y-104621998D02*
X145897600Y-104621998D01*
X143637000Y-106029597D02*
X145044599Y-104621998D01*
X143637000Y-106031000D02*
X143637000Y-106029597D01*
X145897600Y-104621998D02*
X147600002Y-104621998D01*
X147600002Y-104621998D02*
X148590000Y-103632000D01*
X149404800Y-102817200D02*
X148590000Y-103632000D01*
X150674800Y-102817200D02*
X149404800Y-102817200D01*
X150819998Y-102672002D02*
X150674800Y-102817200D01*
X151536400Y-102672002D02*
X150819998Y-102672002D01*
X158242000Y-101893000D02*
X158242000Y-100203000D01*
X159893000Y-102146100D02*
X159893000Y-100076000D01*
X156083000Y-101004000D02*
X156083000Y-99314000D01*
X156083000Y-99314000D02*
X156591000Y-98806000D01*
X156591000Y-98806000D02*
X156718000Y-98806000D01*
X168021000Y-96534000D02*
X165848000Y-96534000D01*
X166028000Y-100203000D02*
X166028000Y-102235000D01*
X166028000Y-102235000D02*
X164719000Y-102235000D01*
X164719000Y-102235000D02*
X164211000Y-101727000D01*
X164211000Y-101727000D02*
X164211000Y-101600000D01*
X163449000Y-108063000D02*
X163449000Y-109728000D01*
X165176200Y-103086800D02*
X166028000Y-102235000D01*
X165176200Y-104155999D02*
X165176200Y-103086800D01*
X143383000Y-99201000D02*
X141619000Y-99201000D01*
X147179000Y-99187000D02*
X147179000Y-98312000D01*
X144272000Y-98312000D02*
X143383000Y-99201000D01*
X147179000Y-98312000D02*
X144272000Y-98312000D01*
X168693800Y-104656001D02*
X169164000Y-104185801D01*
X168071800Y-104656001D02*
X168693800Y-104656001D01*
X169164000Y-104185801D02*
X169164000Y-103381100D01*
X169164000Y-103381100D02*
X169160900Y-103378000D01*
X169156000Y-89924001D02*
X169260164Y-89819837D01*
X167817800Y-89924001D02*
X169156000Y-89924001D01*
X169595800Y-72144001D02*
X170476060Y-72144001D01*
X170569001Y-72144001D02*
X170815000Y-71898002D01*
X170476060Y-72144001D02*
X170569001Y-72144001D01*
X170815000Y-71898002D02*
X170815000Y-70866000D01*
D52*
G04 #@! TO.N,Net-(C2-Pad1)*
X83185000Y-93776800D02*
X83755970Y-93776800D01*
X88496000Y-90297000D02*
X88562000Y-90231000D01*
X82744000Y-90231000D02*
X82556000Y-90043000D01*
X88562000Y-90231000D02*
X86730800Y-90231000D01*
X86421001Y-90231000D02*
X88562000Y-90231000D01*
X84013000Y-90231000D02*
X82744000Y-90231000D01*
X84074000Y-90170000D02*
X84013000Y-90231000D01*
X80772000Y-84581999D02*
X82677000Y-84582000D01*
X84074000Y-84582000D02*
X84074000Y-90170000D01*
X88562000Y-90231000D02*
X84013000Y-90231000D01*
X82677000Y-84582000D02*
X84074000Y-84582000D01*
X82556000Y-93147800D02*
X83185000Y-93776800D01*
X82550000Y-90049000D02*
X82556000Y-90043000D01*
X82556000Y-92818300D02*
X82550000Y-92824300D01*
X82556000Y-90043000D02*
X82556000Y-92818300D01*
G04 #@! TO.N,Net-(C3-Pad1)*
X82677000Y-97675700D02*
X82550000Y-97548700D01*
X77764300Y-97167700D02*
X77724000Y-97208000D01*
X82550000Y-97167700D02*
X77764300Y-97167700D01*
X85585300Y-97167700D02*
X82550000Y-97167700D01*
X90805000Y-97167700D02*
X85585300Y-97167700D01*
D53*
X85553999Y-100076000D02*
X85595000Y-100117001D01*
X83908000Y-100076000D02*
X85553999Y-100076000D01*
X85595000Y-97177400D02*
X85585300Y-97167700D01*
X85595000Y-100117001D02*
X85595000Y-97177400D01*
X85595000Y-102067002D02*
X84033002Y-102067002D01*
X83908000Y-101942000D02*
X83908000Y-100076000D01*
X84033002Y-102067002D02*
X83908000Y-101942000D01*
G04 #@! TO.N,DVDD*
X170662600Y-75653900D02*
X171323000Y-75653900D01*
X169595800Y-74587100D02*
X170662600Y-75653900D01*
X169595800Y-73644001D02*
X169595800Y-74587100D01*
X172720900Y-75653900D02*
X172974000Y-75907000D01*
X171323000Y-75653900D02*
X172720900Y-75653900D01*
X169355775Y-93560900D02*
X169799000Y-93560900D01*
X167817800Y-92022925D02*
X169355775Y-93560900D01*
X167817800Y-91424001D02*
X167817800Y-92022925D01*
X171196900Y-93560900D02*
X171577000Y-93941000D01*
X169799000Y-93560900D02*
X171196900Y-93560900D01*
X169482775Y-108292900D02*
X169926000Y-108292900D01*
X168071800Y-106881925D02*
X169482775Y-108292900D01*
X168071800Y-106156001D02*
X168071800Y-106881925D01*
X171450900Y-108292900D02*
X171831000Y-108673000D01*
X169926000Y-108292900D02*
X171450900Y-108292900D01*
X98729800Y-110020100D02*
X98806000Y-109943900D01*
D52*
X106435000Y-72644000D02*
X102743000Y-72644000D01*
D53*
X100203000Y-73343775D02*
X100129990Y-73416785D01*
X100129990Y-73416785D02*
X100129990Y-73787000D01*
X100203000Y-72644000D02*
X100203000Y-73343775D01*
D52*
X102743000Y-72644000D02*
X100203000Y-72644000D01*
X99314000Y-71081000D02*
X99187000Y-70954000D01*
X99314000Y-72644000D02*
X99314000Y-71081000D01*
X100203000Y-72644000D02*
X99314000Y-72644000D01*
X97857220Y-71002510D02*
X97282000Y-71002510D01*
X99187000Y-70954000D02*
X97905730Y-70954000D01*
X97905730Y-70954000D02*
X97857220Y-71002510D01*
D54*
X96900100Y-110021000D02*
X96901000Y-110020100D01*
X95123000Y-110021000D02*
X96900100Y-110021000D01*
X96977200Y-109943900D02*
X98806000Y-109943900D01*
X96901000Y-110020100D02*
X96977200Y-109943900D01*
D53*
X160909900Y-70827900D02*
X160909000Y-70827000D01*
X158706998Y-70827000D02*
X158200999Y-71332999D01*
X160909000Y-70827000D02*
X158706998Y-70827000D01*
D55*
X153441400Y-71332999D02*
X158200999Y-71332999D01*
D53*
X161670100Y-70827000D02*
X161671000Y-70827900D01*
X160909000Y-70827000D02*
X161670100Y-70827000D01*
X160020000Y-75473000D02*
X159928000Y-75565000D01*
X160020000Y-74676000D02*
X160020000Y-75473000D01*
X160020000Y-70827000D02*
X160020000Y-74676000D01*
X172974000Y-77089000D02*
X172973994Y-77088994D01*
X172974000Y-77088988D02*
X172973994Y-77088994D01*
X172974000Y-75907000D02*
X172974000Y-77088988D01*
X169602685Y-77216000D02*
X169037000Y-77216000D01*
X172846988Y-77216000D02*
X169602685Y-77216000D01*
X172973994Y-77088994D02*
X172846988Y-77216000D01*
X159638100Y-87210000D02*
X159639000Y-87210900D01*
X157861000Y-87210000D02*
X159638100Y-87210000D01*
X158242000Y-87210000D02*
X158242000Y-88519000D01*
X158200999Y-88477999D02*
X158242000Y-88519000D01*
X151536400Y-88477999D02*
X158200999Y-88477999D01*
X158242000Y-92583000D02*
X158242000Y-92837000D01*
X158242000Y-92583000D02*
X158242000Y-92964000D01*
X158242000Y-88519000D02*
X158242000Y-92583000D01*
X170823000Y-93941000D02*
X166839000Y-93941000D01*
X171577000Y-93941000D02*
X170823000Y-93941000D01*
X158242000Y-103593000D02*
X158242000Y-108585000D01*
X159892100Y-103593000D02*
X159893000Y-103593900D01*
X158242000Y-103593000D02*
X159892100Y-103593000D01*
X157863001Y-103971999D02*
X158242000Y-103593000D01*
X151536400Y-103971999D02*
X157863001Y-103971999D01*
X158242000Y-108585000D02*
X158242000Y-108458000D01*
X168529000Y-110109000D02*
X171831000Y-110109000D01*
X171831000Y-108673000D02*
X171831000Y-110109000D01*
X168529000Y-111602940D02*
X168513970Y-111617970D01*
X140335000Y-84035000D02*
X144487000Y-79883000D01*
X144487000Y-79883000D02*
X168203202Y-79883000D01*
X168203202Y-79883000D02*
X169037000Y-79883000D01*
X137125000Y-84035000D02*
X137230000Y-83930000D01*
X135382000Y-84035000D02*
X137125000Y-84035000D01*
X137230000Y-83930000D02*
X138430000Y-83930000D01*
X140230000Y-83930000D02*
X140335000Y-84035000D01*
X138430000Y-83930000D02*
X140230000Y-83930000D01*
X88395000Y-102067002D02*
X88395000Y-104137000D01*
X88437000Y-104179000D02*
X90170000Y-104179000D01*
X88395000Y-104137000D02*
X88437000Y-104179000D01*
D52*
X95196010Y-109947990D02*
X95123000Y-110021000D01*
X95196010Y-108511990D02*
X95196010Y-109947990D01*
X107696000Y-108511990D02*
X95196010Y-108511990D01*
X107696000Y-111475940D02*
X107696000Y-108511990D01*
X107680970Y-111490970D02*
X107696000Y-111475940D01*
X168513970Y-111617970D02*
X107680970Y-111617970D01*
X107680970Y-111617970D02*
X107680970Y-111490970D01*
X90170000Y-104179000D02*
X95103020Y-104179000D01*
X95196010Y-104271990D02*
X95196010Y-108511990D01*
X168513970Y-111617970D02*
X171942970Y-111617970D01*
D53*
X171831000Y-111506000D02*
X171942970Y-111617970D01*
X171831000Y-110109000D02*
X171831000Y-111506000D01*
D52*
X171942970Y-111617970D02*
X177053030Y-111617970D01*
X99314000Y-72644000D02*
X95250000Y-72644000D01*
X95250000Y-104218000D02*
X95196010Y-104271990D01*
X95250000Y-72644000D02*
X95250000Y-104218000D01*
X177053030Y-111617970D02*
X179197000Y-109474000D01*
D53*
G04 #@! TO.N,Net-(C5-Pad2)*
X89122002Y-100767002D02*
X90170000Y-101815000D01*
X88395000Y-100767002D02*
X89122002Y-100767002D01*
D52*
G04 #@! TO.N,Net-(C6-Pad1)*
X79765000Y-103742000D02*
X79748000Y-103759000D01*
X79765000Y-101854000D02*
X79765000Y-103742000D01*
D53*
G04 #@! TO.N,+5V*
X177799100Y-75907900D02*
X177800000Y-75907000D01*
X176149000Y-75907900D02*
X177799100Y-75907900D01*
X176148100Y-108546000D02*
X176149000Y-108546900D01*
X174498000Y-108546000D02*
X176148100Y-108546000D01*
D52*
X87579200Y-110288100D02*
X87630000Y-110338900D01*
X93221990Y-113033990D02*
X93221990Y-113011010D01*
D53*
X177076100Y-68326000D02*
X178816000Y-68326000D01*
X179236000Y-75907000D02*
X179451000Y-75692000D01*
X177800000Y-75907000D02*
X179236000Y-75907000D01*
X176911000Y-85725000D02*
X176911002Y-85725002D01*
X175298100Y-85725000D02*
X176911000Y-85725000D01*
X178093000Y-93560000D02*
X178181000Y-93472000D01*
X174117000Y-93560000D02*
X178093000Y-93560000D01*
X175298100Y-100838000D02*
X177292000Y-100838000D01*
X177530001Y-100853999D02*
X177419000Y-100965000D01*
X176149000Y-108546900D02*
X178142900Y-108546900D01*
D52*
X93221990Y-113033990D02*
X185804990Y-113033990D01*
X185804990Y-113033990D02*
X185928000Y-112910980D01*
D53*
X185801000Y-75692000D02*
X185928000Y-75819000D01*
X179451000Y-75692000D02*
X185801000Y-75692000D01*
X183134000Y-93472000D02*
X185928000Y-93472000D01*
X178181000Y-93472000D02*
X183134000Y-93472000D01*
D52*
X185928000Y-93472000D02*
X185928000Y-75819000D01*
D53*
X178142900Y-108546900D02*
X185839100Y-108546900D01*
D52*
X81288000Y-103759000D02*
X82042000Y-103759000D01*
X82042000Y-106921300D02*
X82054700Y-106934000D01*
X82042000Y-103759000D02*
X82042000Y-106921300D01*
X80213200Y-112202001D02*
X82006399Y-112202001D01*
X82006399Y-112202001D02*
X82054700Y-112153700D01*
X82054700Y-110350300D02*
X87618600Y-110350300D01*
X87618600Y-110350300D02*
X87630000Y-110338900D01*
X82054700Y-110350300D02*
X82054700Y-106934000D01*
X82054700Y-112153700D02*
X82054700Y-110350300D01*
X88900000Y-113030000D02*
X88903990Y-113033990D01*
X88900000Y-110363000D02*
X88900000Y-113030000D01*
X88903990Y-113033990D02*
X93221990Y-113033990D01*
X87630000Y-110338900D02*
X88875900Y-110338900D01*
X88875900Y-110338900D02*
X88900000Y-110363000D01*
X185928000Y-96266000D02*
X185928000Y-93472000D01*
X185928000Y-112910980D02*
X185928000Y-96266000D01*
D53*
G04 #@! TO.N,AVDD*
X157138000Y-74421100D02*
X157137100Y-74422000D01*
X157138000Y-72644000D02*
X157138000Y-74421100D01*
X155234799Y-74422000D02*
X155107799Y-74549000D01*
X157137100Y-74422000D02*
X155234799Y-74422000D01*
X156477001Y-71983001D02*
X153441400Y-71983001D01*
X157138000Y-72644000D02*
X156477001Y-71983001D01*
X102308101Y-109966201D02*
X102362000Y-110020100D01*
X104013900Y-110020100D02*
X104140000Y-109894000D01*
X154699001Y-89128001D02*
X155360000Y-89789000D01*
X151536400Y-89128001D02*
X154699001Y-89128001D01*
X155360000Y-91440900D02*
X155486100Y-91567000D01*
X155360000Y-89789000D02*
X155360000Y-91440900D01*
X153202799Y-91567000D02*
X155486100Y-91567000D01*
X154699001Y-104622001D02*
X155487000Y-105410000D01*
X151536400Y-104622001D02*
X154699001Y-104622001D01*
X155487000Y-107188900D02*
X155613100Y-107315000D01*
X155487000Y-105410000D02*
X155487000Y-107188900D01*
X153202799Y-107315000D02*
X155613100Y-107315000D01*
X155613100Y-107315000D02*
X155613100Y-108546900D01*
D54*
X101126516Y-109928091D02*
X100584000Y-109928091D01*
X102362000Y-110020100D02*
X101218525Y-110020100D01*
X101218525Y-110020100D02*
X101126516Y-109928091D01*
D53*
X157137100Y-75857100D02*
X157099000Y-75819000D01*
X157137100Y-75780900D02*
X157099000Y-75819000D01*
X157137100Y-74422000D02*
X157137100Y-75780900D01*
X155486100Y-91567000D02*
X155486100Y-92925900D01*
D52*
X142170980Y-112325980D02*
X142494000Y-112325980D01*
D53*
X155575000Y-95377000D02*
X180594000Y-95377000D01*
X180594000Y-95377000D02*
X183134000Y-95377000D01*
X183134000Y-95377000D02*
X183515000Y-95377000D01*
X157353000Y-78105000D02*
X157099000Y-77851000D01*
X182499000Y-78105000D02*
X157353000Y-78105000D01*
D52*
X142170980Y-112325980D02*
X183076016Y-112325980D01*
X112086704Y-112325980D02*
X142170980Y-112325980D01*
X106846000Y-109894000D02*
X106934000Y-109982000D01*
X104140000Y-109894000D02*
X106846000Y-109894000D01*
X106934000Y-109982000D02*
X106934000Y-112268000D01*
X106934000Y-112268000D02*
X106991980Y-112325980D01*
X106991980Y-112325980D02*
X112086704Y-112325980D01*
X183076016Y-112325980D02*
X184530996Y-110871000D01*
D53*
G04 #@! TO.N,Net-(C22-Pad1)*
X153441400Y-74488199D02*
X153502201Y-74549000D01*
X153441400Y-72632999D02*
X153441400Y-74488199D01*
D55*
G04 #@! TO.N,Net-(C23-Pad1)*
X157877999Y-70683001D02*
X153441400Y-70683001D01*
D53*
X157861000Y-70666002D02*
X157877999Y-70683001D01*
X157861000Y-69557000D02*
X157861000Y-70666002D01*
G04 #@! TO.N,Net-(C28-Pad1)*
X151597201Y-89838800D02*
X151536400Y-89777999D01*
X151597201Y-91567000D02*
X151597201Y-89838800D01*
G04 #@! TO.N,Net-(C29-Pad1)*
X156083000Y-87630000D02*
X156083000Y-86829000D01*
X156030197Y-87682803D02*
X156083000Y-87630000D01*
X151966197Y-87682803D02*
X156030197Y-87682803D01*
X151536400Y-87828001D02*
X151820999Y-87828001D01*
X151820999Y-87828001D02*
X151966197Y-87682803D01*
G04 #@! TO.N,Net-(C34-Pad1)*
X151597201Y-105332800D02*
X151536400Y-105271999D01*
X151597201Y-107315000D02*
X151597201Y-105332800D01*
G04 #@! TO.N,Net-(C35-Pad1)*
X151536400Y-103322001D02*
X154194999Y-103322001D01*
X155464999Y-103322001D02*
X156083000Y-102704000D01*
X151536400Y-103322001D02*
X155464999Y-103322001D01*
D55*
G04 #@! TO.N,Net-(C38-Pad1)*
X169595800Y-70066800D02*
X169379000Y-69850000D01*
X169595800Y-71643999D02*
X169595800Y-70066800D01*
D53*
G04 #@! TO.N,Net-(C39-Pad1)*
X173072410Y-72009000D02*
X172945410Y-72136000D01*
X174410000Y-72009000D02*
X173072410Y-72009000D01*
G04 #@! TO.N,SIN1*
X147802600Y-73761596D02*
X147802598Y-73761598D01*
X147802600Y-72632999D02*
X147802600Y-73761596D01*
X176110000Y-72009000D02*
X177253000Y-70866000D01*
X177253000Y-70866000D02*
X177292006Y-70866000D01*
D55*
G04 #@! TO.N,Net-(C40-Pad1)*
X171665900Y-68326000D02*
X171665900Y-67056000D01*
X170776900Y-67945000D02*
X171665900Y-67056000D01*
X169379000Y-67945000D02*
X170776900Y-67945000D01*
D53*
G04 #@! TO.N,Net-(C45-Pad1)*
X167601000Y-89207199D02*
X167817800Y-89423999D01*
X167601000Y-87503000D02*
X167601000Y-89207199D01*
G04 #@! TO.N,Net-(C46-Pad1)*
X170913410Y-88773000D02*
X170786410Y-88646000D01*
X172378000Y-88773000D02*
X170913410Y-88773000D01*
G04 #@! TO.N,SIN2*
X145897600Y-89777999D02*
X145897600Y-90957400D01*
X174078000Y-88773000D02*
X175387004Y-88773000D01*
G04 #@! TO.N,Net-(C47-Pad1)*
X167982000Y-84455000D02*
X167601000Y-84836000D01*
X169887900Y-84455000D02*
X167982000Y-84455000D01*
X169887900Y-84455000D02*
X169887900Y-85725000D01*
G04 #@! TO.N,Net-(C52-Pad1)*
X168071800Y-102578800D02*
X168071800Y-104155999D01*
X167728000Y-102235000D02*
X168071800Y-102578800D01*
G04 #@! TO.N,Net-(C53-Pad1)*
X171548410Y-104013000D02*
X170913410Y-104648000D01*
X172505000Y-104013000D02*
X171548410Y-104013000D01*
G04 #@! TO.N,SIN3*
X145897600Y-105271999D02*
X145897600Y-106400600D01*
X174078000Y-104013000D02*
X175564800Y-104013000D01*
G04 #@! TO.N,Net-(C54-Pad1)*
X169887900Y-99568000D02*
X169887900Y-100838000D01*
X168363000Y-99568000D02*
X167728000Y-100203000D01*
X169887900Y-99568000D02*
X168363000Y-99568000D01*
D52*
G04 #@! TO.N,Net-(D3-Pad2)*
X78087000Y-99314000D02*
X77597000Y-99314000D01*
X77597000Y-99314000D02*
X78105000Y-99314000D01*
X77724000Y-101845000D02*
X77715000Y-101854000D01*
X77724000Y-99388000D02*
X77724000Y-101845000D01*
X77715000Y-106930300D02*
X77711300Y-106934000D01*
X77715000Y-101854000D02*
X77715000Y-106930300D01*
X77711300Y-110238499D02*
X77774800Y-110301999D01*
X77711300Y-106934000D02*
X77711300Y-110238499D01*
D53*
G04 #@! TO.N,Net-(FB1-Pad1)*
X100561699Y-111544100D02*
X100584000Y-111521799D01*
D54*
X100041484Y-111559909D02*
X100584000Y-111559909D01*
X98806000Y-111544100D02*
X100025675Y-111544100D01*
X100025675Y-111544100D02*
X100041484Y-111559909D01*
D53*
G04 #@! TO.N,Net-(J3-Pad1)*
X138811000Y-69850000D02*
X138811000Y-67691000D01*
X123435000Y-75184000D02*
X133477000Y-75184000D01*
X133477000Y-75184000D02*
X138811000Y-69850000D01*
G04 #@! TO.N,Net-(J3-Pad2)*
X136271000Y-67691000D02*
X136271000Y-71120000D01*
X136271000Y-71120000D02*
X133477000Y-73914000D01*
X123435000Y-76454000D02*
X130936998Y-76454000D01*
X130936998Y-76454000D02*
X130937000Y-76453998D01*
G04 #@! TO.N,Net-(J4-Pad2)*
X177076100Y-69596000D02*
X183007000Y-69596000D01*
X169595800Y-73143999D02*
X176978963Y-73143999D01*
X176978963Y-73143999D02*
X178079400Y-72043562D01*
X178079400Y-72043562D02*
X178079400Y-70129400D01*
X178079400Y-70129400D02*
X177546000Y-69596000D01*
X177546000Y-69596000D02*
X177076100Y-69596000D01*
D55*
G04 #@! TO.N,Net-(J4-Pad1)*
X177076100Y-65786000D02*
X181610000Y-65786000D01*
D53*
X181737000Y-65786000D02*
X183007000Y-67056000D01*
X177076100Y-65786000D02*
X181737000Y-65786000D01*
G04 #@! TO.N,Net-(J5-Pad2)*
X175298100Y-86995000D02*
X176530000Y-86995000D01*
X176114007Y-87810907D02*
X175298100Y-86995000D01*
X176114007Y-89569993D02*
X176114007Y-87810907D01*
X175514000Y-90170000D02*
X176114007Y-89569993D01*
X175514000Y-90170000D02*
X175571426Y-90112574D01*
X181102000Y-86995000D02*
X181229000Y-86868000D01*
X175298100Y-86995000D02*
X181102000Y-86995000D01*
X174760001Y-90923999D02*
X175514000Y-90170000D01*
X168478200Y-90923999D02*
X168651214Y-91097013D01*
X167817800Y-90923999D02*
X168478200Y-90923999D01*
X168651214Y-91097013D02*
X172665985Y-91097013D01*
X172838999Y-90923999D02*
X174760001Y-90923999D01*
X172665985Y-91097013D02*
X172838999Y-90923999D01*
G04 #@! TO.N,Net-(J5-Pad1)*
X180086000Y-83185000D02*
X181229000Y-84328000D01*
X175298100Y-83185000D02*
X180086000Y-83185000D01*
G04 #@! TO.N,Net-(J6-Pad2)*
X176291801Y-103101701D02*
X175298100Y-102108000D01*
X176291801Y-104361961D02*
X176291801Y-103101701D01*
X174997763Y-105655999D02*
X176291801Y-104361961D01*
X168071800Y-105655999D02*
X174997763Y-105655999D01*
X180975000Y-102108000D02*
X181102000Y-101981000D01*
X175298100Y-102108000D02*
X180975000Y-102108000D01*
G04 #@! TO.N,Net-(J6-Pad1)*
X179959000Y-98298000D02*
X181102000Y-99441000D01*
X175298100Y-98298000D02*
X179959000Y-98298000D01*
G04 #@! TO.N,Net-(MSBOUT1-Pad1)*
X153441400Y-66319400D02*
X153416000Y-66294000D01*
X153441400Y-68083001D02*
X153441400Y-66319400D01*
G04 #@! TO.N,Net-(MSBOUT2-Pad1)*
X151536400Y-83337400D02*
X151511000Y-83312000D01*
X151536400Y-85228001D02*
X151536400Y-83337400D01*
G04 #@! TO.N,Net-(MSBOUT3-Pad1)*
X151536400Y-98958400D02*
X151384000Y-98806000D01*
X151536400Y-100722001D02*
X151536400Y-98958400D01*
D52*
G04 #@! TO.N,Net-(R1-Pad1)*
X90762000Y-86389000D02*
X90791000Y-86360000D01*
X90762000Y-88331000D02*
X90762000Y-86389000D01*
G04 #@! TO.N,Net-(R2-Pad1)*
X91050000Y-84455000D02*
X87997000Y-84455000D01*
G04 #@! TO.N,Net-(R2-Pad2)*
X86247000Y-84455000D02*
X86247000Y-88251000D01*
X86327000Y-88331000D02*
X86247000Y-88251000D01*
X88562000Y-88331000D02*
X86327000Y-88331000D01*
D53*
G04 #@! TO.N,Net-(R4-Pad2)*
X101419010Y-73914000D02*
X101292010Y-73787000D01*
X106435000Y-73914000D02*
X101419010Y-73914000D01*
X101292010Y-74157215D02*
X101292010Y-73787000D01*
X101110000Y-75273000D02*
X101110000Y-74339225D01*
X101110000Y-74339225D02*
X101292010Y-74157215D01*
G04 #@! TO.N,Net-(R6-Pad1)*
X137213990Y-79872215D02*
X137213990Y-79502000D01*
X137230000Y-81280000D02*
X137230000Y-79888225D01*
X137230000Y-79888225D02*
X137213990Y-79872215D01*
X153441400Y-69383001D02*
X155660999Y-69383001D01*
X151536400Y-86528001D02*
X153584001Y-86528001D01*
X153584001Y-86528001D02*
X153584001Y-86572999D01*
X153584001Y-86572999D02*
X153543000Y-86614000D01*
X151536400Y-102022001D02*
X153584001Y-102022001D01*
X153584001Y-102022001D02*
X153924000Y-102362000D01*
X153924000Y-102362000D02*
X153924000Y-102489000D01*
X137213990Y-79872215D02*
X137213990Y-78559010D01*
X137213990Y-78559010D02*
X137287000Y-78486000D01*
X137287000Y-78486000D02*
X144526000Y-78486000D01*
X144526000Y-78486000D02*
X150622000Y-78486000D01*
X152612999Y-69383001D02*
X153441400Y-69383001D01*
X150622000Y-71374000D02*
X152612999Y-69383001D01*
X150622000Y-75565000D02*
X150622000Y-71374000D01*
X148844000Y-87884000D02*
X148844000Y-92710000D01*
X148844000Y-92710000D02*
X148844000Y-92837000D01*
X150536001Y-102022001D02*
X151536400Y-102022001D01*
X148844000Y-100330000D02*
X150536001Y-102022001D01*
X148844000Y-95758000D02*
X148844000Y-100330000D01*
G04 #@! TO.N,FSYNC1*
X123435000Y-80264000D02*
X129921000Y-80264000D01*
D55*
X144568002Y-70682998D02*
X144131000Y-71120000D01*
X147802600Y-70682998D02*
X144568002Y-70682998D01*
D53*
X129921000Y-80264000D02*
X130937000Y-80264000D01*
X136652000Y-74549000D02*
X141351000Y-74549000D01*
X130937000Y-80264000D02*
X136652000Y-74549000D01*
D55*
X143351888Y-72548112D02*
X141351000Y-74549000D01*
X144131000Y-71120000D02*
X144131000Y-71769000D01*
X144131000Y-71769000D02*
X143351888Y-72548112D01*
D53*
G04 #@! TO.N,STANDBY1*
X145945210Y-71681990D02*
X145923000Y-71681990D01*
X129286000Y-82804000D02*
X130048000Y-82804000D01*
X129286000Y-82804000D02*
X129794000Y-82804000D01*
X123435000Y-82804000D02*
X129286000Y-82804000D01*
X136786066Y-75057000D02*
X130048000Y-81795066D01*
X141685602Y-75057000D02*
X136786066Y-75057000D01*
X130048000Y-81795066D02*
X130048000Y-82804000D01*
D55*
X146232001Y-71332999D02*
X145923000Y-71642000D01*
X147802600Y-71332999D02*
X146232001Y-71332999D01*
X145100602Y-71642000D02*
X141685602Y-75057000D01*
X145923000Y-71642000D02*
X145100602Y-71642000D01*
D53*
G04 #@! TO.N,Net-(R9-Pad1)*
X147500990Y-67781391D02*
X147500990Y-66802000D01*
X147802600Y-68083001D02*
X147500990Y-67781391D01*
D52*
G04 #@! TO.N,CTRL1*
X123435000Y-77724000D02*
X123571000Y-77724000D01*
D53*
X125857000Y-77724000D02*
X125984000Y-77851000D01*
X123435000Y-77724000D02*
X125857000Y-77724000D01*
D55*
X145835999Y-68732999D02*
X145669000Y-68566000D01*
X147802600Y-68732999D02*
X145835999Y-68732999D01*
X145453999Y-68781001D02*
X140748035Y-68781001D01*
X145669000Y-68566000D02*
X145453999Y-68781001D01*
D53*
X140652031Y-68781001D02*
X140748035Y-68781001D01*
X125984000Y-77851000D02*
X131582032Y-77851000D01*
X131582032Y-77851000D02*
X140652031Y-68781001D01*
G04 #@! TO.N,FSYNC2*
X141678010Y-88623790D02*
X141678010Y-88646000D01*
X121666000Y-92075000D02*
X121793000Y-91948000D01*
X120650000Y-88884000D02*
X120650000Y-92075000D01*
X120650000Y-92075000D02*
X121666000Y-92075000D01*
X142790002Y-87827998D02*
X141972000Y-88646000D01*
X133985000Y-91948000D02*
X121793000Y-91948000D01*
X145897600Y-87827998D02*
X138105002Y-87827998D01*
X138105002Y-87827998D02*
X138049000Y-87884000D01*
X138049000Y-87884000D02*
X133985000Y-91948000D01*
G04 #@! TO.N,STANDBY2*
X119380000Y-94488000D02*
X119253000Y-94615000D01*
X119380000Y-88884000D02*
X119380000Y-94488000D01*
X134620000Y-92082066D02*
X134620000Y-92329000D01*
X137040066Y-89662000D02*
X134620000Y-92082066D01*
X119253000Y-94615000D02*
X134493000Y-94615000D01*
X134620000Y-94488000D02*
X134493000Y-94615000D01*
X134620000Y-92082066D02*
X134620000Y-94488000D01*
X144454001Y-88477999D02*
X143891000Y-89041000D01*
X145897600Y-88477999D02*
X144454001Y-88477999D01*
X143891000Y-89041000D02*
X143270000Y-89662000D01*
X143270000Y-89662000D02*
X142113000Y-89662000D01*
X142177775Y-89662000D02*
X142113000Y-89662000D01*
X142113000Y-89662000D02*
X137040066Y-89662000D01*
G04 #@! TO.N,Net-(R13-Pad1)*
X145556000Y-84886401D02*
X145897600Y-85228001D01*
X145556000Y-83693000D02*
X145556000Y-84886401D01*
G04 #@! TO.N,CTRL2*
X130302000Y-86614000D02*
X130429000Y-86487000D01*
X144097989Y-85877999D02*
X143891000Y-85671010D01*
X145897600Y-85877999D02*
X144097989Y-85877999D01*
X123435000Y-86614000D02*
X129667000Y-86614000D01*
X129667000Y-86614000D02*
X131826000Y-86614000D01*
X138201999Y-85877999D02*
X138074999Y-85877999D01*
X145897600Y-85877999D02*
X138201999Y-85877999D01*
X132562001Y-85877999D02*
X131826000Y-86614000D01*
X138201999Y-85877999D02*
X132562001Y-85877999D01*
X143930999Y-85877999D02*
X145897600Y-85877999D01*
X143510000Y-85457000D02*
X143930999Y-85877999D01*
G04 #@! TO.N,FSYNC3*
X101219000Y-85344000D02*
X100965000Y-85598000D01*
X106308000Y-85471000D02*
X106435000Y-85344000D01*
X101346000Y-85471000D02*
X106308000Y-85471000D01*
X145897600Y-103321998D02*
X142739227Y-103321998D01*
X142369012Y-103321998D02*
X141551010Y-104140000D01*
X145897600Y-103321998D02*
X142369012Y-103321998D01*
X139065000Y-106299000D02*
X138811000Y-106299000D01*
X139762225Y-106299000D02*
X139065000Y-106299000D01*
X100076000Y-86741000D02*
X101346000Y-85471000D01*
X139065000Y-106299000D02*
X100076000Y-106299000D01*
X100076000Y-106299000D02*
X100076000Y-86741000D01*
X141845000Y-104216225D02*
X139762225Y-106299000D01*
X141845000Y-104140000D02*
X141845000Y-104216225D01*
G04 #@! TO.N,STANDBY3*
X143604991Y-103971999D02*
X143256000Y-104320990D01*
X103759000Y-84074000D02*
X103632000Y-84201000D01*
X106435000Y-84074000D02*
X103759000Y-84074000D01*
X143946001Y-103971999D02*
X143637000Y-104281000D01*
X145897600Y-103971999D02*
X143946001Y-103971999D01*
X100203000Y-84201000D02*
X103632000Y-84201000D01*
X99187000Y-85217000D02*
X100203000Y-84201000D01*
X99187000Y-106787980D02*
X99187000Y-85217000D01*
X143637000Y-104281000D02*
X141130020Y-106787980D01*
X141130020Y-106787980D02*
X99187000Y-106787980D01*
G04 #@! TO.N,Net-(R17-Pad1)*
X145429000Y-100253401D02*
X145897600Y-100722001D01*
X145429000Y-99187000D02*
X145429000Y-100253401D01*
G04 #@! TO.N,CTRL3*
X102743000Y-86614000D02*
X101600000Y-87757000D01*
X106435000Y-86614000D02*
X102743000Y-86614000D01*
X143803999Y-101371999D02*
X143383000Y-100951000D01*
X145897600Y-101371999D02*
X143803999Y-101371999D01*
X136715500Y-96901000D02*
X136715500Y-100774500D01*
X136892000Y-100951000D02*
X143383000Y-100951000D01*
X136715500Y-100774500D02*
X136892000Y-100951000D01*
X101600000Y-87757000D02*
X101600000Y-96901000D01*
X101600000Y-96901000D02*
X136715500Y-96901000D01*
G04 #@! TO.N,SYNC1*
X165550989Y-73644001D02*
X165100000Y-74094990D01*
X166700200Y-73644001D02*
X165550989Y-73644001D01*
X129794000Y-85344000D02*
X129921000Y-85471000D01*
X123435000Y-85344000D02*
X129794000Y-85344000D01*
X162941002Y-73644001D02*
X162941002Y-76580998D01*
X162941000Y-76581000D02*
X162941000Y-77089000D01*
X165550989Y-73644001D02*
X162941002Y-73644001D01*
X162941002Y-76580998D02*
X162941000Y-76581000D01*
X138041933Y-77089000D02*
X129921000Y-85209933D01*
X129921000Y-85209933D02*
X129921000Y-85471000D01*
X162941000Y-77089000D02*
X138041933Y-77089000D01*
G04 #@! TO.N,Net-(R20-Pad1)*
X171224590Y-72644000D02*
X171732590Y-72136000D01*
X169595800Y-72644000D02*
X171224590Y-72644000D01*
X171665900Y-72069310D02*
X171732590Y-72136000D01*
X171665900Y-69596000D02*
X171665900Y-72069310D01*
G04 #@! TO.N,SYNC2*
X104140000Y-87884000D02*
X103886000Y-88138000D01*
X106435000Y-87884000D02*
X104140000Y-87884000D01*
X136144000Y-94234000D02*
X136017000Y-94361000D01*
X160408068Y-94234000D02*
X136144000Y-94234000D01*
X103886000Y-88138000D02*
X103886000Y-96393000D01*
X135890000Y-96393000D02*
X136017000Y-96266000D01*
X136017000Y-94361000D02*
X136017000Y-96266000D01*
X103886000Y-96393000D02*
X135890000Y-96393000D01*
X163605999Y-91424001D02*
X163068000Y-91962000D01*
X164922200Y-91424001D02*
X163605999Y-91424001D01*
X162680068Y-91962000D02*
X160408068Y-94234000D01*
X163068000Y-91962000D02*
X162680068Y-91962000D01*
G04 #@! TO.N,Net-(R23-Pad1)*
X168942038Y-90643002D02*
X168723036Y-90424000D01*
X170018002Y-90264962D02*
X169639962Y-90643002D01*
X169639962Y-90643002D02*
X168942038Y-90643002D01*
X168723036Y-90424000D02*
X167817800Y-90424000D01*
X169573590Y-89105115D02*
X170018002Y-89549527D01*
X169887900Y-86995000D02*
X169573590Y-87309310D01*
X170018002Y-89549527D02*
X170018002Y-90264962D01*
X169573590Y-87309310D02*
X169573590Y-89105115D01*
G04 #@! TO.N,SYNC3*
X163899989Y-106156001D02*
X163449000Y-106606990D01*
X165176200Y-106156001D02*
X163899989Y-106156001D01*
X97663000Y-81534000D02*
X97282000Y-81915000D01*
X106435000Y-81534000D02*
X97663000Y-81534000D01*
X163529774Y-106156001D02*
X159503765Y-110182010D01*
X165176200Y-106156001D02*
X163529774Y-106156001D01*
X159503765Y-110182010D02*
X145234010Y-110182010D01*
X145234010Y-110182010D02*
X144853010Y-110182010D01*
X97282000Y-107696000D02*
X97282000Y-81915000D01*
X145234010Y-110182010D02*
X109356510Y-110182010D01*
X109347000Y-110172500D02*
X109347000Y-107823000D01*
X109347000Y-107823000D02*
X109220000Y-107696000D01*
X109356510Y-110182010D02*
X109347000Y-110172500D01*
X109220000Y-107696000D02*
X97282000Y-107696000D01*
G04 #@! TO.N,Net-(R26-Pad1)*
X169192590Y-105156000D02*
X169700590Y-104648000D01*
X168071800Y-105156000D02*
X169192590Y-105156000D01*
X169700590Y-104188885D02*
X169700590Y-104648000D01*
X169887900Y-102108000D02*
X169887900Y-104001575D01*
X169887900Y-104001575D02*
X169700590Y-104188885D01*
G04 #@! TO.N,Net-(SCK1-Pad1)*
X115697000Y-89011000D02*
X115570000Y-88884000D01*
X115697000Y-92202000D02*
X115697000Y-89011000D01*
G04 #@! TO.N,Net-(SCS1-Pad1)*
X114300000Y-93599000D02*
X113538000Y-94361000D01*
X114300000Y-88884000D02*
X114300000Y-93599000D01*
G04 #@! TO.N,Net-(SDI1-Pad1)*
X118110000Y-92075000D02*
X117983000Y-92202000D01*
X118110000Y-88884000D02*
X118110000Y-92075000D01*
G04 #@! TO.N,Net-(SDO1-Pad1)*
X165362001Y-72144001D02*
X164592000Y-71374000D01*
X166700200Y-72144001D02*
X165362001Y-72144001D01*
G04 #@! TO.N,Net-(SDO2-Pad1)*
X163711001Y-89924001D02*
X164922200Y-89924001D01*
X162941000Y-89154000D02*
X163711001Y-89924001D01*
G04 #@! TO.N,Net-(SDO3-Pad1)*
X164092001Y-104656001D02*
X163195000Y-103759000D01*
X165176200Y-104656001D02*
X164092001Y-104656001D01*
G04 #@! TO.N,Net-(SDO4-Pad1)*
X116840000Y-88884000D02*
X116840000Y-94361000D01*
G04 #@! TO.N,Net-(SENSOR_VN1-Pad1)*
X106435000Y-76454000D02*
X104775000Y-76454000D01*
X106435000Y-76454000D02*
X102997000Y-76454000D01*
X102997000Y-76454000D02*
X102997000Y-77343000D01*
G04 #@! TO.N,Net-(SENSOR_VP1-Pad1)*
X106435000Y-75184000D02*
X104394000Y-75184000D01*
X103124000Y-75184000D02*
X104394000Y-75184000D01*
G04 #@! TO.N,Net-(SHD1-Pad1)*
X111760000Y-90685067D02*
X111760000Y-88884000D01*
X111760000Y-91186000D02*
X110363000Y-92583000D01*
X111760000Y-88884000D02*
X111760000Y-91186000D01*
G04 #@! TO.N,Net-(SW2-Pad1)*
X125877000Y-87884000D02*
X125966000Y-87973000D01*
X123435000Y-87884000D02*
X125877000Y-87884000D01*
G04 #@! TO.N,Net-(SWP1-Pad1)*
X113030000Y-90670000D02*
X113030000Y-88884000D01*
X113030000Y-92202000D02*
X113284000Y-92456000D01*
X113030000Y-88884000D02*
X113030000Y-92202000D01*
G04 #@! TO.N,Net-(SYNCOUT1-Pad1)*
X154786998Y-68733002D02*
X155702000Y-67818000D01*
X153441400Y-68733002D02*
X154786998Y-68733002D01*
G04 #@! TO.N,Net-(SYNCOUT2-Pad1)*
X153262998Y-85878002D02*
X154051000Y-85090000D01*
X151536400Y-85878002D02*
X153262998Y-85878002D01*
G04 #@! TO.N,Net-(SYNCOUT3-Pad1)*
X153389998Y-101372002D02*
X153797000Y-100965000D01*
X151536400Y-101372002D02*
X153389998Y-101372002D01*
G04 #@! TO.N,SPI1CLK*
X166700200Y-73143999D02*
X163330001Y-73143999D01*
X163330001Y-73143999D02*
X163083067Y-73143999D01*
X123435000Y-81534000D02*
X126111000Y-81534000D01*
X163330001Y-73143999D02*
X162798937Y-73143999D01*
X161798000Y-74144936D02*
X161798000Y-74676000D01*
X162798937Y-73143999D02*
X161798000Y-74144936D01*
X143565999Y-70032999D02*
X143438999Y-70032999D01*
X164922200Y-90923999D02*
X161298001Y-90923999D01*
X161298001Y-90923999D02*
X160274000Y-91948000D01*
X162373963Y-105655999D02*
X160782000Y-107247962D01*
X165176200Y-105655999D02*
X162373963Y-105655999D01*
X160782000Y-107247962D02*
X160722038Y-107247962D01*
X160722038Y-107247962D02*
X160655000Y-107315000D01*
X135961001Y-87177999D02*
X135508999Y-87630001D01*
X145897600Y-87177999D02*
X135961001Y-87177999D01*
X139771001Y-102671999D02*
X139192000Y-103251000D01*
X145897600Y-102671999D02*
X139771001Y-102671999D01*
X143565999Y-70032999D02*
X141803001Y-70032999D01*
X141803001Y-70032999D02*
X140335000Y-71501000D01*
X147802600Y-70032999D02*
X143565999Y-70032999D01*
G04 #@! TO.N,ENABLE1*
X127762000Y-84074000D02*
X127889000Y-84201000D01*
X123435000Y-84074000D02*
X127762000Y-84074000D01*
X160655000Y-71882000D02*
X160655000Y-76581000D01*
X162687000Y-70204000D02*
X162687000Y-71882000D01*
X162687000Y-71882000D02*
X160655000Y-71882000D01*
X130239602Y-84201000D02*
X127889000Y-84201000D01*
X137859602Y-76581000D02*
X130239602Y-84201000D01*
X160655000Y-76581000D02*
X137859602Y-76581000D01*
D55*
X169912000Y-65786000D02*
X169545000Y-66153000D01*
X171665900Y-65786000D02*
X169912000Y-65786000D01*
X166738000Y-66153000D02*
X162687000Y-70204000D01*
X169545000Y-66153000D02*
X166738000Y-66153000D01*
D53*
G04 #@! TO.N,ENABLE2*
X168074990Y-83185000D02*
X168021000Y-83131010D01*
X169887900Y-83185000D02*
X168074990Y-83185000D01*
X109315000Y-91313000D02*
X105283000Y-91313000D01*
X110490000Y-88884000D02*
X110490000Y-91313000D01*
X110490000Y-91313000D02*
X109315000Y-91313000D01*
X105283000Y-91313000D02*
X105283000Y-95885000D01*
X135382000Y-95377000D02*
X135382000Y-95123000D01*
X105283000Y-95885000D02*
X135382000Y-95885000D01*
X135382000Y-95885000D02*
X135382000Y-95377000D01*
X167908000Y-83185000D02*
X167767000Y-83044000D01*
X169887900Y-83185000D02*
X167908000Y-83185000D01*
X135382000Y-93853000D02*
X135382000Y-95377000D01*
X135509000Y-93726000D02*
X135382000Y-93853000D01*
X159131000Y-93726000D02*
X135509000Y-93726000D01*
X167767000Y-83044000D02*
X164352000Y-83044000D01*
X164352000Y-83044000D02*
X161036000Y-86360000D01*
X159131000Y-88265000D02*
X159131000Y-93726000D01*
X161036000Y-86360000D02*
X161036000Y-88265000D01*
X161036000Y-88265000D02*
X159131000Y-88265000D01*
G04 #@! TO.N,SPI1MOSI*
X166700200Y-72644000D02*
X166624000Y-72644000D01*
X143597399Y-102022001D02*
X145897600Y-102022001D01*
X166700200Y-72644000D02*
X163195000Y-72644000D01*
X163195000Y-72644000D02*
X162941000Y-72644000D01*
X123435000Y-72644000D02*
X125730000Y-72644000D01*
X162941000Y-72644000D02*
X161417000Y-72644000D01*
X161417000Y-72644000D02*
X161382000Y-72609000D01*
X164922200Y-90424000D02*
X161671000Y-90424000D01*
X161671000Y-90424000D02*
X160909000Y-90424000D01*
X160909000Y-90424000D02*
X160147000Y-89662000D01*
X160147000Y-89662000D02*
X160020000Y-89662000D01*
X165176200Y-105156000D02*
X161798000Y-105156000D01*
X145897600Y-86528001D02*
X134775314Y-86528001D01*
X134775314Y-86528001D02*
X134239000Y-87064315D01*
X134239000Y-87064315D02*
X134239000Y-87630000D01*
X145897600Y-102022001D02*
X139673965Y-102022001D01*
X139673965Y-102022001D02*
X138007999Y-102022001D01*
X138049000Y-97155000D02*
X139827000Y-97155000D01*
X139827000Y-97155000D02*
X141605000Y-97155000D01*
X141478000Y-92837000D02*
X141478000Y-90805000D01*
X147802600Y-69383001D02*
X141309999Y-69383001D01*
X141309999Y-69383001D02*
X140843000Y-69850000D01*
G04 #@! TO.N,ENABLE3*
X168328990Y-98298000D02*
X168021000Y-97990010D01*
X169887900Y-98298000D02*
X168328990Y-98298000D01*
X99568000Y-82804000D02*
X99441000Y-82677000D01*
X106435000Y-82804000D02*
X99568000Y-82804000D01*
X98171000Y-83947000D02*
X99441000Y-82677000D01*
X161036000Y-104902000D02*
X159004000Y-104902000D01*
X161036000Y-103251000D02*
X161036000Y-104902000D01*
X160998199Y-103213199D02*
X161036000Y-103251000D01*
X159004000Y-104902000D02*
X159004000Y-109728000D01*
X169887900Y-98298000D02*
X165913398Y-98298000D01*
X159004000Y-109728000D02*
X109855000Y-109728000D01*
X109855000Y-107241990D02*
X98224990Y-107241990D01*
X165913398Y-98298000D02*
X160998199Y-103213199D01*
X109855000Y-109728000D02*
X109855000Y-107241990D01*
X98224990Y-107241990D02*
X98171000Y-107188000D01*
X98171000Y-107188000D02*
X98171000Y-83947000D01*
G04 #@! TO.N,Net-(IO34-Pad1)*
X106435000Y-77724000D02*
X105666398Y-77724000D01*
X106435000Y-77724000D02*
X104521000Y-77724000D01*
X106435000Y-77724000D02*
X104140000Y-77724000D01*
X104140000Y-77724000D02*
X104140000Y-78486000D01*
X97282000Y-79883000D02*
X97282000Y-78486000D01*
X104140000Y-78486000D02*
X97282000Y-78486000D01*
G04 #@! TO.N,Net-(IO35-Pad1)*
X100076000Y-79883000D02*
X100076000Y-78940010D01*
X106381010Y-78940010D02*
X106435000Y-78994000D01*
X100076000Y-78940010D02*
X106381010Y-78940010D01*
G04 #@! TO.N,Net-(TP8-Pad1)*
X127127000Y-73914000D02*
X127889000Y-73914000D01*
X127127000Y-73914000D02*
X127381000Y-73914000D01*
X123435000Y-73914000D02*
X127127000Y-73914000D01*
G04 #@! TO.N,Net-(IO32-Pad1)*
X106435000Y-80264000D02*
X103632000Y-80264000D01*
G04 #@! TD*
M02*
