G04 #@! TF.GenerationSoftware,KiCad,Pcbnew,(5.1.5)-3*
G04 #@! TF.CreationDate,2020-09-03T10:53:21+10:00*
G04 #@! TF.ProjectId,Boni_3.0_1,426f6e69-5f33-42e3-905f-312e6b696361,rev?*
G04 #@! TF.SameCoordinates,Original*
G04 #@! TF.FileFunction,Legend,Top*
G04 #@! TF.FilePolarity,Positive*
%FSLAX46Y46*%
G04 Gerber Fmt 4.6, Leading zero omitted, Abs format (unit mm)*
G04 Created by KiCad (PCBNEW (5.1.5)-3) date 2020-09-03 10:53:21*
%MOMM*%
%LPD*%
G04 APERTURE LIST*
%ADD10C,0.120000*%
%ADD11C,0.152400*%
%ADD12C,0.200000*%
%ADD13C,0.127000*%
%ADD14C,0.400000*%
%ADD15C,0.100000*%
G04 APERTURE END LIST*
D10*
G04 #@! TO.C,Drill1*
X190671500Y-110045500D02*
G75*
G03X190671500Y-110045500I-1251000J0D01*
G01*
X190671500Y-66865500D02*
G75*
G03X190671500Y-66865500I-1251000J0D01*
G01*
G04 #@! TO.C,R27*
X168531000Y-97580267D02*
X168531000Y-97237733D01*
X167511000Y-97580267D02*
X167511000Y-97237733D01*
G04 #@! TO.C,R25*
X162939000Y-107016733D02*
X162939000Y-107359267D01*
X163959000Y-107016733D02*
X163959000Y-107359267D01*
G04 #@! TO.C,R24*
X168277000Y-82340267D02*
X168277000Y-81997733D01*
X167257000Y-82340267D02*
X167257000Y-81997733D01*
G04 #@! TO.C,R22*
X162558000Y-92665733D02*
X162558000Y-93008267D01*
X163578000Y-92665733D02*
X163578000Y-93008267D01*
G04 #@! TO.C,R21*
X170055000Y-65449267D02*
X170055000Y-65106733D01*
X169035000Y-65449267D02*
X169035000Y-65106733D01*
G04 #@! TO.C,R19*
X164590000Y-74504733D02*
X164590000Y-74847267D01*
X165610000Y-74504733D02*
X165610000Y-74847267D01*
G04 #@! TO.C,R18*
X143893000Y-100247267D02*
X143893000Y-99904733D01*
X142873000Y-100247267D02*
X142873000Y-99904733D01*
G04 #@! TO.C,R17*
X146132733Y-99697000D02*
X146475267Y-99697000D01*
X146132733Y-98677000D02*
X146475267Y-98677000D01*
G04 #@! TO.C,R16*
X143127000Y-104984733D02*
X143127000Y-105327267D01*
X144147000Y-104984733D02*
X144147000Y-105327267D01*
G04 #@! TO.C,R15*
X141141267Y-103630000D02*
X140798733Y-103630000D01*
X141141267Y-104650000D02*
X140798733Y-104650000D01*
G04 #@! TO.C,R14*
X144020000Y-84753267D02*
X144020000Y-84410733D01*
X143000000Y-84753267D02*
X143000000Y-84410733D01*
G04 #@! TO.C,R13*
X146259733Y-84203000D02*
X146602267Y-84203000D01*
X146259733Y-83183000D02*
X146602267Y-83183000D01*
G04 #@! TO.C,R12*
X143381000Y-89744733D02*
X143381000Y-90087267D01*
X144401000Y-89744733D02*
X144401000Y-90087267D01*
G04 #@! TO.C,R11*
X141268267Y-88263000D02*
X140925733Y-88263000D01*
X141268267Y-89283000D02*
X140925733Y-89283000D01*
G04 #@! TO.C,R10*
X146179000Y-67862267D02*
X146179000Y-67519733D01*
X145159000Y-67862267D02*
X145159000Y-67519733D01*
G04 #@! TO.C,R9*
X148164733Y-67185000D02*
X148507267Y-67185000D01*
X148164733Y-66165000D02*
X148507267Y-66165000D01*
G04 #@! TO.C,R8*
X145413000Y-72345733D02*
X145413000Y-72688267D01*
X146433000Y-72345733D02*
X146433000Y-72688267D01*
G04 #@! TO.C,R7*
X143427267Y-70610000D02*
X143084733Y-70610000D01*
X143427267Y-71630000D02*
X143084733Y-71630000D01*
G04 #@! TO.C,SDO4*
X116140000Y-95315000D02*
X116140000Y-93915000D01*
X117540000Y-95315000D02*
X116140000Y-95315000D01*
X117540000Y-93915000D02*
X117540000Y-95315000D01*
X116140000Y-93915000D02*
X117540000Y-93915000D01*
D11*
G04 #@! TO.C,D3*
X77457300Y-108397040D02*
X77457300Y-109042200D01*
X82308700Y-105470960D02*
X82308700Y-104825800D01*
X82308700Y-109042200D02*
X82308700Y-108397040D01*
X77457300Y-109042200D02*
X82308700Y-109042200D01*
X77457300Y-104825800D02*
X77457300Y-105470960D01*
X82308700Y-104825800D02*
X77457300Y-104825800D01*
G04 #@! TO.C,D2*
X81086960Y-92570300D02*
X80441800Y-92570300D01*
X84013040Y-97421700D02*
X84658200Y-97421700D01*
X80441800Y-97421700D02*
X81086960Y-97421700D01*
X80441800Y-92570300D02*
X80441800Y-97421700D01*
X84658200Y-92570300D02*
X84013040Y-92570300D01*
X84658200Y-97421700D02*
X84658200Y-92570300D01*
G04 #@! TO.C,D1*
X89341960Y-92570300D02*
X88696800Y-92570300D01*
X92268040Y-97421700D02*
X92913200Y-97421700D01*
X88696800Y-97421700D02*
X89341960Y-97421700D01*
X88696800Y-92570300D02*
X88696800Y-97421700D01*
X92913200Y-92570300D02*
X92268040Y-92570300D01*
X92913200Y-97421700D02*
X92913200Y-92570300D01*
D10*
G04 #@! TO.C,RLED1*
X90215000Y-85415000D02*
X93075000Y-85415000D01*
X90215000Y-83495000D02*
X90215000Y-85415000D01*
X93075000Y-83495000D02*
X90215000Y-83495000D01*
G04 #@! TO.C,U4*
X105815000Y-88729000D02*
X105815000Y-89509000D01*
X105815000Y-89509000D02*
X106815000Y-89509000D01*
X124055000Y-88729000D02*
X124055000Y-89509000D01*
X124055000Y-89509000D02*
X123055000Y-89509000D01*
X105815000Y-63764000D02*
X124055000Y-63764000D01*
X124055000Y-63764000D02*
X124055000Y-70184000D01*
X105815000Y-63764000D02*
X105815000Y-70184000D01*
X105815000Y-70184000D02*
X105435000Y-70184000D01*
G04 #@! TO.C,R1*
X90087267Y-85850000D02*
X89744733Y-85850000D01*
X90087267Y-86870000D02*
X89744733Y-86870000D01*
G04 #@! TO.C,C9*
X84376800Y-111042633D02*
X84376800Y-111385167D01*
X85396800Y-111042633D02*
X85396800Y-111385167D01*
G04 #@! TO.C,C8*
X85850000Y-111042633D02*
X85850000Y-111385167D01*
X86870000Y-111042633D02*
X86870000Y-111385167D01*
G04 #@! TO.C,C7*
X87120000Y-111042633D02*
X87120000Y-111385167D01*
X88140000Y-111042633D02*
X88140000Y-111385167D01*
G04 #@! TO.C,R2*
X87293267Y-83945000D02*
X86950733Y-83945000D01*
X87293267Y-84965000D02*
X86950733Y-84965000D01*
G04 #@! TO.C,R3*
X79001252Y-101144000D02*
X78478748Y-101144000D01*
X79001252Y-102564000D02*
X78478748Y-102564000D01*
G04 #@! TO.C,J1*
X93913000Y-68696000D02*
X93913000Y-70496000D01*
X78733000Y-80406000D02*
X78733000Y-79756000D01*
X78733000Y-65786000D02*
X78213000Y-65786000D01*
X86843000Y-79756000D02*
X78733000Y-79756000D01*
X78213000Y-65786000D02*
X78213000Y-80406000D01*
X78213000Y-80406000D02*
X78733000Y-80406000D01*
X93693000Y-79756000D02*
X90363000Y-79756000D01*
X93693000Y-66436000D02*
X90363000Y-66436000D01*
X93693000Y-66436000D02*
X93693000Y-79756000D01*
X78733000Y-66436000D02*
X78733000Y-65786000D01*
X78733000Y-66436000D02*
X86843000Y-66436000D01*
G04 #@! TO.C,TP18*
X103186000Y-87438000D02*
X104586000Y-87438000D01*
X104586000Y-87438000D02*
X104586000Y-88838000D01*
X104586000Y-88838000D02*
X103186000Y-88838000D01*
X103186000Y-88838000D02*
X103186000Y-87438000D01*
G04 #@! TO.C,TP17*
X129221000Y-84771000D02*
X130621000Y-84771000D01*
X130621000Y-84771000D02*
X130621000Y-86171000D01*
X130621000Y-86171000D02*
X129221000Y-86171000D01*
X129221000Y-86171000D02*
X129221000Y-84771000D01*
G04 #@! TO.C,TP16*
X129221000Y-79564000D02*
X130621000Y-79564000D01*
X130621000Y-79564000D02*
X130621000Y-80964000D01*
X130621000Y-80964000D02*
X129221000Y-80964000D01*
X129221000Y-80964000D02*
X129221000Y-79564000D01*
G04 #@! TO.C,TP15*
X96582000Y-81215000D02*
X97982000Y-81215000D01*
X97982000Y-81215000D02*
X97982000Y-82615000D01*
X97982000Y-82615000D02*
X96582000Y-82615000D01*
X96582000Y-82615000D02*
X96582000Y-81215000D01*
G04 #@! TO.C,TP14*
X98741000Y-81977000D02*
X100141000Y-81977000D01*
X100141000Y-81977000D02*
X100141000Y-83377000D01*
X100141000Y-83377000D02*
X98741000Y-83377000D01*
X98741000Y-83377000D02*
X98741000Y-81977000D01*
G04 #@! TO.C,TP13*
X100646000Y-84771000D02*
X102046000Y-84771000D01*
X102046000Y-84771000D02*
X102046000Y-86171000D01*
X102046000Y-86171000D02*
X100646000Y-86171000D01*
X100646000Y-86171000D02*
X100646000Y-84771000D01*
G04 #@! TO.C,TP12*
X121093000Y-91248000D02*
X122493000Y-91248000D01*
X122493000Y-91248000D02*
X122493000Y-92648000D01*
X122493000Y-92648000D02*
X121093000Y-92648000D01*
X121093000Y-92648000D02*
X121093000Y-91248000D01*
G04 #@! TO.C,TP11*
X125030000Y-71944000D02*
X126430000Y-71944000D01*
X126430000Y-71944000D02*
X126430000Y-73344000D01*
X126430000Y-73344000D02*
X125030000Y-73344000D01*
X125030000Y-73344000D02*
X125030000Y-71944000D01*
G04 #@! TO.C,TP10*
X104583000Y-90613000D02*
X105983000Y-90613000D01*
X105983000Y-90613000D02*
X105983000Y-92013000D01*
X105983000Y-92013000D02*
X104583000Y-92013000D01*
X104583000Y-92013000D02*
X104583000Y-90613000D01*
G04 #@! TO.C,TP9*
X127189000Y-83501000D02*
X128589000Y-83501000D01*
X128589000Y-83501000D02*
X128589000Y-84901000D01*
X128589000Y-84901000D02*
X127189000Y-84901000D01*
X127189000Y-84901000D02*
X127189000Y-83501000D01*
G04 #@! TO.C,TP8*
X127189000Y-73214000D02*
X128589000Y-73214000D01*
X128589000Y-73214000D02*
X128589000Y-74614000D01*
X128589000Y-74614000D02*
X127189000Y-74614000D01*
X127189000Y-74614000D02*
X127189000Y-73214000D01*
G04 #@! TO.C,TP7*
X125411000Y-80834000D02*
X126811000Y-80834000D01*
X126811000Y-80834000D02*
X126811000Y-82234000D01*
X126811000Y-82234000D02*
X125411000Y-82234000D01*
X125411000Y-82234000D02*
X125411000Y-80834000D01*
G04 #@! TO.C,TP6*
X118553000Y-93915000D02*
X119953000Y-93915000D01*
X119953000Y-93915000D02*
X119953000Y-95315000D01*
X119953000Y-95315000D02*
X118553000Y-95315000D01*
X118553000Y-95315000D02*
X118553000Y-93915000D01*
G04 #@! TO.C,TP5*
X129348000Y-82104000D02*
X130748000Y-82104000D01*
X130748000Y-82104000D02*
X130748000Y-83504000D01*
X130748000Y-83504000D02*
X129348000Y-83504000D01*
X129348000Y-83504000D02*
X129348000Y-82104000D01*
G04 #@! TO.C,TP4*
X125284000Y-77151000D02*
X126684000Y-77151000D01*
X126684000Y-77151000D02*
X126684000Y-78551000D01*
X126684000Y-78551000D02*
X125284000Y-78551000D01*
X125284000Y-78551000D02*
X125284000Y-77151000D01*
G04 #@! TO.C,TP3*
X131126000Y-85914000D02*
X132526000Y-85914000D01*
X132526000Y-85914000D02*
X132526000Y-87314000D01*
X132526000Y-87314000D02*
X131126000Y-87314000D01*
X131126000Y-87314000D02*
X131126000Y-85914000D01*
G04 #@! TO.C,TP2*
X102932000Y-83501000D02*
X104332000Y-83501000D01*
X104332000Y-83501000D02*
X104332000Y-84901000D01*
X104332000Y-84901000D02*
X102932000Y-84901000D01*
X102932000Y-84901000D02*
X102932000Y-83501000D01*
G04 #@! TO.C,TP1*
X100900000Y-87057000D02*
X102300000Y-87057000D01*
X102300000Y-87057000D02*
X102300000Y-88457000D01*
X102300000Y-88457000D02*
X100900000Y-88457000D01*
X100900000Y-88457000D02*
X100900000Y-87057000D01*
D11*
G04 #@! TO.C,U11*
X174675800Y-82511900D02*
X170510200Y-82511900D01*
X170510200Y-87668100D02*
X174675800Y-87668100D01*
G04 #@! TO.C,U10*
X164693600Y-91883741D02*
X164693600Y-92100400D01*
X168046400Y-88964259D02*
X168046400Y-88747600D01*
X168046400Y-92100400D02*
X168046400Y-91883741D01*
X164693600Y-92100400D02*
X168046400Y-92100400D01*
X164693600Y-88747600D02*
X164693600Y-88964259D01*
X168046400Y-88747600D02*
X164693600Y-88747600D01*
X168612346Y-91357136D02*
G75*
G03X168575800Y-91500200I-36546J-66864D01*
G01*
D10*
G04 #@! TO.C,X1*
X136950000Y-83105000D02*
X136950000Y-82105000D01*
X138930000Y-83105000D02*
X138710000Y-83105000D01*
X138710000Y-83105000D02*
X138710000Y-82105000D01*
D11*
G04 #@! TO.C,U13*
X174675800Y-97624900D02*
X170510200Y-97624900D01*
X170510200Y-102781100D02*
X174675800Y-102781100D01*
G04 #@! TO.C,U12*
X164947600Y-106615741D02*
X164947600Y-106832400D01*
X168300400Y-103696259D02*
X168300400Y-103479600D01*
X168300400Y-106832400D02*
X168300400Y-106615741D01*
X164947600Y-106832400D02*
X168300400Y-106832400D01*
X164947600Y-103479600D02*
X164947600Y-103696259D01*
X168300400Y-103479600D02*
X164947600Y-103479600D01*
X168866346Y-106089136D02*
G75*
G03X168829800Y-106232200I-36546J-66864D01*
G01*
G04 #@! TO.C,U9*
X172288200Y-70269100D02*
X176453800Y-70269100D01*
X176453800Y-65112900D02*
X172288200Y-65112900D01*
G04 #@! TO.C,U8*
X169824400Y-70967600D02*
X166471600Y-70967600D01*
X166471600Y-70967600D02*
X166471600Y-71184259D01*
X166471600Y-74320400D02*
X169824400Y-74320400D01*
X169824400Y-74320400D02*
X169824400Y-74103741D01*
X169824400Y-71184259D02*
X169824400Y-70967600D01*
X166471600Y-74103741D02*
X166471600Y-74320400D01*
X170390346Y-73577136D02*
G75*
G03X170353800Y-73720200I-36546J-66864D01*
G01*
G04 #@! TO.C,U7*
X144907000Y-101562499D02*
X144653000Y-101562499D01*
X144907000Y-101181499D02*
X144907000Y-101562499D01*
X144653000Y-101181499D02*
X144907000Y-101181499D01*
X144653000Y-101562499D02*
X144653000Y-101181499D01*
X146877576Y-105676700D02*
X150556424Y-105676700D01*
X150556424Y-100317300D02*
X146877576Y-100317300D01*
G04 #@! TO.C,U6*
X144907000Y-86068499D02*
X144653000Y-86068499D01*
X144907000Y-85687499D02*
X144907000Y-86068499D01*
X144653000Y-85687499D02*
X144907000Y-85687499D01*
X144653000Y-86068499D02*
X144653000Y-85687499D01*
X146877576Y-90182700D02*
X150556424Y-90182700D01*
X150556424Y-84823300D02*
X146877576Y-84823300D01*
G04 #@! TO.C,U5*
X152461424Y-67678300D02*
X148782576Y-67678300D01*
X148782576Y-73037700D02*
X152461424Y-73037700D01*
X146558000Y-68923499D02*
X146558000Y-68542499D01*
X146558000Y-68542499D02*
X146812000Y-68542499D01*
X146812000Y-68542499D02*
X146812000Y-68923499D01*
X146812000Y-68923499D02*
X146558000Y-68923499D01*
G04 #@! TO.C,U3*
X77990700Y-112903000D02*
X79997300Y-112903000D01*
X79997300Y-111615261D02*
X79997300Y-110888739D01*
X79997300Y-109601000D02*
X77990700Y-109601000D01*
G04 #@! TO.C,U2*
X88719998Y-99367000D02*
X88470001Y-99367000D01*
X88720003Y-99367000D02*
X88720003Y-99566999D01*
X85519999Y-99367000D02*
X85270002Y-99367000D01*
X85269997Y-99367000D02*
X85269997Y-99566999D01*
X85269997Y-102617001D02*
X85269997Y-102817000D01*
X88719998Y-102817000D02*
X87795001Y-102817000D01*
X88719998Y-102617001D02*
X88719998Y-102817000D01*
X85519999Y-102817000D02*
X85270002Y-102817000D01*
D10*
G04 #@! TO.C,U1*
X88762000Y-90891000D02*
X90562000Y-90891000D01*
X90562000Y-87671000D02*
X88112000Y-87671000D01*
G04 #@! TO.C,SYNCOUT3*
X154497000Y-101665000D02*
X153097000Y-101665000D01*
X153097000Y-101665000D02*
X153097000Y-100265000D01*
X153097000Y-100265000D02*
X154497000Y-100265000D01*
X154497000Y-100265000D02*
X154497000Y-101665000D01*
G04 #@! TO.C,SYNCOUT2*
X154751000Y-85790000D02*
X153351000Y-85790000D01*
X153351000Y-85790000D02*
X153351000Y-84390000D01*
X153351000Y-84390000D02*
X154751000Y-84390000D01*
X154751000Y-84390000D02*
X154751000Y-85790000D01*
G04 #@! TO.C,SYNCOUT1*
X156402000Y-67118000D02*
X156402000Y-68518000D01*
X155002000Y-67118000D02*
X156402000Y-67118000D01*
X155002000Y-68518000D02*
X155002000Y-67118000D01*
X156402000Y-68518000D02*
X155002000Y-68518000D01*
G04 #@! TO.C,SWP1*
X112330000Y-93156000D02*
X112330000Y-91756000D01*
X112330000Y-91756000D02*
X113730000Y-91756000D01*
X113730000Y-91756000D02*
X113730000Y-93156000D01*
X113730000Y-93156000D02*
X112330000Y-93156000D01*
D12*
G04 #@! TO.C,SW2*
X125316000Y-87173000D02*
G75*
G03X125316000Y-87173000I-100000J0D01*
G01*
D13*
X126616000Y-90173000D02*
X129416000Y-90173000D01*
D12*
G04 #@! TO.C,SW1*
X101960000Y-77673000D02*
G75*
G03X101960000Y-77673000I-100000J0D01*
G01*
D13*
X100460000Y-74673000D02*
X97660000Y-74673000D01*
D10*
G04 #@! TO.C,SHD1*
X109663000Y-93283000D02*
X109663000Y-91883000D01*
X109663000Y-91883000D02*
X111063000Y-91883000D01*
X111063000Y-91883000D02*
X111063000Y-93283000D01*
X111063000Y-93283000D02*
X109663000Y-93283000D01*
G04 #@! TO.C,SENSOR_VP1*
X102424000Y-74484000D02*
X103824000Y-74484000D01*
X103824000Y-74484000D02*
X103824000Y-75884000D01*
X103824000Y-75884000D02*
X102424000Y-75884000D01*
X102424000Y-75884000D02*
X102424000Y-74484000D01*
G04 #@! TO.C,SENSOR_VN1*
X102297000Y-76643000D02*
X103697000Y-76643000D01*
X103697000Y-76643000D02*
X103697000Y-78043000D01*
X103697000Y-78043000D02*
X102297000Y-78043000D01*
X102297000Y-78043000D02*
X102297000Y-76643000D01*
G04 #@! TO.C,SDO3*
X163895000Y-104459000D02*
X162495000Y-104459000D01*
X162495000Y-104459000D02*
X162495000Y-103059000D01*
X162495000Y-103059000D02*
X163895000Y-103059000D01*
X163895000Y-103059000D02*
X163895000Y-104459000D01*
G04 #@! TO.C,SDO2*
X163641000Y-89854000D02*
X162241000Y-89854000D01*
X162241000Y-89854000D02*
X162241000Y-88454000D01*
X162241000Y-88454000D02*
X163641000Y-88454000D01*
X163641000Y-88454000D02*
X163641000Y-89854000D01*
G04 #@! TO.C,SDO1*
X165292000Y-70674000D02*
X165292000Y-72074000D01*
X163892000Y-70674000D02*
X165292000Y-70674000D01*
X163892000Y-72074000D02*
X163892000Y-70674000D01*
X165292000Y-72074000D02*
X163892000Y-72074000D01*
G04 #@! TO.C,SDI1*
X117410000Y-93029000D02*
X117410000Y-91629000D01*
X117410000Y-91629000D02*
X118810000Y-91629000D01*
X118810000Y-91629000D02*
X118810000Y-93029000D01*
X118810000Y-93029000D02*
X117410000Y-93029000D01*
G04 #@! TO.C,SCS1*
X112838000Y-95315000D02*
X112838000Y-93915000D01*
X112838000Y-93915000D02*
X114238000Y-93915000D01*
X114238000Y-93915000D02*
X114238000Y-95315000D01*
X114238000Y-95315000D02*
X112838000Y-95315000D01*
G04 #@! TO.C,SCK1*
X114997000Y-93029000D02*
X114997000Y-91629000D01*
X114997000Y-91629000D02*
X116397000Y-91629000D01*
X116397000Y-91629000D02*
X116397000Y-93029000D01*
X116397000Y-93029000D02*
X114997000Y-93029000D01*
G04 #@! TO.C,MSBOUT3*
X152084000Y-99506000D02*
X150684000Y-99506000D01*
X150684000Y-99506000D02*
X150684000Y-98106000D01*
X150684000Y-98106000D02*
X152084000Y-98106000D01*
X152084000Y-98106000D02*
X152084000Y-99506000D01*
G04 #@! TO.C,MSBOUT2*
X152211000Y-84012000D02*
X150811000Y-84012000D01*
X150811000Y-84012000D02*
X150811000Y-82612000D01*
X150811000Y-82612000D02*
X152211000Y-82612000D01*
X152211000Y-82612000D02*
X152211000Y-84012000D01*
G04 #@! TO.C,MSBOUT1*
X154116000Y-65594000D02*
X154116000Y-66994000D01*
X152716000Y-65594000D02*
X154116000Y-65594000D01*
X152716000Y-66994000D02*
X152716000Y-65594000D01*
X154116000Y-66994000D02*
X152716000Y-66994000D01*
G04 #@! TO.C,IO35*
X99376000Y-80583000D02*
X99376000Y-79183000D01*
X99376000Y-79183000D02*
X100776000Y-79183000D01*
X100776000Y-79183000D02*
X100776000Y-80583000D01*
X100776000Y-80583000D02*
X99376000Y-80583000D01*
D13*
G04 #@! TO.C,L1*
X78824000Y-98148000D02*
X78824000Y-98448000D01*
X76624000Y-98148000D02*
X76624000Y-98448000D01*
G04 #@! TO.C,J6*
X176662000Y-96966000D02*
X178562000Y-96966000D01*
X176662000Y-104456000D02*
X178562000Y-104456000D01*
X176662000Y-104456000D02*
X176662000Y-96966000D01*
X183642000Y-104456000D02*
X183642000Y-96966000D01*
X178562000Y-96966000D02*
X183642000Y-96966000D01*
X183642000Y-104456000D02*
X178562000Y-104456000D01*
X178562000Y-104456000D02*
X178562000Y-96966000D01*
D14*
X181302000Y-95621000D02*
G75*
G03X181302000Y-95621000I-200000J0D01*
G01*
D13*
G04 #@! TO.C,J5*
X176789000Y-81853000D02*
X178689000Y-81853000D01*
X176789000Y-89343000D02*
X178689000Y-89343000D01*
X176789000Y-89343000D02*
X176789000Y-81853000D01*
X183769000Y-89343000D02*
X183769000Y-81853000D01*
X178689000Y-81853000D02*
X183769000Y-81853000D01*
X183769000Y-89343000D02*
X178689000Y-89343000D01*
X178689000Y-89343000D02*
X178689000Y-81853000D01*
D14*
X181429000Y-80508000D02*
G75*
G03X181429000Y-80508000I-200000J0D01*
G01*
D13*
G04 #@! TO.C,J4*
X178567000Y-64581000D02*
X180467000Y-64581000D01*
X178567000Y-72071000D02*
X180467000Y-72071000D01*
X178567000Y-72071000D02*
X178567000Y-64581000D01*
X185547000Y-72071000D02*
X185547000Y-64581000D01*
X180467000Y-64581000D02*
X185547000Y-64581000D01*
X185547000Y-72071000D02*
X180467000Y-72071000D01*
X180467000Y-72071000D02*
X180467000Y-64581000D01*
D14*
X183207000Y-63236000D02*
G75*
G03X183207000Y-63236000I-200000J0D01*
G01*
D12*
G04 #@! TO.C,J3*
X138911000Y-71561000D02*
G75*
G03X138911000Y-71561000I-100000J0D01*
G01*
D13*
X129921000Y-64211000D02*
X140081000Y-64211000D01*
X129921000Y-70561000D02*
X129921000Y-64211000D01*
X140081000Y-70561000D02*
X129921000Y-70561000D01*
X140081000Y-64211000D02*
X140081000Y-70561000D01*
D11*
G04 #@! TO.C,J2*
X81153000Y-81873600D02*
G75*
G03X81153000Y-81873600I-381000J0D01*
G01*
X77845001Y-88655400D02*
X82594801Y-88655400D01*
X77845001Y-82508600D02*
X77845001Y-88655400D01*
X82594801Y-82508600D02*
X77845001Y-82508600D01*
X82594801Y-88655400D02*
X82594801Y-82508600D01*
D10*
G04 #@! TO.C,IO34*
X96582000Y-80583000D02*
X96582000Y-79183000D01*
X96582000Y-79183000D02*
X97982000Y-79183000D01*
X97982000Y-79183000D02*
X97982000Y-80583000D01*
X97982000Y-80583000D02*
X96582000Y-80583000D01*
G04 #@! TO.C,IO32*
X102932000Y-80964000D02*
X102932000Y-79564000D01*
X102932000Y-79564000D02*
X104332000Y-79564000D01*
X104332000Y-79564000D02*
X104332000Y-80964000D01*
X104332000Y-80964000D02*
X102932000Y-80964000D01*
D13*
G04 #@! TO.C,C56*
X174948000Y-107846000D02*
X174948000Y-107546000D01*
X174048000Y-107846000D02*
X174048000Y-107546000D01*
G04 #@! TO.C,C54*
X167028000Y-99753000D02*
X166728000Y-99753000D01*
X167028000Y-100653000D02*
X166728000Y-100653000D01*
G04 #@! TO.C,C53*
X173205000Y-104463000D02*
X173505000Y-104463000D01*
X173205000Y-103563000D02*
X173505000Y-103563000D01*
G04 #@! TO.C,C52*
X167028000Y-101785000D02*
X166728000Y-101785000D01*
X167028000Y-102685000D02*
X166728000Y-102685000D01*
G04 #@! TO.C,C51*
X172281000Y-107973000D02*
X172281000Y-107673000D01*
X171381000Y-107973000D02*
X171381000Y-107673000D01*
G04 #@! TO.C,C49*
X174567000Y-92860000D02*
X174567000Y-92560000D01*
X173667000Y-92860000D02*
X173667000Y-92560000D01*
G04 #@! TO.C,C47*
X166901000Y-84386000D02*
X166601000Y-84386000D01*
X166901000Y-85286000D02*
X166601000Y-85286000D01*
G04 #@! TO.C,C46*
X173078000Y-89223000D02*
X173378000Y-89223000D01*
X173078000Y-88323000D02*
X173378000Y-88323000D01*
G04 #@! TO.C,C45*
X166901000Y-87053000D02*
X166601000Y-87053000D01*
X166901000Y-87953000D02*
X166601000Y-87953000D01*
G04 #@! TO.C,C44*
X172027000Y-93241000D02*
X172027000Y-92941000D01*
X171127000Y-93241000D02*
X171127000Y-92941000D01*
G04 #@! TO.C,C42*
X177350000Y-75207000D02*
X177350000Y-74907000D01*
X178250000Y-75207000D02*
X178250000Y-74907000D01*
G04 #@! TO.C,C40*
X168679000Y-68395000D02*
X168379000Y-68395000D01*
X168679000Y-67495000D02*
X168379000Y-67495000D01*
G04 #@! TO.C,C39*
X175110000Y-71559000D02*
X175410000Y-71559000D01*
X175110000Y-72459000D02*
X175410000Y-72459000D01*
G04 #@! TO.C,C38*
X168679000Y-70300000D02*
X168379000Y-70300000D01*
X168679000Y-69400000D02*
X168379000Y-69400000D01*
G04 #@! TO.C,C37*
X172524000Y-75207000D02*
X172524000Y-74907000D01*
X173424000Y-75207000D02*
X173424000Y-74907000D01*
G04 #@! TO.C,C35*
X156533000Y-102004000D02*
X156533000Y-101704000D01*
X155633000Y-102004000D02*
X155633000Y-101704000D01*
G04 #@! TO.C,C33*
X158692000Y-102893000D02*
X158692000Y-102593000D01*
X157792000Y-102893000D02*
X157792000Y-102593000D01*
G04 #@! TO.C,C31*
X156187000Y-105860000D02*
X156487000Y-105860000D01*
X156187000Y-104960000D02*
X156487000Y-104960000D01*
G04 #@! TO.C,C29*
X156533000Y-85875000D02*
X156533000Y-85575000D01*
X155633000Y-85875000D02*
X155633000Y-85575000D01*
G04 #@! TO.C,C27*
X158692000Y-86510000D02*
X158692000Y-86210000D01*
X157792000Y-86510000D02*
X157792000Y-86210000D01*
G04 #@! TO.C,C25*
X156060000Y-90239000D02*
X156360000Y-90239000D01*
X156060000Y-89339000D02*
X156360000Y-89339000D01*
G04 #@! TO.C,C23*
X157411000Y-68857000D02*
X157411000Y-68557000D01*
X158311000Y-68857000D02*
X158311000Y-68557000D01*
G04 #@! TO.C,C21*
X159570000Y-70127000D02*
X159570000Y-69827000D01*
X160470000Y-70127000D02*
X160470000Y-69827000D01*
G04 #@! TO.C,C19*
X157838000Y-72194000D02*
X158138000Y-72194000D01*
X157838000Y-73094000D02*
X158138000Y-73094000D01*
G04 #@! TO.C,C17*
X140785000Y-83335000D02*
X140785000Y-83035000D01*
X139885000Y-83335000D02*
X139885000Y-83035000D01*
G04 #@! TO.C,C16*
X135832000Y-83335000D02*
X135832000Y-83035000D01*
X134932000Y-83335000D02*
X134932000Y-83035000D01*
G04 #@! TO.C,C15*
X103690000Y-110594000D02*
X103690000Y-110894000D01*
X104590000Y-110594000D02*
X104590000Y-110894000D01*
G04 #@! TO.C,C13*
X94673000Y-110721000D02*
X94673000Y-111021000D01*
X95573000Y-110721000D02*
X95573000Y-111021000D01*
G04 #@! TO.C,C11*
X99637000Y-70254000D02*
X99637000Y-69954000D01*
X98737000Y-70254000D02*
X98737000Y-69954000D01*
G04 #@! TO.C,C5*
X89720000Y-100815000D02*
X89720000Y-101115000D01*
X90620000Y-100815000D02*
X90620000Y-101115000D01*
G04 #@! TO.C,C4*
X90620000Y-105179000D02*
X90620000Y-104879000D01*
X89720000Y-105179000D02*
X89720000Y-104879000D01*
G04 #@! TO.C,C3*
X83208000Y-99626000D02*
X82908000Y-99626000D01*
X83208000Y-100526000D02*
X82908000Y-100526000D01*
G04 #@! TO.C,R6*
D15*
X139489666Y-79728190D02*
X139323000Y-79490095D01*
X139203952Y-79728190D02*
X139203952Y-79228190D01*
X139394428Y-79228190D01*
X139442047Y-79252000D01*
X139465857Y-79275809D01*
X139489666Y-79323428D01*
X139489666Y-79394857D01*
X139465857Y-79442476D01*
X139442047Y-79466285D01*
X139394428Y-79490095D01*
X139203952Y-79490095D01*
X139918238Y-79228190D02*
X139823000Y-79228190D01*
X139775380Y-79252000D01*
X139751571Y-79275809D01*
X139703952Y-79347238D01*
X139680142Y-79442476D01*
X139680142Y-79632952D01*
X139703952Y-79680571D01*
X139727761Y-79704380D01*
X139775380Y-79728190D01*
X139870619Y-79728190D01*
X139918238Y-79704380D01*
X139942047Y-79680571D01*
X139965857Y-79632952D01*
X139965857Y-79513904D01*
X139942047Y-79466285D01*
X139918238Y-79442476D01*
X139870619Y-79418666D01*
X139775380Y-79418666D01*
X139727761Y-79442476D01*
X139703952Y-79466285D01*
X139680142Y-79513904D01*
G04 #@! TO.C,R27*
X166817190Y-97730428D02*
X166579095Y-97897095D01*
X166817190Y-98016142D02*
X166317190Y-98016142D01*
X166317190Y-97825666D01*
X166341000Y-97778047D01*
X166364809Y-97754238D01*
X166412428Y-97730428D01*
X166483857Y-97730428D01*
X166531476Y-97754238D01*
X166555285Y-97778047D01*
X166579095Y-97825666D01*
X166579095Y-98016142D01*
X166364809Y-97539952D02*
X166341000Y-97516142D01*
X166317190Y-97468523D01*
X166317190Y-97349476D01*
X166341000Y-97301857D01*
X166364809Y-97278047D01*
X166412428Y-97254238D01*
X166460047Y-97254238D01*
X166531476Y-97278047D01*
X166817190Y-97563761D01*
X166817190Y-97254238D01*
X166317190Y-97087571D02*
X166317190Y-96754238D01*
X166817190Y-96968523D01*
G04 #@! TO.C,R25*
X163611690Y-110049428D02*
X163373595Y-110216095D01*
X163611690Y-110335142D02*
X163111690Y-110335142D01*
X163111690Y-110144666D01*
X163135500Y-110097047D01*
X163159309Y-110073238D01*
X163206928Y-110049428D01*
X163278357Y-110049428D01*
X163325976Y-110073238D01*
X163349785Y-110097047D01*
X163373595Y-110144666D01*
X163373595Y-110335142D01*
X163159309Y-109858952D02*
X163135500Y-109835142D01*
X163111690Y-109787523D01*
X163111690Y-109668476D01*
X163135500Y-109620857D01*
X163159309Y-109597047D01*
X163206928Y-109573238D01*
X163254547Y-109573238D01*
X163325976Y-109597047D01*
X163611690Y-109882761D01*
X163611690Y-109573238D01*
X163111690Y-109120857D02*
X163111690Y-109358952D01*
X163349785Y-109382761D01*
X163325976Y-109358952D01*
X163302166Y-109311333D01*
X163302166Y-109192285D01*
X163325976Y-109144666D01*
X163349785Y-109120857D01*
X163397404Y-109097047D01*
X163516452Y-109097047D01*
X163564071Y-109120857D01*
X163587880Y-109144666D01*
X163611690Y-109192285D01*
X163611690Y-109311333D01*
X163587880Y-109358952D01*
X163564071Y-109382761D01*
G04 #@! TO.C,R24*
X166563190Y-82490428D02*
X166325095Y-82657095D01*
X166563190Y-82776142D02*
X166063190Y-82776142D01*
X166063190Y-82585666D01*
X166087000Y-82538047D01*
X166110809Y-82514238D01*
X166158428Y-82490428D01*
X166229857Y-82490428D01*
X166277476Y-82514238D01*
X166301285Y-82538047D01*
X166325095Y-82585666D01*
X166325095Y-82776142D01*
X166110809Y-82299952D02*
X166087000Y-82276142D01*
X166063190Y-82228523D01*
X166063190Y-82109476D01*
X166087000Y-82061857D01*
X166110809Y-82038047D01*
X166158428Y-82014238D01*
X166206047Y-82014238D01*
X166277476Y-82038047D01*
X166563190Y-82323761D01*
X166563190Y-82014238D01*
X166229857Y-81585666D02*
X166563190Y-81585666D01*
X166039380Y-81704714D02*
X166396523Y-81823761D01*
X166396523Y-81514238D01*
G04 #@! TO.C,R22*
X162024190Y-93793428D02*
X161786095Y-93960095D01*
X162024190Y-94079142D02*
X161524190Y-94079142D01*
X161524190Y-93888666D01*
X161548000Y-93841047D01*
X161571809Y-93817238D01*
X161619428Y-93793428D01*
X161690857Y-93793428D01*
X161738476Y-93817238D01*
X161762285Y-93841047D01*
X161786095Y-93888666D01*
X161786095Y-94079142D01*
X161571809Y-93602952D02*
X161548000Y-93579142D01*
X161524190Y-93531523D01*
X161524190Y-93412476D01*
X161548000Y-93364857D01*
X161571809Y-93341047D01*
X161619428Y-93317238D01*
X161667047Y-93317238D01*
X161738476Y-93341047D01*
X162024190Y-93626761D01*
X162024190Y-93317238D01*
X161571809Y-93126761D02*
X161548000Y-93102952D01*
X161524190Y-93055333D01*
X161524190Y-92936285D01*
X161548000Y-92888666D01*
X161571809Y-92864857D01*
X161619428Y-92841047D01*
X161667047Y-92841047D01*
X161738476Y-92864857D01*
X162024190Y-93150571D01*
X162024190Y-92841047D01*
G04 #@! TO.C,R21*
X168341190Y-65599428D02*
X168103095Y-65766095D01*
X168341190Y-65885142D02*
X167841190Y-65885142D01*
X167841190Y-65694666D01*
X167865000Y-65647047D01*
X167888809Y-65623238D01*
X167936428Y-65599428D01*
X168007857Y-65599428D01*
X168055476Y-65623238D01*
X168079285Y-65647047D01*
X168103095Y-65694666D01*
X168103095Y-65885142D01*
X167888809Y-65408952D02*
X167865000Y-65385142D01*
X167841190Y-65337523D01*
X167841190Y-65218476D01*
X167865000Y-65170857D01*
X167888809Y-65147047D01*
X167936428Y-65123238D01*
X167984047Y-65123238D01*
X168055476Y-65147047D01*
X168341190Y-65432761D01*
X168341190Y-65123238D01*
X168341190Y-64647047D02*
X168341190Y-64932761D01*
X168341190Y-64789904D02*
X167841190Y-64789904D01*
X167912619Y-64837523D01*
X167960238Y-64885142D01*
X167984047Y-64932761D01*
G04 #@! TO.C,R19*
X166596190Y-76013428D02*
X166358095Y-76180095D01*
X166596190Y-76299142D02*
X166096190Y-76299142D01*
X166096190Y-76108666D01*
X166120000Y-76061047D01*
X166143809Y-76037238D01*
X166191428Y-76013428D01*
X166262857Y-76013428D01*
X166310476Y-76037238D01*
X166334285Y-76061047D01*
X166358095Y-76108666D01*
X166358095Y-76299142D01*
X166596190Y-75537238D02*
X166596190Y-75822952D01*
X166596190Y-75680095D02*
X166096190Y-75680095D01*
X166167619Y-75727714D01*
X166215238Y-75775333D01*
X166239047Y-75822952D01*
X166596190Y-75299142D02*
X166596190Y-75203904D01*
X166572380Y-75156285D01*
X166548571Y-75132476D01*
X166477142Y-75084857D01*
X166381904Y-75061047D01*
X166191428Y-75061047D01*
X166143809Y-75084857D01*
X166120000Y-75108666D01*
X166096190Y-75156285D01*
X166096190Y-75251523D01*
X166120000Y-75299142D01*
X166143809Y-75322952D01*
X166191428Y-75346761D01*
X166310476Y-75346761D01*
X166358095Y-75322952D01*
X166381904Y-75299142D01*
X166405714Y-75251523D01*
X166405714Y-75156285D01*
X166381904Y-75108666D01*
X166358095Y-75084857D01*
X166310476Y-75061047D01*
G04 #@! TO.C,R18*
X142179190Y-100397428D02*
X141941095Y-100564095D01*
X142179190Y-100683142D02*
X141679190Y-100683142D01*
X141679190Y-100492666D01*
X141703000Y-100445047D01*
X141726809Y-100421238D01*
X141774428Y-100397428D01*
X141845857Y-100397428D01*
X141893476Y-100421238D01*
X141917285Y-100445047D01*
X141941095Y-100492666D01*
X141941095Y-100683142D01*
X142179190Y-99921238D02*
X142179190Y-100206952D01*
X142179190Y-100064095D02*
X141679190Y-100064095D01*
X141750619Y-100111714D01*
X141798238Y-100159333D01*
X141822047Y-100206952D01*
X141893476Y-99635523D02*
X141869666Y-99683142D01*
X141845857Y-99706952D01*
X141798238Y-99730761D01*
X141774428Y-99730761D01*
X141726809Y-99706952D01*
X141703000Y-99683142D01*
X141679190Y-99635523D01*
X141679190Y-99540285D01*
X141703000Y-99492666D01*
X141726809Y-99468857D01*
X141774428Y-99445047D01*
X141798238Y-99445047D01*
X141845857Y-99468857D01*
X141869666Y-99492666D01*
X141893476Y-99540285D01*
X141893476Y-99635523D01*
X141917285Y-99683142D01*
X141941095Y-99706952D01*
X141988714Y-99730761D01*
X142083952Y-99730761D01*
X142131571Y-99706952D01*
X142155380Y-99683142D01*
X142179190Y-99635523D01*
X142179190Y-99540285D01*
X142155380Y-99492666D01*
X142131571Y-99468857D01*
X142083952Y-99445047D01*
X141988714Y-99445047D01*
X141941095Y-99468857D01*
X141917285Y-99492666D01*
X141893476Y-99540285D01*
G04 #@! TO.C,R17*
X145982571Y-97983190D02*
X145815904Y-97745095D01*
X145696857Y-97983190D02*
X145696857Y-97483190D01*
X145887333Y-97483190D01*
X145934952Y-97507000D01*
X145958761Y-97530809D01*
X145982571Y-97578428D01*
X145982571Y-97649857D01*
X145958761Y-97697476D01*
X145934952Y-97721285D01*
X145887333Y-97745095D01*
X145696857Y-97745095D01*
X146458761Y-97983190D02*
X146173047Y-97983190D01*
X146315904Y-97983190D02*
X146315904Y-97483190D01*
X146268285Y-97554619D01*
X146220666Y-97602238D01*
X146173047Y-97626047D01*
X146625428Y-97483190D02*
X146958761Y-97483190D01*
X146744476Y-97983190D01*
G04 #@! TO.C,R16*
X143736190Y-108271428D02*
X143498095Y-108438095D01*
X143736190Y-108557142D02*
X143236190Y-108557142D01*
X143236190Y-108366666D01*
X143260000Y-108319047D01*
X143283809Y-108295238D01*
X143331428Y-108271428D01*
X143402857Y-108271428D01*
X143450476Y-108295238D01*
X143474285Y-108319047D01*
X143498095Y-108366666D01*
X143498095Y-108557142D01*
X143736190Y-107795238D02*
X143736190Y-108080952D01*
X143736190Y-107938095D02*
X143236190Y-107938095D01*
X143307619Y-107985714D01*
X143355238Y-108033333D01*
X143379047Y-108080952D01*
X143236190Y-107366666D02*
X143236190Y-107461904D01*
X143260000Y-107509523D01*
X143283809Y-107533333D01*
X143355238Y-107580952D01*
X143450476Y-107604761D01*
X143640952Y-107604761D01*
X143688571Y-107580952D01*
X143712380Y-107557142D01*
X143736190Y-107509523D01*
X143736190Y-107414285D01*
X143712380Y-107366666D01*
X143688571Y-107342857D01*
X143640952Y-107319047D01*
X143521904Y-107319047D01*
X143474285Y-107342857D01*
X143450476Y-107366666D01*
X143426666Y-107414285D01*
X143426666Y-107509523D01*
X143450476Y-107557142D01*
X143474285Y-107580952D01*
X143521904Y-107604761D01*
G04 #@! TO.C,R15*
X140648571Y-105796190D02*
X140481904Y-105558095D01*
X140362857Y-105796190D02*
X140362857Y-105296190D01*
X140553333Y-105296190D01*
X140600952Y-105320000D01*
X140624761Y-105343809D01*
X140648571Y-105391428D01*
X140648571Y-105462857D01*
X140624761Y-105510476D01*
X140600952Y-105534285D01*
X140553333Y-105558095D01*
X140362857Y-105558095D01*
X141124761Y-105796190D02*
X140839047Y-105796190D01*
X140981904Y-105796190D02*
X140981904Y-105296190D01*
X140934285Y-105367619D01*
X140886666Y-105415238D01*
X140839047Y-105439047D01*
X141577142Y-105296190D02*
X141339047Y-105296190D01*
X141315238Y-105534285D01*
X141339047Y-105510476D01*
X141386666Y-105486666D01*
X141505714Y-105486666D01*
X141553333Y-105510476D01*
X141577142Y-105534285D01*
X141600952Y-105581904D01*
X141600952Y-105700952D01*
X141577142Y-105748571D01*
X141553333Y-105772380D01*
X141505714Y-105796190D01*
X141386666Y-105796190D01*
X141339047Y-105772380D01*
X141315238Y-105748571D01*
G04 #@! TO.C,R14*
X142306190Y-84903428D02*
X142068095Y-85070095D01*
X142306190Y-85189142D02*
X141806190Y-85189142D01*
X141806190Y-84998666D01*
X141830000Y-84951047D01*
X141853809Y-84927238D01*
X141901428Y-84903428D01*
X141972857Y-84903428D01*
X142020476Y-84927238D01*
X142044285Y-84951047D01*
X142068095Y-84998666D01*
X142068095Y-85189142D01*
X142306190Y-84427238D02*
X142306190Y-84712952D01*
X142306190Y-84570095D02*
X141806190Y-84570095D01*
X141877619Y-84617714D01*
X141925238Y-84665333D01*
X141949047Y-84712952D01*
X141972857Y-83998666D02*
X142306190Y-83998666D01*
X141782380Y-84117714D02*
X142139523Y-84236761D01*
X142139523Y-83927238D01*
G04 #@! TO.C,R13*
X146109571Y-82489190D02*
X145942904Y-82251095D01*
X145823857Y-82489190D02*
X145823857Y-81989190D01*
X146014333Y-81989190D01*
X146061952Y-82013000D01*
X146085761Y-82036809D01*
X146109571Y-82084428D01*
X146109571Y-82155857D01*
X146085761Y-82203476D01*
X146061952Y-82227285D01*
X146014333Y-82251095D01*
X145823857Y-82251095D01*
X146585761Y-82489190D02*
X146300047Y-82489190D01*
X146442904Y-82489190D02*
X146442904Y-81989190D01*
X146395285Y-82060619D01*
X146347666Y-82108238D01*
X146300047Y-82132047D01*
X146752428Y-81989190D02*
X147061952Y-81989190D01*
X146895285Y-82179666D01*
X146966714Y-82179666D01*
X147014333Y-82203476D01*
X147038142Y-82227285D01*
X147061952Y-82274904D01*
X147061952Y-82393952D01*
X147038142Y-82441571D01*
X147014333Y-82465380D01*
X146966714Y-82489190D01*
X146823857Y-82489190D01*
X146776238Y-82465380D01*
X146752428Y-82441571D01*
G04 #@! TO.C,R12*
X144244190Y-92904428D02*
X144006095Y-93071095D01*
X144244190Y-93190142D02*
X143744190Y-93190142D01*
X143744190Y-92999666D01*
X143768000Y-92952047D01*
X143791809Y-92928238D01*
X143839428Y-92904428D01*
X143910857Y-92904428D01*
X143958476Y-92928238D01*
X143982285Y-92952047D01*
X144006095Y-92999666D01*
X144006095Y-93190142D01*
X144244190Y-92428238D02*
X144244190Y-92713952D01*
X144244190Y-92571095D02*
X143744190Y-92571095D01*
X143815619Y-92618714D01*
X143863238Y-92666333D01*
X143887047Y-92713952D01*
X143791809Y-92237761D02*
X143768000Y-92213952D01*
X143744190Y-92166333D01*
X143744190Y-92047285D01*
X143768000Y-91999666D01*
X143791809Y-91975857D01*
X143839428Y-91952047D01*
X143887047Y-91952047D01*
X143958476Y-91975857D01*
X144244190Y-92261571D01*
X144244190Y-91952047D01*
G04 #@! TO.C,R11*
X140775571Y-90142190D02*
X140608904Y-89904095D01*
X140489857Y-90142190D02*
X140489857Y-89642190D01*
X140680333Y-89642190D01*
X140727952Y-89666000D01*
X140751761Y-89689809D01*
X140775571Y-89737428D01*
X140775571Y-89808857D01*
X140751761Y-89856476D01*
X140727952Y-89880285D01*
X140680333Y-89904095D01*
X140489857Y-89904095D01*
X141251761Y-90142190D02*
X140966047Y-90142190D01*
X141108904Y-90142190D02*
X141108904Y-89642190D01*
X141061285Y-89713619D01*
X141013666Y-89761238D01*
X140966047Y-89785047D01*
X141727952Y-90142190D02*
X141442238Y-90142190D01*
X141585095Y-90142190D02*
X141585095Y-89642190D01*
X141537476Y-89713619D01*
X141489857Y-89761238D01*
X141442238Y-89785047D01*
G04 #@! TO.C,R10*
X144752190Y-68012428D02*
X144514095Y-68179095D01*
X144752190Y-68298142D02*
X144252190Y-68298142D01*
X144252190Y-68107666D01*
X144276000Y-68060047D01*
X144299809Y-68036238D01*
X144347428Y-68012428D01*
X144418857Y-68012428D01*
X144466476Y-68036238D01*
X144490285Y-68060047D01*
X144514095Y-68107666D01*
X144514095Y-68298142D01*
X144752190Y-67536238D02*
X144752190Y-67821952D01*
X144752190Y-67679095D02*
X144252190Y-67679095D01*
X144323619Y-67726714D01*
X144371238Y-67774333D01*
X144395047Y-67821952D01*
X144252190Y-67226714D02*
X144252190Y-67179095D01*
X144276000Y-67131476D01*
X144299809Y-67107666D01*
X144347428Y-67083857D01*
X144442666Y-67060047D01*
X144561714Y-67060047D01*
X144656952Y-67083857D01*
X144704571Y-67107666D01*
X144728380Y-67131476D01*
X144752190Y-67179095D01*
X144752190Y-67226714D01*
X144728380Y-67274333D01*
X144704571Y-67298142D01*
X144656952Y-67321952D01*
X144561714Y-67345761D01*
X144442666Y-67345761D01*
X144347428Y-67321952D01*
X144299809Y-67298142D01*
X144276000Y-67274333D01*
X144252190Y-67226714D01*
G04 #@! TO.C,R9*
X148252666Y-65758190D02*
X148086000Y-65520095D01*
X147966952Y-65758190D02*
X147966952Y-65258190D01*
X148157428Y-65258190D01*
X148205047Y-65282000D01*
X148228857Y-65305809D01*
X148252666Y-65353428D01*
X148252666Y-65424857D01*
X148228857Y-65472476D01*
X148205047Y-65496285D01*
X148157428Y-65520095D01*
X147966952Y-65520095D01*
X148490761Y-65758190D02*
X148586000Y-65758190D01*
X148633619Y-65734380D01*
X148657428Y-65710571D01*
X148705047Y-65639142D01*
X148728857Y-65543904D01*
X148728857Y-65353428D01*
X148705047Y-65305809D01*
X148681238Y-65282000D01*
X148633619Y-65258190D01*
X148538380Y-65258190D01*
X148490761Y-65282000D01*
X148466952Y-65305809D01*
X148443142Y-65353428D01*
X148443142Y-65472476D01*
X148466952Y-65520095D01*
X148490761Y-65543904D01*
X148538380Y-65567714D01*
X148633619Y-65567714D01*
X148681238Y-65543904D01*
X148705047Y-65520095D01*
X148728857Y-65472476D01*
G04 #@! TO.C,R8*
X146149190Y-74759333D02*
X145911095Y-74926000D01*
X146149190Y-75045047D02*
X145649190Y-75045047D01*
X145649190Y-74854571D01*
X145673000Y-74806952D01*
X145696809Y-74783142D01*
X145744428Y-74759333D01*
X145815857Y-74759333D01*
X145863476Y-74783142D01*
X145887285Y-74806952D01*
X145911095Y-74854571D01*
X145911095Y-75045047D01*
X145863476Y-74473619D02*
X145839666Y-74521238D01*
X145815857Y-74545047D01*
X145768238Y-74568857D01*
X145744428Y-74568857D01*
X145696809Y-74545047D01*
X145673000Y-74521238D01*
X145649190Y-74473619D01*
X145649190Y-74378380D01*
X145673000Y-74330761D01*
X145696809Y-74306952D01*
X145744428Y-74283142D01*
X145768238Y-74283142D01*
X145815857Y-74306952D01*
X145839666Y-74330761D01*
X145863476Y-74378380D01*
X145863476Y-74473619D01*
X145887285Y-74521238D01*
X145911095Y-74545047D01*
X145958714Y-74568857D01*
X146053952Y-74568857D01*
X146101571Y-74545047D01*
X146125380Y-74521238D01*
X146149190Y-74473619D01*
X146149190Y-74378380D01*
X146125380Y-74330761D01*
X146101571Y-74306952D01*
X146053952Y-74283142D01*
X145958714Y-74283142D01*
X145911095Y-74306952D01*
X145887285Y-74330761D01*
X145863476Y-74378380D01*
G04 #@! TO.C,R7*
X143172666Y-72489190D02*
X143006000Y-72251095D01*
X142886952Y-72489190D02*
X142886952Y-71989190D01*
X143077428Y-71989190D01*
X143125047Y-72013000D01*
X143148857Y-72036809D01*
X143172666Y-72084428D01*
X143172666Y-72155857D01*
X143148857Y-72203476D01*
X143125047Y-72227285D01*
X143077428Y-72251095D01*
X142886952Y-72251095D01*
X143339333Y-71989190D02*
X143672666Y-71989190D01*
X143458380Y-72489190D01*
G04 #@! TO.C,SDO4*
X115947142Y-96341380D02*
X116018571Y-96365190D01*
X116137619Y-96365190D01*
X116185238Y-96341380D01*
X116209047Y-96317571D01*
X116232857Y-96269952D01*
X116232857Y-96222333D01*
X116209047Y-96174714D01*
X116185238Y-96150904D01*
X116137619Y-96127095D01*
X116042380Y-96103285D01*
X115994761Y-96079476D01*
X115970952Y-96055666D01*
X115947142Y-96008047D01*
X115947142Y-95960428D01*
X115970952Y-95912809D01*
X115994761Y-95889000D01*
X116042380Y-95865190D01*
X116161428Y-95865190D01*
X116232857Y-95889000D01*
X116447142Y-96365190D02*
X116447142Y-95865190D01*
X116566190Y-95865190D01*
X116637619Y-95889000D01*
X116685238Y-95936619D01*
X116709047Y-95984238D01*
X116732857Y-96079476D01*
X116732857Y-96150904D01*
X116709047Y-96246142D01*
X116685238Y-96293761D01*
X116637619Y-96341380D01*
X116566190Y-96365190D01*
X116447142Y-96365190D01*
X117042380Y-95865190D02*
X117137619Y-95865190D01*
X117185238Y-95889000D01*
X117232857Y-95936619D01*
X117256666Y-96031857D01*
X117256666Y-96198523D01*
X117232857Y-96293761D01*
X117185238Y-96341380D01*
X117137619Y-96365190D01*
X117042380Y-96365190D01*
X116994761Y-96341380D01*
X116947142Y-96293761D01*
X116923333Y-96198523D01*
X116923333Y-96031857D01*
X116947142Y-95936619D01*
X116994761Y-95889000D01*
X117042380Y-95865190D01*
X117685238Y-96031857D02*
X117685238Y-96365190D01*
X117566190Y-95841380D02*
X117447142Y-96198523D01*
X117756666Y-96198523D01*
G04 #@! TO.C,D3*
X83450952Y-107160190D02*
X83450952Y-106660190D01*
X83570000Y-106660190D01*
X83641428Y-106684000D01*
X83689047Y-106731619D01*
X83712857Y-106779238D01*
X83736666Y-106874476D01*
X83736666Y-106945904D01*
X83712857Y-107041142D01*
X83689047Y-107088761D01*
X83641428Y-107136380D01*
X83570000Y-107160190D01*
X83450952Y-107160190D01*
X83903333Y-106660190D02*
X84212857Y-106660190D01*
X84046190Y-106850666D01*
X84117619Y-106850666D01*
X84165238Y-106874476D01*
X84189047Y-106898285D01*
X84212857Y-106945904D01*
X84212857Y-107064952D01*
X84189047Y-107112571D01*
X84165238Y-107136380D01*
X84117619Y-107160190D01*
X83974761Y-107160190D01*
X83927142Y-107136380D01*
X83903333Y-107112571D01*
G04 #@! TO.C,D2*
X85570190Y-95365047D02*
X85070190Y-95365047D01*
X85070190Y-95246000D01*
X85094000Y-95174571D01*
X85141619Y-95126952D01*
X85189238Y-95103142D01*
X85284476Y-95079333D01*
X85355904Y-95079333D01*
X85451142Y-95103142D01*
X85498761Y-95126952D01*
X85546380Y-95174571D01*
X85570190Y-95246000D01*
X85570190Y-95365047D01*
X85117809Y-94888857D02*
X85094000Y-94865047D01*
X85070190Y-94817428D01*
X85070190Y-94698380D01*
X85094000Y-94650761D01*
X85117809Y-94626952D01*
X85165428Y-94603142D01*
X85213047Y-94603142D01*
X85284476Y-94626952D01*
X85570190Y-94912666D01*
X85570190Y-94603142D01*
G04 #@! TO.C,D1*
X93825190Y-95365047D02*
X93325190Y-95365047D01*
X93325190Y-95246000D01*
X93349000Y-95174571D01*
X93396619Y-95126952D01*
X93444238Y-95103142D01*
X93539476Y-95079333D01*
X93610904Y-95079333D01*
X93706142Y-95103142D01*
X93753761Y-95126952D01*
X93801380Y-95174571D01*
X93825190Y-95246000D01*
X93825190Y-95365047D01*
X93825190Y-94603142D02*
X93825190Y-94888857D01*
X93825190Y-94746000D02*
X93325190Y-94746000D01*
X93396619Y-94793619D01*
X93444238Y-94841238D01*
X93468047Y-94888857D01*
G04 #@! TO.C,RLED1*
X94488095Y-84681190D02*
X94321428Y-84443095D01*
X94202380Y-84681190D02*
X94202380Y-84181190D01*
X94392857Y-84181190D01*
X94440476Y-84205000D01*
X94464285Y-84228809D01*
X94488095Y-84276428D01*
X94488095Y-84347857D01*
X94464285Y-84395476D01*
X94440476Y-84419285D01*
X94392857Y-84443095D01*
X94202380Y-84443095D01*
X94940476Y-84681190D02*
X94702380Y-84681190D01*
X94702380Y-84181190D01*
X95107142Y-84419285D02*
X95273809Y-84419285D01*
X95345238Y-84681190D02*
X95107142Y-84681190D01*
X95107142Y-84181190D01*
X95345238Y-84181190D01*
X95559523Y-84681190D02*
X95559523Y-84181190D01*
X95678571Y-84181190D01*
X95750000Y-84205000D01*
X95797619Y-84252619D01*
X95821428Y-84300238D01*
X95845238Y-84395476D01*
X95845238Y-84466904D01*
X95821428Y-84562142D01*
X95797619Y-84609761D01*
X95750000Y-84657380D01*
X95678571Y-84681190D01*
X95559523Y-84681190D01*
X96321428Y-84681190D02*
X96035714Y-84681190D01*
X96178571Y-84681190D02*
X96178571Y-84181190D01*
X96130952Y-84252619D01*
X96083333Y-84300238D01*
X96035714Y-84324047D01*
G04 #@! TO.C,FB1*
X98389333Y-108676285D02*
X98222666Y-108676285D01*
X98222666Y-108938190D02*
X98222666Y-108438190D01*
X98460761Y-108438190D01*
X98817904Y-108676285D02*
X98889333Y-108700095D01*
X98913142Y-108723904D01*
X98936952Y-108771523D01*
X98936952Y-108842952D01*
X98913142Y-108890571D01*
X98889333Y-108914380D01*
X98841714Y-108938190D01*
X98651238Y-108938190D01*
X98651238Y-108438190D01*
X98817904Y-108438190D01*
X98865523Y-108462000D01*
X98889333Y-108485809D01*
X98913142Y-108533428D01*
X98913142Y-108581047D01*
X98889333Y-108628666D01*
X98865523Y-108652476D01*
X98817904Y-108676285D01*
X98651238Y-108676285D01*
X99413142Y-108938190D02*
X99127428Y-108938190D01*
X99270285Y-108938190D02*
X99270285Y-108438190D01*
X99222666Y-108509619D01*
X99175047Y-108557238D01*
X99127428Y-108581047D01*
G04 #@! TO.C,U4*
X123825047Y-90531190D02*
X123825047Y-90935952D01*
X123848857Y-90983571D01*
X123872666Y-91007380D01*
X123920285Y-91031190D01*
X124015523Y-91031190D01*
X124063142Y-91007380D01*
X124086952Y-90983571D01*
X124110761Y-90935952D01*
X124110761Y-90531190D01*
X124563142Y-90697857D02*
X124563142Y-91031190D01*
X124444095Y-90507380D02*
X124325047Y-90864523D01*
X124634571Y-90864523D01*
G04 #@! TO.C,R1*
X92245666Y-86586190D02*
X92079000Y-86348095D01*
X91959952Y-86586190D02*
X91959952Y-86086190D01*
X92150428Y-86086190D01*
X92198047Y-86110000D01*
X92221857Y-86133809D01*
X92245666Y-86181428D01*
X92245666Y-86252857D01*
X92221857Y-86300476D01*
X92198047Y-86324285D01*
X92150428Y-86348095D01*
X91959952Y-86348095D01*
X92721857Y-86586190D02*
X92436142Y-86586190D01*
X92579000Y-86586190D02*
X92579000Y-86086190D01*
X92531380Y-86157619D01*
X92483761Y-86205238D01*
X92436142Y-86229047D01*
G04 #@! TO.C,C9*
X85141571Y-109049333D02*
X85165380Y-109073142D01*
X85189190Y-109144571D01*
X85189190Y-109192190D01*
X85165380Y-109263619D01*
X85117761Y-109311238D01*
X85070142Y-109335047D01*
X84974904Y-109358857D01*
X84903476Y-109358857D01*
X84808238Y-109335047D01*
X84760619Y-109311238D01*
X84713000Y-109263619D01*
X84689190Y-109192190D01*
X84689190Y-109144571D01*
X84713000Y-109073142D01*
X84736809Y-109049333D01*
X85189190Y-108811238D02*
X85189190Y-108716000D01*
X85165380Y-108668380D01*
X85141571Y-108644571D01*
X85070142Y-108596952D01*
X84974904Y-108573142D01*
X84784428Y-108573142D01*
X84736809Y-108596952D01*
X84713000Y-108620761D01*
X84689190Y-108668380D01*
X84689190Y-108763619D01*
X84713000Y-108811238D01*
X84736809Y-108835047D01*
X84784428Y-108858857D01*
X84903476Y-108858857D01*
X84951095Y-108835047D01*
X84974904Y-108811238D01*
X84998714Y-108763619D01*
X84998714Y-108668380D01*
X84974904Y-108620761D01*
X84951095Y-108596952D01*
X84903476Y-108573142D01*
G04 #@! TO.C,C8*
X86538571Y-109049333D02*
X86562380Y-109073142D01*
X86586190Y-109144571D01*
X86586190Y-109192190D01*
X86562380Y-109263619D01*
X86514761Y-109311238D01*
X86467142Y-109335047D01*
X86371904Y-109358857D01*
X86300476Y-109358857D01*
X86205238Y-109335047D01*
X86157619Y-109311238D01*
X86110000Y-109263619D01*
X86086190Y-109192190D01*
X86086190Y-109144571D01*
X86110000Y-109073142D01*
X86133809Y-109049333D01*
X86300476Y-108763619D02*
X86276666Y-108811238D01*
X86252857Y-108835047D01*
X86205238Y-108858857D01*
X86181428Y-108858857D01*
X86133809Y-108835047D01*
X86110000Y-108811238D01*
X86086190Y-108763619D01*
X86086190Y-108668380D01*
X86110000Y-108620761D01*
X86133809Y-108596952D01*
X86181428Y-108573142D01*
X86205238Y-108573142D01*
X86252857Y-108596952D01*
X86276666Y-108620761D01*
X86300476Y-108668380D01*
X86300476Y-108763619D01*
X86324285Y-108811238D01*
X86348095Y-108835047D01*
X86395714Y-108858857D01*
X86490952Y-108858857D01*
X86538571Y-108835047D01*
X86562380Y-108811238D01*
X86586190Y-108763619D01*
X86586190Y-108668380D01*
X86562380Y-108620761D01*
X86538571Y-108596952D01*
X86490952Y-108573142D01*
X86395714Y-108573142D01*
X86348095Y-108596952D01*
X86324285Y-108620761D01*
X86300476Y-108668380D01*
G04 #@! TO.C,C7*
X87935571Y-109049333D02*
X87959380Y-109073142D01*
X87983190Y-109144571D01*
X87983190Y-109192190D01*
X87959380Y-109263619D01*
X87911761Y-109311238D01*
X87864142Y-109335047D01*
X87768904Y-109358857D01*
X87697476Y-109358857D01*
X87602238Y-109335047D01*
X87554619Y-109311238D01*
X87507000Y-109263619D01*
X87483190Y-109192190D01*
X87483190Y-109144571D01*
X87507000Y-109073142D01*
X87530809Y-109049333D01*
X87483190Y-108882666D02*
X87483190Y-108549333D01*
X87983190Y-108763619D01*
G04 #@! TO.C,R2*
X86911666Y-83411190D02*
X86745000Y-83173095D01*
X86625952Y-83411190D02*
X86625952Y-82911190D01*
X86816428Y-82911190D01*
X86864047Y-82935000D01*
X86887857Y-82958809D01*
X86911666Y-83006428D01*
X86911666Y-83077857D01*
X86887857Y-83125476D01*
X86864047Y-83149285D01*
X86816428Y-83173095D01*
X86625952Y-83173095D01*
X87102142Y-82958809D02*
X87125952Y-82935000D01*
X87173571Y-82911190D01*
X87292619Y-82911190D01*
X87340238Y-82935000D01*
X87364047Y-82958809D01*
X87387857Y-83006428D01*
X87387857Y-83054047D01*
X87364047Y-83125476D01*
X87078333Y-83411190D01*
X87387857Y-83411190D01*
G04 #@! TO.C,R3*
X79799666Y-100683190D02*
X79633000Y-100445095D01*
X79513952Y-100683190D02*
X79513952Y-100183190D01*
X79704428Y-100183190D01*
X79752047Y-100207000D01*
X79775857Y-100230809D01*
X79799666Y-100278428D01*
X79799666Y-100349857D01*
X79775857Y-100397476D01*
X79752047Y-100421285D01*
X79704428Y-100445095D01*
X79513952Y-100445095D01*
X79966333Y-100183190D02*
X80275857Y-100183190D01*
X80109190Y-100373666D01*
X80180619Y-100373666D01*
X80228238Y-100397476D01*
X80252047Y-100421285D01*
X80275857Y-100468904D01*
X80275857Y-100587952D01*
X80252047Y-100635571D01*
X80228238Y-100659380D01*
X80180619Y-100683190D01*
X80037761Y-100683190D01*
X79990142Y-100659380D01*
X79966333Y-100635571D01*
G04 #@! TO.C,J1*
X91674190Y-65444666D02*
X92031333Y-65444666D01*
X92102761Y-65468476D01*
X92150380Y-65516095D01*
X92174190Y-65587523D01*
X92174190Y-65635142D01*
X92174190Y-64944666D02*
X92174190Y-65230380D01*
X92174190Y-65087523D02*
X91674190Y-65087523D01*
X91745619Y-65135142D01*
X91793238Y-65182761D01*
X91817047Y-65230380D01*
G04 #@! TO.C,TP18*
X103016952Y-89388190D02*
X103302666Y-89388190D01*
X103159809Y-89888190D02*
X103159809Y-89388190D01*
X103469333Y-89888190D02*
X103469333Y-89388190D01*
X103659809Y-89388190D01*
X103707428Y-89412000D01*
X103731238Y-89435809D01*
X103755047Y-89483428D01*
X103755047Y-89554857D01*
X103731238Y-89602476D01*
X103707428Y-89626285D01*
X103659809Y-89650095D01*
X103469333Y-89650095D01*
X104231238Y-89888190D02*
X103945523Y-89888190D01*
X104088380Y-89888190D02*
X104088380Y-89388190D01*
X104040761Y-89459619D01*
X103993142Y-89507238D01*
X103945523Y-89531047D01*
X104516952Y-89602476D02*
X104469333Y-89578666D01*
X104445523Y-89554857D01*
X104421714Y-89507238D01*
X104421714Y-89483428D01*
X104445523Y-89435809D01*
X104469333Y-89412000D01*
X104516952Y-89388190D01*
X104612190Y-89388190D01*
X104659809Y-89412000D01*
X104683619Y-89435809D01*
X104707428Y-89483428D01*
X104707428Y-89507238D01*
X104683619Y-89554857D01*
X104659809Y-89578666D01*
X104612190Y-89602476D01*
X104516952Y-89602476D01*
X104469333Y-89626285D01*
X104445523Y-89650095D01*
X104421714Y-89697714D01*
X104421714Y-89792952D01*
X104445523Y-89840571D01*
X104469333Y-89864380D01*
X104516952Y-89888190D01*
X104612190Y-89888190D01*
X104659809Y-89864380D01*
X104683619Y-89840571D01*
X104707428Y-89792952D01*
X104707428Y-89697714D01*
X104683619Y-89650095D01*
X104659809Y-89626285D01*
X104612190Y-89602476D01*
G04 #@! TO.C,TP17*
X127019952Y-85705190D02*
X127305666Y-85705190D01*
X127162809Y-86205190D02*
X127162809Y-85705190D01*
X127472333Y-86205190D02*
X127472333Y-85705190D01*
X127662809Y-85705190D01*
X127710428Y-85729000D01*
X127734238Y-85752809D01*
X127758047Y-85800428D01*
X127758047Y-85871857D01*
X127734238Y-85919476D01*
X127710428Y-85943285D01*
X127662809Y-85967095D01*
X127472333Y-85967095D01*
X128234238Y-86205190D02*
X127948523Y-86205190D01*
X128091380Y-86205190D02*
X128091380Y-85705190D01*
X128043761Y-85776619D01*
X127996142Y-85824238D01*
X127948523Y-85848047D01*
X128400904Y-85705190D02*
X128734238Y-85705190D01*
X128519952Y-86205190D01*
G04 #@! TO.C,TP16*
X129051952Y-78542190D02*
X129337666Y-78542190D01*
X129194809Y-79042190D02*
X129194809Y-78542190D01*
X129504333Y-79042190D02*
X129504333Y-78542190D01*
X129694809Y-78542190D01*
X129742428Y-78566000D01*
X129766238Y-78589809D01*
X129790047Y-78637428D01*
X129790047Y-78708857D01*
X129766238Y-78756476D01*
X129742428Y-78780285D01*
X129694809Y-78804095D01*
X129504333Y-78804095D01*
X130266238Y-79042190D02*
X129980523Y-79042190D01*
X130123380Y-79042190D02*
X130123380Y-78542190D01*
X130075761Y-78613619D01*
X130028142Y-78661238D01*
X129980523Y-78685047D01*
X130694809Y-78542190D02*
X130599571Y-78542190D01*
X130551952Y-78566000D01*
X130528142Y-78589809D01*
X130480523Y-78661238D01*
X130456714Y-78756476D01*
X130456714Y-78946952D01*
X130480523Y-78994571D01*
X130504333Y-79018380D01*
X130551952Y-79042190D01*
X130647190Y-79042190D01*
X130694809Y-79018380D01*
X130718619Y-78994571D01*
X130742428Y-78946952D01*
X130742428Y-78827904D01*
X130718619Y-78780285D01*
X130694809Y-78756476D01*
X130647190Y-78732666D01*
X130551952Y-78732666D01*
X130504333Y-78756476D01*
X130480523Y-78780285D01*
X130456714Y-78827904D01*
G04 #@! TO.C,TP15*
X96412952Y-83038190D02*
X96698666Y-83038190D01*
X96555809Y-83538190D02*
X96555809Y-83038190D01*
X96865333Y-83538190D02*
X96865333Y-83038190D01*
X97055809Y-83038190D01*
X97103428Y-83062000D01*
X97127238Y-83085809D01*
X97151047Y-83133428D01*
X97151047Y-83204857D01*
X97127238Y-83252476D01*
X97103428Y-83276285D01*
X97055809Y-83300095D01*
X96865333Y-83300095D01*
X97627238Y-83538190D02*
X97341523Y-83538190D01*
X97484380Y-83538190D02*
X97484380Y-83038190D01*
X97436761Y-83109619D01*
X97389142Y-83157238D01*
X97341523Y-83181047D01*
X98079619Y-83038190D02*
X97841523Y-83038190D01*
X97817714Y-83276285D01*
X97841523Y-83252476D01*
X97889142Y-83228666D01*
X98008190Y-83228666D01*
X98055809Y-83252476D01*
X98079619Y-83276285D01*
X98103428Y-83323904D01*
X98103428Y-83442952D01*
X98079619Y-83490571D01*
X98055809Y-83514380D01*
X98008190Y-83538190D01*
X97889142Y-83538190D01*
X97841523Y-83514380D01*
X97817714Y-83490571D01*
G04 #@! TO.C,TP14*
X98571952Y-83800190D02*
X98857666Y-83800190D01*
X98714809Y-84300190D02*
X98714809Y-83800190D01*
X99024333Y-84300190D02*
X99024333Y-83800190D01*
X99214809Y-83800190D01*
X99262428Y-83824000D01*
X99286238Y-83847809D01*
X99310047Y-83895428D01*
X99310047Y-83966857D01*
X99286238Y-84014476D01*
X99262428Y-84038285D01*
X99214809Y-84062095D01*
X99024333Y-84062095D01*
X99786238Y-84300190D02*
X99500523Y-84300190D01*
X99643380Y-84300190D02*
X99643380Y-83800190D01*
X99595761Y-83871619D01*
X99548142Y-83919238D01*
X99500523Y-83943047D01*
X100214809Y-83966857D02*
X100214809Y-84300190D01*
X100095761Y-83776380D02*
X99976714Y-84133523D01*
X100286238Y-84133523D01*
G04 #@! TO.C,TP13*
X98444952Y-85578190D02*
X98730666Y-85578190D01*
X98587809Y-86078190D02*
X98587809Y-85578190D01*
X98897333Y-86078190D02*
X98897333Y-85578190D01*
X99087809Y-85578190D01*
X99135428Y-85602000D01*
X99159238Y-85625809D01*
X99183047Y-85673428D01*
X99183047Y-85744857D01*
X99159238Y-85792476D01*
X99135428Y-85816285D01*
X99087809Y-85840095D01*
X98897333Y-85840095D01*
X99659238Y-86078190D02*
X99373523Y-86078190D01*
X99516380Y-86078190D02*
X99516380Y-85578190D01*
X99468761Y-85649619D01*
X99421142Y-85697238D01*
X99373523Y-85721047D01*
X99825904Y-85578190D02*
X100135428Y-85578190D01*
X99968761Y-85768666D01*
X100040190Y-85768666D01*
X100087809Y-85792476D01*
X100111619Y-85816285D01*
X100135428Y-85863904D01*
X100135428Y-85982952D01*
X100111619Y-86030571D01*
X100087809Y-86054380D01*
X100040190Y-86078190D01*
X99897333Y-86078190D01*
X99849714Y-86054380D01*
X99825904Y-86030571D01*
G04 #@! TO.C,TP12*
X120923952Y-93071190D02*
X121209666Y-93071190D01*
X121066809Y-93571190D02*
X121066809Y-93071190D01*
X121376333Y-93571190D02*
X121376333Y-93071190D01*
X121566809Y-93071190D01*
X121614428Y-93095000D01*
X121638238Y-93118809D01*
X121662047Y-93166428D01*
X121662047Y-93237857D01*
X121638238Y-93285476D01*
X121614428Y-93309285D01*
X121566809Y-93333095D01*
X121376333Y-93333095D01*
X122138238Y-93571190D02*
X121852523Y-93571190D01*
X121995380Y-93571190D02*
X121995380Y-93071190D01*
X121947761Y-93142619D01*
X121900142Y-93190238D01*
X121852523Y-93214047D01*
X122328714Y-93118809D02*
X122352523Y-93095000D01*
X122400142Y-93071190D01*
X122519190Y-93071190D01*
X122566809Y-93095000D01*
X122590619Y-93118809D01*
X122614428Y-93166428D01*
X122614428Y-93214047D01*
X122590619Y-93285476D01*
X122304904Y-93571190D01*
X122614428Y-93571190D01*
G04 #@! TO.C,TP11*
X124860952Y-70922190D02*
X125146666Y-70922190D01*
X125003809Y-71422190D02*
X125003809Y-70922190D01*
X125313333Y-71422190D02*
X125313333Y-70922190D01*
X125503809Y-70922190D01*
X125551428Y-70946000D01*
X125575238Y-70969809D01*
X125599047Y-71017428D01*
X125599047Y-71088857D01*
X125575238Y-71136476D01*
X125551428Y-71160285D01*
X125503809Y-71184095D01*
X125313333Y-71184095D01*
X126075238Y-71422190D02*
X125789523Y-71422190D01*
X125932380Y-71422190D02*
X125932380Y-70922190D01*
X125884761Y-70993619D01*
X125837142Y-71041238D01*
X125789523Y-71065047D01*
X126551428Y-71422190D02*
X126265714Y-71422190D01*
X126408571Y-71422190D02*
X126408571Y-70922190D01*
X126360952Y-70993619D01*
X126313333Y-71041238D01*
X126265714Y-71065047D01*
G04 #@! TO.C,TP10*
X104413952Y-92436190D02*
X104699666Y-92436190D01*
X104556809Y-92936190D02*
X104556809Y-92436190D01*
X104866333Y-92936190D02*
X104866333Y-92436190D01*
X105056809Y-92436190D01*
X105104428Y-92460000D01*
X105128238Y-92483809D01*
X105152047Y-92531428D01*
X105152047Y-92602857D01*
X105128238Y-92650476D01*
X105104428Y-92674285D01*
X105056809Y-92698095D01*
X104866333Y-92698095D01*
X105628238Y-92936190D02*
X105342523Y-92936190D01*
X105485380Y-92936190D02*
X105485380Y-92436190D01*
X105437761Y-92507619D01*
X105390142Y-92555238D01*
X105342523Y-92579047D01*
X105937761Y-92436190D02*
X105985380Y-92436190D01*
X106033000Y-92460000D01*
X106056809Y-92483809D01*
X106080619Y-92531428D01*
X106104428Y-92626666D01*
X106104428Y-92745714D01*
X106080619Y-92840952D01*
X106056809Y-92888571D01*
X106033000Y-92912380D01*
X105985380Y-92936190D01*
X105937761Y-92936190D01*
X105890142Y-92912380D01*
X105866333Y-92888571D01*
X105842523Y-92840952D01*
X105818714Y-92745714D01*
X105818714Y-92626666D01*
X105842523Y-92531428D01*
X105866333Y-92483809D01*
X105890142Y-92460000D01*
X105937761Y-92436190D01*
G04 #@! TO.C,TP9*
X127258047Y-82479190D02*
X127543761Y-82479190D01*
X127400904Y-82979190D02*
X127400904Y-82479190D01*
X127710428Y-82979190D02*
X127710428Y-82479190D01*
X127900904Y-82479190D01*
X127948523Y-82503000D01*
X127972333Y-82526809D01*
X127996142Y-82574428D01*
X127996142Y-82645857D01*
X127972333Y-82693476D01*
X127948523Y-82717285D01*
X127900904Y-82741095D01*
X127710428Y-82741095D01*
X128234238Y-82979190D02*
X128329476Y-82979190D01*
X128377095Y-82955380D01*
X128400904Y-82931571D01*
X128448523Y-82860142D01*
X128472333Y-82764904D01*
X128472333Y-82574428D01*
X128448523Y-82526809D01*
X128424714Y-82503000D01*
X128377095Y-82479190D01*
X128281857Y-82479190D01*
X128234238Y-82503000D01*
X128210428Y-82526809D01*
X128186619Y-82574428D01*
X128186619Y-82693476D01*
X128210428Y-82741095D01*
X128234238Y-82764904D01*
X128281857Y-82788714D01*
X128377095Y-82788714D01*
X128424714Y-82764904D01*
X128448523Y-82741095D01*
X128472333Y-82693476D01*
G04 #@! TO.C,TP8*
X127258047Y-72192190D02*
X127543761Y-72192190D01*
X127400904Y-72692190D02*
X127400904Y-72192190D01*
X127710428Y-72692190D02*
X127710428Y-72192190D01*
X127900904Y-72192190D01*
X127948523Y-72216000D01*
X127972333Y-72239809D01*
X127996142Y-72287428D01*
X127996142Y-72358857D01*
X127972333Y-72406476D01*
X127948523Y-72430285D01*
X127900904Y-72454095D01*
X127710428Y-72454095D01*
X128281857Y-72406476D02*
X128234238Y-72382666D01*
X128210428Y-72358857D01*
X128186619Y-72311238D01*
X128186619Y-72287428D01*
X128210428Y-72239809D01*
X128234238Y-72216000D01*
X128281857Y-72192190D01*
X128377095Y-72192190D01*
X128424714Y-72216000D01*
X128448523Y-72239809D01*
X128472333Y-72287428D01*
X128472333Y-72311238D01*
X128448523Y-72358857D01*
X128424714Y-72382666D01*
X128377095Y-72406476D01*
X128281857Y-72406476D01*
X128234238Y-72430285D01*
X128210428Y-72454095D01*
X128186619Y-72501714D01*
X128186619Y-72596952D01*
X128210428Y-72644571D01*
X128234238Y-72668380D01*
X128281857Y-72692190D01*
X128377095Y-72692190D01*
X128424714Y-72668380D01*
X128448523Y-72644571D01*
X128472333Y-72596952D01*
X128472333Y-72501714D01*
X128448523Y-72454095D01*
X128424714Y-72430285D01*
X128377095Y-72406476D01*
G04 #@! TO.C,TP7*
X125480047Y-79812190D02*
X125765761Y-79812190D01*
X125622904Y-80312190D02*
X125622904Y-79812190D01*
X125932428Y-80312190D02*
X125932428Y-79812190D01*
X126122904Y-79812190D01*
X126170523Y-79836000D01*
X126194333Y-79859809D01*
X126218142Y-79907428D01*
X126218142Y-79978857D01*
X126194333Y-80026476D01*
X126170523Y-80050285D01*
X126122904Y-80074095D01*
X125932428Y-80074095D01*
X126384809Y-79812190D02*
X126718142Y-79812190D01*
X126503857Y-80312190D01*
G04 #@! TO.C,TP6*
X118622047Y-95865190D02*
X118907761Y-95865190D01*
X118764904Y-96365190D02*
X118764904Y-95865190D01*
X119074428Y-96365190D02*
X119074428Y-95865190D01*
X119264904Y-95865190D01*
X119312523Y-95889000D01*
X119336333Y-95912809D01*
X119360142Y-95960428D01*
X119360142Y-96031857D01*
X119336333Y-96079476D01*
X119312523Y-96103285D01*
X119264904Y-96127095D01*
X119074428Y-96127095D01*
X119788714Y-95865190D02*
X119693476Y-95865190D01*
X119645857Y-95889000D01*
X119622047Y-95912809D01*
X119574428Y-95984238D01*
X119550619Y-96079476D01*
X119550619Y-96269952D01*
X119574428Y-96317571D01*
X119598238Y-96341380D01*
X119645857Y-96365190D01*
X119741095Y-96365190D01*
X119788714Y-96341380D01*
X119812523Y-96317571D01*
X119836333Y-96269952D01*
X119836333Y-96150904D01*
X119812523Y-96103285D01*
X119788714Y-96079476D01*
X119741095Y-96055666D01*
X119645857Y-96055666D01*
X119598238Y-96079476D01*
X119574428Y-96103285D01*
X119550619Y-96150904D01*
G04 #@! TO.C,TP5*
X131195047Y-83038190D02*
X131480761Y-83038190D01*
X131337904Y-83538190D02*
X131337904Y-83038190D01*
X131647428Y-83538190D02*
X131647428Y-83038190D01*
X131837904Y-83038190D01*
X131885523Y-83062000D01*
X131909333Y-83085809D01*
X131933142Y-83133428D01*
X131933142Y-83204857D01*
X131909333Y-83252476D01*
X131885523Y-83276285D01*
X131837904Y-83300095D01*
X131647428Y-83300095D01*
X132385523Y-83038190D02*
X132147428Y-83038190D01*
X132123619Y-83276285D01*
X132147428Y-83252476D01*
X132195047Y-83228666D01*
X132314095Y-83228666D01*
X132361714Y-83252476D01*
X132385523Y-83276285D01*
X132409333Y-83323904D01*
X132409333Y-83442952D01*
X132385523Y-83490571D01*
X132361714Y-83514380D01*
X132314095Y-83538190D01*
X132195047Y-83538190D01*
X132147428Y-83514380D01*
X132123619Y-83490571D01*
G04 #@! TO.C,TP4*
X125353047Y-76129190D02*
X125638761Y-76129190D01*
X125495904Y-76629190D02*
X125495904Y-76129190D01*
X125805428Y-76629190D02*
X125805428Y-76129190D01*
X125995904Y-76129190D01*
X126043523Y-76153000D01*
X126067333Y-76176809D01*
X126091142Y-76224428D01*
X126091142Y-76295857D01*
X126067333Y-76343476D01*
X126043523Y-76367285D01*
X125995904Y-76391095D01*
X125805428Y-76391095D01*
X126519714Y-76295857D02*
X126519714Y-76629190D01*
X126400666Y-76105380D02*
X126281619Y-76462523D01*
X126591142Y-76462523D01*
G04 #@! TO.C,TP3*
X131195047Y-84892190D02*
X131480761Y-84892190D01*
X131337904Y-85392190D02*
X131337904Y-84892190D01*
X131647428Y-85392190D02*
X131647428Y-84892190D01*
X131837904Y-84892190D01*
X131885523Y-84916000D01*
X131909333Y-84939809D01*
X131933142Y-84987428D01*
X131933142Y-85058857D01*
X131909333Y-85106476D01*
X131885523Y-85130285D01*
X131837904Y-85154095D01*
X131647428Y-85154095D01*
X132099809Y-84892190D02*
X132409333Y-84892190D01*
X132242666Y-85082666D01*
X132314095Y-85082666D01*
X132361714Y-85106476D01*
X132385523Y-85130285D01*
X132409333Y-85177904D01*
X132409333Y-85296952D01*
X132385523Y-85344571D01*
X132361714Y-85368380D01*
X132314095Y-85392190D01*
X132171238Y-85392190D01*
X132123619Y-85368380D01*
X132099809Y-85344571D01*
G04 #@! TO.C,TP2*
X103001047Y-82479190D02*
X103286761Y-82479190D01*
X103143904Y-82979190D02*
X103143904Y-82479190D01*
X103453428Y-82979190D02*
X103453428Y-82479190D01*
X103643904Y-82479190D01*
X103691523Y-82503000D01*
X103715333Y-82526809D01*
X103739142Y-82574428D01*
X103739142Y-82645857D01*
X103715333Y-82693476D01*
X103691523Y-82717285D01*
X103643904Y-82741095D01*
X103453428Y-82741095D01*
X103929619Y-82526809D02*
X103953428Y-82503000D01*
X104001047Y-82479190D01*
X104120095Y-82479190D01*
X104167714Y-82503000D01*
X104191523Y-82526809D01*
X104215333Y-82574428D01*
X104215333Y-82622047D01*
X104191523Y-82693476D01*
X103905809Y-82979190D01*
X104215333Y-82979190D01*
G04 #@! TO.C,TP1*
X100969047Y-89007190D02*
X101254761Y-89007190D01*
X101111904Y-89507190D02*
X101111904Y-89007190D01*
X101421428Y-89507190D02*
X101421428Y-89007190D01*
X101611904Y-89007190D01*
X101659523Y-89031000D01*
X101683333Y-89054809D01*
X101707142Y-89102428D01*
X101707142Y-89173857D01*
X101683333Y-89221476D01*
X101659523Y-89245285D01*
X101611904Y-89269095D01*
X101421428Y-89269095D01*
X102183333Y-89507190D02*
X101897619Y-89507190D01*
X102040476Y-89507190D02*
X102040476Y-89007190D01*
X101992857Y-89078619D01*
X101945238Y-89126238D01*
X101897619Y-89150047D01*
G04 #@! TO.C,U11*
X171910452Y-81514190D02*
X171910452Y-81918952D01*
X171934261Y-81966571D01*
X171958071Y-81990380D01*
X172005690Y-82014190D01*
X172100928Y-82014190D01*
X172148547Y-81990380D01*
X172172357Y-81966571D01*
X172196166Y-81918952D01*
X172196166Y-81514190D01*
X172696166Y-82014190D02*
X172410452Y-82014190D01*
X172553309Y-82014190D02*
X172553309Y-81514190D01*
X172505690Y-81585619D01*
X172458071Y-81633238D01*
X172410452Y-81657047D01*
X173172357Y-82014190D02*
X172886642Y-82014190D01*
X173029500Y-82014190D02*
X173029500Y-81514190D01*
X172981880Y-81585619D01*
X172934261Y-81633238D01*
X172886642Y-81657047D01*
G04 #@! TO.C,U10*
X165877952Y-92690190D02*
X165877952Y-93094952D01*
X165901761Y-93142571D01*
X165925571Y-93166380D01*
X165973190Y-93190190D01*
X166068428Y-93190190D01*
X166116047Y-93166380D01*
X166139857Y-93142571D01*
X166163666Y-93094952D01*
X166163666Y-92690190D01*
X166663666Y-93190190D02*
X166377952Y-93190190D01*
X166520809Y-93190190D02*
X166520809Y-92690190D01*
X166473190Y-92761619D01*
X166425571Y-92809238D01*
X166377952Y-92833047D01*
X166973190Y-92690190D02*
X167020809Y-92690190D01*
X167068428Y-92714000D01*
X167092238Y-92737809D01*
X167116047Y-92785428D01*
X167139857Y-92880666D01*
X167139857Y-92999714D01*
X167116047Y-93094952D01*
X167092238Y-93142571D01*
X167068428Y-93166380D01*
X167020809Y-93190190D01*
X166973190Y-93190190D01*
X166925571Y-93166380D01*
X166901761Y-93142571D01*
X166877952Y-93094952D01*
X166854142Y-92999714D01*
X166854142Y-92880666D01*
X166877952Y-92785428D01*
X166901761Y-92737809D01*
X166925571Y-92714000D01*
X166973190Y-92690190D01*
G04 #@! TO.C,X1*
X136568690Y-85875761D02*
X137068690Y-85542428D01*
X136568690Y-85542428D02*
X137068690Y-85875761D01*
X137068690Y-85090047D02*
X137068690Y-85375761D01*
X137068690Y-85232904D02*
X136568690Y-85232904D01*
X136640119Y-85280523D01*
X136687738Y-85328142D01*
X136711547Y-85375761D01*
G04 #@! TO.C,U13*
X171973952Y-96754190D02*
X171973952Y-97158952D01*
X171997761Y-97206571D01*
X172021571Y-97230380D01*
X172069190Y-97254190D01*
X172164428Y-97254190D01*
X172212047Y-97230380D01*
X172235857Y-97206571D01*
X172259666Y-97158952D01*
X172259666Y-96754190D01*
X172759666Y-97254190D02*
X172473952Y-97254190D01*
X172616809Y-97254190D02*
X172616809Y-96754190D01*
X172569190Y-96825619D01*
X172521571Y-96873238D01*
X172473952Y-96897047D01*
X172926333Y-96754190D02*
X173235857Y-96754190D01*
X173069190Y-96944666D01*
X173140619Y-96944666D01*
X173188238Y-96968476D01*
X173212047Y-96992285D01*
X173235857Y-97039904D01*
X173235857Y-97158952D01*
X173212047Y-97206571D01*
X173188238Y-97230380D01*
X173140619Y-97254190D01*
X172997761Y-97254190D01*
X172950142Y-97230380D01*
X172926333Y-97206571D01*
G04 #@! TO.C,U12*
X166258952Y-107422190D02*
X166258952Y-107826952D01*
X166282761Y-107874571D01*
X166306571Y-107898380D01*
X166354190Y-107922190D01*
X166449428Y-107922190D01*
X166497047Y-107898380D01*
X166520857Y-107874571D01*
X166544666Y-107826952D01*
X166544666Y-107422190D01*
X167044666Y-107922190D02*
X166758952Y-107922190D01*
X166901809Y-107922190D02*
X166901809Y-107422190D01*
X166854190Y-107493619D01*
X166806571Y-107541238D01*
X166758952Y-107565047D01*
X167235142Y-107469809D02*
X167258952Y-107446000D01*
X167306571Y-107422190D01*
X167425619Y-107422190D01*
X167473238Y-107446000D01*
X167497047Y-107469809D01*
X167520857Y-107517428D01*
X167520857Y-107565047D01*
X167497047Y-107636476D01*
X167211333Y-107922190D01*
X167520857Y-107922190D01*
G04 #@! TO.C,U9*
X172720047Y-63861190D02*
X172720047Y-64265952D01*
X172743857Y-64313571D01*
X172767666Y-64337380D01*
X172815285Y-64361190D01*
X172910523Y-64361190D01*
X172958142Y-64337380D01*
X172981952Y-64313571D01*
X173005761Y-64265952D01*
X173005761Y-63861190D01*
X173267666Y-64361190D02*
X173362904Y-64361190D01*
X173410523Y-64337380D01*
X173434333Y-64313571D01*
X173481952Y-64242142D01*
X173505761Y-64146904D01*
X173505761Y-63956428D01*
X173481952Y-63908809D01*
X173458142Y-63885000D01*
X173410523Y-63861190D01*
X173315285Y-63861190D01*
X173267666Y-63885000D01*
X173243857Y-63908809D01*
X173220047Y-63956428D01*
X173220047Y-64075476D01*
X173243857Y-64123095D01*
X173267666Y-64146904D01*
X173315285Y-64170714D01*
X173410523Y-64170714D01*
X173458142Y-64146904D01*
X173481952Y-64123095D01*
X173505761Y-64075476D01*
G04 #@! TO.C,U8*
X169037047Y-74910190D02*
X169037047Y-75314952D01*
X169060857Y-75362571D01*
X169084666Y-75386380D01*
X169132285Y-75410190D01*
X169227523Y-75410190D01*
X169275142Y-75386380D01*
X169298952Y-75362571D01*
X169322761Y-75314952D01*
X169322761Y-74910190D01*
X169632285Y-75124476D02*
X169584666Y-75100666D01*
X169560857Y-75076857D01*
X169537047Y-75029238D01*
X169537047Y-75005428D01*
X169560857Y-74957809D01*
X169584666Y-74934000D01*
X169632285Y-74910190D01*
X169727523Y-74910190D01*
X169775142Y-74934000D01*
X169798952Y-74957809D01*
X169822761Y-75005428D01*
X169822761Y-75029238D01*
X169798952Y-75076857D01*
X169775142Y-75100666D01*
X169727523Y-75124476D01*
X169632285Y-75124476D01*
X169584666Y-75148285D01*
X169560857Y-75172095D01*
X169537047Y-75219714D01*
X169537047Y-75314952D01*
X169560857Y-75362571D01*
X169584666Y-75386380D01*
X169632285Y-75410190D01*
X169727523Y-75410190D01*
X169775142Y-75386380D01*
X169798952Y-75362571D01*
X169822761Y-75314952D01*
X169822761Y-75219714D01*
X169798952Y-75172095D01*
X169775142Y-75148285D01*
X169727523Y-75124476D01*
G04 #@! TO.C,U7*
X148082047Y-106152190D02*
X148082047Y-106556952D01*
X148105857Y-106604571D01*
X148129666Y-106628380D01*
X148177285Y-106652190D01*
X148272523Y-106652190D01*
X148320142Y-106628380D01*
X148343952Y-106604571D01*
X148367761Y-106556952D01*
X148367761Y-106152190D01*
X148558238Y-106152190D02*
X148891571Y-106152190D01*
X148677285Y-106652190D01*
G04 #@! TO.C,U6*
X148336047Y-90658190D02*
X148336047Y-91062952D01*
X148359857Y-91110571D01*
X148383666Y-91134380D01*
X148431285Y-91158190D01*
X148526523Y-91158190D01*
X148574142Y-91134380D01*
X148597952Y-91110571D01*
X148621761Y-91062952D01*
X148621761Y-90658190D01*
X149074142Y-90658190D02*
X148978904Y-90658190D01*
X148931285Y-90682000D01*
X148907476Y-90705809D01*
X148859857Y-90777238D01*
X148836047Y-90872476D01*
X148836047Y-91062952D01*
X148859857Y-91110571D01*
X148883666Y-91134380D01*
X148931285Y-91158190D01*
X149026523Y-91158190D01*
X149074142Y-91134380D01*
X149097952Y-91110571D01*
X149121761Y-91062952D01*
X149121761Y-90943904D01*
X149097952Y-90896285D01*
X149074142Y-90872476D01*
X149026523Y-90848666D01*
X148931285Y-90848666D01*
X148883666Y-90872476D01*
X148859857Y-90896285D01*
X148836047Y-90943904D01*
G04 #@! TO.C,U5*
X150241047Y-73386190D02*
X150241047Y-73790952D01*
X150264857Y-73838571D01*
X150288666Y-73862380D01*
X150336285Y-73886190D01*
X150431523Y-73886190D01*
X150479142Y-73862380D01*
X150502952Y-73838571D01*
X150526761Y-73790952D01*
X150526761Y-73386190D01*
X151002952Y-73386190D02*
X150764857Y-73386190D01*
X150741047Y-73624285D01*
X150764857Y-73600476D01*
X150812476Y-73576666D01*
X150931523Y-73576666D01*
X150979142Y-73600476D01*
X151002952Y-73624285D01*
X151026761Y-73671904D01*
X151026761Y-73790952D01*
X151002952Y-73838571D01*
X150979142Y-73862380D01*
X150931523Y-73886190D01*
X150812476Y-73886190D01*
X150764857Y-73862380D01*
X150741047Y-73838571D01*
G04 #@! TO.C,U3*
X81407047Y-112121190D02*
X81407047Y-112525952D01*
X81430857Y-112573571D01*
X81454666Y-112597380D01*
X81502285Y-112621190D01*
X81597523Y-112621190D01*
X81645142Y-112597380D01*
X81668952Y-112573571D01*
X81692761Y-112525952D01*
X81692761Y-112121190D01*
X81883238Y-112121190D02*
X82192761Y-112121190D01*
X82026095Y-112311666D01*
X82097523Y-112311666D01*
X82145142Y-112335476D01*
X82168952Y-112359285D01*
X82192761Y-112406904D01*
X82192761Y-112525952D01*
X82168952Y-112573571D01*
X82145142Y-112597380D01*
X82097523Y-112621190D01*
X81954666Y-112621190D01*
X81907047Y-112597380D01*
X81883238Y-112573571D01*
G04 #@! TO.C,U2*
X86614047Y-102977190D02*
X86614047Y-103381952D01*
X86637857Y-103429571D01*
X86661666Y-103453380D01*
X86709285Y-103477190D01*
X86804523Y-103477190D01*
X86852142Y-103453380D01*
X86875952Y-103429571D01*
X86899761Y-103381952D01*
X86899761Y-102977190D01*
X87114047Y-103024809D02*
X87137857Y-103001000D01*
X87185476Y-102977190D01*
X87304523Y-102977190D01*
X87352142Y-103001000D01*
X87375952Y-103024809D01*
X87399761Y-103072428D01*
X87399761Y-103120047D01*
X87375952Y-103191476D01*
X87090238Y-103477190D01*
X87399761Y-103477190D01*
G04 #@! TO.C,U1*
X91821047Y-89134190D02*
X91821047Y-89538952D01*
X91844857Y-89586571D01*
X91868666Y-89610380D01*
X91916285Y-89634190D01*
X92011523Y-89634190D01*
X92059142Y-89610380D01*
X92082952Y-89586571D01*
X92106761Y-89538952D01*
X92106761Y-89134190D01*
X92606761Y-89634190D02*
X92321047Y-89634190D01*
X92463904Y-89634190D02*
X92463904Y-89134190D01*
X92416285Y-89205619D01*
X92368666Y-89253238D01*
X92321047Y-89277047D01*
G04 #@! TO.C,SYNCOUT3*
X152610571Y-99516380D02*
X152682000Y-99540190D01*
X152801047Y-99540190D01*
X152848666Y-99516380D01*
X152872476Y-99492571D01*
X152896285Y-99444952D01*
X152896285Y-99397333D01*
X152872476Y-99349714D01*
X152848666Y-99325904D01*
X152801047Y-99302095D01*
X152705809Y-99278285D01*
X152658190Y-99254476D01*
X152634380Y-99230666D01*
X152610571Y-99183047D01*
X152610571Y-99135428D01*
X152634380Y-99087809D01*
X152658190Y-99064000D01*
X152705809Y-99040190D01*
X152824857Y-99040190D01*
X152896285Y-99064000D01*
X153205809Y-99302095D02*
X153205809Y-99540190D01*
X153039142Y-99040190D02*
X153205809Y-99302095D01*
X153372476Y-99040190D01*
X153539142Y-99540190D02*
X153539142Y-99040190D01*
X153824857Y-99540190D01*
X153824857Y-99040190D01*
X154348666Y-99492571D02*
X154324857Y-99516380D01*
X154253428Y-99540190D01*
X154205809Y-99540190D01*
X154134380Y-99516380D01*
X154086761Y-99468761D01*
X154062952Y-99421142D01*
X154039142Y-99325904D01*
X154039142Y-99254476D01*
X154062952Y-99159238D01*
X154086761Y-99111619D01*
X154134380Y-99064000D01*
X154205809Y-99040190D01*
X154253428Y-99040190D01*
X154324857Y-99064000D01*
X154348666Y-99087809D01*
X154658190Y-99040190D02*
X154753428Y-99040190D01*
X154801047Y-99064000D01*
X154848666Y-99111619D01*
X154872476Y-99206857D01*
X154872476Y-99373523D01*
X154848666Y-99468761D01*
X154801047Y-99516380D01*
X154753428Y-99540190D01*
X154658190Y-99540190D01*
X154610571Y-99516380D01*
X154562952Y-99468761D01*
X154539142Y-99373523D01*
X154539142Y-99206857D01*
X154562952Y-99111619D01*
X154610571Y-99064000D01*
X154658190Y-99040190D01*
X155086761Y-99040190D02*
X155086761Y-99444952D01*
X155110571Y-99492571D01*
X155134380Y-99516380D01*
X155182000Y-99540190D01*
X155277238Y-99540190D01*
X155324857Y-99516380D01*
X155348666Y-99492571D01*
X155372476Y-99444952D01*
X155372476Y-99040190D01*
X155539142Y-99040190D02*
X155824857Y-99040190D01*
X155682000Y-99540190D02*
X155682000Y-99040190D01*
X155943904Y-99040190D02*
X156253428Y-99040190D01*
X156086761Y-99230666D01*
X156158190Y-99230666D01*
X156205809Y-99254476D01*
X156229619Y-99278285D01*
X156253428Y-99325904D01*
X156253428Y-99444952D01*
X156229619Y-99492571D01*
X156205809Y-99516380D01*
X156158190Y-99540190D01*
X156015333Y-99540190D01*
X155967714Y-99516380D01*
X155943904Y-99492571D01*
G04 #@! TO.C,SYNCOUT2*
X152610571Y-83641380D02*
X152682000Y-83665190D01*
X152801047Y-83665190D01*
X152848666Y-83641380D01*
X152872476Y-83617571D01*
X152896285Y-83569952D01*
X152896285Y-83522333D01*
X152872476Y-83474714D01*
X152848666Y-83450904D01*
X152801047Y-83427095D01*
X152705809Y-83403285D01*
X152658190Y-83379476D01*
X152634380Y-83355666D01*
X152610571Y-83308047D01*
X152610571Y-83260428D01*
X152634380Y-83212809D01*
X152658190Y-83189000D01*
X152705809Y-83165190D01*
X152824857Y-83165190D01*
X152896285Y-83189000D01*
X153205809Y-83427095D02*
X153205809Y-83665190D01*
X153039142Y-83165190D02*
X153205809Y-83427095D01*
X153372476Y-83165190D01*
X153539142Y-83665190D02*
X153539142Y-83165190D01*
X153824857Y-83665190D01*
X153824857Y-83165190D01*
X154348666Y-83617571D02*
X154324857Y-83641380D01*
X154253428Y-83665190D01*
X154205809Y-83665190D01*
X154134380Y-83641380D01*
X154086761Y-83593761D01*
X154062952Y-83546142D01*
X154039142Y-83450904D01*
X154039142Y-83379476D01*
X154062952Y-83284238D01*
X154086761Y-83236619D01*
X154134380Y-83189000D01*
X154205809Y-83165190D01*
X154253428Y-83165190D01*
X154324857Y-83189000D01*
X154348666Y-83212809D01*
X154658190Y-83165190D02*
X154753428Y-83165190D01*
X154801047Y-83189000D01*
X154848666Y-83236619D01*
X154872476Y-83331857D01*
X154872476Y-83498523D01*
X154848666Y-83593761D01*
X154801047Y-83641380D01*
X154753428Y-83665190D01*
X154658190Y-83665190D01*
X154610571Y-83641380D01*
X154562952Y-83593761D01*
X154539142Y-83498523D01*
X154539142Y-83331857D01*
X154562952Y-83236619D01*
X154610571Y-83189000D01*
X154658190Y-83165190D01*
X155086761Y-83165190D02*
X155086761Y-83569952D01*
X155110571Y-83617571D01*
X155134380Y-83641380D01*
X155182000Y-83665190D01*
X155277238Y-83665190D01*
X155324857Y-83641380D01*
X155348666Y-83617571D01*
X155372476Y-83569952D01*
X155372476Y-83165190D01*
X155539142Y-83165190D02*
X155824857Y-83165190D01*
X155682000Y-83665190D02*
X155682000Y-83165190D01*
X155967714Y-83212809D02*
X155991523Y-83189000D01*
X156039142Y-83165190D01*
X156158190Y-83165190D01*
X156205809Y-83189000D01*
X156229619Y-83212809D01*
X156253428Y-83260428D01*
X156253428Y-83308047D01*
X156229619Y-83379476D01*
X155943904Y-83665190D01*
X156253428Y-83665190D01*
G04 #@! TO.C,SYNCOUT1*
X154642571Y-66496380D02*
X154714000Y-66520190D01*
X154833047Y-66520190D01*
X154880666Y-66496380D01*
X154904476Y-66472571D01*
X154928285Y-66424952D01*
X154928285Y-66377333D01*
X154904476Y-66329714D01*
X154880666Y-66305904D01*
X154833047Y-66282095D01*
X154737809Y-66258285D01*
X154690190Y-66234476D01*
X154666380Y-66210666D01*
X154642571Y-66163047D01*
X154642571Y-66115428D01*
X154666380Y-66067809D01*
X154690190Y-66044000D01*
X154737809Y-66020190D01*
X154856857Y-66020190D01*
X154928285Y-66044000D01*
X155237809Y-66282095D02*
X155237809Y-66520190D01*
X155071142Y-66020190D02*
X155237809Y-66282095D01*
X155404476Y-66020190D01*
X155571142Y-66520190D02*
X155571142Y-66020190D01*
X155856857Y-66520190D01*
X155856857Y-66020190D01*
X156380666Y-66472571D02*
X156356857Y-66496380D01*
X156285428Y-66520190D01*
X156237809Y-66520190D01*
X156166380Y-66496380D01*
X156118761Y-66448761D01*
X156094952Y-66401142D01*
X156071142Y-66305904D01*
X156071142Y-66234476D01*
X156094952Y-66139238D01*
X156118761Y-66091619D01*
X156166380Y-66044000D01*
X156237809Y-66020190D01*
X156285428Y-66020190D01*
X156356857Y-66044000D01*
X156380666Y-66067809D01*
X156690190Y-66020190D02*
X156785428Y-66020190D01*
X156833047Y-66044000D01*
X156880666Y-66091619D01*
X156904476Y-66186857D01*
X156904476Y-66353523D01*
X156880666Y-66448761D01*
X156833047Y-66496380D01*
X156785428Y-66520190D01*
X156690190Y-66520190D01*
X156642571Y-66496380D01*
X156594952Y-66448761D01*
X156571142Y-66353523D01*
X156571142Y-66186857D01*
X156594952Y-66091619D01*
X156642571Y-66044000D01*
X156690190Y-66020190D01*
X157118761Y-66020190D02*
X157118761Y-66424952D01*
X157142571Y-66472571D01*
X157166380Y-66496380D01*
X157214000Y-66520190D01*
X157309238Y-66520190D01*
X157356857Y-66496380D01*
X157380666Y-66472571D01*
X157404476Y-66424952D01*
X157404476Y-66020190D01*
X157571142Y-66020190D02*
X157856857Y-66020190D01*
X157714000Y-66520190D02*
X157714000Y-66020190D01*
X158285428Y-66520190D02*
X157999714Y-66520190D01*
X158142571Y-66520190D02*
X158142571Y-66020190D01*
X158094952Y-66091619D01*
X158047333Y-66139238D01*
X157999714Y-66163047D01*
G04 #@! TO.C,SWP1*
X112113333Y-91134380D02*
X112184761Y-91158190D01*
X112303809Y-91158190D01*
X112351428Y-91134380D01*
X112375238Y-91110571D01*
X112399047Y-91062952D01*
X112399047Y-91015333D01*
X112375238Y-90967714D01*
X112351428Y-90943904D01*
X112303809Y-90920095D01*
X112208571Y-90896285D01*
X112160952Y-90872476D01*
X112137142Y-90848666D01*
X112113333Y-90801047D01*
X112113333Y-90753428D01*
X112137142Y-90705809D01*
X112160952Y-90682000D01*
X112208571Y-90658190D01*
X112327619Y-90658190D01*
X112399047Y-90682000D01*
X112565714Y-90658190D02*
X112684761Y-91158190D01*
X112780000Y-90801047D01*
X112875238Y-91158190D01*
X112994285Y-90658190D01*
X113184761Y-91158190D02*
X113184761Y-90658190D01*
X113375238Y-90658190D01*
X113422857Y-90682000D01*
X113446666Y-90705809D01*
X113470476Y-90753428D01*
X113470476Y-90824857D01*
X113446666Y-90872476D01*
X113422857Y-90896285D01*
X113375238Y-90920095D01*
X113184761Y-90920095D01*
X113946666Y-91158190D02*
X113660952Y-91158190D01*
X113803809Y-91158190D02*
X113803809Y-90658190D01*
X113756190Y-90729619D01*
X113708571Y-90777238D01*
X113660952Y-90801047D01*
G04 #@! TO.C,SW2*
X127222333Y-91134380D02*
X127293761Y-91158190D01*
X127412809Y-91158190D01*
X127460428Y-91134380D01*
X127484238Y-91110571D01*
X127508047Y-91062952D01*
X127508047Y-91015333D01*
X127484238Y-90967714D01*
X127460428Y-90943904D01*
X127412809Y-90920095D01*
X127317571Y-90896285D01*
X127269952Y-90872476D01*
X127246142Y-90848666D01*
X127222333Y-90801047D01*
X127222333Y-90753428D01*
X127246142Y-90705809D01*
X127269952Y-90682000D01*
X127317571Y-90658190D01*
X127436619Y-90658190D01*
X127508047Y-90682000D01*
X127674714Y-90658190D02*
X127793761Y-91158190D01*
X127889000Y-90801047D01*
X127984238Y-91158190D01*
X128103285Y-90658190D01*
X128269952Y-90705809D02*
X128293761Y-90682000D01*
X128341380Y-90658190D01*
X128460428Y-90658190D01*
X128508047Y-90682000D01*
X128531857Y-90705809D01*
X128555666Y-90753428D01*
X128555666Y-90801047D01*
X128531857Y-90872476D01*
X128246142Y-91158190D01*
X128555666Y-91158190D01*
G04 #@! TO.C,SW1*
X96615333Y-74116380D02*
X96686761Y-74140190D01*
X96805809Y-74140190D01*
X96853428Y-74116380D01*
X96877238Y-74092571D01*
X96901047Y-74044952D01*
X96901047Y-73997333D01*
X96877238Y-73949714D01*
X96853428Y-73925904D01*
X96805809Y-73902095D01*
X96710571Y-73878285D01*
X96662952Y-73854476D01*
X96639142Y-73830666D01*
X96615333Y-73783047D01*
X96615333Y-73735428D01*
X96639142Y-73687809D01*
X96662952Y-73664000D01*
X96710571Y-73640190D01*
X96829619Y-73640190D01*
X96901047Y-73664000D01*
X97067714Y-73640190D02*
X97186761Y-74140190D01*
X97282000Y-73783047D01*
X97377238Y-74140190D01*
X97496285Y-73640190D01*
X97948666Y-74140190D02*
X97662952Y-74140190D01*
X97805809Y-74140190D02*
X97805809Y-73640190D01*
X97758190Y-73711619D01*
X97710571Y-73759238D01*
X97662952Y-73783047D01*
G04 #@! TO.C,SHD1*
X109597142Y-91134380D02*
X109668571Y-91158190D01*
X109787619Y-91158190D01*
X109835238Y-91134380D01*
X109859047Y-91110571D01*
X109882857Y-91062952D01*
X109882857Y-91015333D01*
X109859047Y-90967714D01*
X109835238Y-90943904D01*
X109787619Y-90920095D01*
X109692380Y-90896285D01*
X109644761Y-90872476D01*
X109620952Y-90848666D01*
X109597142Y-90801047D01*
X109597142Y-90753428D01*
X109620952Y-90705809D01*
X109644761Y-90682000D01*
X109692380Y-90658190D01*
X109811428Y-90658190D01*
X109882857Y-90682000D01*
X110097142Y-91158190D02*
X110097142Y-90658190D01*
X110097142Y-90896285D02*
X110382857Y-90896285D01*
X110382857Y-91158190D02*
X110382857Y-90658190D01*
X110620952Y-91158190D02*
X110620952Y-90658190D01*
X110740000Y-90658190D01*
X110811428Y-90682000D01*
X110859047Y-90729619D01*
X110882857Y-90777238D01*
X110906666Y-90872476D01*
X110906666Y-90943904D01*
X110882857Y-91039142D01*
X110859047Y-91086761D01*
X110811428Y-91134380D01*
X110740000Y-91158190D01*
X110620952Y-91158190D01*
X111382857Y-91158190D02*
X111097142Y-91158190D01*
X111240000Y-91158190D02*
X111240000Y-90658190D01*
X111192380Y-90729619D01*
X111144761Y-90777238D01*
X111097142Y-90801047D01*
G04 #@! TO.C,SENSOR_VP1*
X104850380Y-77203809D02*
X104874190Y-77132380D01*
X104874190Y-77013333D01*
X104850380Y-76965714D01*
X104826571Y-76941904D01*
X104778952Y-76918095D01*
X104731333Y-76918095D01*
X104683714Y-76941904D01*
X104659904Y-76965714D01*
X104636095Y-77013333D01*
X104612285Y-77108571D01*
X104588476Y-77156190D01*
X104564666Y-77180000D01*
X104517047Y-77203809D01*
X104469428Y-77203809D01*
X104421809Y-77180000D01*
X104398000Y-77156190D01*
X104374190Y-77108571D01*
X104374190Y-76989523D01*
X104398000Y-76918095D01*
X104612285Y-76703809D02*
X104612285Y-76537142D01*
X104874190Y-76465714D02*
X104874190Y-76703809D01*
X104374190Y-76703809D01*
X104374190Y-76465714D01*
X104874190Y-76251428D02*
X104374190Y-76251428D01*
X104874190Y-75965714D01*
X104374190Y-75965714D01*
X104850380Y-75751428D02*
X104874190Y-75680000D01*
X104874190Y-75560952D01*
X104850380Y-75513333D01*
X104826571Y-75489523D01*
X104778952Y-75465714D01*
X104731333Y-75465714D01*
X104683714Y-75489523D01*
X104659904Y-75513333D01*
X104636095Y-75560952D01*
X104612285Y-75656190D01*
X104588476Y-75703809D01*
X104564666Y-75727619D01*
X104517047Y-75751428D01*
X104469428Y-75751428D01*
X104421809Y-75727619D01*
X104398000Y-75703809D01*
X104374190Y-75656190D01*
X104374190Y-75537142D01*
X104398000Y-75465714D01*
X104374190Y-75156190D02*
X104374190Y-75060952D01*
X104398000Y-75013333D01*
X104445619Y-74965714D01*
X104540857Y-74941904D01*
X104707523Y-74941904D01*
X104802761Y-74965714D01*
X104850380Y-75013333D01*
X104874190Y-75060952D01*
X104874190Y-75156190D01*
X104850380Y-75203809D01*
X104802761Y-75251428D01*
X104707523Y-75275238D01*
X104540857Y-75275238D01*
X104445619Y-75251428D01*
X104398000Y-75203809D01*
X104374190Y-75156190D01*
X104874190Y-74441904D02*
X104636095Y-74608571D01*
X104874190Y-74727619D02*
X104374190Y-74727619D01*
X104374190Y-74537142D01*
X104398000Y-74489523D01*
X104421809Y-74465714D01*
X104469428Y-74441904D01*
X104540857Y-74441904D01*
X104588476Y-74465714D01*
X104612285Y-74489523D01*
X104636095Y-74537142D01*
X104636095Y-74727619D01*
X104921809Y-74346666D02*
X104921809Y-73965714D01*
X104374190Y-73918095D02*
X104874190Y-73751428D01*
X104374190Y-73584761D01*
X104874190Y-73418095D02*
X104374190Y-73418095D01*
X104374190Y-73227619D01*
X104398000Y-73180000D01*
X104421809Y-73156190D01*
X104469428Y-73132380D01*
X104540857Y-73132380D01*
X104588476Y-73156190D01*
X104612285Y-73180000D01*
X104636095Y-73227619D01*
X104636095Y-73418095D01*
X104874190Y-72656190D02*
X104874190Y-72941904D01*
X104874190Y-72799047D02*
X104374190Y-72799047D01*
X104445619Y-72846666D01*
X104493238Y-72894285D01*
X104517047Y-72941904D01*
G04 #@! TO.C,SENSOR_VN1*
X100711285Y-78942380D02*
X100782714Y-78966190D01*
X100901761Y-78966190D01*
X100949380Y-78942380D01*
X100973190Y-78918571D01*
X100997000Y-78870952D01*
X100997000Y-78823333D01*
X100973190Y-78775714D01*
X100949380Y-78751904D01*
X100901761Y-78728095D01*
X100806523Y-78704285D01*
X100758904Y-78680476D01*
X100735095Y-78656666D01*
X100711285Y-78609047D01*
X100711285Y-78561428D01*
X100735095Y-78513809D01*
X100758904Y-78490000D01*
X100806523Y-78466190D01*
X100925571Y-78466190D01*
X100997000Y-78490000D01*
X101211285Y-78704285D02*
X101377952Y-78704285D01*
X101449380Y-78966190D02*
X101211285Y-78966190D01*
X101211285Y-78466190D01*
X101449380Y-78466190D01*
X101663666Y-78966190D02*
X101663666Y-78466190D01*
X101949380Y-78966190D01*
X101949380Y-78466190D01*
X102163666Y-78942380D02*
X102235095Y-78966190D01*
X102354142Y-78966190D01*
X102401761Y-78942380D01*
X102425571Y-78918571D01*
X102449380Y-78870952D01*
X102449380Y-78823333D01*
X102425571Y-78775714D01*
X102401761Y-78751904D01*
X102354142Y-78728095D01*
X102258904Y-78704285D01*
X102211285Y-78680476D01*
X102187476Y-78656666D01*
X102163666Y-78609047D01*
X102163666Y-78561428D01*
X102187476Y-78513809D01*
X102211285Y-78490000D01*
X102258904Y-78466190D01*
X102377952Y-78466190D01*
X102449380Y-78490000D01*
X102758904Y-78466190D02*
X102854142Y-78466190D01*
X102901761Y-78490000D01*
X102949380Y-78537619D01*
X102973190Y-78632857D01*
X102973190Y-78799523D01*
X102949380Y-78894761D01*
X102901761Y-78942380D01*
X102854142Y-78966190D01*
X102758904Y-78966190D01*
X102711285Y-78942380D01*
X102663666Y-78894761D01*
X102639857Y-78799523D01*
X102639857Y-78632857D01*
X102663666Y-78537619D01*
X102711285Y-78490000D01*
X102758904Y-78466190D01*
X103473190Y-78966190D02*
X103306523Y-78728095D01*
X103187476Y-78966190D02*
X103187476Y-78466190D01*
X103377952Y-78466190D01*
X103425571Y-78490000D01*
X103449380Y-78513809D01*
X103473190Y-78561428D01*
X103473190Y-78632857D01*
X103449380Y-78680476D01*
X103425571Y-78704285D01*
X103377952Y-78728095D01*
X103187476Y-78728095D01*
X103568428Y-79013809D02*
X103949380Y-79013809D01*
X103997000Y-78466190D02*
X104163666Y-78966190D01*
X104330333Y-78466190D01*
X104497000Y-78966190D02*
X104497000Y-78466190D01*
X104782714Y-78966190D01*
X104782714Y-78466190D01*
X105282714Y-78966190D02*
X104997000Y-78966190D01*
X105139857Y-78966190D02*
X105139857Y-78466190D01*
X105092238Y-78537619D01*
X105044619Y-78585238D01*
X104997000Y-78609047D01*
G04 #@! TO.C,SDO3*
X162238642Y-105358380D02*
X162310071Y-105382190D01*
X162429119Y-105382190D01*
X162476738Y-105358380D01*
X162500547Y-105334571D01*
X162524357Y-105286952D01*
X162524357Y-105239333D01*
X162500547Y-105191714D01*
X162476738Y-105167904D01*
X162429119Y-105144095D01*
X162333880Y-105120285D01*
X162286261Y-105096476D01*
X162262452Y-105072666D01*
X162238642Y-105025047D01*
X162238642Y-104977428D01*
X162262452Y-104929809D01*
X162286261Y-104906000D01*
X162333880Y-104882190D01*
X162452928Y-104882190D01*
X162524357Y-104906000D01*
X162738642Y-105382190D02*
X162738642Y-104882190D01*
X162857690Y-104882190D01*
X162929119Y-104906000D01*
X162976738Y-104953619D01*
X163000547Y-105001238D01*
X163024357Y-105096476D01*
X163024357Y-105167904D01*
X163000547Y-105263142D01*
X162976738Y-105310761D01*
X162929119Y-105358380D01*
X162857690Y-105382190D01*
X162738642Y-105382190D01*
X163333880Y-104882190D02*
X163429119Y-104882190D01*
X163476738Y-104906000D01*
X163524357Y-104953619D01*
X163548166Y-105048857D01*
X163548166Y-105215523D01*
X163524357Y-105310761D01*
X163476738Y-105358380D01*
X163429119Y-105382190D01*
X163333880Y-105382190D01*
X163286261Y-105358380D01*
X163238642Y-105310761D01*
X163214833Y-105215523D01*
X163214833Y-105048857D01*
X163238642Y-104953619D01*
X163286261Y-104906000D01*
X163333880Y-104882190D01*
X163714833Y-104882190D02*
X164024357Y-104882190D01*
X163857690Y-105072666D01*
X163929119Y-105072666D01*
X163976738Y-105096476D01*
X164000547Y-105120285D01*
X164024357Y-105167904D01*
X164024357Y-105286952D01*
X164000547Y-105334571D01*
X163976738Y-105358380D01*
X163929119Y-105382190D01*
X163786261Y-105382190D01*
X163738642Y-105358380D01*
X163714833Y-105334571D01*
G04 #@! TO.C,SDO2*
X162048142Y-90804380D02*
X162119571Y-90828190D01*
X162238619Y-90828190D01*
X162286238Y-90804380D01*
X162310047Y-90780571D01*
X162333857Y-90732952D01*
X162333857Y-90685333D01*
X162310047Y-90637714D01*
X162286238Y-90613904D01*
X162238619Y-90590095D01*
X162143380Y-90566285D01*
X162095761Y-90542476D01*
X162071952Y-90518666D01*
X162048142Y-90471047D01*
X162048142Y-90423428D01*
X162071952Y-90375809D01*
X162095761Y-90352000D01*
X162143380Y-90328190D01*
X162262428Y-90328190D01*
X162333857Y-90352000D01*
X162548142Y-90828190D02*
X162548142Y-90328190D01*
X162667190Y-90328190D01*
X162738619Y-90352000D01*
X162786238Y-90399619D01*
X162810047Y-90447238D01*
X162833857Y-90542476D01*
X162833857Y-90613904D01*
X162810047Y-90709142D01*
X162786238Y-90756761D01*
X162738619Y-90804380D01*
X162667190Y-90828190D01*
X162548142Y-90828190D01*
X163143380Y-90328190D02*
X163238619Y-90328190D01*
X163286238Y-90352000D01*
X163333857Y-90399619D01*
X163357666Y-90494857D01*
X163357666Y-90661523D01*
X163333857Y-90756761D01*
X163286238Y-90804380D01*
X163238619Y-90828190D01*
X163143380Y-90828190D01*
X163095761Y-90804380D01*
X163048142Y-90756761D01*
X163024333Y-90661523D01*
X163024333Y-90494857D01*
X163048142Y-90399619D01*
X163095761Y-90352000D01*
X163143380Y-90328190D01*
X163548142Y-90375809D02*
X163571952Y-90352000D01*
X163619571Y-90328190D01*
X163738619Y-90328190D01*
X163786238Y-90352000D01*
X163810047Y-90375809D01*
X163833857Y-90423428D01*
X163833857Y-90471047D01*
X163810047Y-90542476D01*
X163524333Y-90828190D01*
X163833857Y-90828190D01*
G04 #@! TO.C,SDO1*
X163064142Y-70179380D02*
X163135571Y-70203190D01*
X163254619Y-70203190D01*
X163302238Y-70179380D01*
X163326047Y-70155571D01*
X163349857Y-70107952D01*
X163349857Y-70060333D01*
X163326047Y-70012714D01*
X163302238Y-69988904D01*
X163254619Y-69965095D01*
X163159380Y-69941285D01*
X163111761Y-69917476D01*
X163087952Y-69893666D01*
X163064142Y-69846047D01*
X163064142Y-69798428D01*
X163087952Y-69750809D01*
X163111761Y-69727000D01*
X163159380Y-69703190D01*
X163278428Y-69703190D01*
X163349857Y-69727000D01*
X163564142Y-70203190D02*
X163564142Y-69703190D01*
X163683190Y-69703190D01*
X163754619Y-69727000D01*
X163802238Y-69774619D01*
X163826047Y-69822238D01*
X163849857Y-69917476D01*
X163849857Y-69988904D01*
X163826047Y-70084142D01*
X163802238Y-70131761D01*
X163754619Y-70179380D01*
X163683190Y-70203190D01*
X163564142Y-70203190D01*
X164159380Y-69703190D02*
X164254619Y-69703190D01*
X164302238Y-69727000D01*
X164349857Y-69774619D01*
X164373666Y-69869857D01*
X164373666Y-70036523D01*
X164349857Y-70131761D01*
X164302238Y-70179380D01*
X164254619Y-70203190D01*
X164159380Y-70203190D01*
X164111761Y-70179380D01*
X164064142Y-70131761D01*
X164040333Y-70036523D01*
X164040333Y-69869857D01*
X164064142Y-69774619D01*
X164111761Y-69727000D01*
X164159380Y-69703190D01*
X164849857Y-70203190D02*
X164564142Y-70203190D01*
X164707000Y-70203190D02*
X164707000Y-69703190D01*
X164659380Y-69774619D01*
X164611761Y-69822238D01*
X164564142Y-69846047D01*
G04 #@! TO.C,SDI1*
X117233000Y-91134380D02*
X117304428Y-91158190D01*
X117423476Y-91158190D01*
X117471095Y-91134380D01*
X117494904Y-91110571D01*
X117518714Y-91062952D01*
X117518714Y-91015333D01*
X117494904Y-90967714D01*
X117471095Y-90943904D01*
X117423476Y-90920095D01*
X117328238Y-90896285D01*
X117280619Y-90872476D01*
X117256809Y-90848666D01*
X117233000Y-90801047D01*
X117233000Y-90753428D01*
X117256809Y-90705809D01*
X117280619Y-90682000D01*
X117328238Y-90658190D01*
X117447285Y-90658190D01*
X117518714Y-90682000D01*
X117733000Y-91158190D02*
X117733000Y-90658190D01*
X117852047Y-90658190D01*
X117923476Y-90682000D01*
X117971095Y-90729619D01*
X117994904Y-90777238D01*
X118018714Y-90872476D01*
X118018714Y-90943904D01*
X117994904Y-91039142D01*
X117971095Y-91086761D01*
X117923476Y-91134380D01*
X117852047Y-91158190D01*
X117733000Y-91158190D01*
X118233000Y-91158190D02*
X118233000Y-90658190D01*
X118733000Y-91158190D02*
X118447285Y-91158190D01*
X118590142Y-91158190D02*
X118590142Y-90658190D01*
X118542523Y-90729619D01*
X118494904Y-90777238D01*
X118447285Y-90801047D01*
G04 #@! TO.C,SCS1*
X112668952Y-96341380D02*
X112740380Y-96365190D01*
X112859428Y-96365190D01*
X112907047Y-96341380D01*
X112930857Y-96317571D01*
X112954666Y-96269952D01*
X112954666Y-96222333D01*
X112930857Y-96174714D01*
X112907047Y-96150904D01*
X112859428Y-96127095D01*
X112764190Y-96103285D01*
X112716571Y-96079476D01*
X112692761Y-96055666D01*
X112668952Y-96008047D01*
X112668952Y-95960428D01*
X112692761Y-95912809D01*
X112716571Y-95889000D01*
X112764190Y-95865190D01*
X112883238Y-95865190D01*
X112954666Y-95889000D01*
X113454666Y-96317571D02*
X113430857Y-96341380D01*
X113359428Y-96365190D01*
X113311809Y-96365190D01*
X113240380Y-96341380D01*
X113192761Y-96293761D01*
X113168952Y-96246142D01*
X113145142Y-96150904D01*
X113145142Y-96079476D01*
X113168952Y-95984238D01*
X113192761Y-95936619D01*
X113240380Y-95889000D01*
X113311809Y-95865190D01*
X113359428Y-95865190D01*
X113430857Y-95889000D01*
X113454666Y-95912809D01*
X113645142Y-96341380D02*
X113716571Y-96365190D01*
X113835619Y-96365190D01*
X113883238Y-96341380D01*
X113907047Y-96317571D01*
X113930857Y-96269952D01*
X113930857Y-96222333D01*
X113907047Y-96174714D01*
X113883238Y-96150904D01*
X113835619Y-96127095D01*
X113740380Y-96103285D01*
X113692761Y-96079476D01*
X113668952Y-96055666D01*
X113645142Y-96008047D01*
X113645142Y-95960428D01*
X113668952Y-95912809D01*
X113692761Y-95889000D01*
X113740380Y-95865190D01*
X113859428Y-95865190D01*
X113930857Y-95889000D01*
X114407047Y-96365190D02*
X114121333Y-96365190D01*
X114264190Y-96365190D02*
X114264190Y-95865190D01*
X114216571Y-95936619D01*
X114168952Y-95984238D01*
X114121333Y-96008047D01*
G04 #@! TO.C,SCK1*
X114689047Y-91134380D02*
X114760476Y-91158190D01*
X114879523Y-91158190D01*
X114927142Y-91134380D01*
X114950952Y-91110571D01*
X114974761Y-91062952D01*
X114974761Y-91015333D01*
X114950952Y-90967714D01*
X114927142Y-90943904D01*
X114879523Y-90920095D01*
X114784285Y-90896285D01*
X114736666Y-90872476D01*
X114712857Y-90848666D01*
X114689047Y-90801047D01*
X114689047Y-90753428D01*
X114712857Y-90705809D01*
X114736666Y-90682000D01*
X114784285Y-90658190D01*
X114903333Y-90658190D01*
X114974761Y-90682000D01*
X115474761Y-91110571D02*
X115450952Y-91134380D01*
X115379523Y-91158190D01*
X115331904Y-91158190D01*
X115260476Y-91134380D01*
X115212857Y-91086761D01*
X115189047Y-91039142D01*
X115165238Y-90943904D01*
X115165238Y-90872476D01*
X115189047Y-90777238D01*
X115212857Y-90729619D01*
X115260476Y-90682000D01*
X115331904Y-90658190D01*
X115379523Y-90658190D01*
X115450952Y-90682000D01*
X115474761Y-90705809D01*
X115689047Y-91158190D02*
X115689047Y-90658190D01*
X115974761Y-91158190D02*
X115760476Y-90872476D01*
X115974761Y-90658190D02*
X115689047Y-90943904D01*
X116450952Y-91158190D02*
X116165238Y-91158190D01*
X116308095Y-91158190D02*
X116308095Y-90658190D01*
X116260476Y-90729619D01*
X116212857Y-90777238D01*
X116165238Y-90801047D01*
G04 #@! TO.C,R26*
X169769671Y-103731190D02*
X169603004Y-103493095D01*
X169483957Y-103731190D02*
X169483957Y-103231190D01*
X169674433Y-103231190D01*
X169722052Y-103255000D01*
X169745861Y-103278809D01*
X169769671Y-103326428D01*
X169769671Y-103397857D01*
X169745861Y-103445476D01*
X169722052Y-103469285D01*
X169674433Y-103493095D01*
X169483957Y-103493095D01*
X169960147Y-103278809D02*
X169983957Y-103255000D01*
X170031576Y-103231190D01*
X170150623Y-103231190D01*
X170198242Y-103255000D01*
X170222052Y-103278809D01*
X170245861Y-103326428D01*
X170245861Y-103374047D01*
X170222052Y-103445476D01*
X169936338Y-103731190D01*
X170245861Y-103731190D01*
X170674433Y-103231190D02*
X170579195Y-103231190D01*
X170531576Y-103255000D01*
X170507766Y-103278809D01*
X170460147Y-103350238D01*
X170436338Y-103445476D01*
X170436338Y-103635952D01*
X170460147Y-103683571D01*
X170483957Y-103707380D01*
X170531576Y-103731190D01*
X170626814Y-103731190D01*
X170674433Y-103707380D01*
X170698242Y-103683571D01*
X170722052Y-103635952D01*
X170722052Y-103516904D01*
X170698242Y-103469285D01*
X170674433Y-103445476D01*
X170626814Y-103421666D01*
X170531576Y-103421666D01*
X170483957Y-103445476D01*
X170460147Y-103469285D01*
X170436338Y-103516904D01*
G04 #@! TO.C,R23*
X169858571Y-89888190D02*
X169691904Y-89650095D01*
X169572857Y-89888190D02*
X169572857Y-89388190D01*
X169763333Y-89388190D01*
X169810952Y-89412000D01*
X169834761Y-89435809D01*
X169858571Y-89483428D01*
X169858571Y-89554857D01*
X169834761Y-89602476D01*
X169810952Y-89626285D01*
X169763333Y-89650095D01*
X169572857Y-89650095D01*
X170049047Y-89435809D02*
X170072857Y-89412000D01*
X170120476Y-89388190D01*
X170239523Y-89388190D01*
X170287142Y-89412000D01*
X170310952Y-89435809D01*
X170334761Y-89483428D01*
X170334761Y-89531047D01*
X170310952Y-89602476D01*
X170025238Y-89888190D01*
X170334761Y-89888190D01*
X170501428Y-89388190D02*
X170810952Y-89388190D01*
X170644285Y-89578666D01*
X170715714Y-89578666D01*
X170763333Y-89602476D01*
X170787142Y-89626285D01*
X170810952Y-89673904D01*
X170810952Y-89792952D01*
X170787142Y-89840571D01*
X170763333Y-89864380D01*
X170715714Y-89888190D01*
X170572857Y-89888190D01*
X170525238Y-89864380D01*
X170501428Y-89840571D01*
G04 #@! TO.C,R20*
X171636571Y-71219190D02*
X171469904Y-70981095D01*
X171350857Y-71219190D02*
X171350857Y-70719190D01*
X171541333Y-70719190D01*
X171588952Y-70743000D01*
X171612761Y-70766809D01*
X171636571Y-70814428D01*
X171636571Y-70885857D01*
X171612761Y-70933476D01*
X171588952Y-70957285D01*
X171541333Y-70981095D01*
X171350857Y-70981095D01*
X171827047Y-70766809D02*
X171850857Y-70743000D01*
X171898476Y-70719190D01*
X172017523Y-70719190D01*
X172065142Y-70743000D01*
X172088952Y-70766809D01*
X172112761Y-70814428D01*
X172112761Y-70862047D01*
X172088952Y-70933476D01*
X171803238Y-71219190D01*
X172112761Y-71219190D01*
X172422285Y-70719190D02*
X172469904Y-70719190D01*
X172517523Y-70743000D01*
X172541333Y-70766809D01*
X172565142Y-70814428D01*
X172588952Y-70909666D01*
X172588952Y-71028714D01*
X172565142Y-71123952D01*
X172541333Y-71171571D01*
X172517523Y-71195380D01*
X172469904Y-71219190D01*
X172422285Y-71219190D01*
X172374666Y-71195380D01*
X172350857Y-71171571D01*
X172327047Y-71123952D01*
X172303238Y-71028714D01*
X172303238Y-70909666D01*
X172327047Y-70814428D01*
X172350857Y-70766809D01*
X172374666Y-70743000D01*
X172422285Y-70719190D01*
G04 #@! TO.C,R5*
X100500666Y-108938190D02*
X100334000Y-108700095D01*
X100214952Y-108938190D02*
X100214952Y-108438190D01*
X100405428Y-108438190D01*
X100453047Y-108462000D01*
X100476857Y-108485809D01*
X100500666Y-108533428D01*
X100500666Y-108604857D01*
X100476857Y-108652476D01*
X100453047Y-108676285D01*
X100405428Y-108700095D01*
X100214952Y-108700095D01*
X100953047Y-108438190D02*
X100714952Y-108438190D01*
X100691142Y-108676285D01*
X100714952Y-108652476D01*
X100762571Y-108628666D01*
X100881619Y-108628666D01*
X100929238Y-108652476D01*
X100953047Y-108676285D01*
X100976857Y-108723904D01*
X100976857Y-108842952D01*
X100953047Y-108890571D01*
X100929238Y-108914380D01*
X100881619Y-108938190D01*
X100762571Y-108938190D01*
X100714952Y-108914380D01*
X100691142Y-108890571D01*
G04 #@! TO.C,R4*
X100627666Y-72997190D02*
X100461000Y-72759095D01*
X100341952Y-72997190D02*
X100341952Y-72497190D01*
X100532428Y-72497190D01*
X100580047Y-72521000D01*
X100603857Y-72544809D01*
X100627666Y-72592428D01*
X100627666Y-72663857D01*
X100603857Y-72711476D01*
X100580047Y-72735285D01*
X100532428Y-72759095D01*
X100341952Y-72759095D01*
X101056238Y-72663857D02*
X101056238Y-72997190D01*
X100937190Y-72473380D02*
X100818142Y-72830523D01*
X101127666Y-72830523D01*
G04 #@! TO.C,MSBOUT3*
X149649857Y-97381190D02*
X149649857Y-96881190D01*
X149816523Y-97238333D01*
X149983190Y-96881190D01*
X149983190Y-97381190D01*
X150197476Y-97357380D02*
X150268904Y-97381190D01*
X150387952Y-97381190D01*
X150435571Y-97357380D01*
X150459380Y-97333571D01*
X150483190Y-97285952D01*
X150483190Y-97238333D01*
X150459380Y-97190714D01*
X150435571Y-97166904D01*
X150387952Y-97143095D01*
X150292714Y-97119285D01*
X150245095Y-97095476D01*
X150221285Y-97071666D01*
X150197476Y-97024047D01*
X150197476Y-96976428D01*
X150221285Y-96928809D01*
X150245095Y-96905000D01*
X150292714Y-96881190D01*
X150411761Y-96881190D01*
X150483190Y-96905000D01*
X150864142Y-97119285D02*
X150935571Y-97143095D01*
X150959380Y-97166904D01*
X150983190Y-97214523D01*
X150983190Y-97285952D01*
X150959380Y-97333571D01*
X150935571Y-97357380D01*
X150887952Y-97381190D01*
X150697476Y-97381190D01*
X150697476Y-96881190D01*
X150864142Y-96881190D01*
X150911761Y-96905000D01*
X150935571Y-96928809D01*
X150959380Y-96976428D01*
X150959380Y-97024047D01*
X150935571Y-97071666D01*
X150911761Y-97095476D01*
X150864142Y-97119285D01*
X150697476Y-97119285D01*
X151292714Y-96881190D02*
X151387952Y-96881190D01*
X151435571Y-96905000D01*
X151483190Y-96952619D01*
X151507000Y-97047857D01*
X151507000Y-97214523D01*
X151483190Y-97309761D01*
X151435571Y-97357380D01*
X151387952Y-97381190D01*
X151292714Y-97381190D01*
X151245095Y-97357380D01*
X151197476Y-97309761D01*
X151173666Y-97214523D01*
X151173666Y-97047857D01*
X151197476Y-96952619D01*
X151245095Y-96905000D01*
X151292714Y-96881190D01*
X151721285Y-96881190D02*
X151721285Y-97285952D01*
X151745095Y-97333571D01*
X151768904Y-97357380D01*
X151816523Y-97381190D01*
X151911761Y-97381190D01*
X151959380Y-97357380D01*
X151983190Y-97333571D01*
X152007000Y-97285952D01*
X152007000Y-96881190D01*
X152173666Y-96881190D02*
X152459380Y-96881190D01*
X152316523Y-97381190D02*
X152316523Y-96881190D01*
X152578428Y-96881190D02*
X152887952Y-96881190D01*
X152721285Y-97071666D01*
X152792714Y-97071666D01*
X152840333Y-97095476D01*
X152864142Y-97119285D01*
X152887952Y-97166904D01*
X152887952Y-97285952D01*
X152864142Y-97333571D01*
X152840333Y-97357380D01*
X152792714Y-97381190D01*
X152649857Y-97381190D01*
X152602238Y-97357380D01*
X152578428Y-97333571D01*
G04 #@! TO.C,MSBOUT2*
X149649857Y-81887190D02*
X149649857Y-81387190D01*
X149816523Y-81744333D01*
X149983190Y-81387190D01*
X149983190Y-81887190D01*
X150197476Y-81863380D02*
X150268904Y-81887190D01*
X150387952Y-81887190D01*
X150435571Y-81863380D01*
X150459380Y-81839571D01*
X150483190Y-81791952D01*
X150483190Y-81744333D01*
X150459380Y-81696714D01*
X150435571Y-81672904D01*
X150387952Y-81649095D01*
X150292714Y-81625285D01*
X150245095Y-81601476D01*
X150221285Y-81577666D01*
X150197476Y-81530047D01*
X150197476Y-81482428D01*
X150221285Y-81434809D01*
X150245095Y-81411000D01*
X150292714Y-81387190D01*
X150411761Y-81387190D01*
X150483190Y-81411000D01*
X150864142Y-81625285D02*
X150935571Y-81649095D01*
X150959380Y-81672904D01*
X150983190Y-81720523D01*
X150983190Y-81791952D01*
X150959380Y-81839571D01*
X150935571Y-81863380D01*
X150887952Y-81887190D01*
X150697476Y-81887190D01*
X150697476Y-81387190D01*
X150864142Y-81387190D01*
X150911761Y-81411000D01*
X150935571Y-81434809D01*
X150959380Y-81482428D01*
X150959380Y-81530047D01*
X150935571Y-81577666D01*
X150911761Y-81601476D01*
X150864142Y-81625285D01*
X150697476Y-81625285D01*
X151292714Y-81387190D02*
X151387952Y-81387190D01*
X151435571Y-81411000D01*
X151483190Y-81458619D01*
X151507000Y-81553857D01*
X151507000Y-81720523D01*
X151483190Y-81815761D01*
X151435571Y-81863380D01*
X151387952Y-81887190D01*
X151292714Y-81887190D01*
X151245095Y-81863380D01*
X151197476Y-81815761D01*
X151173666Y-81720523D01*
X151173666Y-81553857D01*
X151197476Y-81458619D01*
X151245095Y-81411000D01*
X151292714Y-81387190D01*
X151721285Y-81387190D02*
X151721285Y-81791952D01*
X151745095Y-81839571D01*
X151768904Y-81863380D01*
X151816523Y-81887190D01*
X151911761Y-81887190D01*
X151959380Y-81863380D01*
X151983190Y-81839571D01*
X152007000Y-81791952D01*
X152007000Y-81387190D01*
X152173666Y-81387190D02*
X152459380Y-81387190D01*
X152316523Y-81887190D02*
X152316523Y-81387190D01*
X152602238Y-81434809D02*
X152626047Y-81411000D01*
X152673666Y-81387190D01*
X152792714Y-81387190D01*
X152840333Y-81411000D01*
X152864142Y-81434809D01*
X152887952Y-81482428D01*
X152887952Y-81530047D01*
X152864142Y-81601476D01*
X152578428Y-81887190D01*
X152887952Y-81887190D01*
G04 #@! TO.C,MSBOUT1*
X151808857Y-65123190D02*
X151808857Y-64623190D01*
X151975523Y-64980333D01*
X152142190Y-64623190D01*
X152142190Y-65123190D01*
X152356476Y-65099380D02*
X152427904Y-65123190D01*
X152546952Y-65123190D01*
X152594571Y-65099380D01*
X152618380Y-65075571D01*
X152642190Y-65027952D01*
X152642190Y-64980333D01*
X152618380Y-64932714D01*
X152594571Y-64908904D01*
X152546952Y-64885095D01*
X152451714Y-64861285D01*
X152404095Y-64837476D01*
X152380285Y-64813666D01*
X152356476Y-64766047D01*
X152356476Y-64718428D01*
X152380285Y-64670809D01*
X152404095Y-64647000D01*
X152451714Y-64623190D01*
X152570761Y-64623190D01*
X152642190Y-64647000D01*
X153023142Y-64861285D02*
X153094571Y-64885095D01*
X153118380Y-64908904D01*
X153142190Y-64956523D01*
X153142190Y-65027952D01*
X153118380Y-65075571D01*
X153094571Y-65099380D01*
X153046952Y-65123190D01*
X152856476Y-65123190D01*
X152856476Y-64623190D01*
X153023142Y-64623190D01*
X153070761Y-64647000D01*
X153094571Y-64670809D01*
X153118380Y-64718428D01*
X153118380Y-64766047D01*
X153094571Y-64813666D01*
X153070761Y-64837476D01*
X153023142Y-64861285D01*
X152856476Y-64861285D01*
X153451714Y-64623190D02*
X153546952Y-64623190D01*
X153594571Y-64647000D01*
X153642190Y-64694619D01*
X153666000Y-64789857D01*
X153666000Y-64956523D01*
X153642190Y-65051761D01*
X153594571Y-65099380D01*
X153546952Y-65123190D01*
X153451714Y-65123190D01*
X153404095Y-65099380D01*
X153356476Y-65051761D01*
X153332666Y-64956523D01*
X153332666Y-64789857D01*
X153356476Y-64694619D01*
X153404095Y-64647000D01*
X153451714Y-64623190D01*
X153880285Y-64623190D02*
X153880285Y-65027952D01*
X153904095Y-65075571D01*
X153927904Y-65099380D01*
X153975523Y-65123190D01*
X154070761Y-65123190D01*
X154118380Y-65099380D01*
X154142190Y-65075571D01*
X154166000Y-65027952D01*
X154166000Y-64623190D01*
X154332666Y-64623190D02*
X154618380Y-64623190D01*
X154475523Y-65123190D02*
X154475523Y-64623190D01*
X155046952Y-65123190D02*
X154761238Y-65123190D01*
X154904095Y-65123190D02*
X154904095Y-64623190D01*
X154856476Y-64694619D01*
X154808857Y-64742238D01*
X154761238Y-64766047D01*
G04 #@! TO.C,IO35*
X98854190Y-80621095D02*
X98354190Y-80621095D01*
X98354190Y-80287761D02*
X98354190Y-80192523D01*
X98378000Y-80144904D01*
X98425619Y-80097285D01*
X98520857Y-80073476D01*
X98687523Y-80073476D01*
X98782761Y-80097285D01*
X98830380Y-80144904D01*
X98854190Y-80192523D01*
X98854190Y-80287761D01*
X98830380Y-80335380D01*
X98782761Y-80383000D01*
X98687523Y-80406809D01*
X98520857Y-80406809D01*
X98425619Y-80383000D01*
X98378000Y-80335380D01*
X98354190Y-80287761D01*
X98354190Y-79906809D02*
X98354190Y-79597285D01*
X98544666Y-79763952D01*
X98544666Y-79692523D01*
X98568476Y-79644904D01*
X98592285Y-79621095D01*
X98639904Y-79597285D01*
X98758952Y-79597285D01*
X98806571Y-79621095D01*
X98830380Y-79644904D01*
X98854190Y-79692523D01*
X98854190Y-79835380D01*
X98830380Y-79883000D01*
X98806571Y-79906809D01*
X98354190Y-79144904D02*
X98354190Y-79383000D01*
X98592285Y-79406809D01*
X98568476Y-79383000D01*
X98544666Y-79335380D01*
X98544666Y-79216333D01*
X98568476Y-79168714D01*
X98592285Y-79144904D01*
X98639904Y-79121095D01*
X98758952Y-79121095D01*
X98806571Y-79144904D01*
X98830380Y-79168714D01*
X98854190Y-79216333D01*
X98854190Y-79335380D01*
X98830380Y-79383000D01*
X98806571Y-79406809D01*
G04 #@! TO.C,L1*
X76934190Y-95841333D02*
X76934190Y-96079428D01*
X76434190Y-96079428D01*
X76934190Y-95412761D02*
X76934190Y-95698476D01*
X76934190Y-95555619D02*
X76434190Y-95555619D01*
X76505619Y-95603238D01*
X76553238Y-95650857D01*
X76577047Y-95698476D01*
G04 #@! TO.C,J6*
X184257190Y-104179666D02*
X184614333Y-104179666D01*
X184685761Y-104203476D01*
X184733380Y-104251095D01*
X184757190Y-104322523D01*
X184757190Y-104370142D01*
X184257190Y-103727285D02*
X184257190Y-103822523D01*
X184281000Y-103870142D01*
X184304809Y-103893952D01*
X184376238Y-103941571D01*
X184471476Y-103965380D01*
X184661952Y-103965380D01*
X184709571Y-103941571D01*
X184733380Y-103917761D01*
X184757190Y-103870142D01*
X184757190Y-103774904D01*
X184733380Y-103727285D01*
X184709571Y-103703476D01*
X184661952Y-103679666D01*
X184542904Y-103679666D01*
X184495285Y-103703476D01*
X184471476Y-103727285D01*
X184447666Y-103774904D01*
X184447666Y-103870142D01*
X184471476Y-103917761D01*
X184495285Y-103941571D01*
X184542904Y-103965380D01*
G04 #@! TO.C,J5*
X184701690Y-88558666D02*
X185058833Y-88558666D01*
X185130261Y-88582476D01*
X185177880Y-88630095D01*
X185201690Y-88701523D01*
X185201690Y-88749142D01*
X184701690Y-88082476D02*
X184701690Y-88320571D01*
X184939785Y-88344380D01*
X184915976Y-88320571D01*
X184892166Y-88272952D01*
X184892166Y-88153904D01*
X184915976Y-88106285D01*
X184939785Y-88082476D01*
X184987404Y-88058666D01*
X185106452Y-88058666D01*
X185154071Y-88082476D01*
X185177880Y-88106285D01*
X185201690Y-88153904D01*
X185201690Y-88272952D01*
X185177880Y-88320571D01*
X185154071Y-88344380D01*
G04 #@! TO.C,J4*
X186416190Y-71540666D02*
X186773333Y-71540666D01*
X186844761Y-71564476D01*
X186892380Y-71612095D01*
X186916190Y-71683523D01*
X186916190Y-71731142D01*
X186582857Y-71088285D02*
X186916190Y-71088285D01*
X186392380Y-71207333D02*
X186749523Y-71326380D01*
X186749523Y-71016857D01*
G04 #@! TO.C,J3*
X135342333Y-70973190D02*
X135342333Y-71330333D01*
X135318523Y-71401761D01*
X135270904Y-71449380D01*
X135199476Y-71473190D01*
X135151857Y-71473190D01*
X135532809Y-70973190D02*
X135842333Y-70973190D01*
X135675666Y-71163666D01*
X135747095Y-71163666D01*
X135794714Y-71187476D01*
X135818523Y-71211285D01*
X135842333Y-71258904D01*
X135842333Y-71377952D01*
X135818523Y-71425571D01*
X135794714Y-71449380D01*
X135747095Y-71473190D01*
X135604238Y-71473190D01*
X135556619Y-71449380D01*
X135532809Y-71425571D01*
G04 #@! TO.C,J2*
X76942190Y-88304666D02*
X77299333Y-88304666D01*
X77370761Y-88328476D01*
X77418380Y-88376095D01*
X77442190Y-88447523D01*
X77442190Y-88495142D01*
X76989809Y-88090380D02*
X76966000Y-88066571D01*
X76942190Y-88018952D01*
X76942190Y-87899904D01*
X76966000Y-87852285D01*
X76989809Y-87828476D01*
X77037428Y-87804666D01*
X77085047Y-87804666D01*
X77156476Y-87828476D01*
X77442190Y-88114190D01*
X77442190Y-87804666D01*
G04 #@! TO.C,IO34*
X96060190Y-80621095D02*
X95560190Y-80621095D01*
X95560190Y-80287761D02*
X95560190Y-80192523D01*
X95584000Y-80144904D01*
X95631619Y-80097285D01*
X95726857Y-80073476D01*
X95893523Y-80073476D01*
X95988761Y-80097285D01*
X96036380Y-80144904D01*
X96060190Y-80192523D01*
X96060190Y-80287761D01*
X96036380Y-80335380D01*
X95988761Y-80383000D01*
X95893523Y-80406809D01*
X95726857Y-80406809D01*
X95631619Y-80383000D01*
X95584000Y-80335380D01*
X95560190Y-80287761D01*
X95560190Y-79906809D02*
X95560190Y-79597285D01*
X95750666Y-79763952D01*
X95750666Y-79692523D01*
X95774476Y-79644904D01*
X95798285Y-79621095D01*
X95845904Y-79597285D01*
X95964952Y-79597285D01*
X96012571Y-79621095D01*
X96036380Y-79644904D01*
X96060190Y-79692523D01*
X96060190Y-79835380D01*
X96036380Y-79883000D01*
X96012571Y-79906809D01*
X95726857Y-79168714D02*
X96060190Y-79168714D01*
X95536380Y-79287761D02*
X95893523Y-79406809D01*
X95893523Y-79097285D01*
G04 #@! TO.C,IO32*
X102461190Y-81002095D02*
X101961190Y-81002095D01*
X101961190Y-80668761D02*
X101961190Y-80573523D01*
X101985000Y-80525904D01*
X102032619Y-80478285D01*
X102127857Y-80454476D01*
X102294523Y-80454476D01*
X102389761Y-80478285D01*
X102437380Y-80525904D01*
X102461190Y-80573523D01*
X102461190Y-80668761D01*
X102437380Y-80716380D01*
X102389761Y-80764000D01*
X102294523Y-80787809D01*
X102127857Y-80787809D01*
X102032619Y-80764000D01*
X101985000Y-80716380D01*
X101961190Y-80668761D01*
X101961190Y-80287809D02*
X101961190Y-79978285D01*
X102151666Y-80144952D01*
X102151666Y-80073523D01*
X102175476Y-80025904D01*
X102199285Y-80002095D01*
X102246904Y-79978285D01*
X102365952Y-79978285D01*
X102413571Y-80002095D01*
X102437380Y-80025904D01*
X102461190Y-80073523D01*
X102461190Y-80216380D01*
X102437380Y-80264000D01*
X102413571Y-80287809D01*
X102008809Y-79787809D02*
X101985000Y-79764000D01*
X101961190Y-79716380D01*
X101961190Y-79597333D01*
X101985000Y-79549714D01*
X102008809Y-79525904D01*
X102056428Y-79502095D01*
X102104047Y-79502095D01*
X102175476Y-79525904D01*
X102461190Y-79811619D01*
X102461190Y-79502095D01*
G04 #@! TO.C,C56*
X174676571Y-110430428D02*
X174700380Y-110454238D01*
X174724190Y-110525666D01*
X174724190Y-110573285D01*
X174700380Y-110644714D01*
X174652761Y-110692333D01*
X174605142Y-110716142D01*
X174509904Y-110739952D01*
X174438476Y-110739952D01*
X174343238Y-110716142D01*
X174295619Y-110692333D01*
X174248000Y-110644714D01*
X174224190Y-110573285D01*
X174224190Y-110525666D01*
X174248000Y-110454238D01*
X174271809Y-110430428D01*
X174224190Y-109978047D02*
X174224190Y-110216142D01*
X174462285Y-110239952D01*
X174438476Y-110216142D01*
X174414666Y-110168523D01*
X174414666Y-110049476D01*
X174438476Y-110001857D01*
X174462285Y-109978047D01*
X174509904Y-109954238D01*
X174628952Y-109954238D01*
X174676571Y-109978047D01*
X174700380Y-110001857D01*
X174724190Y-110049476D01*
X174724190Y-110168523D01*
X174700380Y-110216142D01*
X174676571Y-110239952D01*
X174224190Y-109525666D02*
X174224190Y-109620904D01*
X174248000Y-109668523D01*
X174271809Y-109692333D01*
X174343238Y-109739952D01*
X174438476Y-109763761D01*
X174628952Y-109763761D01*
X174676571Y-109739952D01*
X174700380Y-109716142D01*
X174724190Y-109668523D01*
X174724190Y-109573285D01*
X174700380Y-109525666D01*
X174676571Y-109501857D01*
X174628952Y-109478047D01*
X174509904Y-109478047D01*
X174462285Y-109501857D01*
X174438476Y-109525666D01*
X174414666Y-109573285D01*
X174414666Y-109668523D01*
X174438476Y-109716142D01*
X174462285Y-109739952D01*
X174509904Y-109763761D01*
G04 #@! TO.C,C55*
X176327571Y-110493928D02*
X176351380Y-110517738D01*
X176375190Y-110589166D01*
X176375190Y-110636785D01*
X176351380Y-110708214D01*
X176303761Y-110755833D01*
X176256142Y-110779642D01*
X176160904Y-110803452D01*
X176089476Y-110803452D01*
X175994238Y-110779642D01*
X175946619Y-110755833D01*
X175899000Y-110708214D01*
X175875190Y-110636785D01*
X175875190Y-110589166D01*
X175899000Y-110517738D01*
X175922809Y-110493928D01*
X175875190Y-110041547D02*
X175875190Y-110279642D01*
X176113285Y-110303452D01*
X176089476Y-110279642D01*
X176065666Y-110232023D01*
X176065666Y-110112976D01*
X176089476Y-110065357D01*
X176113285Y-110041547D01*
X176160904Y-110017738D01*
X176279952Y-110017738D01*
X176327571Y-110041547D01*
X176351380Y-110065357D01*
X176375190Y-110112976D01*
X176375190Y-110232023D01*
X176351380Y-110279642D01*
X176327571Y-110303452D01*
X175875190Y-109565357D02*
X175875190Y-109803452D01*
X176113285Y-109827261D01*
X176089476Y-109803452D01*
X176065666Y-109755833D01*
X176065666Y-109636785D01*
X176089476Y-109589166D01*
X176113285Y-109565357D01*
X176160904Y-109541547D01*
X176279952Y-109541547D01*
X176327571Y-109565357D01*
X176351380Y-109589166D01*
X176375190Y-109636785D01*
X176375190Y-109755833D01*
X176351380Y-109803452D01*
X176327571Y-109827261D01*
G04 #@! TO.C,C54*
X164016571Y-100445071D02*
X163992761Y-100468880D01*
X163921333Y-100492690D01*
X163873714Y-100492690D01*
X163802285Y-100468880D01*
X163754666Y-100421261D01*
X163730857Y-100373642D01*
X163707047Y-100278404D01*
X163707047Y-100206976D01*
X163730857Y-100111738D01*
X163754666Y-100064119D01*
X163802285Y-100016500D01*
X163873714Y-99992690D01*
X163921333Y-99992690D01*
X163992761Y-100016500D01*
X164016571Y-100040309D01*
X164468952Y-99992690D02*
X164230857Y-99992690D01*
X164207047Y-100230785D01*
X164230857Y-100206976D01*
X164278476Y-100183166D01*
X164397523Y-100183166D01*
X164445142Y-100206976D01*
X164468952Y-100230785D01*
X164492761Y-100278404D01*
X164492761Y-100397452D01*
X164468952Y-100445071D01*
X164445142Y-100468880D01*
X164397523Y-100492690D01*
X164278476Y-100492690D01*
X164230857Y-100468880D01*
X164207047Y-100445071D01*
X164921333Y-100159357D02*
X164921333Y-100492690D01*
X164802285Y-99968880D02*
X164683238Y-100326023D01*
X164992761Y-100326023D01*
G04 #@! TO.C,C53*
X173160571Y-105461571D02*
X173136761Y-105485380D01*
X173065333Y-105509190D01*
X173017714Y-105509190D01*
X172946285Y-105485380D01*
X172898666Y-105437761D01*
X172874857Y-105390142D01*
X172851047Y-105294904D01*
X172851047Y-105223476D01*
X172874857Y-105128238D01*
X172898666Y-105080619D01*
X172946285Y-105033000D01*
X173017714Y-105009190D01*
X173065333Y-105009190D01*
X173136761Y-105033000D01*
X173160571Y-105056809D01*
X173612952Y-105009190D02*
X173374857Y-105009190D01*
X173351047Y-105247285D01*
X173374857Y-105223476D01*
X173422476Y-105199666D01*
X173541523Y-105199666D01*
X173589142Y-105223476D01*
X173612952Y-105247285D01*
X173636761Y-105294904D01*
X173636761Y-105413952D01*
X173612952Y-105461571D01*
X173589142Y-105485380D01*
X173541523Y-105509190D01*
X173422476Y-105509190D01*
X173374857Y-105485380D01*
X173351047Y-105461571D01*
X173803428Y-105009190D02*
X174112952Y-105009190D01*
X173946285Y-105199666D01*
X174017714Y-105199666D01*
X174065333Y-105223476D01*
X174089142Y-105247285D01*
X174112952Y-105294904D01*
X174112952Y-105413952D01*
X174089142Y-105461571D01*
X174065333Y-105485380D01*
X174017714Y-105509190D01*
X173874857Y-105509190D01*
X173827238Y-105485380D01*
X173803428Y-105461571D01*
G04 #@! TO.C,C52*
X164016571Y-102413571D02*
X163992761Y-102437380D01*
X163921333Y-102461190D01*
X163873714Y-102461190D01*
X163802285Y-102437380D01*
X163754666Y-102389761D01*
X163730857Y-102342142D01*
X163707047Y-102246904D01*
X163707047Y-102175476D01*
X163730857Y-102080238D01*
X163754666Y-102032619D01*
X163802285Y-101985000D01*
X163873714Y-101961190D01*
X163921333Y-101961190D01*
X163992761Y-101985000D01*
X164016571Y-102008809D01*
X164468952Y-101961190D02*
X164230857Y-101961190D01*
X164207047Y-102199285D01*
X164230857Y-102175476D01*
X164278476Y-102151666D01*
X164397523Y-102151666D01*
X164445142Y-102175476D01*
X164468952Y-102199285D01*
X164492761Y-102246904D01*
X164492761Y-102365952D01*
X164468952Y-102413571D01*
X164445142Y-102437380D01*
X164397523Y-102461190D01*
X164278476Y-102461190D01*
X164230857Y-102437380D01*
X164207047Y-102413571D01*
X164683238Y-102008809D02*
X164707047Y-101985000D01*
X164754666Y-101961190D01*
X164873714Y-101961190D01*
X164921333Y-101985000D01*
X164945142Y-102008809D01*
X164968952Y-102056428D01*
X164968952Y-102104047D01*
X164945142Y-102175476D01*
X164659428Y-102461190D01*
X164968952Y-102461190D01*
G04 #@! TO.C,C51*
X172073071Y-110493928D02*
X172096880Y-110517738D01*
X172120690Y-110589166D01*
X172120690Y-110636785D01*
X172096880Y-110708214D01*
X172049261Y-110755833D01*
X172001642Y-110779642D01*
X171906404Y-110803452D01*
X171834976Y-110803452D01*
X171739738Y-110779642D01*
X171692119Y-110755833D01*
X171644500Y-110708214D01*
X171620690Y-110636785D01*
X171620690Y-110589166D01*
X171644500Y-110517738D01*
X171668309Y-110493928D01*
X171620690Y-110041547D02*
X171620690Y-110279642D01*
X171858785Y-110303452D01*
X171834976Y-110279642D01*
X171811166Y-110232023D01*
X171811166Y-110112976D01*
X171834976Y-110065357D01*
X171858785Y-110041547D01*
X171906404Y-110017738D01*
X172025452Y-110017738D01*
X172073071Y-110041547D01*
X172096880Y-110065357D01*
X172120690Y-110112976D01*
X172120690Y-110232023D01*
X172096880Y-110279642D01*
X172073071Y-110303452D01*
X172120690Y-109541547D02*
X172120690Y-109827261D01*
X172120690Y-109684404D02*
X171620690Y-109684404D01*
X171692119Y-109732023D01*
X171739738Y-109779642D01*
X171763547Y-109827261D01*
G04 #@! TO.C,C50*
X170104571Y-110112928D02*
X170128380Y-110136738D01*
X170152190Y-110208166D01*
X170152190Y-110255785D01*
X170128380Y-110327214D01*
X170080761Y-110374833D01*
X170033142Y-110398642D01*
X169937904Y-110422452D01*
X169866476Y-110422452D01*
X169771238Y-110398642D01*
X169723619Y-110374833D01*
X169676000Y-110327214D01*
X169652190Y-110255785D01*
X169652190Y-110208166D01*
X169676000Y-110136738D01*
X169699809Y-110112928D01*
X169652190Y-109660547D02*
X169652190Y-109898642D01*
X169890285Y-109922452D01*
X169866476Y-109898642D01*
X169842666Y-109851023D01*
X169842666Y-109731976D01*
X169866476Y-109684357D01*
X169890285Y-109660547D01*
X169937904Y-109636738D01*
X170056952Y-109636738D01*
X170104571Y-109660547D01*
X170128380Y-109684357D01*
X170152190Y-109731976D01*
X170152190Y-109851023D01*
X170128380Y-109898642D01*
X170104571Y-109922452D01*
X169652190Y-109327214D02*
X169652190Y-109279595D01*
X169676000Y-109231976D01*
X169699809Y-109208166D01*
X169747428Y-109184357D01*
X169842666Y-109160547D01*
X169961714Y-109160547D01*
X170056952Y-109184357D01*
X170104571Y-109208166D01*
X170128380Y-109231976D01*
X170152190Y-109279595D01*
X170152190Y-109327214D01*
X170128380Y-109374833D01*
X170104571Y-109398642D01*
X170056952Y-109422452D01*
X169961714Y-109446261D01*
X169842666Y-109446261D01*
X169747428Y-109422452D01*
X169699809Y-109398642D01*
X169676000Y-109374833D01*
X169652190Y-109327214D01*
G04 #@! TO.C,C49*
X174168571Y-95571428D02*
X174192380Y-95595238D01*
X174216190Y-95666666D01*
X174216190Y-95714285D01*
X174192380Y-95785714D01*
X174144761Y-95833333D01*
X174097142Y-95857142D01*
X174001904Y-95880952D01*
X173930476Y-95880952D01*
X173835238Y-95857142D01*
X173787619Y-95833333D01*
X173740000Y-95785714D01*
X173716190Y-95714285D01*
X173716190Y-95666666D01*
X173740000Y-95595238D01*
X173763809Y-95571428D01*
X173882857Y-95142857D02*
X174216190Y-95142857D01*
X173692380Y-95261904D02*
X174049523Y-95380952D01*
X174049523Y-95071428D01*
X174216190Y-94857142D02*
X174216190Y-94761904D01*
X174192380Y-94714285D01*
X174168571Y-94690476D01*
X174097142Y-94642857D01*
X174001904Y-94619047D01*
X173811428Y-94619047D01*
X173763809Y-94642857D01*
X173740000Y-94666666D01*
X173716190Y-94714285D01*
X173716190Y-94809523D01*
X173740000Y-94857142D01*
X173763809Y-94880952D01*
X173811428Y-94904761D01*
X173930476Y-94904761D01*
X173978095Y-94880952D01*
X174001904Y-94857142D01*
X174025714Y-94809523D01*
X174025714Y-94714285D01*
X174001904Y-94666666D01*
X173978095Y-94642857D01*
X173930476Y-94619047D01*
G04 #@! TO.C,C48*
X176010071Y-95317428D02*
X176033880Y-95341238D01*
X176057690Y-95412666D01*
X176057690Y-95460285D01*
X176033880Y-95531714D01*
X175986261Y-95579333D01*
X175938642Y-95603142D01*
X175843404Y-95626952D01*
X175771976Y-95626952D01*
X175676738Y-95603142D01*
X175629119Y-95579333D01*
X175581500Y-95531714D01*
X175557690Y-95460285D01*
X175557690Y-95412666D01*
X175581500Y-95341238D01*
X175605309Y-95317428D01*
X175724357Y-94888857D02*
X176057690Y-94888857D01*
X175533880Y-95007904D02*
X175891023Y-95126952D01*
X175891023Y-94817428D01*
X175771976Y-94555523D02*
X175748166Y-94603142D01*
X175724357Y-94626952D01*
X175676738Y-94650761D01*
X175652928Y-94650761D01*
X175605309Y-94626952D01*
X175581500Y-94603142D01*
X175557690Y-94555523D01*
X175557690Y-94460285D01*
X175581500Y-94412666D01*
X175605309Y-94388857D01*
X175652928Y-94365047D01*
X175676738Y-94365047D01*
X175724357Y-94388857D01*
X175748166Y-94412666D01*
X175771976Y-94460285D01*
X175771976Y-94555523D01*
X175795785Y-94603142D01*
X175819595Y-94626952D01*
X175867214Y-94650761D01*
X175962452Y-94650761D01*
X176010071Y-94626952D01*
X176033880Y-94603142D01*
X176057690Y-94555523D01*
X176057690Y-94460285D01*
X176033880Y-94412666D01*
X176010071Y-94388857D01*
X175962452Y-94365047D01*
X175867214Y-94365047D01*
X175819595Y-94388857D01*
X175795785Y-94412666D01*
X175771976Y-94460285D01*
G04 #@! TO.C,C47*
X166665379Y-86253824D02*
X166641569Y-86277633D01*
X166570141Y-86301443D01*
X166522522Y-86301443D01*
X166451093Y-86277633D01*
X166403474Y-86230014D01*
X166379665Y-86182395D01*
X166355855Y-86087157D01*
X166355855Y-86015729D01*
X166379665Y-85920491D01*
X166403474Y-85872872D01*
X166451093Y-85825253D01*
X166522522Y-85801443D01*
X166570141Y-85801443D01*
X166641569Y-85825253D01*
X166665379Y-85849062D01*
X167093950Y-85968110D02*
X167093950Y-86301443D01*
X166974903Y-85777633D02*
X166855855Y-86134776D01*
X167165379Y-86134776D01*
X167308236Y-85801443D02*
X167641569Y-85801443D01*
X167427284Y-86301443D01*
G04 #@! TO.C,C46*
X172906571Y-90094571D02*
X172882761Y-90118380D01*
X172811333Y-90142190D01*
X172763714Y-90142190D01*
X172692285Y-90118380D01*
X172644666Y-90070761D01*
X172620857Y-90023142D01*
X172597047Y-89927904D01*
X172597047Y-89856476D01*
X172620857Y-89761238D01*
X172644666Y-89713619D01*
X172692285Y-89666000D01*
X172763714Y-89642190D01*
X172811333Y-89642190D01*
X172882761Y-89666000D01*
X172906571Y-89689809D01*
X173335142Y-89808857D02*
X173335142Y-90142190D01*
X173216095Y-89618380D02*
X173097047Y-89975523D01*
X173406571Y-89975523D01*
X173811333Y-89642190D02*
X173716095Y-89642190D01*
X173668476Y-89666000D01*
X173644666Y-89689809D01*
X173597047Y-89761238D01*
X173573238Y-89856476D01*
X173573238Y-90046952D01*
X173597047Y-90094571D01*
X173620857Y-90118380D01*
X173668476Y-90142190D01*
X173763714Y-90142190D01*
X173811333Y-90118380D01*
X173835142Y-90094571D01*
X173858952Y-90046952D01*
X173858952Y-89927904D01*
X173835142Y-89880285D01*
X173811333Y-89856476D01*
X173763714Y-89832666D01*
X173668476Y-89832666D01*
X173620857Y-89856476D01*
X173597047Y-89880285D01*
X173573238Y-89927904D01*
G04 #@! TO.C,C45*
X163889571Y-87681571D02*
X163865761Y-87705380D01*
X163794333Y-87729190D01*
X163746714Y-87729190D01*
X163675285Y-87705380D01*
X163627666Y-87657761D01*
X163603857Y-87610142D01*
X163580047Y-87514904D01*
X163580047Y-87443476D01*
X163603857Y-87348238D01*
X163627666Y-87300619D01*
X163675285Y-87253000D01*
X163746714Y-87229190D01*
X163794333Y-87229190D01*
X163865761Y-87253000D01*
X163889571Y-87276809D01*
X164318142Y-87395857D02*
X164318142Y-87729190D01*
X164199095Y-87205380D02*
X164080047Y-87562523D01*
X164389571Y-87562523D01*
X164818142Y-87229190D02*
X164580047Y-87229190D01*
X164556238Y-87467285D01*
X164580047Y-87443476D01*
X164627666Y-87419666D01*
X164746714Y-87419666D01*
X164794333Y-87443476D01*
X164818142Y-87467285D01*
X164841952Y-87514904D01*
X164841952Y-87633952D01*
X164818142Y-87681571D01*
X164794333Y-87705380D01*
X164746714Y-87729190D01*
X164627666Y-87729190D01*
X164580047Y-87705380D01*
X164556238Y-87681571D01*
G04 #@! TO.C,C44*
X171628571Y-96015928D02*
X171652380Y-96039738D01*
X171676190Y-96111166D01*
X171676190Y-96158785D01*
X171652380Y-96230214D01*
X171604761Y-96277833D01*
X171557142Y-96301642D01*
X171461904Y-96325452D01*
X171390476Y-96325452D01*
X171295238Y-96301642D01*
X171247619Y-96277833D01*
X171200000Y-96230214D01*
X171176190Y-96158785D01*
X171176190Y-96111166D01*
X171200000Y-96039738D01*
X171223809Y-96015928D01*
X171342857Y-95587357D02*
X171676190Y-95587357D01*
X171152380Y-95706404D02*
X171509523Y-95825452D01*
X171509523Y-95515928D01*
X171342857Y-95111166D02*
X171676190Y-95111166D01*
X171152380Y-95230214D02*
X171509523Y-95349261D01*
X171509523Y-95039738D01*
G04 #@! TO.C,C43*
X169914071Y-95380928D02*
X169937880Y-95404738D01*
X169961690Y-95476166D01*
X169961690Y-95523785D01*
X169937880Y-95595214D01*
X169890261Y-95642833D01*
X169842642Y-95666642D01*
X169747404Y-95690452D01*
X169675976Y-95690452D01*
X169580738Y-95666642D01*
X169533119Y-95642833D01*
X169485500Y-95595214D01*
X169461690Y-95523785D01*
X169461690Y-95476166D01*
X169485500Y-95404738D01*
X169509309Y-95380928D01*
X169628357Y-94952357D02*
X169961690Y-94952357D01*
X169437880Y-95071404D02*
X169795023Y-95190452D01*
X169795023Y-94880928D01*
X169461690Y-94738071D02*
X169461690Y-94428547D01*
X169652166Y-94595214D01*
X169652166Y-94523785D01*
X169675976Y-94476166D01*
X169699785Y-94452357D01*
X169747404Y-94428547D01*
X169866452Y-94428547D01*
X169914071Y-94452357D01*
X169937880Y-94476166D01*
X169961690Y-94523785D01*
X169961690Y-94666642D01*
X169937880Y-94714261D01*
X169914071Y-94738071D01*
G04 #@! TO.C,C42*
X178359571Y-77918428D02*
X178383380Y-77942238D01*
X178407190Y-78013666D01*
X178407190Y-78061285D01*
X178383380Y-78132714D01*
X178335761Y-78180333D01*
X178288142Y-78204142D01*
X178192904Y-78227952D01*
X178121476Y-78227952D01*
X178026238Y-78204142D01*
X177978619Y-78180333D01*
X177931000Y-78132714D01*
X177907190Y-78061285D01*
X177907190Y-78013666D01*
X177931000Y-77942238D01*
X177954809Y-77918428D01*
X178073857Y-77489857D02*
X178407190Y-77489857D01*
X177883380Y-77608904D02*
X178240523Y-77727952D01*
X178240523Y-77418428D01*
X177954809Y-77251761D02*
X177931000Y-77227952D01*
X177907190Y-77180333D01*
X177907190Y-77061285D01*
X177931000Y-77013666D01*
X177954809Y-76989857D01*
X178002428Y-76966047D01*
X178050047Y-76966047D01*
X178121476Y-76989857D01*
X178407190Y-77275571D01*
X178407190Y-76966047D01*
G04 #@! TO.C,C41*
X176708571Y-77918428D02*
X176732380Y-77942238D01*
X176756190Y-78013666D01*
X176756190Y-78061285D01*
X176732380Y-78132714D01*
X176684761Y-78180333D01*
X176637142Y-78204142D01*
X176541904Y-78227952D01*
X176470476Y-78227952D01*
X176375238Y-78204142D01*
X176327619Y-78180333D01*
X176280000Y-78132714D01*
X176256190Y-78061285D01*
X176256190Y-78013666D01*
X176280000Y-77942238D01*
X176303809Y-77918428D01*
X176422857Y-77489857D02*
X176756190Y-77489857D01*
X176232380Y-77608904D02*
X176589523Y-77727952D01*
X176589523Y-77418428D01*
X176756190Y-76966047D02*
X176756190Y-77251761D01*
X176756190Y-77108904D02*
X176256190Y-77108904D01*
X176327619Y-77156523D01*
X176375238Y-77204142D01*
X176399047Y-77251761D01*
G04 #@! TO.C,C40*
X165667571Y-68250571D02*
X165643761Y-68274380D01*
X165572333Y-68298190D01*
X165524714Y-68298190D01*
X165453285Y-68274380D01*
X165405666Y-68226761D01*
X165381857Y-68179142D01*
X165358047Y-68083904D01*
X165358047Y-68012476D01*
X165381857Y-67917238D01*
X165405666Y-67869619D01*
X165453285Y-67822000D01*
X165524714Y-67798190D01*
X165572333Y-67798190D01*
X165643761Y-67822000D01*
X165667571Y-67845809D01*
X166096142Y-67964857D02*
X166096142Y-68298190D01*
X165977095Y-67774380D02*
X165858047Y-68131523D01*
X166167571Y-68131523D01*
X166453285Y-67798190D02*
X166500904Y-67798190D01*
X166548523Y-67822000D01*
X166572333Y-67845809D01*
X166596142Y-67893428D01*
X166619952Y-67988666D01*
X166619952Y-68107714D01*
X166596142Y-68202952D01*
X166572333Y-68250571D01*
X166548523Y-68274380D01*
X166500904Y-68298190D01*
X166453285Y-68298190D01*
X166405666Y-68274380D01*
X166381857Y-68250571D01*
X166358047Y-68202952D01*
X166334238Y-68107714D01*
X166334238Y-67988666D01*
X166358047Y-67893428D01*
X166381857Y-67845809D01*
X166405666Y-67822000D01*
X166453285Y-67798190D01*
G04 #@! TO.C,C39*
X174938571Y-73330571D02*
X174914761Y-73354380D01*
X174843333Y-73378190D01*
X174795714Y-73378190D01*
X174724285Y-73354380D01*
X174676666Y-73306761D01*
X174652857Y-73259142D01*
X174629047Y-73163904D01*
X174629047Y-73092476D01*
X174652857Y-72997238D01*
X174676666Y-72949619D01*
X174724285Y-72902000D01*
X174795714Y-72878190D01*
X174843333Y-72878190D01*
X174914761Y-72902000D01*
X174938571Y-72925809D01*
X175105238Y-72878190D02*
X175414761Y-72878190D01*
X175248095Y-73068666D01*
X175319523Y-73068666D01*
X175367142Y-73092476D01*
X175390952Y-73116285D01*
X175414761Y-73163904D01*
X175414761Y-73282952D01*
X175390952Y-73330571D01*
X175367142Y-73354380D01*
X175319523Y-73378190D01*
X175176666Y-73378190D01*
X175129047Y-73354380D01*
X175105238Y-73330571D01*
X175652857Y-73378190D02*
X175748095Y-73378190D01*
X175795714Y-73354380D01*
X175819523Y-73330571D01*
X175867142Y-73259142D01*
X175890952Y-73163904D01*
X175890952Y-72973428D01*
X175867142Y-72925809D01*
X175843333Y-72902000D01*
X175795714Y-72878190D01*
X175700476Y-72878190D01*
X175652857Y-72902000D01*
X175629047Y-72925809D01*
X175605238Y-72973428D01*
X175605238Y-73092476D01*
X175629047Y-73140095D01*
X175652857Y-73163904D01*
X175700476Y-73187714D01*
X175795714Y-73187714D01*
X175843333Y-73163904D01*
X175867142Y-73140095D01*
X175890952Y-73092476D01*
G04 #@! TO.C,C38*
X165794571Y-69901571D02*
X165770761Y-69925380D01*
X165699333Y-69949190D01*
X165651714Y-69949190D01*
X165580285Y-69925380D01*
X165532666Y-69877761D01*
X165508857Y-69830142D01*
X165485047Y-69734904D01*
X165485047Y-69663476D01*
X165508857Y-69568238D01*
X165532666Y-69520619D01*
X165580285Y-69473000D01*
X165651714Y-69449190D01*
X165699333Y-69449190D01*
X165770761Y-69473000D01*
X165794571Y-69496809D01*
X165961238Y-69449190D02*
X166270761Y-69449190D01*
X166104095Y-69639666D01*
X166175523Y-69639666D01*
X166223142Y-69663476D01*
X166246952Y-69687285D01*
X166270761Y-69734904D01*
X166270761Y-69853952D01*
X166246952Y-69901571D01*
X166223142Y-69925380D01*
X166175523Y-69949190D01*
X166032666Y-69949190D01*
X165985047Y-69925380D01*
X165961238Y-69901571D01*
X166556476Y-69663476D02*
X166508857Y-69639666D01*
X166485047Y-69615857D01*
X166461238Y-69568238D01*
X166461238Y-69544428D01*
X166485047Y-69496809D01*
X166508857Y-69473000D01*
X166556476Y-69449190D01*
X166651714Y-69449190D01*
X166699333Y-69473000D01*
X166723142Y-69496809D01*
X166746952Y-69544428D01*
X166746952Y-69568238D01*
X166723142Y-69615857D01*
X166699333Y-69639666D01*
X166651714Y-69663476D01*
X166556476Y-69663476D01*
X166508857Y-69687285D01*
X166485047Y-69711095D01*
X166461238Y-69758714D01*
X166461238Y-69853952D01*
X166485047Y-69901571D01*
X166508857Y-69925380D01*
X166556476Y-69949190D01*
X166651714Y-69949190D01*
X166699333Y-69925380D01*
X166723142Y-69901571D01*
X166746952Y-69853952D01*
X166746952Y-69758714D01*
X166723142Y-69711095D01*
X166699333Y-69687285D01*
X166651714Y-69663476D01*
G04 #@! TO.C,C37*
X172898571Y-77854928D02*
X172922380Y-77878738D01*
X172946190Y-77950166D01*
X172946190Y-77997785D01*
X172922380Y-78069214D01*
X172874761Y-78116833D01*
X172827142Y-78140642D01*
X172731904Y-78164452D01*
X172660476Y-78164452D01*
X172565238Y-78140642D01*
X172517619Y-78116833D01*
X172470000Y-78069214D01*
X172446190Y-77997785D01*
X172446190Y-77950166D01*
X172470000Y-77878738D01*
X172493809Y-77854928D01*
X172446190Y-77688261D02*
X172446190Y-77378738D01*
X172636666Y-77545404D01*
X172636666Y-77473976D01*
X172660476Y-77426357D01*
X172684285Y-77402547D01*
X172731904Y-77378738D01*
X172850952Y-77378738D01*
X172898571Y-77402547D01*
X172922380Y-77426357D01*
X172946190Y-77473976D01*
X172946190Y-77616833D01*
X172922380Y-77664452D01*
X172898571Y-77688261D01*
X172446190Y-77212071D02*
X172446190Y-76878738D01*
X172946190Y-77093023D01*
G04 #@! TO.C,C36*
X171247571Y-77537428D02*
X171271380Y-77561238D01*
X171295190Y-77632666D01*
X171295190Y-77680285D01*
X171271380Y-77751714D01*
X171223761Y-77799333D01*
X171176142Y-77823142D01*
X171080904Y-77846952D01*
X171009476Y-77846952D01*
X170914238Y-77823142D01*
X170866619Y-77799333D01*
X170819000Y-77751714D01*
X170795190Y-77680285D01*
X170795190Y-77632666D01*
X170819000Y-77561238D01*
X170842809Y-77537428D01*
X170795190Y-77370761D02*
X170795190Y-77061238D01*
X170985666Y-77227904D01*
X170985666Y-77156476D01*
X171009476Y-77108857D01*
X171033285Y-77085047D01*
X171080904Y-77061238D01*
X171199952Y-77061238D01*
X171247571Y-77085047D01*
X171271380Y-77108857D01*
X171295190Y-77156476D01*
X171295190Y-77299333D01*
X171271380Y-77346952D01*
X171247571Y-77370761D01*
X170795190Y-76632666D02*
X170795190Y-76727904D01*
X170819000Y-76775523D01*
X170842809Y-76799333D01*
X170914238Y-76846952D01*
X171009476Y-76870761D01*
X171199952Y-76870761D01*
X171247571Y-76846952D01*
X171271380Y-76823142D01*
X171295190Y-76775523D01*
X171295190Y-76680285D01*
X171271380Y-76632666D01*
X171247571Y-76608857D01*
X171199952Y-76585047D01*
X171080904Y-76585047D01*
X171033285Y-76608857D01*
X171009476Y-76632666D01*
X170985666Y-76680285D01*
X170985666Y-76775523D01*
X171009476Y-76823142D01*
X171033285Y-76846952D01*
X171080904Y-76870761D01*
G04 #@! TO.C,C35*
X154991571Y-103318428D02*
X155015380Y-103342238D01*
X155039190Y-103413666D01*
X155039190Y-103461285D01*
X155015380Y-103532714D01*
X154967761Y-103580333D01*
X154920142Y-103604142D01*
X154824904Y-103627952D01*
X154753476Y-103627952D01*
X154658238Y-103604142D01*
X154610619Y-103580333D01*
X154563000Y-103532714D01*
X154539190Y-103461285D01*
X154539190Y-103413666D01*
X154563000Y-103342238D01*
X154586809Y-103318428D01*
X154539190Y-103151761D02*
X154539190Y-102842238D01*
X154729666Y-103008904D01*
X154729666Y-102937476D01*
X154753476Y-102889857D01*
X154777285Y-102866047D01*
X154824904Y-102842238D01*
X154943952Y-102842238D01*
X154991571Y-102866047D01*
X155015380Y-102889857D01*
X155039190Y-102937476D01*
X155039190Y-103080333D01*
X155015380Y-103127952D01*
X154991571Y-103151761D01*
X154539190Y-102389857D02*
X154539190Y-102627952D01*
X154777285Y-102651761D01*
X154753476Y-102627952D01*
X154729666Y-102580333D01*
X154729666Y-102461285D01*
X154753476Y-102413666D01*
X154777285Y-102389857D01*
X154824904Y-102366047D01*
X154943952Y-102366047D01*
X154991571Y-102389857D01*
X155015380Y-102413666D01*
X155039190Y-102461285D01*
X155039190Y-102580333D01*
X155015380Y-102627952D01*
X154991571Y-102651761D01*
G04 #@! TO.C,C34*
X151443571Y-109017571D02*
X151419761Y-109041380D01*
X151348333Y-109065190D01*
X151300714Y-109065190D01*
X151229285Y-109041380D01*
X151181666Y-108993761D01*
X151157857Y-108946142D01*
X151134047Y-108850904D01*
X151134047Y-108779476D01*
X151157857Y-108684238D01*
X151181666Y-108636619D01*
X151229285Y-108589000D01*
X151300714Y-108565190D01*
X151348333Y-108565190D01*
X151419761Y-108589000D01*
X151443571Y-108612809D01*
X151610238Y-108565190D02*
X151919761Y-108565190D01*
X151753095Y-108755666D01*
X151824523Y-108755666D01*
X151872142Y-108779476D01*
X151895952Y-108803285D01*
X151919761Y-108850904D01*
X151919761Y-108969952D01*
X151895952Y-109017571D01*
X151872142Y-109041380D01*
X151824523Y-109065190D01*
X151681666Y-109065190D01*
X151634047Y-109041380D01*
X151610238Y-109017571D01*
X152348333Y-108731857D02*
X152348333Y-109065190D01*
X152229285Y-108541380D02*
X152110238Y-108898523D01*
X152419761Y-108898523D01*
G04 #@! TO.C,C33*
X158928571Y-100651428D02*
X158952380Y-100675238D01*
X158976190Y-100746666D01*
X158976190Y-100794285D01*
X158952380Y-100865714D01*
X158904761Y-100913333D01*
X158857142Y-100937142D01*
X158761904Y-100960952D01*
X158690476Y-100960952D01*
X158595238Y-100937142D01*
X158547619Y-100913333D01*
X158500000Y-100865714D01*
X158476190Y-100794285D01*
X158476190Y-100746666D01*
X158500000Y-100675238D01*
X158523809Y-100651428D01*
X158476190Y-100484761D02*
X158476190Y-100175238D01*
X158666666Y-100341904D01*
X158666666Y-100270476D01*
X158690476Y-100222857D01*
X158714285Y-100199047D01*
X158761904Y-100175238D01*
X158880952Y-100175238D01*
X158928571Y-100199047D01*
X158952380Y-100222857D01*
X158976190Y-100270476D01*
X158976190Y-100413333D01*
X158952380Y-100460952D01*
X158928571Y-100484761D01*
X158476190Y-100008571D02*
X158476190Y-99699047D01*
X158666666Y-99865714D01*
X158666666Y-99794285D01*
X158690476Y-99746666D01*
X158714285Y-99722857D01*
X158761904Y-99699047D01*
X158880952Y-99699047D01*
X158928571Y-99722857D01*
X158952380Y-99746666D01*
X158976190Y-99794285D01*
X158976190Y-99937142D01*
X158952380Y-99984761D01*
X158928571Y-100008571D01*
G04 #@! TO.C,C32*
X160325571Y-100905428D02*
X160349380Y-100929238D01*
X160373190Y-101000666D01*
X160373190Y-101048285D01*
X160349380Y-101119714D01*
X160301761Y-101167333D01*
X160254142Y-101191142D01*
X160158904Y-101214952D01*
X160087476Y-101214952D01*
X159992238Y-101191142D01*
X159944619Y-101167333D01*
X159897000Y-101119714D01*
X159873190Y-101048285D01*
X159873190Y-101000666D01*
X159897000Y-100929238D01*
X159920809Y-100905428D01*
X159873190Y-100738761D02*
X159873190Y-100429238D01*
X160063666Y-100595904D01*
X160063666Y-100524476D01*
X160087476Y-100476857D01*
X160111285Y-100453047D01*
X160158904Y-100429238D01*
X160277952Y-100429238D01*
X160325571Y-100453047D01*
X160349380Y-100476857D01*
X160373190Y-100524476D01*
X160373190Y-100667333D01*
X160349380Y-100714952D01*
X160325571Y-100738761D01*
X159920809Y-100238761D02*
X159897000Y-100214952D01*
X159873190Y-100167333D01*
X159873190Y-100048285D01*
X159897000Y-100000666D01*
X159920809Y-99976857D01*
X159968428Y-99953047D01*
X160016047Y-99953047D01*
X160087476Y-99976857D01*
X160373190Y-100262571D01*
X160373190Y-99953047D01*
G04 #@! TO.C,C31*
X158428571Y-105461571D02*
X158404761Y-105485380D01*
X158333333Y-105509190D01*
X158285714Y-105509190D01*
X158214285Y-105485380D01*
X158166666Y-105437761D01*
X158142857Y-105390142D01*
X158119047Y-105294904D01*
X158119047Y-105223476D01*
X158142857Y-105128238D01*
X158166666Y-105080619D01*
X158214285Y-105033000D01*
X158285714Y-105009190D01*
X158333333Y-105009190D01*
X158404761Y-105033000D01*
X158428571Y-105056809D01*
X158595238Y-105009190D02*
X158904761Y-105009190D01*
X158738095Y-105199666D01*
X158809523Y-105199666D01*
X158857142Y-105223476D01*
X158880952Y-105247285D01*
X158904761Y-105294904D01*
X158904761Y-105413952D01*
X158880952Y-105461571D01*
X158857142Y-105485380D01*
X158809523Y-105509190D01*
X158666666Y-105509190D01*
X158619047Y-105485380D01*
X158595238Y-105461571D01*
X159380952Y-105509190D02*
X159095238Y-105509190D01*
X159238095Y-105509190D02*
X159238095Y-105009190D01*
X159190476Y-105080619D01*
X159142857Y-105128238D01*
X159095238Y-105152047D01*
G04 #@! TO.C,C30*
X158428571Y-107366571D02*
X158404761Y-107390380D01*
X158333333Y-107414190D01*
X158285714Y-107414190D01*
X158214285Y-107390380D01*
X158166666Y-107342761D01*
X158142857Y-107295142D01*
X158119047Y-107199904D01*
X158119047Y-107128476D01*
X158142857Y-107033238D01*
X158166666Y-106985619D01*
X158214285Y-106938000D01*
X158285714Y-106914190D01*
X158333333Y-106914190D01*
X158404761Y-106938000D01*
X158428571Y-106961809D01*
X158595238Y-106914190D02*
X158904761Y-106914190D01*
X158738095Y-107104666D01*
X158809523Y-107104666D01*
X158857142Y-107128476D01*
X158880952Y-107152285D01*
X158904761Y-107199904D01*
X158904761Y-107318952D01*
X158880952Y-107366571D01*
X158857142Y-107390380D01*
X158809523Y-107414190D01*
X158666666Y-107414190D01*
X158619047Y-107390380D01*
X158595238Y-107366571D01*
X159214285Y-106914190D02*
X159261904Y-106914190D01*
X159309523Y-106938000D01*
X159333333Y-106961809D01*
X159357142Y-107009428D01*
X159380952Y-107104666D01*
X159380952Y-107223714D01*
X159357142Y-107318952D01*
X159333333Y-107366571D01*
X159309523Y-107390380D01*
X159261904Y-107414190D01*
X159214285Y-107414190D01*
X159166666Y-107390380D01*
X159142857Y-107366571D01*
X159119047Y-107318952D01*
X159095238Y-107223714D01*
X159095238Y-107104666D01*
X159119047Y-107009428D01*
X159142857Y-106961809D01*
X159166666Y-106938000D01*
X159214285Y-106914190D01*
G04 #@! TO.C,C29*
X155888571Y-88189571D02*
X155864761Y-88213380D01*
X155793333Y-88237190D01*
X155745714Y-88237190D01*
X155674285Y-88213380D01*
X155626666Y-88165761D01*
X155602857Y-88118142D01*
X155579047Y-88022904D01*
X155579047Y-87951476D01*
X155602857Y-87856238D01*
X155626666Y-87808619D01*
X155674285Y-87761000D01*
X155745714Y-87737190D01*
X155793333Y-87737190D01*
X155864761Y-87761000D01*
X155888571Y-87784809D01*
X156079047Y-87784809D02*
X156102857Y-87761000D01*
X156150476Y-87737190D01*
X156269523Y-87737190D01*
X156317142Y-87761000D01*
X156340952Y-87784809D01*
X156364761Y-87832428D01*
X156364761Y-87880047D01*
X156340952Y-87951476D01*
X156055238Y-88237190D01*
X156364761Y-88237190D01*
X156602857Y-88237190D02*
X156698095Y-88237190D01*
X156745714Y-88213380D01*
X156769523Y-88189571D01*
X156817142Y-88118142D01*
X156840952Y-88022904D01*
X156840952Y-87832428D01*
X156817142Y-87784809D01*
X156793333Y-87761000D01*
X156745714Y-87737190D01*
X156650476Y-87737190D01*
X156602857Y-87761000D01*
X156579047Y-87784809D01*
X156555238Y-87832428D01*
X156555238Y-87951476D01*
X156579047Y-87999095D01*
X156602857Y-88022904D01*
X156650476Y-88046714D01*
X156745714Y-88046714D01*
X156793333Y-88022904D01*
X156817142Y-87999095D01*
X156840952Y-87951476D01*
G04 #@! TO.C,C28*
X152332571Y-93142571D02*
X152308761Y-93166380D01*
X152237333Y-93190190D01*
X152189714Y-93190190D01*
X152118285Y-93166380D01*
X152070666Y-93118761D01*
X152046857Y-93071142D01*
X152023047Y-92975904D01*
X152023047Y-92904476D01*
X152046857Y-92809238D01*
X152070666Y-92761619D01*
X152118285Y-92714000D01*
X152189714Y-92690190D01*
X152237333Y-92690190D01*
X152308761Y-92714000D01*
X152332571Y-92737809D01*
X152523047Y-92737809D02*
X152546857Y-92714000D01*
X152594476Y-92690190D01*
X152713523Y-92690190D01*
X152761142Y-92714000D01*
X152784952Y-92737809D01*
X152808761Y-92785428D01*
X152808761Y-92833047D01*
X152784952Y-92904476D01*
X152499238Y-93190190D01*
X152808761Y-93190190D01*
X153094476Y-92904476D02*
X153046857Y-92880666D01*
X153023047Y-92856857D01*
X152999238Y-92809238D01*
X152999238Y-92785428D01*
X153023047Y-92737809D01*
X153046857Y-92714000D01*
X153094476Y-92690190D01*
X153189714Y-92690190D01*
X153237333Y-92714000D01*
X153261142Y-92737809D01*
X153284952Y-92785428D01*
X153284952Y-92809238D01*
X153261142Y-92856857D01*
X153237333Y-92880666D01*
X153189714Y-92904476D01*
X153094476Y-92904476D01*
X153046857Y-92928285D01*
X153023047Y-92952095D01*
X152999238Y-92999714D01*
X152999238Y-93094952D01*
X153023047Y-93142571D01*
X153046857Y-93166380D01*
X153094476Y-93190190D01*
X153189714Y-93190190D01*
X153237333Y-93166380D01*
X153261142Y-93142571D01*
X153284952Y-93094952D01*
X153284952Y-92999714D01*
X153261142Y-92952095D01*
X153237333Y-92928285D01*
X153189714Y-92904476D01*
G04 #@! TO.C,C27*
X158547571Y-84141428D02*
X158571380Y-84165238D01*
X158595190Y-84236666D01*
X158595190Y-84284285D01*
X158571380Y-84355714D01*
X158523761Y-84403333D01*
X158476142Y-84427142D01*
X158380904Y-84450952D01*
X158309476Y-84450952D01*
X158214238Y-84427142D01*
X158166619Y-84403333D01*
X158119000Y-84355714D01*
X158095190Y-84284285D01*
X158095190Y-84236666D01*
X158119000Y-84165238D01*
X158142809Y-84141428D01*
X158142809Y-83950952D02*
X158119000Y-83927142D01*
X158095190Y-83879523D01*
X158095190Y-83760476D01*
X158119000Y-83712857D01*
X158142809Y-83689047D01*
X158190428Y-83665238D01*
X158238047Y-83665238D01*
X158309476Y-83689047D01*
X158595190Y-83974761D01*
X158595190Y-83665238D01*
X158095190Y-83498571D02*
X158095190Y-83165238D01*
X158595190Y-83379523D01*
G04 #@! TO.C,C26*
X160452571Y-84395428D02*
X160476380Y-84419238D01*
X160500190Y-84490666D01*
X160500190Y-84538285D01*
X160476380Y-84609714D01*
X160428761Y-84657333D01*
X160381142Y-84681142D01*
X160285904Y-84704952D01*
X160214476Y-84704952D01*
X160119238Y-84681142D01*
X160071619Y-84657333D01*
X160024000Y-84609714D01*
X160000190Y-84538285D01*
X160000190Y-84490666D01*
X160024000Y-84419238D01*
X160047809Y-84395428D01*
X160047809Y-84204952D02*
X160024000Y-84181142D01*
X160000190Y-84133523D01*
X160000190Y-84014476D01*
X160024000Y-83966857D01*
X160047809Y-83943047D01*
X160095428Y-83919238D01*
X160143047Y-83919238D01*
X160214476Y-83943047D01*
X160500190Y-84228761D01*
X160500190Y-83919238D01*
X160000190Y-83490666D02*
X160000190Y-83585904D01*
X160024000Y-83633523D01*
X160047809Y-83657333D01*
X160119238Y-83704952D01*
X160214476Y-83728761D01*
X160404952Y-83728761D01*
X160452571Y-83704952D01*
X160476380Y-83681142D01*
X160500190Y-83633523D01*
X160500190Y-83538285D01*
X160476380Y-83490666D01*
X160452571Y-83466857D01*
X160404952Y-83443047D01*
X160285904Y-83443047D01*
X160238285Y-83466857D01*
X160214476Y-83490666D01*
X160190666Y-83538285D01*
X160190666Y-83633523D01*
X160214476Y-83681142D01*
X160238285Y-83704952D01*
X160285904Y-83728761D01*
G04 #@! TO.C,C25*
X158428571Y-89967571D02*
X158404761Y-89991380D01*
X158333333Y-90015190D01*
X158285714Y-90015190D01*
X158214285Y-89991380D01*
X158166666Y-89943761D01*
X158142857Y-89896142D01*
X158119047Y-89800904D01*
X158119047Y-89729476D01*
X158142857Y-89634238D01*
X158166666Y-89586619D01*
X158214285Y-89539000D01*
X158285714Y-89515190D01*
X158333333Y-89515190D01*
X158404761Y-89539000D01*
X158428571Y-89562809D01*
X158619047Y-89562809D02*
X158642857Y-89539000D01*
X158690476Y-89515190D01*
X158809523Y-89515190D01*
X158857142Y-89539000D01*
X158880952Y-89562809D01*
X158904761Y-89610428D01*
X158904761Y-89658047D01*
X158880952Y-89729476D01*
X158595238Y-90015190D01*
X158904761Y-90015190D01*
X159357142Y-89515190D02*
X159119047Y-89515190D01*
X159095238Y-89753285D01*
X159119047Y-89729476D01*
X159166666Y-89705666D01*
X159285714Y-89705666D01*
X159333333Y-89729476D01*
X159357142Y-89753285D01*
X159380952Y-89800904D01*
X159380952Y-89919952D01*
X159357142Y-89967571D01*
X159333333Y-89991380D01*
X159285714Y-90015190D01*
X159166666Y-90015190D01*
X159119047Y-89991380D01*
X159095238Y-89967571D01*
G04 #@! TO.C,C24*
X158301571Y-91618571D02*
X158277761Y-91642380D01*
X158206333Y-91666190D01*
X158158714Y-91666190D01*
X158087285Y-91642380D01*
X158039666Y-91594761D01*
X158015857Y-91547142D01*
X157992047Y-91451904D01*
X157992047Y-91380476D01*
X158015857Y-91285238D01*
X158039666Y-91237619D01*
X158087285Y-91190000D01*
X158158714Y-91166190D01*
X158206333Y-91166190D01*
X158277761Y-91190000D01*
X158301571Y-91213809D01*
X158492047Y-91213809D02*
X158515857Y-91190000D01*
X158563476Y-91166190D01*
X158682523Y-91166190D01*
X158730142Y-91190000D01*
X158753952Y-91213809D01*
X158777761Y-91261428D01*
X158777761Y-91309047D01*
X158753952Y-91380476D01*
X158468238Y-91666190D01*
X158777761Y-91666190D01*
X159206333Y-91332857D02*
X159206333Y-91666190D01*
X159087285Y-91142380D02*
X158968238Y-91499523D01*
X159277761Y-91499523D01*
G04 #@! TO.C,C23*
X157793571Y-70917571D02*
X157769761Y-70941380D01*
X157698333Y-70965190D01*
X157650714Y-70965190D01*
X157579285Y-70941380D01*
X157531666Y-70893761D01*
X157507857Y-70846142D01*
X157484047Y-70750904D01*
X157484047Y-70679476D01*
X157507857Y-70584238D01*
X157531666Y-70536619D01*
X157579285Y-70489000D01*
X157650714Y-70465190D01*
X157698333Y-70465190D01*
X157769761Y-70489000D01*
X157793571Y-70512809D01*
X157984047Y-70512809D02*
X158007857Y-70489000D01*
X158055476Y-70465190D01*
X158174523Y-70465190D01*
X158222142Y-70489000D01*
X158245952Y-70512809D01*
X158269761Y-70560428D01*
X158269761Y-70608047D01*
X158245952Y-70679476D01*
X157960238Y-70965190D01*
X158269761Y-70965190D01*
X158436428Y-70465190D02*
X158745952Y-70465190D01*
X158579285Y-70655666D01*
X158650714Y-70655666D01*
X158698333Y-70679476D01*
X158722142Y-70703285D01*
X158745952Y-70750904D01*
X158745952Y-70869952D01*
X158722142Y-70917571D01*
X158698333Y-70941380D01*
X158650714Y-70965190D01*
X158507857Y-70965190D01*
X158460238Y-70941380D01*
X158436428Y-70917571D01*
G04 #@! TO.C,C22*
X154237571Y-76251571D02*
X154213761Y-76275380D01*
X154142333Y-76299190D01*
X154094714Y-76299190D01*
X154023285Y-76275380D01*
X153975666Y-76227761D01*
X153951857Y-76180142D01*
X153928047Y-76084904D01*
X153928047Y-76013476D01*
X153951857Y-75918238D01*
X153975666Y-75870619D01*
X154023285Y-75823000D01*
X154094714Y-75799190D01*
X154142333Y-75799190D01*
X154213761Y-75823000D01*
X154237571Y-75846809D01*
X154428047Y-75846809D02*
X154451857Y-75823000D01*
X154499476Y-75799190D01*
X154618523Y-75799190D01*
X154666142Y-75823000D01*
X154689952Y-75846809D01*
X154713761Y-75894428D01*
X154713761Y-75942047D01*
X154689952Y-76013476D01*
X154404238Y-76299190D01*
X154713761Y-76299190D01*
X154904238Y-75846809D02*
X154928047Y-75823000D01*
X154975666Y-75799190D01*
X155094714Y-75799190D01*
X155142333Y-75823000D01*
X155166142Y-75846809D01*
X155189952Y-75894428D01*
X155189952Y-75942047D01*
X155166142Y-76013476D01*
X154880428Y-76299190D01*
X155189952Y-76299190D01*
G04 #@! TO.C,C21*
X160579571Y-67885428D02*
X160603380Y-67909238D01*
X160627190Y-67980666D01*
X160627190Y-68028285D01*
X160603380Y-68099714D01*
X160555761Y-68147333D01*
X160508142Y-68171142D01*
X160412904Y-68194952D01*
X160341476Y-68194952D01*
X160246238Y-68171142D01*
X160198619Y-68147333D01*
X160151000Y-68099714D01*
X160127190Y-68028285D01*
X160127190Y-67980666D01*
X160151000Y-67909238D01*
X160174809Y-67885428D01*
X160174809Y-67694952D02*
X160151000Y-67671142D01*
X160127190Y-67623523D01*
X160127190Y-67504476D01*
X160151000Y-67456857D01*
X160174809Y-67433047D01*
X160222428Y-67409238D01*
X160270047Y-67409238D01*
X160341476Y-67433047D01*
X160627190Y-67718761D01*
X160627190Y-67409238D01*
X160627190Y-66933047D02*
X160627190Y-67218761D01*
X160627190Y-67075904D02*
X160127190Y-67075904D01*
X160198619Y-67123523D01*
X160246238Y-67171142D01*
X160270047Y-67218761D01*
G04 #@! TO.C,C20*
X162230571Y-68139428D02*
X162254380Y-68163238D01*
X162278190Y-68234666D01*
X162278190Y-68282285D01*
X162254380Y-68353714D01*
X162206761Y-68401333D01*
X162159142Y-68425142D01*
X162063904Y-68448952D01*
X161992476Y-68448952D01*
X161897238Y-68425142D01*
X161849619Y-68401333D01*
X161802000Y-68353714D01*
X161778190Y-68282285D01*
X161778190Y-68234666D01*
X161802000Y-68163238D01*
X161825809Y-68139428D01*
X161825809Y-67948952D02*
X161802000Y-67925142D01*
X161778190Y-67877523D01*
X161778190Y-67758476D01*
X161802000Y-67710857D01*
X161825809Y-67687047D01*
X161873428Y-67663238D01*
X161921047Y-67663238D01*
X161992476Y-67687047D01*
X162278190Y-67972761D01*
X162278190Y-67663238D01*
X161778190Y-67353714D02*
X161778190Y-67306095D01*
X161802000Y-67258476D01*
X161825809Y-67234666D01*
X161873428Y-67210857D01*
X161968666Y-67187047D01*
X162087714Y-67187047D01*
X162182952Y-67210857D01*
X162230571Y-67234666D01*
X162254380Y-67258476D01*
X162278190Y-67306095D01*
X162278190Y-67353714D01*
X162254380Y-67401333D01*
X162230571Y-67425142D01*
X162182952Y-67448952D01*
X162087714Y-67472761D01*
X161968666Y-67472761D01*
X161873428Y-67448952D01*
X161825809Y-67425142D01*
X161802000Y-67401333D01*
X161778190Y-67353714D01*
G04 #@! TO.C,C19*
X160333571Y-72949571D02*
X160309761Y-72973380D01*
X160238333Y-72997190D01*
X160190714Y-72997190D01*
X160119285Y-72973380D01*
X160071666Y-72925761D01*
X160047857Y-72878142D01*
X160024047Y-72782904D01*
X160024047Y-72711476D01*
X160047857Y-72616238D01*
X160071666Y-72568619D01*
X160119285Y-72521000D01*
X160190714Y-72497190D01*
X160238333Y-72497190D01*
X160309761Y-72521000D01*
X160333571Y-72544809D01*
X160809761Y-72997190D02*
X160524047Y-72997190D01*
X160666904Y-72997190D02*
X160666904Y-72497190D01*
X160619285Y-72568619D01*
X160571666Y-72616238D01*
X160524047Y-72640047D01*
X161047857Y-72997190D02*
X161143095Y-72997190D01*
X161190714Y-72973380D01*
X161214523Y-72949571D01*
X161262142Y-72878142D01*
X161285952Y-72782904D01*
X161285952Y-72592428D01*
X161262142Y-72544809D01*
X161238333Y-72521000D01*
X161190714Y-72497190D01*
X161095476Y-72497190D01*
X161047857Y-72521000D01*
X161024047Y-72544809D01*
X161000238Y-72592428D01*
X161000238Y-72711476D01*
X161024047Y-72759095D01*
X161047857Y-72782904D01*
X161095476Y-72806714D01*
X161190714Y-72806714D01*
X161238333Y-72782904D01*
X161262142Y-72759095D01*
X161285952Y-72711476D01*
G04 #@! TO.C,C18*
X160079571Y-74600571D02*
X160055761Y-74624380D01*
X159984333Y-74648190D01*
X159936714Y-74648190D01*
X159865285Y-74624380D01*
X159817666Y-74576761D01*
X159793857Y-74529142D01*
X159770047Y-74433904D01*
X159770047Y-74362476D01*
X159793857Y-74267238D01*
X159817666Y-74219619D01*
X159865285Y-74172000D01*
X159936714Y-74148190D01*
X159984333Y-74148190D01*
X160055761Y-74172000D01*
X160079571Y-74195809D01*
X160555761Y-74648190D02*
X160270047Y-74648190D01*
X160412904Y-74648190D02*
X160412904Y-74148190D01*
X160365285Y-74219619D01*
X160317666Y-74267238D01*
X160270047Y-74291047D01*
X160841476Y-74362476D02*
X160793857Y-74338666D01*
X160770047Y-74314857D01*
X160746238Y-74267238D01*
X160746238Y-74243428D01*
X160770047Y-74195809D01*
X160793857Y-74172000D01*
X160841476Y-74148190D01*
X160936714Y-74148190D01*
X160984333Y-74172000D01*
X161008142Y-74195809D01*
X161031952Y-74243428D01*
X161031952Y-74267238D01*
X161008142Y-74314857D01*
X160984333Y-74338666D01*
X160936714Y-74362476D01*
X160841476Y-74362476D01*
X160793857Y-74386285D01*
X160770047Y-74410095D01*
X160746238Y-74457714D01*
X160746238Y-74552952D01*
X160770047Y-74600571D01*
X160793857Y-74624380D01*
X160841476Y-74648190D01*
X160936714Y-74648190D01*
X160984333Y-74624380D01*
X161008142Y-74600571D01*
X161031952Y-74552952D01*
X161031952Y-74457714D01*
X161008142Y-74410095D01*
X160984333Y-74386285D01*
X160936714Y-74362476D01*
G04 #@! TO.C,C17*
X140259571Y-86046428D02*
X140283380Y-86070238D01*
X140307190Y-86141666D01*
X140307190Y-86189285D01*
X140283380Y-86260714D01*
X140235761Y-86308333D01*
X140188142Y-86332142D01*
X140092904Y-86355952D01*
X140021476Y-86355952D01*
X139926238Y-86332142D01*
X139878619Y-86308333D01*
X139831000Y-86260714D01*
X139807190Y-86189285D01*
X139807190Y-86141666D01*
X139831000Y-86070238D01*
X139854809Y-86046428D01*
X140307190Y-85570238D02*
X140307190Y-85855952D01*
X140307190Y-85713095D02*
X139807190Y-85713095D01*
X139878619Y-85760714D01*
X139926238Y-85808333D01*
X139950047Y-85855952D01*
X139807190Y-85403571D02*
X139807190Y-85070238D01*
X140307190Y-85284523D01*
G04 #@! TO.C,C16*
X134321318Y-83742236D02*
X134345127Y-83766046D01*
X134368937Y-83837474D01*
X134368937Y-83885093D01*
X134345127Y-83956522D01*
X134297508Y-84004141D01*
X134249889Y-84027950D01*
X134154651Y-84051760D01*
X134083223Y-84051760D01*
X133987985Y-84027950D01*
X133940366Y-84004141D01*
X133892747Y-83956522D01*
X133868937Y-83885093D01*
X133868937Y-83837474D01*
X133892747Y-83766046D01*
X133916556Y-83742236D01*
X134368937Y-83266046D02*
X134368937Y-83551760D01*
X134368937Y-83408903D02*
X133868937Y-83408903D01*
X133940366Y-83456522D01*
X133987985Y-83504141D01*
X134011794Y-83551760D01*
X133868937Y-82837474D02*
X133868937Y-82932712D01*
X133892747Y-82980331D01*
X133916556Y-83004141D01*
X133987985Y-83051760D01*
X134083223Y-83075569D01*
X134273699Y-83075569D01*
X134321318Y-83051760D01*
X134345127Y-83027950D01*
X134368937Y-82980331D01*
X134368937Y-82885093D01*
X134345127Y-82837474D01*
X134321318Y-82813665D01*
X134273699Y-82789855D01*
X134154651Y-82789855D01*
X134107032Y-82813665D01*
X134083223Y-82837474D01*
X134059413Y-82885093D01*
X134059413Y-82980331D01*
X134083223Y-83027950D01*
X134107032Y-83051760D01*
X134154651Y-83075569D01*
G04 #@! TO.C,C15*
X103691571Y-108763571D02*
X103667761Y-108787380D01*
X103596333Y-108811190D01*
X103548714Y-108811190D01*
X103477285Y-108787380D01*
X103429666Y-108739761D01*
X103405857Y-108692142D01*
X103382047Y-108596904D01*
X103382047Y-108525476D01*
X103405857Y-108430238D01*
X103429666Y-108382619D01*
X103477285Y-108335000D01*
X103548714Y-108311190D01*
X103596333Y-108311190D01*
X103667761Y-108335000D01*
X103691571Y-108358809D01*
X104167761Y-108811190D02*
X103882047Y-108811190D01*
X104024904Y-108811190D02*
X104024904Y-108311190D01*
X103977285Y-108382619D01*
X103929666Y-108430238D01*
X103882047Y-108454047D01*
X104620142Y-108311190D02*
X104382047Y-108311190D01*
X104358238Y-108549285D01*
X104382047Y-108525476D01*
X104429666Y-108501666D01*
X104548714Y-108501666D01*
X104596333Y-108525476D01*
X104620142Y-108549285D01*
X104643952Y-108596904D01*
X104643952Y-108715952D01*
X104620142Y-108763571D01*
X104596333Y-108787380D01*
X104548714Y-108811190D01*
X104429666Y-108811190D01*
X104382047Y-108787380D01*
X104358238Y-108763571D01*
G04 #@! TO.C,C14*
X102040571Y-109017571D02*
X102016761Y-109041380D01*
X101945333Y-109065190D01*
X101897714Y-109065190D01*
X101826285Y-109041380D01*
X101778666Y-108993761D01*
X101754857Y-108946142D01*
X101731047Y-108850904D01*
X101731047Y-108779476D01*
X101754857Y-108684238D01*
X101778666Y-108636619D01*
X101826285Y-108589000D01*
X101897714Y-108565190D01*
X101945333Y-108565190D01*
X102016761Y-108589000D01*
X102040571Y-108612809D01*
X102516761Y-109065190D02*
X102231047Y-109065190D01*
X102373904Y-109065190D02*
X102373904Y-108565190D01*
X102326285Y-108636619D01*
X102278666Y-108684238D01*
X102231047Y-108708047D01*
X102945333Y-108731857D02*
X102945333Y-109065190D01*
X102826285Y-108541380D02*
X102707238Y-108898523D01*
X103016761Y-108898523D01*
G04 #@! TO.C,C13*
X94801571Y-108890571D02*
X94777761Y-108914380D01*
X94706333Y-108938190D01*
X94658714Y-108938190D01*
X94587285Y-108914380D01*
X94539666Y-108866761D01*
X94515857Y-108819142D01*
X94492047Y-108723904D01*
X94492047Y-108652476D01*
X94515857Y-108557238D01*
X94539666Y-108509619D01*
X94587285Y-108462000D01*
X94658714Y-108438190D01*
X94706333Y-108438190D01*
X94777761Y-108462000D01*
X94801571Y-108485809D01*
X95277761Y-108938190D02*
X94992047Y-108938190D01*
X95134904Y-108938190D02*
X95134904Y-108438190D01*
X95087285Y-108509619D01*
X95039666Y-108557238D01*
X94992047Y-108581047D01*
X95444428Y-108438190D02*
X95753952Y-108438190D01*
X95587285Y-108628666D01*
X95658714Y-108628666D01*
X95706333Y-108652476D01*
X95730142Y-108676285D01*
X95753952Y-108723904D01*
X95753952Y-108842952D01*
X95730142Y-108890571D01*
X95706333Y-108914380D01*
X95658714Y-108938190D01*
X95515857Y-108938190D01*
X95468238Y-108914380D01*
X95444428Y-108890571D01*
G04 #@! TO.C,C12*
X96579571Y-109017571D02*
X96555761Y-109041380D01*
X96484333Y-109065190D01*
X96436714Y-109065190D01*
X96365285Y-109041380D01*
X96317666Y-108993761D01*
X96293857Y-108946142D01*
X96270047Y-108850904D01*
X96270047Y-108779476D01*
X96293857Y-108684238D01*
X96317666Y-108636619D01*
X96365285Y-108589000D01*
X96436714Y-108565190D01*
X96484333Y-108565190D01*
X96555761Y-108589000D01*
X96579571Y-108612809D01*
X97055761Y-109065190D02*
X96770047Y-109065190D01*
X96912904Y-109065190D02*
X96912904Y-108565190D01*
X96865285Y-108636619D01*
X96817666Y-108684238D01*
X96770047Y-108708047D01*
X97246238Y-108612809D02*
X97270047Y-108589000D01*
X97317666Y-108565190D01*
X97436714Y-108565190D01*
X97484333Y-108589000D01*
X97508142Y-108612809D01*
X97531952Y-108660428D01*
X97531952Y-108708047D01*
X97508142Y-108779476D01*
X97222428Y-109065190D01*
X97531952Y-109065190D01*
G04 #@! TO.C,C11*
X99365571Y-67758428D02*
X99389380Y-67782238D01*
X99413190Y-67853666D01*
X99413190Y-67901285D01*
X99389380Y-67972714D01*
X99341761Y-68020333D01*
X99294142Y-68044142D01*
X99198904Y-68067952D01*
X99127476Y-68067952D01*
X99032238Y-68044142D01*
X98984619Y-68020333D01*
X98937000Y-67972714D01*
X98913190Y-67901285D01*
X98913190Y-67853666D01*
X98937000Y-67782238D01*
X98960809Y-67758428D01*
X99413190Y-67282238D02*
X99413190Y-67567952D01*
X99413190Y-67425095D02*
X98913190Y-67425095D01*
X98984619Y-67472714D01*
X99032238Y-67520333D01*
X99056047Y-67567952D01*
X99413190Y-66806047D02*
X99413190Y-67091761D01*
X99413190Y-66948904D02*
X98913190Y-66948904D01*
X98984619Y-66996523D01*
X99032238Y-67044142D01*
X99056047Y-67091761D01*
G04 #@! TO.C,C10*
X97333571Y-68139428D02*
X97357380Y-68163238D01*
X97381190Y-68234666D01*
X97381190Y-68282285D01*
X97357380Y-68353714D01*
X97309761Y-68401333D01*
X97262142Y-68425142D01*
X97166904Y-68448952D01*
X97095476Y-68448952D01*
X97000238Y-68425142D01*
X96952619Y-68401333D01*
X96905000Y-68353714D01*
X96881190Y-68282285D01*
X96881190Y-68234666D01*
X96905000Y-68163238D01*
X96928809Y-68139428D01*
X97381190Y-67663238D02*
X97381190Y-67948952D01*
X97381190Y-67806095D02*
X96881190Y-67806095D01*
X96952619Y-67853714D01*
X97000238Y-67901333D01*
X97024047Y-67948952D01*
X96881190Y-67353714D02*
X96881190Y-67306095D01*
X96905000Y-67258476D01*
X96928809Y-67234666D01*
X96976428Y-67210857D01*
X97071666Y-67187047D01*
X97190714Y-67187047D01*
X97285952Y-67210857D01*
X97333571Y-67234666D01*
X97357380Y-67258476D01*
X97381190Y-67306095D01*
X97381190Y-67353714D01*
X97357380Y-67401333D01*
X97333571Y-67425142D01*
X97285952Y-67448952D01*
X97190714Y-67472761D01*
X97071666Y-67472761D01*
X96976428Y-67448952D01*
X96928809Y-67425142D01*
X96905000Y-67401333D01*
X96881190Y-67353714D01*
G04 #@! TO.C,C6*
X78402666Y-103937571D02*
X78378857Y-103961380D01*
X78307428Y-103985190D01*
X78259809Y-103985190D01*
X78188380Y-103961380D01*
X78140761Y-103913761D01*
X78116952Y-103866142D01*
X78093142Y-103770904D01*
X78093142Y-103699476D01*
X78116952Y-103604238D01*
X78140761Y-103556619D01*
X78188380Y-103509000D01*
X78259809Y-103485190D01*
X78307428Y-103485190D01*
X78378857Y-103509000D01*
X78402666Y-103532809D01*
X78831238Y-103485190D02*
X78736000Y-103485190D01*
X78688380Y-103509000D01*
X78664571Y-103532809D01*
X78616952Y-103604238D01*
X78593142Y-103699476D01*
X78593142Y-103889952D01*
X78616952Y-103937571D01*
X78640761Y-103961380D01*
X78688380Y-103985190D01*
X78783619Y-103985190D01*
X78831238Y-103961380D01*
X78855047Y-103937571D01*
X78878857Y-103889952D01*
X78878857Y-103770904D01*
X78855047Y-103723285D01*
X78831238Y-103699476D01*
X78783619Y-103675666D01*
X78688380Y-103675666D01*
X78640761Y-103699476D01*
X78616952Y-103723285D01*
X78593142Y-103770904D01*
G04 #@! TO.C,C5*
X91618571Y-102318333D02*
X91642380Y-102342142D01*
X91666190Y-102413571D01*
X91666190Y-102461190D01*
X91642380Y-102532619D01*
X91594761Y-102580238D01*
X91547142Y-102604047D01*
X91451904Y-102627857D01*
X91380476Y-102627857D01*
X91285238Y-102604047D01*
X91237619Y-102580238D01*
X91190000Y-102532619D01*
X91166190Y-102461190D01*
X91166190Y-102413571D01*
X91190000Y-102342142D01*
X91213809Y-102318333D01*
X91166190Y-101865952D02*
X91166190Y-102104047D01*
X91404285Y-102127857D01*
X91380476Y-102104047D01*
X91356666Y-102056428D01*
X91356666Y-101937380D01*
X91380476Y-101889761D01*
X91404285Y-101865952D01*
X91451904Y-101842142D01*
X91570952Y-101842142D01*
X91618571Y-101865952D01*
X91642380Y-101889761D01*
X91666190Y-101937380D01*
X91666190Y-102056428D01*
X91642380Y-102104047D01*
X91618571Y-102127857D01*
G04 #@! TO.C,C4*
X89205571Y-106001333D02*
X89229380Y-106025142D01*
X89253190Y-106096571D01*
X89253190Y-106144190D01*
X89229380Y-106215619D01*
X89181761Y-106263238D01*
X89134142Y-106287047D01*
X89038904Y-106310857D01*
X88967476Y-106310857D01*
X88872238Y-106287047D01*
X88824619Y-106263238D01*
X88777000Y-106215619D01*
X88753190Y-106144190D01*
X88753190Y-106096571D01*
X88777000Y-106025142D01*
X88800809Y-106001333D01*
X88919857Y-105572761D02*
X89253190Y-105572761D01*
X88729380Y-105691809D02*
X89086523Y-105810857D01*
X89086523Y-105501333D01*
G04 #@! TO.C,C3*
X82974666Y-99111571D02*
X82950857Y-99135380D01*
X82879428Y-99159190D01*
X82831809Y-99159190D01*
X82760380Y-99135380D01*
X82712761Y-99087761D01*
X82688952Y-99040142D01*
X82665142Y-98944904D01*
X82665142Y-98873476D01*
X82688952Y-98778238D01*
X82712761Y-98730619D01*
X82760380Y-98683000D01*
X82831809Y-98659190D01*
X82879428Y-98659190D01*
X82950857Y-98683000D01*
X82974666Y-98706809D01*
X83141333Y-98659190D02*
X83450857Y-98659190D01*
X83284190Y-98849666D01*
X83355619Y-98849666D01*
X83403238Y-98873476D01*
X83427047Y-98897285D01*
X83450857Y-98944904D01*
X83450857Y-99063952D01*
X83427047Y-99111571D01*
X83403238Y-99135380D01*
X83355619Y-99159190D01*
X83212761Y-99159190D01*
X83165142Y-99135380D01*
X83141333Y-99111571D01*
G04 #@! TO.C,C2*
X83736666Y-90348571D02*
X83712857Y-90372380D01*
X83641428Y-90396190D01*
X83593809Y-90396190D01*
X83522380Y-90372380D01*
X83474761Y-90324761D01*
X83450952Y-90277142D01*
X83427142Y-90181904D01*
X83427142Y-90110476D01*
X83450952Y-90015238D01*
X83474761Y-89967619D01*
X83522380Y-89920000D01*
X83593809Y-89896190D01*
X83641428Y-89896190D01*
X83712857Y-89920000D01*
X83736666Y-89943809D01*
X83927142Y-89943809D02*
X83950952Y-89920000D01*
X83998571Y-89896190D01*
X84117619Y-89896190D01*
X84165238Y-89920000D01*
X84189047Y-89943809D01*
X84212857Y-89991428D01*
X84212857Y-90039047D01*
X84189047Y-90110476D01*
X83903333Y-90396190D01*
X84212857Y-90396190D01*
G04 #@! TO.C,C1*
X92118666Y-80823571D02*
X92094857Y-80847380D01*
X92023428Y-80871190D01*
X91975809Y-80871190D01*
X91904380Y-80847380D01*
X91856761Y-80799761D01*
X91832952Y-80752142D01*
X91809142Y-80656904D01*
X91809142Y-80585476D01*
X91832952Y-80490238D01*
X91856761Y-80442619D01*
X91904380Y-80395000D01*
X91975809Y-80371190D01*
X92023428Y-80371190D01*
X92094857Y-80395000D01*
X92118666Y-80418809D01*
X92594857Y-80871190D02*
X92309142Y-80871190D01*
X92452000Y-80871190D02*
X92452000Y-80371190D01*
X92404380Y-80442619D01*
X92356761Y-80490238D01*
X92309142Y-80514047D01*
G04 #@! TD*
M02*
