M48
; DRILL file {KiCad (5.1.5)-3} date 3/09/2020 10:53:31 AM
; FORMAT={3:3/ absolute / metric / suppress leading zeros}
; #@! TF.CreationDate,2020-09-03T10:53:31+10:00
; #@! TF.GenerationSoftware,Kicad,Pcbnew,(5.1.5)-3
FMAT,2
METRIC,TZ
T1C0.203
T2C0.400
T3C0.500
T4C0.813
T5C0.950
T6C1.020
T7C2.300
T8C3.200
%
G90
G05
T1
X86495Y-101092
X86995Y-100467
X86995Y-101717
X87495Y-101092
T2
X76200Y-111252
X82208Y-101561
X82931Y-112014
X87122Y-89281
X87630Y-86360
X91694Y-105918
X92075Y-100076
X93638Y-111721
X105445Y-111601
X108966Y-71501
X109220Y-86487
X121031Y-71374
X125984Y-91059
X130937Y-76454
X133477Y-73914
X134239Y-87630
X135509Y-87630
X138008Y-102022
X138049Y-97155
X138557Y-104267
X138811Y-88646
X139192Y-103251
X140335Y-71501
X140335Y-80772
X140843Y-69850
X140970Y-73279
X141478Y-90805
X141478Y-92837
X141605Y-97155
X141619Y-99201
X142635Y-90791
X143651Y-66816
X143891Y-82296
X144018Y-73949
X145898Y-90957
X145898Y-106401
X147574Y-88392
X147803Y-73762
X148590Y-103632
X148844Y-83693
X148844Y-87884
X148844Y-92837
X148844Y-95758
X149251Y-71983
X150495Y-66675
X150622Y-75565
X150622Y-78486
X153543Y-86614
X153924Y-102489
X155486Y-92926
X155575Y-95377
X155613Y-108547
X155661Y-69383
X156083Y-83439
X156718Y-98806
X156955Y-92956
X156982Y-108575
X157099Y-75819
X157099Y-77851
X157861Y-66421
X158242Y-83820
X158242Y-92837
X158242Y-100203
X158242Y-108458
X158585Y-75654
X159893Y-100076
X159928Y-75565
X160020Y-67437
X160020Y-83947
X160020Y-89662
X160274Y-91948
X160655Y-107315
X161382Y-72609
X161671Y-68072
X161798Y-74676
X161798Y-105156
X163449Y-109728
X164211Y-101600
X164338Y-84836
X164592Y-93726
X165100Y-76962
X165848Y-96534
X165876Y-81294
X166243Y-68199
X166839Y-93941
X167767Y-64389
X168529Y-110109
X169037Y-77216
X169037Y-79883
X169161Y-103378
X169260Y-89820
X170815Y-70866
X175387Y-88773
X175565Y-104013
X176276Y-105664
X176911Y-85725
X177038Y-84455
X177165Y-99568
X177292Y-105918
X177292Y-70866
X177419Y-91948
X177419Y-100965
X178143Y-108547
X178181Y-93472
X178816Y-68326
X178943Y-67056
X179197Y-73279
X179197Y-109474
X179451Y-75692
X182499Y-78105
X183515Y-95377
X184531Y-110871
T3
X101600Y-87757
X126111Y-81534
X105283Y-91313
X125730Y-72644
X130048Y-82804
X121793Y-91948
X131826Y-86614
X119253Y-94615
X97282Y-81915
X127889Y-84201
X101346Y-85471
X103632Y-84201
X103886Y-88138
X129921Y-85471
X127889Y-73914
X125984Y-77851
X129921Y-80264
X99441Y-82677
T4
X80772Y-84582
X80772Y-86582
T5
X91313Y-69596
X91313Y-72096
X91313Y-74096
X91313Y-76596
T6
X181229Y-84328
X181229Y-86868
X183007Y-67056
X183007Y-69596
X181102Y-99441
X181102Y-101981
X131191Y-67691
X133731Y-67691
X136271Y-67691
X138811Y-67691
T7
X88603Y-66526
X88603Y-79666
T8
X189421Y-110046
X189421Y-66866
T0
M30
